<svg width="169" height="77" viewBox="0 0 169 77" fill="none" xmlns="http://www.w3.org/2000/svg">
<path d="M2.60784 18.126C2.37984 18.126 2.20584 18.066 2.08584 17.946C1.96584 17.814 1.90584 17.628 1.90584 17.388V5.94C1.90584 5.7 1.96584 5.514 2.08584 5.382C2.20584 5.25 2.36184 5.184 2.55384 5.184C2.74584 5.184 2.88384 5.22 2.96784 5.292C3.06384 5.352 3.17184 5.466 3.29184 5.634L11.1398 16.092H10.7078V5.904C10.7078 5.676 10.7678 5.502 10.8878 5.382C11.0078 5.25 11.1818 5.184 11.4098 5.184C11.6258 5.184 11.7878 5.25 11.8958 5.382C12.0158 5.502 12.0758 5.676 12.0758 5.904V17.406C12.0758 17.634 12.0218 17.814 11.9138 17.946C11.8178 18.066 11.6738 18.126 11.4818 18.126C11.3018 18.126 11.1578 18.09 11.0498 18.018C10.9418 17.946 10.8278 17.832 10.7078 17.676L2.87784 7.218H3.29184V17.388C3.29184 17.628 3.23184 17.814 3.11184 17.946C2.99184 18.066 2.82384 18.126 2.60784 18.126ZM18.9741 18.162C18.0501 18.162 17.2521 17.982 16.5801 17.622C15.9201 17.25 15.4041 16.728 15.0321 16.056C14.6721 15.384 14.4921 14.58 14.4921 13.644C14.4921 12.732 14.6721 11.94 15.0321 11.268C15.3921 10.584 15.8841 10.05 16.5081 9.666C17.1441 9.282 17.8761 9.09 18.7041 9.09C19.2921 9.09 19.8201 9.192 20.2881 9.396C20.7561 9.588 21.1521 9.87 21.4761 10.242C21.8121 10.614 22.0641 11.064 22.2321 11.592C22.4121 12.12 22.5021 12.714 22.5021 13.374C22.5021 13.566 22.4481 13.71 22.3401 13.806C22.2321 13.89 22.0761 13.932 21.8721 13.932H15.6081V12.978H21.5301L21.2421 13.212C21.2421 12.564 21.1461 12.018 20.9541 11.574C20.7621 11.118 20.4801 10.77 20.1081 10.53C19.7481 10.29 19.2921 10.17 18.7401 10.17C18.1281 10.17 17.6061 10.314 17.1741 10.602C16.7541 10.878 16.4361 11.268 16.2201 11.772C16.0041 12.264 15.8961 12.84 15.8961 13.5V13.608C15.8961 14.712 16.1601 15.552 16.6881 16.128C17.2281 16.704 17.9901 16.992 18.9741 16.992C19.3821 16.992 19.7841 16.938 20.1801 16.83C20.5881 16.722 20.9841 16.542 21.3681 16.29C21.5361 16.182 21.6861 16.134 21.8181 16.146C21.9621 16.146 22.0761 16.188 22.1601 16.272C22.2441 16.344 22.2981 16.44 22.3221 16.56C22.3581 16.668 22.3461 16.788 22.2861 16.92C22.2381 17.052 22.1361 17.166 21.9801 17.262C21.5841 17.55 21.1161 17.772 20.5761 17.928C20.0361 18.084 19.5021 18.162 18.9741 18.162ZM27.7081 18.162C27.0001 18.162 26.4121 18.036 25.9441 17.784C25.4881 17.52 25.1401 17.13 24.9001 16.614C24.6721 16.098 24.5581 15.456 24.5581 14.688V9.864C24.5581 9.612 24.6181 9.426 24.7381 9.306C24.8701 9.186 25.0501 9.126 25.2781 9.126C25.5181 9.126 25.6981 9.186 25.8181 9.306C25.9501 9.426 26.0161 9.612 26.0161 9.864V14.67C26.0161 15.438 26.1721 16.014 26.4841 16.398C26.8081 16.77 27.3121 16.956 27.9961 16.956C28.7401 16.956 29.3461 16.704 29.8141 16.2C30.2821 15.696 30.5161 15.036 30.5161 14.22V9.864C30.5161 9.612 30.5761 9.426 30.6961 9.306C30.8281 9.186 31.0141 9.126 31.2541 9.126C31.4821 9.126 31.6561 9.186 31.7761 9.306C31.9081 9.426 31.9741 9.612 31.9741 9.864V17.37C31.9741 17.874 31.7401 18.126 31.2721 18.126C31.0441 18.126 30.8641 18.06 30.7321 17.928C30.6121 17.796 30.5521 17.61 30.5521 17.37V15.732L30.7861 15.984C30.5461 16.692 30.1501 17.232 29.5981 17.604C29.0581 17.976 28.4281 18.162 27.7081 18.162ZM43.7706 18.162C42.9786 18.162 42.2946 17.958 41.7186 17.55C41.1546 17.142 40.7766 16.596 40.5846 15.912L40.7826 15.714V17.37C40.7826 17.61 40.7166 17.796 40.5846 17.928C40.4646 18.06 40.2906 18.126 40.0626 18.126C39.8226 18.126 39.6426 18.06 39.5226 17.928C39.4026 17.796 39.3426 17.61 39.3426 17.37V5.922C39.3426 5.682 39.4026 5.502 39.5226 5.382C39.6426 5.25 39.8226 5.184 40.0626 5.184C40.2906 5.184 40.4706 5.25 40.6026 5.382C40.7346 5.502 40.8006 5.682 40.8006 5.922V11.286H40.5846C40.7886 10.614 41.1726 10.08 41.7366 9.684C42.3006 9.288 42.9786 9.09 43.7706 9.09C44.5626 9.09 45.2466 9.276 45.8226 9.648C46.3986 10.008 46.8426 10.53 47.1546 11.214C47.4786 11.886 47.6406 12.69 47.6406 13.626C47.6406 14.55 47.4786 15.354 47.1546 16.038C46.8426 16.71 46.3926 17.232 45.8046 17.604C45.2286 17.976 44.5506 18.162 43.7706 18.162ZM43.4646 16.992C44.0166 16.992 44.4906 16.86 44.8866 16.596C45.2946 16.332 45.6066 15.948 45.8226 15.444C46.0506 14.94 46.1646 14.334 46.1646 13.626C46.1646 12.534 45.9186 11.7 45.4266 11.124C44.9466 10.548 44.2926 10.26 43.4646 10.26C42.9246 10.26 42.4506 10.392 42.0426 10.656C41.6346 10.908 41.3166 11.286 41.0886 11.79C40.8726 12.282 40.7646 12.894 40.7646 13.626C40.7646 14.706 41.0106 15.54 41.5026 16.128C41.9946 16.704 42.6486 16.992 43.4646 16.992ZM53.7788 18.162C52.8548 18.162 52.0568 17.982 51.3848 17.622C50.7248 17.25 50.2088 16.728 49.8368 16.056C49.4768 15.384 49.2968 14.58 49.2968 13.644C49.2968 12.732 49.4768 11.94 49.8368 11.268C50.1968 10.584 50.6888 10.05 51.3128 9.666C51.9488 9.282 52.6808 9.09 53.5088 9.09C54.0968 9.09 54.6248 9.192 55.0928 9.396C55.5608 9.588 55.9568 9.87 56.2808 10.242C56.6168 10.614 56.8688 11.064 57.0368 11.592C57.2168 12.12 57.3068 12.714 57.3068 13.374C57.3068 13.566 57.2528 13.71 57.1448 13.806C57.0368 13.89 56.8808 13.932 56.6768 13.932H50.4128V12.978H56.3348L56.0468 13.212C56.0468 12.564 55.9508 12.018 55.7588 11.574C55.5668 11.118 55.2848 10.77 54.9128 10.53C54.5528 10.29 54.0968 10.17 53.5448 10.17C52.9328 10.17 52.4108 10.314 51.9788 10.602C51.5588 10.878 51.2408 11.268 51.0248 11.772C50.8088 12.264 50.7008 12.84 50.7008 13.5V13.608C50.7008 14.712 50.9648 15.552 51.4928 16.128C52.0328 16.704 52.7948 16.992 53.7788 16.992C54.1868 16.992 54.5888 16.938 54.9848 16.83C55.3928 16.722 55.7888 16.542 56.1728 16.29C56.3408 16.182 56.4908 16.134 56.6228 16.146C56.7668 16.146 56.8808 16.188 56.9648 16.272C57.0488 16.344 57.1028 16.44 57.1268 16.56C57.1628 16.668 57.1508 16.788 57.0908 16.92C57.0428 17.052 56.9408 17.166 56.7848 17.262C56.3888 17.55 55.9208 17.772 55.3808 17.928C54.8408 18.084 54.3068 18.162 53.7788 18.162ZM60.1368 18.09C59.8968 18.09 59.7168 18.024 59.5968 17.892C59.4768 17.748 59.4168 17.55 59.4168 17.298V9.936C59.4168 9.684 59.4768 9.492 59.5968 9.36C59.7168 9.228 59.8968 9.162 60.1368 9.162C60.3648 9.162 60.5448 9.228 60.6768 9.36C60.8088 9.492 60.8748 9.684 60.8748 9.936V17.298C60.8748 17.55 60.8088 17.748 60.6768 17.892C60.5568 18.024 60.3768 18.09 60.1368 18.09ZM60.1368 7.146C59.8368 7.146 59.6028 7.068 59.4348 6.912C59.2668 6.744 59.1828 6.522 59.1828 6.246C59.1828 5.958 59.2668 5.742 59.4348 5.598C59.6028 5.442 59.8368 5.364 60.1368 5.364C60.4488 5.364 60.6828 5.442 60.8388 5.598C61.0068 5.742 61.0908 5.958 61.0908 6.246C61.0908 6.522 61.0068 6.744 60.8388 6.912C60.6828 7.068 60.4488 7.146 60.1368 7.146ZM69.249 18C68.985 18 68.781 17.934 68.637 17.802C68.505 17.658 68.439 17.454 68.439 17.19V6.12C68.439 5.856 68.505 5.658 68.637 5.526C68.781 5.382 68.985 5.31 69.249 5.31H72.723C74.775 5.31 76.359 5.85 77.475 6.93C78.591 8.01 79.149 9.582 79.149 11.646C79.149 12.678 79.005 13.59 78.717 14.382C78.441 15.162 78.027 15.822 77.475 16.362C76.923 16.902 76.251 17.31 75.459 17.586C74.667 17.862 73.755 18 72.723 18H69.249ZM69.915 16.74H72.615C73.455 16.74 74.181 16.632 74.793 16.416C75.417 16.2 75.933 15.882 76.341 15.462C76.761 15.042 77.073 14.514 77.277 13.878C77.481 13.23 77.583 12.486 77.583 11.646C77.583 9.954 77.169 8.688 76.341 7.848C75.513 6.996 74.271 6.57 72.615 6.57H69.915V16.74ZM81.3175 18.126C81.1255 18.126 80.9695 18.084 80.8495 18C80.7415 17.904 80.6755 17.784 80.6515 17.64C80.6395 17.484 80.6755 17.31 80.7595 17.118L85.7095 5.85C85.8175 5.61 85.9435 5.442 86.0875 5.346C86.2435 5.238 86.4115 5.184 86.5915 5.184C86.7715 5.184 86.9335 5.238 87.0775 5.346C87.2335 5.442 87.3595 5.61 87.4555 5.85L92.4235 17.118C92.5195 17.31 92.5555 17.484 92.5315 17.64C92.5195 17.796 92.4595 17.916 92.3515 18C92.2435 18.084 92.0935 18.126 91.9015 18.126C91.6855 18.126 91.5115 18.072 91.3795 17.964C91.2475 17.844 91.1395 17.676 91.0555 17.46L89.7235 14.382L90.4435 14.76H82.7035L83.4415 14.382L82.1275 17.46C82.0195 17.688 81.9055 17.856 81.7855 17.964C81.6655 18.072 81.5095 18.126 81.3175 18.126ZM86.5735 7.038L83.6755 13.86L83.2435 13.518H89.9035L89.5075 13.86L86.6095 7.038H86.5735ZM95.5108 18C95.2468 18 95.0428 17.934 94.8988 17.802C94.7668 17.658 94.7008 17.454 94.7008 17.19V6.12C94.7008 5.856 94.7668 5.658 94.8988 5.526C95.0428 5.382 95.2468 5.31 95.5108 5.31H99.7768C100.653 5.31 101.391 5.442 101.991 5.706C102.603 5.958 103.071 6.33 103.395 6.822C103.719 7.314 103.881 7.914 103.881 8.622C103.881 9.414 103.647 10.074 103.179 10.602C102.723 11.13 102.099 11.478 101.307 11.646V11.394C102.207 11.502 102.909 11.826 103.413 12.366C103.929 12.906 104.187 13.62 104.187 14.508C104.187 15.636 103.821 16.5 103.089 17.1C102.357 17.7 101.325 18 99.9928 18H95.5108ZM96.1408 16.812H99.8488C100.809 16.812 101.529 16.62 102.009 16.236C102.489 15.852 102.729 15.27 102.729 14.49C102.729 13.698 102.489 13.116 102.009 12.744C101.529 12.36 100.809 12.168 99.8488 12.168H96.1408V16.812ZM96.1408 10.98H99.5608C100.497 10.98 101.205 10.788 101.685 10.404C102.177 10.02 102.423 9.468 102.423 8.748C102.423 8.004 102.177 7.446 101.685 7.074C101.205 6.69 100.497 6.498 99.5608 6.498H96.1408V10.98ZM109.763 18.162C109.055 18.162 108.467 18.036 107.999 17.784C107.543 17.52 107.195 17.13 106.955 16.614C106.727 16.098 106.613 15.456 106.613 14.688V9.864C106.613 9.612 106.673 9.426 106.793 9.306C106.925 9.186 107.105 9.126 107.333 9.126C107.573 9.126 107.753 9.186 107.873 9.306C108.005 9.426 108.071 9.612 108.071 9.864V14.67C108.071 15.438 108.227 16.014 108.539 16.398C108.863 16.77 109.367 16.956 110.051 16.956C110.795 16.956 111.401 16.704 111.869 16.2C112.337 15.696 112.571 15.036 112.571 14.22V9.864C112.571 9.612 112.631 9.426 112.751 9.306C112.883 9.186 113.069 9.126 113.309 9.126C113.537 9.126 113.711 9.186 113.831 9.306C113.963 9.426 114.029 9.612 114.029 9.864V17.37C114.029 17.874 113.795 18.126 113.327 18.126C113.099 18.126 112.919 18.06 112.787 17.928C112.667 17.796 112.607 17.61 112.607 17.37V15.732L112.841 15.984C112.601 16.692 112.205 17.232 111.653 17.604C111.113 17.976 110.483 18.162 109.763 18.162ZM121.185 18.162C120.393 18.162 119.709 17.958 119.133 17.55C118.569 17.142 118.191 16.596 117.999 15.912L118.197 15.714V17.37C118.197 17.61 118.131 17.796 117.999 17.928C117.879 18.06 117.705 18.126 117.477 18.126C117.237 18.126 117.057 18.06 116.937 17.928C116.817 17.796 116.757 17.61 116.757 17.37V5.922C116.757 5.682 116.817 5.502 116.937 5.382C117.057 5.25 117.237 5.184 117.477 5.184C117.705 5.184 117.885 5.25 118.017 5.382C118.149 5.502 118.215 5.682 118.215 5.922V11.286H117.999C118.203 10.614 118.587 10.08 119.151 9.684C119.715 9.288 120.393 9.09 121.185 9.09C121.977 9.09 122.661 9.276 123.237 9.648C123.813 10.008 124.257 10.53 124.569 11.214C124.893 11.886 125.055 12.69 125.055 13.626C125.055 14.55 124.893 15.354 124.569 16.038C124.257 16.71 123.807 17.232 123.219 17.604C122.643 17.976 121.965 18.162 121.185 18.162ZM120.879 16.992C121.431 16.992 121.905 16.86 122.301 16.596C122.709 16.332 123.021 15.948 123.237 15.444C123.465 14.94 123.579 14.334 123.579 13.626C123.579 12.534 123.333 11.7 122.841 11.124C122.361 10.548 121.707 10.26 120.879 10.26C120.339 10.26 119.865 10.392 119.457 10.656C119.049 10.908 118.731 11.286 118.503 11.79C118.287 12.282 118.179 12.894 118.179 13.626C118.179 14.706 118.425 15.54 118.917 16.128C119.409 16.704 120.063 16.992 120.879 16.992ZM131.679 18.162C130.887 18.162 130.203 17.958 129.627 17.55C129.063 17.142 128.685 16.596 128.493 15.912L128.691 15.714V17.37C128.691 17.61 128.625 17.796 128.493 17.928C128.373 18.06 128.199 18.126 127.971 18.126C127.731 18.126 127.551 18.06 127.431 17.928C127.311 17.796 127.251 17.61 127.251 17.37V5.922C127.251 5.682 127.311 5.502 127.431 5.382C127.551 5.25 127.731 5.184 127.971 5.184C128.199 5.184 128.379 5.25 128.511 5.382C128.643 5.502 128.709 5.682 128.709 5.922V11.286H128.493C128.697 10.614 129.081 10.08 129.645 9.684C130.209 9.288 130.887 9.09 131.679 9.09C132.471 9.09 133.155 9.276 133.731 9.648C134.307 10.008 134.751 10.53 135.063 11.214C135.387 11.886 135.549 12.69 135.549 13.626C135.549 14.55 135.387 15.354 135.063 16.038C134.751 16.71 134.301 17.232 133.713 17.604C133.137 17.976 132.459 18.162 131.679 18.162ZM131.373 16.992C131.925 16.992 132.399 16.86 132.795 16.596C133.203 16.332 133.515 15.948 133.731 15.444C133.959 14.94 134.073 14.334 134.073 13.626C134.073 12.534 133.827 11.7 133.335 11.124C132.855 10.548 132.201 10.26 131.373 10.26C130.833 10.26 130.359 10.392 129.951 10.656C129.543 10.908 129.225 11.286 128.997 11.79C128.781 12.282 128.673 12.894 128.673 13.626C128.673 14.706 128.919 15.54 129.411 16.128C129.903 16.704 130.557 16.992 131.373 16.992ZM140.409 18.162C139.545 18.162 138.885 17.898 138.429 17.37C137.973 16.842 137.745 16.086 137.745 15.102V5.922C137.745 5.682 137.805 5.502 137.925 5.382C138.045 5.25 138.225 5.184 138.465 5.184C138.693 5.184 138.873 5.25 139.005 5.382C139.137 5.502 139.203 5.682 139.203 5.922V14.994C139.203 15.642 139.329 16.128 139.581 16.452C139.845 16.764 140.229 16.92 140.733 16.92C140.841 16.92 140.937 16.914 141.021 16.902C141.105 16.89 141.189 16.884 141.273 16.884C141.405 16.872 141.495 16.902 141.543 16.974C141.603 17.046 141.633 17.19 141.633 17.406C141.633 17.622 141.585 17.784 141.489 17.892C141.393 18 141.237 18.072 141.021 18.108C140.925 18.12 140.823 18.132 140.715 18.144C140.607 18.156 140.505 18.162 140.409 18.162ZM146.925 18.162C146.001 18.162 145.203 17.982 144.531 17.622C143.871 17.25 143.355 16.728 142.983 16.056C142.623 15.384 142.443 14.58 142.443 13.644C142.443 12.732 142.623 11.94 142.983 11.268C143.343 10.584 143.835 10.05 144.459 9.666C145.095 9.282 145.827 9.09 146.655 9.09C147.243 9.09 147.771 9.192 148.239 9.396C148.707 9.588 149.103 9.87 149.427 10.242C149.763 10.614 150.015 11.064 150.183 11.592C150.363 12.12 150.453 12.714 150.453 13.374C150.453 13.566 150.399 13.71 150.291 13.806C150.183 13.89 150.027 13.932 149.823 13.932H143.559V12.978H149.481L149.193 13.212C149.193 12.564 149.097 12.018 148.905 11.574C148.713 11.118 148.431 10.77 148.059 10.53C147.699 10.29 147.243 10.17 146.691 10.17C146.079 10.17 145.557 10.314 145.125 10.602C144.705 10.878 144.387 11.268 144.171 11.772C143.955 12.264 143.847 12.84 143.847 13.5V13.608C143.847 14.712 144.111 15.552 144.639 16.128C145.179 16.704 145.941 16.992 146.925 16.992C147.333 16.992 147.735 16.938 148.131 16.83C148.539 16.722 148.935 16.542 149.319 16.29C149.487 16.182 149.637 16.134 149.769 16.146C149.913 16.146 150.027 16.188 150.111 16.272C150.195 16.344 150.249 16.44 150.273 16.56C150.309 16.668 150.297 16.788 150.237 16.92C150.189 17.052 150.087 17.166 149.931 17.262C149.535 17.55 149.067 17.772 148.527 17.928C147.987 18.084 147.453 18.162 146.925 18.162ZM154.782 14.76C154.626 14.76 154.506 14.712 154.422 14.616C154.338 14.508 154.296 14.364 154.296 14.184C154.296 13.764 154.344 13.374 154.44 13.014C154.548 12.642 154.71 12.264 154.926 11.88C155.154 11.496 155.46 11.082 155.844 10.638C156.144 10.278 156.384 9.96 156.564 9.684C156.744 9.408 156.87 9.144 156.942 8.892C157.026 8.628 157.068 8.364 157.068 8.1C157.068 7.596 156.888 7.2 156.528 6.912C156.168 6.612 155.67 6.462 155.034 6.462C154.482 6.462 153.972 6.546 153.504 6.714C153.048 6.87 152.604 7.11 152.172 7.434C151.992 7.554 151.824 7.614 151.668 7.614C151.524 7.614 151.404 7.572 151.308 7.488C151.212 7.404 151.146 7.296 151.11 7.164C151.086 7.032 151.104 6.894 151.164 6.75C151.236 6.606 151.356 6.474 151.524 6.354C151.992 5.982 152.544 5.688 153.18 5.472C153.816 5.256 154.458 5.148 155.106 5.148C155.79 5.148 156.39 5.268 156.906 5.508C157.434 5.736 157.842 6.066 158.13 6.498C158.418 6.918 158.562 7.416 158.562 7.992C158.562 8.364 158.508 8.724 158.4 9.072C158.292 9.408 158.118 9.75 157.878 10.098C157.65 10.446 157.326 10.842 156.906 11.286C156.534 11.67 156.234 12.03 156.006 12.366C155.778 12.69 155.604 13.008 155.484 13.32C155.376 13.62 155.304 13.938 155.268 14.274C155.256 14.418 155.208 14.538 155.124 14.634C155.04 14.718 154.926 14.76 154.782 14.76ZM154.764 18.072C154.464 18.072 154.218 17.982 154.026 17.802C153.846 17.61 153.756 17.37 153.756 17.082C153.756 16.794 153.846 16.56 154.026 16.38C154.218 16.188 154.464 16.092 154.764 16.092C155.064 16.092 155.298 16.188 155.466 16.38C155.646 16.56 155.736 16.794 155.736 17.082C155.736 17.37 155.646 17.61 155.466 17.802C155.298 17.982 155.064 18.072 154.764 18.072Z" fill="black"/>
<path d="M33.736 57.68L33.106 56.294L39.73 49.4H41.638L33.736 57.68ZM32.674 62V49.4H34.132V62H32.674ZM40.018 62L34.852 55.592L35.842 54.62L41.872 62H40.018ZM47.1377 62.216C46.2617 62.216 45.4817 62.018 44.7977 61.622C44.1137 61.214 43.5797 60.656 43.1957 59.948C42.8117 59.24 42.6197 58.424 42.6197 57.5C42.6197 56.576 42.8057 55.76 43.1777 55.052C43.5617 54.344 44.0957 53.792 44.7797 53.396C45.4637 52.988 46.2377 52.784 47.1017 52.784C47.9897 52.784 48.7697 52.988 49.4417 53.396C50.1257 53.792 50.6537 54.344 51.0257 55.052C51.4097 55.76 51.6017 56.576 51.6017 57.5C51.6017 58.424 51.4097 59.24 51.0257 59.948C50.6537 60.656 50.1317 61.214 49.4597 61.622C48.7877 62.018 48.0137 62.216 47.1377 62.216ZM47.1377 60.848C47.7257 60.848 48.2417 60.71 48.6857 60.434C49.1297 60.146 49.4777 59.75 49.7297 59.246C49.9817 58.742 50.1077 58.16 50.1077 57.5C50.1077 56.84 49.9757 56.258 49.7117 55.754C49.4597 55.25 49.1057 54.86 48.6497 54.584C48.2057 54.296 47.6897 54.152 47.1017 54.152C46.5137 54.152 45.9977 54.296 45.5537 54.584C45.1097 54.86 44.7557 55.25 44.4917 55.754C44.2397 56.258 44.1137 56.84 44.1137 57.5C44.1137 58.16 44.2397 58.742 44.4917 59.246C44.7557 59.75 45.1157 60.146 45.5717 60.434C46.0277 60.71 46.5497 60.848 47.1377 60.848ZM53.635 62V53H54.985L55.075 54.656V62H53.635ZM59.953 62V57.392L61.393 56.852V62H59.953ZM59.953 57.392C59.953 56.504 59.851 55.826 59.647 55.358C59.443 54.89 59.161 54.572 58.801 54.404C58.441 54.224 58.033 54.134 57.577 54.134C56.785 54.134 56.167 54.416 55.723 54.98C55.291 55.532 55.075 56.318 55.075 57.338H54.373C54.373 56.39 54.511 55.574 54.787 54.89C55.063 54.206 55.459 53.684 55.975 53.324C56.503 52.964 57.139 52.784 57.883 52.784C58.975 52.784 59.833 53.12 60.457 53.792C61.093 54.464 61.405 55.484 61.393 56.852L59.953 57.392ZM67.2361 62.216C66.3601 62.216 65.6821 61.988 65.2021 61.532C64.7221 61.076 64.4821 60.434 64.4821 59.606V50.192H65.9221V59.462C65.9221 59.918 66.0421 60.272 66.2821 60.524C66.5341 60.764 66.8821 60.884 67.3261 60.884C67.4701 60.884 67.6081 60.866 67.7401 60.83C67.8841 60.782 68.0701 60.674 68.2981 60.506L68.8561 61.676C68.5441 61.88 68.2621 62.018 68.0101 62.09C67.7581 62.174 67.5001 62.216 67.2361 62.216ZM62.9161 54.278V53H68.6221V54.278H62.9161ZM74.6299 62.216C73.7539 62.216 72.9739 62.018 72.2899 61.622C71.6059 61.214 71.0719 60.656 70.6879 59.948C70.3039 59.24 70.1119 58.424 70.1119 57.5C70.1119 56.576 70.2979 55.76 70.6699 55.052C71.0539 54.344 71.5879 53.792 72.2719 53.396C72.9559 52.988 73.7299 52.784 74.5939 52.784C75.4819 52.784 76.2619 52.988 76.9339 53.396C77.6179 53.792 78.1459 54.344 78.5179 55.052C78.9019 55.76 79.0939 56.576 79.0939 57.5C79.0939 58.424 78.9019 59.24 78.5179 59.948C78.1459 60.656 77.6239 61.214 76.9519 61.622C76.2799 62.018 75.5059 62.216 74.6299 62.216ZM74.6299 60.848C75.2179 60.848 75.7339 60.71 76.1779 60.434C76.6219 60.146 76.9699 59.75 77.2219 59.246C77.4739 58.742 77.5999 58.16 77.5999 57.5C77.5999 56.84 77.4679 56.258 77.2039 55.754C76.9519 55.25 76.5979 54.86 76.1419 54.584C75.6979 54.296 75.1819 54.152 74.5939 54.152C74.0059 54.152 73.4899 54.296 73.0459 54.584C72.6019 54.86 72.2479 55.25 71.9839 55.754C71.7319 56.258 71.6059 56.84 71.6059 57.5C71.6059 58.16 71.7319 58.742 71.9839 59.246C72.2479 59.75 72.6079 60.146 73.0639 60.434C73.5199 60.71 74.0419 60.848 74.6299 60.848ZM89.5525 62.216C88.6765 62.216 87.9025 62.018 87.2305 61.622C86.5705 61.214 86.0485 60.656 85.6645 59.948C85.2805 59.24 85.0885 58.424 85.0885 57.5C85.0885 56.576 85.2745 55.76 85.6465 55.052C86.0305 54.344 86.5585 53.792 87.2305 53.396C87.9025 52.988 88.6645 52.784 89.5165 52.784C90.3565 52.784 91.0825 52.994 91.6945 53.414C92.3065 53.822 92.7805 54.398 93.1165 55.142C93.4525 55.886 93.6205 56.762 93.6205 57.77H92.1805C92.1805 57.002 92.0785 56.348 91.8745 55.808C91.6705 55.256 91.3705 54.83 90.9745 54.53C90.5785 54.23 90.0865 54.08 89.4985 54.08C88.9105 54.08 88.3945 54.224 87.9505 54.512C87.5185 54.788 87.1825 55.184 86.9425 55.7C86.7025 56.216 86.5825 56.822 86.5825 57.518C86.5825 58.202 86.7145 58.796 86.9785 59.3C87.2425 59.792 87.6025 60.182 88.0585 60.47C88.5145 60.746 89.0365 60.884 89.6245 60.884C90.2605 60.884 90.7945 60.734 91.2265 60.434C91.6585 60.134 91.9945 59.744 92.2345 59.264L93.5125 59.894C93.2725 60.362 92.9605 60.77 92.5765 61.118C92.2045 61.466 91.7665 61.736 91.2625 61.928C90.7585 62.12 90.1885 62.216 89.5525 62.216ZM86.0605 57.77V56.528H92.7385V57.77H86.0605ZM96.2805 57.122C96.2805 56.15 96.4665 55.364 96.8385 54.764C97.2105 54.152 97.6845 53.702 98.2605 53.414C98.8485 53.114 99.4665 52.964 100.115 52.964V54.314C99.5865 54.314 99.0765 54.404 98.5845 54.584C98.1045 54.752 97.7085 55.034 97.3965 55.43C97.0845 55.826 96.9285 56.366 96.9285 57.05L96.2805 57.122ZM95.4885 62V53H96.9285V62H95.4885ZM104.721 62.216C104.061 62.216 103.485 62.12 102.993 61.928C102.501 61.724 102.087 61.46 101.751 61.136C101.427 60.812 101.193 60.458 101.049 60.074L102.309 59.552C102.513 59.948 102.819 60.272 103.227 60.524C103.635 60.776 104.085 60.902 104.577 60.902C105.141 60.902 105.609 60.794 105.981 60.578C106.365 60.35 106.557 60.038 106.557 59.642C106.557 59.27 106.413 58.97 106.125 58.742C105.849 58.514 105.441 58.328 104.901 58.184L104.037 57.95C103.221 57.734 102.585 57.41 102.129 56.978C101.673 56.534 101.445 56.036 101.445 55.484C101.445 54.632 101.721 53.972 102.273 53.504C102.837 53.024 103.671 52.784 104.775 52.784C105.303 52.784 105.783 52.862 106.215 53.018C106.647 53.174 107.019 53.396 107.331 53.684C107.643 53.96 107.871 54.29 108.015 54.674L106.755 55.232C106.599 54.824 106.341 54.536 105.981 54.368C105.621 54.188 105.183 54.098 104.667 54.098C104.115 54.098 103.683 54.212 103.371 54.44C103.059 54.668 102.903 54.992 102.903 55.412C102.903 55.652 103.029 55.88 103.281 56.096C103.545 56.3 103.929 56.468 104.433 56.6L105.333 56.834C105.921 56.978 106.413 57.194 106.809 57.482C107.205 57.758 107.505 58.076 107.709 58.436C107.913 58.796 108.015 59.18 108.015 59.588C108.015 60.128 107.871 60.596 107.583 60.992C107.295 61.388 106.905 61.694 106.413 61.91C105.921 62.114 105.357 62.216 104.721 62.216ZM113.519 62.216C112.643 62.216 111.965 61.988 111.485 61.532C111.005 61.076 110.765 60.434 110.765 59.606V50.192H112.205V59.462C112.205 59.918 112.325 60.272 112.565 60.524C112.817 60.764 113.165 60.884 113.609 60.884C113.753 60.884 113.891 60.866 114.023 60.83C114.167 60.782 114.353 60.674 114.581 60.506L115.139 61.676C114.827 61.88 114.545 62.018 114.293 62.09C114.041 62.174 113.783 62.216 113.519 62.216ZM109.199 54.278V53H114.905V54.278H109.199ZM120.859 62.216C119.983 62.216 119.209 62.018 118.537 61.622C117.877 61.214 117.355 60.656 116.971 59.948C116.587 59.24 116.395 58.424 116.395 57.5C116.395 56.576 116.581 55.76 116.953 55.052C117.337 54.344 117.865 53.792 118.537 53.396C119.209 52.988 119.971 52.784 120.823 52.784C121.663 52.784 122.389 52.994 123.001 53.414C123.613 53.822 124.087 54.398 124.423 55.142C124.759 55.886 124.927 56.762 124.927 57.77H123.487C123.487 57.002 123.385 56.348 123.181 55.808C122.977 55.256 122.677 54.83 122.281 54.53C121.885 54.23 121.393 54.08 120.805 54.08C120.217 54.08 119.701 54.224 119.257 54.512C118.825 54.788 118.489 55.184 118.249 55.7C118.009 56.216 117.889 56.822 117.889 57.518C117.889 58.202 118.021 58.796 118.285 59.3C118.549 59.792 118.909 60.182 119.365 60.47C119.821 60.746 120.343 60.884 120.931 60.884C121.567 60.884 122.101 60.734 122.533 60.434C122.965 60.134 123.301 59.744 123.541 59.264L124.819 59.894C124.579 60.362 124.267 60.77 123.883 61.118C123.511 61.466 123.073 61.736 122.569 61.928C122.065 62.12 121.495 62.216 120.859 62.216ZM117.367 57.77V56.528H124.045V57.77H117.367ZM126.795 62L126.831 49.4H128.271L128.235 62H126.795ZM130.785 62L130.821 49.4H132.261L132.225 62H130.785ZM138.754 62.216C137.878 62.216 137.104 62.018 136.432 61.622C135.772 61.214 135.25 60.656 134.866 59.948C134.482 59.24 134.29 58.424 134.29 57.5C134.29 56.576 134.476 55.76 134.848 55.052C135.232 54.344 135.76 53.792 136.432 53.396C137.104 52.988 137.866 52.784 138.718 52.784C139.558 52.784 140.284 52.994 140.896 53.414C141.508 53.822 141.982 54.398 142.318 55.142C142.654 55.886 142.822 56.762 142.822 57.77H141.382C141.382 57.002 141.28 56.348 141.076 55.808C140.872 55.256 140.572 54.83 140.176 54.53C139.78 54.23 139.288 54.08 138.7 54.08C138.112 54.08 137.596 54.224 137.152 54.512C136.72 54.788 136.384 55.184 136.144 55.7C135.904 56.216 135.784 56.822 135.784 57.518C135.784 58.202 135.916 58.796 136.18 59.3C136.444 59.792 136.804 60.182 137.26 60.47C137.716 60.746 138.238 60.884 138.826 60.884C139.462 60.884 139.996 60.734 140.428 60.434C140.86 60.134 141.196 59.744 141.436 59.264L142.714 59.894C142.474 60.362 142.162 60.77 141.778 61.118C141.406 61.466 140.968 61.736 140.464 61.928C139.96 62.12 139.39 62.216 138.754 62.216ZM135.262 57.77V56.528H141.94V57.77H135.262ZM144.69 62V53H146.04L146.13 54.656V62H144.69ZM151.008 62V57.392L152.448 56.852V62H151.008ZM151.008 57.392C151.008 56.504 150.906 55.826 150.702 55.358C150.498 54.89 150.216 54.572 149.856 54.404C149.496 54.224 149.088 54.134 148.632 54.134C147.84 54.134 147.222 54.416 146.778 54.98C146.346 55.532 146.13 56.318 146.13 57.338H145.428C145.428 56.39 145.566 55.574 145.842 54.89C146.118 54.206 146.514 53.684 147.03 53.324C147.558 52.964 148.194 52.784 148.938 52.784C150.03 52.784 150.888 53.12 151.512 53.792C152.148 54.464 152.46 55.484 152.448 56.852L151.008 57.392Z" fill="#797EF3"/>
</svg>
