<svg width="472" height="167" viewBox="0 0 472 167" fill="none" xmlns="http://www.w3.org/2000/svg">
<path d="M139.592 33.256C138.93 33.256 138.408 33.0747 138.024 32.712C137.661 32.328 137.48 31.784 137.48 31.08V12.616C137.48 11.912 137.661 11.3787 138.024 11.016C138.408 10.632 138.952 10.44 139.656 10.44H150.824C151.378 10.44 151.794 10.5787 152.072 10.856C152.349 11.1333 152.488 11.528 152.488 12.04C152.488 12.5733 152.349 12.9893 152.072 13.288C151.794 13.5653 151.378 13.704 150.824 13.704H141.576V20.072H150.152C150.685 20.072 151.09 20.2107 151.368 20.488C151.666 20.7653 151.816 21.16 151.816 21.672C151.816 22.2053 151.666 22.6213 151.368 22.92C151.09 23.1973 150.685 23.336 150.152 23.336H141.576V31.08C141.576 32.5307 140.914 33.256 139.592 33.256ZM156.8 33.256C156.139 33.256 155.627 33.0853 155.264 32.744C154.923 32.3813 154.752 31.8693 154.752 31.208V19.112C154.752 18.4507 154.923 17.9493 155.264 17.608C155.605 17.2667 156.085 17.096 156.704 17.096C157.323 17.096 157.803 17.2667 158.144 17.608C158.485 17.9493 158.656 18.4507 158.656 19.112V21.128H158.336C158.635 19.848 159.221 18.8773 160.096 18.216C160.971 17.5547 162.133 17.16 163.584 17.032C164.032 16.9893 164.384 17.1067 164.64 17.384C164.917 17.64 165.077 18.0453 165.12 18.6C165.163 19.1333 165.035 19.5707 164.736 19.912C164.459 20.232 164.032 20.424 163.456 20.488L162.752 20.552C161.451 20.68 160.469 21.0853 159.808 21.768C159.147 22.4293 158.816 23.368 158.816 24.584V31.208C158.816 31.8693 158.645 32.3813 158.304 32.744C157.963 33.0853 157.461 33.256 156.8 33.256ZM174.745 33.32C172.974 33.32 171.449 32.9893 170.169 32.328C168.889 31.6667 167.897 30.728 167.193 29.512C166.51 28.296 166.169 26.856 166.169 25.192C166.169 23.5707 166.5 22.152 167.161 20.936C167.844 19.72 168.772 18.7707 169.945 18.088C171.14 17.384 172.494 17.032 174.009 17.032C175.118 17.032 176.11 17.2133 176.985 17.576C177.881 17.9387 178.638 18.4613 179.257 19.144C179.897 19.8267 180.377 20.6587 180.697 21.64C181.038 22.6 181.209 23.688 181.209 24.904C181.209 25.288 181.07 25.5867 180.793 25.8C180.537 25.992 180.164 26.088 179.673 26.088H169.401V23.784H178.393L177.881 24.264C177.881 23.2827 177.732 22.4613 177.433 21.8C177.156 21.1387 176.74 20.6373 176.185 20.296C175.652 19.9333 174.98 19.752 174.169 19.752C173.273 19.752 172.505 19.9653 171.865 20.392C171.246 20.7973 170.766 21.384 170.425 22.152C170.105 22.8987 169.945 23.7947 169.945 24.84V25.064C169.945 26.8133 170.35 28.1253 171.161 29C171.993 29.8533 173.209 30.28 174.809 30.28C175.364 30.28 175.982 30.216 176.665 30.088C177.369 29.9387 178.03 29.6933 178.649 29.352C179.097 29.096 179.492 28.9893 179.833 29.032C180.174 29.0533 180.441 29.1707 180.633 29.384C180.846 29.5973 180.974 29.864 181.017 30.184C181.06 30.4827 180.996 30.792 180.825 31.112C180.676 31.432 180.409 31.7093 180.025 31.944C179.278 32.4133 178.414 32.7653 177.433 33C176.473 33.2133 175.577 33.32 174.745 33.32ZM190.393 33.32C189.028 33.32 187.822 32.9893 186.777 32.328C185.753 31.6667 184.953 30.728 184.377 29.512C183.801 28.2747 183.513 26.824 183.513 25.16C183.513 23.4747 183.801 22.0347 184.377 20.84C184.953 19.624 185.753 18.6853 186.777 18.024C187.822 17.3627 189.028 17.032 190.393 17.032C191.694 17.032 192.825 17.352 193.785 17.992C194.766 18.632 195.428 19.4747 195.769 20.52H195.417V12.2C195.417 11.5387 195.588 11.0373 195.929 10.696C196.27 10.3547 196.761 10.184 197.401 10.184C198.041 10.184 198.532 10.3547 198.873 10.696C199.236 11.0373 199.417 11.5387 199.417 12.2V31.208C199.417 31.8693 199.246 32.3813 198.905 32.744C198.564 33.0853 198.073 33.256 197.433 33.256C196.793 33.256 196.302 33.0853 195.961 32.744C195.62 32.3813 195.449 31.8693 195.449 31.208V28.712L195.801 29.672C195.481 30.7813 194.83 31.6667 193.849 32.328C192.868 32.9893 191.716 33.32 190.393 33.32ZM191.513 30.28C192.302 30.28 192.996 30.088 193.593 29.704C194.19 29.32 194.649 28.7547 194.969 28.008C195.31 27.24 195.481 26.2907 195.481 25.16C195.481 23.4533 195.118 22.184 194.393 21.352C193.668 20.4987 192.708 20.072 191.513 20.072C190.724 20.072 190.03 20.264 189.433 20.648C188.836 21.0107 188.366 21.576 188.025 22.344C187.705 23.0907 187.545 24.0293 187.545 25.16C187.545 26.8453 187.908 28.1253 188.633 29C189.358 29.8533 190.318 30.28 191.513 30.28ZM211.276 33.32C209.506 33.32 207.98 32.9893 206.7 32.328C205.42 31.6667 204.428 30.728 203.724 29.512C203.042 28.296 202.7 26.856 202.7 25.192C202.7 23.5707 203.031 22.152 203.692 20.936C204.375 19.72 205.303 18.7707 206.476 18.088C207.671 17.384 209.026 17.032 210.54 17.032C211.65 17.032 212.642 17.2133 213.516 17.576C214.412 17.9387 215.17 18.4613 215.788 19.144C216.428 19.8267 216.908 20.6587 217.228 21.64C217.57 22.6 217.74 23.688 217.74 24.904C217.74 25.288 217.602 25.5867 217.324 25.8C217.068 25.992 216.695 26.088 216.204 26.088H205.932V23.784H214.924L214.412 24.264C214.412 23.2827 214.263 22.4613 213.964 21.8C213.687 21.1387 213.271 20.6373 212.716 20.296C212.183 19.9333 211.511 19.752 210.7 19.752C209.804 19.752 209.036 19.9653 208.396 20.392C207.778 20.7973 207.298 21.384 206.956 22.152C206.636 22.8987 206.476 23.7947 206.476 24.84V25.064C206.476 26.8133 206.882 28.1253 207.692 29C208.524 29.8533 209.74 30.28 211.34 30.28C211.895 30.28 212.514 30.216 213.196 30.088C213.9 29.9387 214.562 29.6933 215.18 29.352C215.628 29.096 216.023 28.9893 216.364 29.032C216.706 29.0533 216.972 29.1707 217.164 29.384C217.378 29.5973 217.506 29.864 217.548 30.184C217.591 30.4827 217.527 30.792 217.356 31.112C217.207 31.432 216.94 31.7093 216.556 31.944C215.81 32.4133 214.946 32.7653 213.964 33C213.004 33.2133 212.108 33.32 211.276 33.32ZM222.956 33.256C222.295 33.256 221.783 33.0853 221.42 32.744C221.079 32.3813 220.908 31.8693 220.908 31.208V19.112C220.908 18.4507 221.079 17.9493 221.42 17.608C221.761 17.2667 222.241 17.096 222.86 17.096C223.479 17.096 223.959 17.2667 224.3 17.608C224.641 17.9493 224.812 18.4507 224.812 19.112V21.128H224.492C224.791 19.848 225.377 18.8773 226.252 18.216C227.127 17.5547 228.289 17.16 229.74 17.032C230.188 16.9893 230.54 17.1067 230.796 17.384C231.073 17.64 231.233 18.0453 231.276 18.6C231.319 19.1333 231.191 19.5707 230.892 19.912C230.615 20.232 230.188 20.424 229.612 20.488L228.908 20.552C227.607 20.68 226.625 21.0853 225.964 21.768C225.303 22.4293 224.972 23.368 224.972 24.584V31.208C224.972 31.8693 224.801 32.3813 224.46 32.744C224.119 33.0853 223.617 33.256 222.956 33.256ZM235.423 33.224C234.783 33.224 234.293 33.032 233.951 32.648C233.61 32.264 233.439 31.7307 233.439 31.048V19.304C233.439 18.6 233.61 18.0667 233.951 17.704C234.293 17.32 234.783 17.128 235.423 17.128C236.063 17.128 236.554 17.32 236.895 17.704C237.258 18.0667 237.439 18.6 237.439 19.304V31.048C237.439 31.7307 237.269 32.264 236.927 32.648C236.586 33.032 236.085 33.224 235.423 33.224ZM235.423 14.152C234.677 14.152 234.09 13.9707 233.663 13.608C233.258 13.224 233.055 12.7013 233.055 12.04C233.055 11.3573 233.258 10.8347 233.663 10.472C234.09 10.1093 234.677 9.928 235.423 9.928C236.191 9.928 236.778 10.1093 237.183 10.472C237.589 10.8347 237.791 11.3573 237.791 12.04C237.791 12.7013 237.589 13.224 237.183 13.608C236.778 13.9707 236.191 14.152 235.423 14.152ZM243.58 33.256C242.94 33.256 242.449 33.0853 242.108 32.744C241.766 32.3813 241.596 31.8693 241.596 31.208V12.2C241.596 11.5387 241.766 11.0373 242.108 10.696C242.449 10.3547 242.94 10.184 243.58 10.184C244.22 10.184 244.71 10.3547 245.052 10.696C245.414 11.0373 245.596 11.5387 245.596 12.2V24.008H245.66L250.94 18.44C251.366 18.0133 251.74 17.6827 252.06 17.448C252.38 17.2133 252.817 17.096 253.372 17.096C253.926 17.096 254.342 17.2453 254.62 17.544C254.918 17.8213 255.068 18.1627 255.068 18.568C255.068 18.9733 254.876 19.3787 254.492 19.784L248.924 25.672V24.008L255.036 30.6C255.42 31.0053 255.59 31.4213 255.548 31.848C255.526 32.2533 255.356 32.5947 255.036 32.872C254.716 33.128 254.31 33.256 253.82 33.256C253.222 33.256 252.742 33.1387 252.38 32.904C252.038 32.6693 251.654 32.3173 251.228 31.848L245.66 26.024H245.596V31.208C245.596 32.5733 244.924 33.256 243.58 33.256ZM269.999 33C269.295 33 268.751 32.8187 268.367 32.456C268.005 32.072 267.823 31.528 267.823 30.824V12.616C267.823 11.912 268.005 11.3787 268.367 11.016C268.751 10.632 269.295 10.44 269.999 10.44H277.679C279.258 10.44 280.602 10.6747 281.711 11.144C282.821 11.6133 283.663 12.2853 284.239 13.16C284.837 14.0347 285.135 15.08 285.135 16.296C285.135 17.6613 284.741 18.8133 283.951 19.752C283.162 20.6907 282.085 21.32 280.719 21.64V21.16C282.298 21.3947 283.525 21.992 284.399 22.952C285.274 23.912 285.711 25.16 285.711 26.696C285.711 28.7013 285.029 30.2587 283.663 31.368C282.319 32.456 280.442 33 278.031 33H269.999ZM271.759 29.896H277.519C278.97 29.896 280.037 29.6187 280.719 29.064C281.402 28.488 281.743 27.6347 281.743 26.504C281.743 25.352 281.402 24.4987 280.719 23.944C280.037 23.3893 278.97 23.112 277.519 23.112H271.759V29.896ZM271.759 20.008H276.975C278.383 20.008 279.429 19.7413 280.111 19.208C280.815 18.6533 281.167 17.8427 281.167 16.776C281.167 15.7093 280.815 14.9093 280.111 14.376C279.429 13.8213 278.383 13.544 276.975 13.544H271.759V20.008ZM297.183 33.32C295.412 33.32 293.887 32.9893 292.607 32.328C291.327 31.6667 290.335 30.728 289.631 29.512C288.948 28.296 288.607 26.856 288.607 25.192C288.607 23.5707 288.937 22.152 289.599 20.936C290.281 19.72 291.209 18.7707 292.383 18.088C293.577 17.384 294.932 17.032 296.447 17.032C297.556 17.032 298.548 17.2133 299.423 17.576C300.319 17.9387 301.076 18.4613 301.695 19.144C302.335 19.8267 302.815 20.6587 303.135 21.64C303.476 22.6 303.647 23.688 303.647 24.904C303.647 25.288 303.508 25.5867 303.231 25.8C302.975 25.992 302.601 26.088 302.111 26.088H291.839V23.784H300.831L300.319 24.264C300.319 23.2827 300.169 22.4613 299.871 21.8C299.593 21.1387 299.177 20.6373 298.623 20.296C298.089 19.9333 297.417 19.752 296.607 19.752C295.711 19.752 294.943 19.9653 294.303 20.392C293.684 20.7973 293.204 21.384 292.863 22.152C292.543 22.8987 292.383 23.7947 292.383 24.84V25.064C292.383 26.8133 292.788 28.1253 293.599 29C294.431 29.8533 295.647 30.28 297.247 30.28C297.801 30.28 298.42 30.216 299.103 30.088C299.807 29.9387 300.468 29.6933 301.087 29.352C301.535 29.096 301.929 28.9893 302.271 29.032C302.612 29.0533 302.879 29.1707 303.071 29.384C303.284 29.5973 303.412 29.864 303.455 30.184C303.497 30.4827 303.433 30.792 303.263 31.112C303.113 31.432 302.847 31.7093 302.463 31.944C301.716 32.4133 300.852 32.7653 299.871 33C298.911 33.2133 298.015 33.32 297.183 33.32ZM314.046 33.32C312.404 33.32 310.974 32.9893 309.758 32.328C308.542 31.6453 307.604 30.6853 306.942 29.448C306.281 28.2107 305.95 26.76 305.95 25.096C305.95 23.8373 306.132 22.7173 306.494 21.736C306.878 20.7333 307.422 19.8907 308.126 19.208C308.83 18.504 309.684 17.9707 310.686 17.608C311.689 17.224 312.809 17.032 314.046 17.032C314.75 17.032 315.508 17.128 316.318 17.32C317.15 17.512 317.929 17.832 318.654 18.28C318.996 18.4933 319.22 18.7493 319.326 19.048C319.433 19.3467 319.454 19.656 319.39 19.976C319.326 20.2747 319.188 20.5413 318.974 20.776C318.782 20.9893 318.537 21.128 318.238 21.192C317.94 21.2347 317.609 21.16 317.246 20.968C316.777 20.6907 316.297 20.488 315.806 20.36C315.316 20.2107 314.846 20.136 314.398 20.136C313.694 20.136 313.076 20.2533 312.542 20.488C312.009 20.7013 311.55 21.0213 311.166 21.448C310.804 21.8533 310.526 22.3653 310.334 22.984C310.142 23.6027 310.046 24.3173 310.046 25.128C310.046 26.7067 310.42 27.9547 311.166 28.872C311.934 29.768 313.012 30.216 314.398 30.216C314.846 30.216 315.305 30.152 315.774 30.024C316.265 29.896 316.756 29.6933 317.246 29.416C317.609 29.224 317.929 29.16 318.206 29.224C318.505 29.288 318.75 29.4373 318.942 29.672C319.134 29.8853 319.252 30.152 319.294 30.472C319.337 30.7707 319.294 31.0693 319.166 31.368C319.06 31.6667 318.846 31.912 318.526 32.104C317.822 32.5307 317.076 32.84 316.286 33.032C315.497 33.224 314.75 33.32 314.046 33.32ZM323.892 33.256C323.252 33.256 322.761 33.0853 322.42 32.744C322.079 32.3813 321.908 31.8693 321.908 31.208V12.2C321.908 11.5387 322.079 11.0373 322.42 10.696C322.761 10.3547 323.252 10.184 323.892 10.184C324.532 10.184 325.023 10.3547 325.364 10.696C325.727 11.0373 325.908 11.5387 325.908 12.2V24.008H325.972L331.252 18.44C331.679 18.0133 332.052 17.6827 332.372 17.448C332.692 17.2133 333.129 17.096 333.684 17.096C334.239 17.096 334.655 17.2453 334.932 17.544C335.231 17.8213 335.38 18.1627 335.38 18.568C335.38 18.9733 335.188 19.3787 334.804 19.784L329.236 25.672V24.008L335.348 30.6C335.732 31.0053 335.903 31.4213 335.86 31.848C335.839 32.2533 335.668 32.5947 335.348 32.872C335.028 33.128 334.623 33.256 334.132 33.256C333.535 33.256 333.055 33.1387 332.692 32.904C332.351 32.6693 331.967 32.3173 331.54 31.848L325.972 26.024H325.908V31.208C325.908 32.5733 325.236 33.256 323.892 33.256Z" fill="black"/>
<path d="M1.44 72.14C1.22667 72.14 1.05333 72.0933 0.92 72C0.8 71.8933 0.726667 71.76 0.7 71.6C0.686667 71.4267 0.726667 71.2333 0.82 71.02L6.32 58.5C6.44 58.2333 6.58 58.0467 6.74 57.94C6.91333 57.82 7.1 57.76 7.3 57.76C7.5 57.76 7.68 57.82 7.84 57.94C8.01333 58.0467 8.15333 58.2333 8.26 58.5L13.78 71.02C13.8867 71.2333 13.9267 71.4267 13.9 71.6C13.8867 71.7733 13.82 71.9067 13.7 72C13.58 72.0933 13.4133 72.14 13.2 72.14C12.96 72.14 12.7667 72.08 12.62 71.96C12.4733 71.8267 12.3533 71.64 12.26 71.4L10.78 67.98L11.58 68.4H2.98L3.8 67.98L2.34 71.4C2.22 71.6533 2.09333 71.84 1.96 71.96C1.82667 72.08 1.65333 72.14 1.44 72.14ZM7.28 59.82L4.06 67.4L3.58 67.02H10.98L10.54 67.4L7.32 59.82H7.28ZM19.5498 72.18C18.7632 72.18 18.1098 72.04 17.5898 71.76C17.0832 71.4667 16.6965 71.0333 16.4298 70.46C16.1765 69.8867 16.0498 69.1733 16.0498 68.32V62.96C16.0498 62.68 16.1165 62.4733 16.2498 62.34C16.3965 62.2067 16.5965 62.14 16.8498 62.14C17.1165 62.14 17.3165 62.2067 17.4498 62.34C17.5965 62.4733 17.6698 62.68 17.6698 62.96V68.3C17.6698 69.1533 17.8432 69.7933 18.1898 70.22C18.5498 70.6333 19.1098 70.84 19.8698 70.84C20.6965 70.84 21.3698 70.56 21.8898 70C22.4098 69.44 22.6698 68.7067 22.6698 67.8V62.96C22.6698 62.68 22.7365 62.4733 22.8698 62.34C23.0165 62.2067 23.2232 62.14 23.4898 62.14C23.7432 62.14 23.9365 62.2067 24.0698 62.34C24.2165 62.4733 24.2898 62.68 24.2898 62.96V71.3C24.2898 71.86 24.0298 72.14 23.5098 72.14C23.2565 72.14 23.0565 72.0667 22.9098 71.92C22.7765 71.7733 22.7098 71.5667 22.7098 71.3V69.48L22.9698 69.76C22.7032 70.5467 22.2632 71.1467 21.6498 71.56C21.0498 71.9733 20.3498 72.18 19.5498 72.18ZM30.6008 72.18C30.0008 72.18 29.3941 72.1067 28.7808 71.96C28.1808 71.8133 27.6208 71.56 27.1008 71.2C26.9674 71.1067 26.8741 71 26.8208 70.88C26.7674 70.7467 26.7474 70.62 26.7608 70.5C26.7874 70.3667 26.8408 70.2533 26.9208 70.16C27.0141 70.0667 27.1208 70.0133 27.2408 70C27.3741 69.9733 27.5208 70 27.6808 70.08C28.2008 70.4 28.7008 70.6267 29.1808 70.76C29.6741 70.88 30.1608 70.94 30.6408 70.94C31.4008 70.94 31.9741 70.8 32.3608 70.52C32.7474 70.24 32.9408 69.86 32.9408 69.38C32.9408 69.0067 32.8141 68.7133 32.5608 68.5C32.3074 68.2733 31.9074 68.1 31.3608 67.98L29.5408 67.58C28.7008 67.4067 28.0741 67.1067 27.6608 66.68C27.2608 66.2533 27.0608 65.7 27.0608 65.02C27.0608 64.42 27.2141 63.9067 27.5208 63.48C27.8408 63.04 28.2874 62.7 28.8608 62.46C29.4341 62.22 30.1008 62.1 30.8608 62.1C31.4474 62.1 32.0008 62.18 32.5208 62.34C33.0541 62.4867 33.5341 62.7267 33.9608 63.06C34.0941 63.1533 34.1808 63.2667 34.2208 63.4C34.2741 63.52 34.2808 63.6467 34.2408 63.78C34.2141 63.9 34.1541 64.0067 34.0608 64.1C33.9674 64.18 33.8541 64.2267 33.7208 64.24C33.5874 64.2533 33.4474 64.2133 33.3008 64.12C32.9008 63.8533 32.4941 63.66 32.0808 63.54C31.6674 63.4067 31.2608 63.34 30.8608 63.34C30.1141 63.34 29.5474 63.4867 29.1608 63.78C28.7741 64.0733 28.5808 64.46 28.5808 64.94C28.5808 65.3133 28.7008 65.62 28.9408 65.86C29.1808 66.1 29.5541 66.2733 30.0608 66.38L31.8808 66.76C32.7474 66.9467 33.3941 67.2467 33.8208 67.66C34.2608 68.06 34.4808 68.6067 34.4808 69.3C34.4808 70.18 34.1274 70.88 33.4208 71.4C32.7141 71.92 31.7741 72.18 30.6008 72.18ZM45.8059 72.18C44.9393 72.18 44.1793 71.9733 43.5259 71.56C42.8859 71.1467 42.3859 70.5667 42.0259 69.82C41.6793 69.06 41.5059 68.1667 41.5059 67.14C41.5059 66.1 41.6793 65.2067 42.0259 64.46C42.3859 63.7 42.8859 63.12 43.5259 62.72C44.1793 62.3067 44.9393 62.1 45.8059 62.1C46.6859 62.1 47.4393 62.32 48.0659 62.76C48.6926 63.2 49.1126 63.7933 49.3259 64.54H49.1059V58.58C49.1059 58.3133 49.1726 58.1133 49.3059 57.98C49.4526 57.8333 49.6593 57.76 49.9259 57.76C50.1793 57.76 50.3726 57.8333 50.5059 57.98C50.6526 58.1133 50.7259 58.3133 50.7259 58.58V71.3C50.7259 71.5667 50.6593 71.7733 50.5259 71.92C50.3926 72.0667 50.1926 72.14 49.9259 72.14C49.6726 72.14 49.4726 72.0667 49.3259 71.92C49.1926 71.7733 49.1259 71.5667 49.1259 71.3V69.4L49.3459 69.68C49.1326 70.44 48.7059 71.0467 48.0659 71.5C47.4393 71.9533 46.6859 72.18 45.8059 72.18ZM46.1459 70.88C46.7459 70.88 47.2726 70.7333 47.7259 70.44C48.1793 70.1467 48.5259 69.72 48.7659 69.16C49.0193 68.6 49.1459 67.9267 49.1459 67.14C49.1459 65.9267 48.8726 65 48.3259 64.36C47.7926 63.72 47.0659 63.4 46.1459 63.4C45.5326 63.4 44.9993 63.5467 44.5459 63.84C44.1059 64.12 43.7593 64.54 43.5059 65.1C43.2659 65.6467 43.1459 66.3267 43.1459 67.14C43.1459 68.34 43.4193 69.2667 43.9659 69.92C44.5126 70.56 45.2393 70.88 46.1459 70.88ZM58.1461 72.18C57.1194 72.18 56.2328 71.98 55.4861 71.58C54.7528 71.1667 54.1794 70.5867 53.7661 69.84C53.3661 69.0933 53.1661 68.2 53.1661 67.16C53.1661 66.1467 53.3661 65.2667 53.7661 64.52C54.1661 63.76 54.7128 63.1667 55.4061 62.74C56.1128 62.3133 56.9261 62.1 57.8461 62.1C58.4994 62.1 59.0861 62.2133 59.6061 62.44C60.1261 62.6533 60.5661 62.9667 60.9261 63.38C61.2994 63.7933 61.5794 64.2933 61.7661 64.88C61.9661 65.4667 62.0661 66.1267 62.0661 66.86C62.0661 67.0733 62.0061 67.2333 61.8861 67.34C61.7661 67.4333 61.5928 67.48 61.3661 67.48H54.4061V66.42H60.9861L60.6661 66.68C60.6661 65.96 60.5594 65.3533 60.3461 64.86C60.1328 64.3533 59.8194 63.9667 59.4061 63.7C59.0061 63.4333 58.4994 63.3 57.8861 63.3C57.2061 63.3 56.6261 63.46 56.1461 63.78C55.6794 64.0867 55.3261 64.52 55.0861 65.08C54.8461 65.6267 54.7261 66.2667 54.7261 67V67.12C54.7261 68.3467 55.0194 69.28 55.6061 69.92C56.2061 70.56 57.0528 70.88 58.1461 70.88C58.5994 70.88 59.0461 70.82 59.4861 70.7C59.9394 70.58 60.3794 70.38 60.8061 70.1C60.9928 69.98 61.1594 69.9267 61.3061 69.94C61.4661 69.94 61.5928 69.9867 61.6861 70.08C61.7794 70.16 61.8394 70.2667 61.8661 70.4C61.9061 70.52 61.8928 70.6533 61.8261 70.8C61.7728 70.9467 61.6594 71.0733 61.4861 71.18C61.0461 71.5 60.5261 71.7467 59.9261 71.92C59.3261 72.0933 58.7328 72.18 58.1461 72.18ZM65.2306 72.14C64.964 72.14 64.7573 72.0667 64.6106 71.92C64.4773 71.7733 64.4106 71.5667 64.4106 71.3V62.96C64.4106 62.6933 64.4773 62.4933 64.6106 62.36C64.744 62.2133 64.9373 62.14 65.1906 62.14C65.444 62.14 65.6373 62.2133 65.7706 62.36C65.9173 62.4933 65.9906 62.6933 65.9906 62.96V64.58H65.7906C66.004 63.7933 66.4106 63.1867 67.0106 62.76C67.6106 62.3333 68.3506 62.1067 69.2306 62.08C69.4306 62.0667 69.5906 62.1133 69.7106 62.22C69.8306 62.3133 69.8973 62.48 69.9106 62.72C69.924 62.9467 69.8706 63.1267 69.7506 63.26C69.6306 63.3933 69.444 63.4733 69.1906 63.5L68.8706 63.54C67.964 63.62 67.264 63.9133 66.7706 64.42C66.2906 64.9133 66.0506 65.5933 66.0506 66.46V71.3C66.0506 71.5667 65.9773 71.7733 65.8306 71.92C65.6973 72.0667 65.4973 72.14 65.2306 72.14ZM77.7948 72C77.5282 72 77.3215 71.9267 77.1748 71.78C77.0282 71.62 76.9548 71.4067 76.9548 71.14V58.66C76.9548 58.38 77.0215 58.1667 77.1548 58.02C77.3015 57.8733 77.5082 57.8 77.7748 57.8C78.0415 57.8 78.2415 57.8733 78.3748 58.02C78.5215 58.1667 78.5948 58.38 78.5948 58.66V70.56H85.1548C85.3948 70.56 85.5815 70.6267 85.7148 70.76C85.8482 70.88 85.9148 71.0533 85.9148 71.28C85.9148 71.5067 85.8482 71.6867 85.7148 71.82C85.5815 71.94 85.3948 72 85.1548 72H77.7948ZM88.3942 72.1C88.1276 72.1 87.9276 72.0267 87.7942 71.88C87.6609 71.72 87.5942 71.5 87.5942 71.22V63.04C87.5942 62.76 87.6609 62.5467 87.7942 62.4C87.9276 62.2533 88.1276 62.18 88.3942 62.18C88.6476 62.18 88.8476 62.2533 88.9942 62.4C89.1409 62.5467 89.2142 62.76 89.2142 63.04V71.22C89.2142 71.5 89.1409 71.72 88.9942 71.88C88.8609 72.0267 88.6609 72.1 88.3942 72.1ZM88.3942 59.94C88.0609 59.94 87.8009 59.8533 87.6142 59.68C87.4276 59.4933 87.3342 59.2467 87.3342 58.94C87.3342 58.62 87.4276 58.38 87.6142 58.22C87.8009 58.0467 88.0609 57.96 88.3942 57.96C88.7409 57.96 89.0009 58.0467 89.1742 58.22C89.3609 58.38 89.4542 58.62 89.4542 58.94C89.4542 59.2467 89.3609 59.4933 89.1742 59.68C89.0009 59.8533 88.7409 59.94 88.3942 59.94ZM95.5227 72.18C94.9227 72.18 94.316 72.1067 93.7027 71.96C93.1027 71.8133 92.5427 71.56 92.0227 71.2C91.8893 71.1067 91.796 71 91.7427 70.88C91.6893 70.7467 91.6693 70.62 91.6827 70.5C91.7093 70.3667 91.7627 70.2533 91.8427 70.16C91.936 70.0667 92.0427 70.0133 92.1627 70C92.296 69.9733 92.4427 70 92.6027 70.08C93.1227 70.4 93.6227 70.6267 94.1027 70.76C94.596 70.88 95.0827 70.94 95.5627 70.94C96.3227 70.94 96.896 70.8 97.2827 70.52C97.6693 70.24 97.8627 69.86 97.8627 69.38C97.8627 69.0067 97.736 68.7133 97.4827 68.5C97.2293 68.2733 96.8293 68.1 96.2827 67.98L94.4627 67.58C93.6227 67.4067 92.996 67.1067 92.5827 66.68C92.1827 66.2533 91.9827 65.7 91.9827 65.02C91.9827 64.42 92.136 63.9067 92.4427 63.48C92.7627 63.04 93.2093 62.7 93.7827 62.46C94.356 62.22 95.0227 62.1 95.7827 62.1C96.3693 62.1 96.9227 62.18 97.4427 62.34C97.976 62.4867 98.456 62.7267 98.8827 63.06C99.016 63.1533 99.1027 63.2667 99.1427 63.4C99.196 63.52 99.2027 63.6467 99.1627 63.78C99.136 63.9 99.076 64.0067 98.9827 64.1C98.8893 64.18 98.776 64.2267 98.6427 64.24C98.5093 64.2533 98.3693 64.2133 98.2227 64.12C97.8227 63.8533 97.416 63.66 97.0027 63.54C96.5893 63.4067 96.1827 63.34 95.7827 63.34C95.036 63.34 94.4693 63.4867 94.0827 63.78C93.696 64.0733 93.5027 64.46 93.5027 64.94C93.5027 65.3133 93.6227 65.62 93.8627 65.86C94.1027 66.1 94.476 66.2733 94.9827 66.38L96.8027 66.76C97.6693 66.9467 98.316 67.2467 98.7427 67.66C99.1827 68.06 99.4027 68.6067 99.4027 69.3C99.4027 70.18 99.0493 70.88 98.3427 71.4C97.636 71.92 96.696 72.18 95.5227 72.18ZM105.674 72.18C104.914 72.18 104.274 72.0467 103.754 71.78C103.247 71.5 102.867 71.1 102.614 70.58C102.361 70.0467 102.234 69.4 102.234 68.64V63.54H100.894C100.667 63.54 100.494 63.4867 100.374 63.38C100.254 63.26 100.194 63.1 100.194 62.9C100.194 62.7 100.254 62.5467 100.374 62.44C100.494 62.3333 100.667 62.28 100.894 62.28H102.234V59.98C102.234 59.7133 102.307 59.5133 102.454 59.38C102.601 59.2333 102.801 59.16 103.054 59.16C103.307 59.16 103.501 59.2333 103.634 59.38C103.781 59.5133 103.854 59.7133 103.854 59.98V62.28H106.374C106.601 62.28 106.774 62.3333 106.894 62.44C107.014 62.5467 107.074 62.7 107.074 62.9C107.074 63.1 107.014 63.26 106.894 63.38C106.774 63.4867 106.601 63.54 106.374 63.54H103.854V68.48C103.854 69.24 104.014 69.82 104.334 70.22C104.654 70.6067 105.174 70.8 105.894 70.8C106.147 70.8 106.361 70.7733 106.534 70.72C106.721 70.6667 106.874 70.64 106.994 70.64C107.114 70.6267 107.214 70.6667 107.294 70.76C107.374 70.8533 107.414 71.0133 107.414 71.24C107.414 71.4 107.381 71.5467 107.314 71.68C107.261 71.8133 107.161 71.9067 107.014 71.96C106.854 72.0133 106.641 72.06 106.374 72.1C106.121 72.1533 105.887 72.18 105.674 72.18ZM113.048 72.18C112.022 72.18 111.135 71.98 110.388 71.58C109.655 71.1667 109.082 70.5867 108.668 69.84C108.268 69.0933 108.068 68.2 108.068 67.16C108.068 66.1467 108.268 65.2667 108.668 64.52C109.068 63.76 109.615 63.1667 110.308 62.74C111.015 62.3133 111.828 62.1 112.748 62.1C113.402 62.1 113.988 62.2133 114.508 62.44C115.028 62.6533 115.468 62.9667 115.828 63.38C116.202 63.7933 116.482 64.2933 116.668 64.88C116.868 65.4667 116.968 66.1267 116.968 66.86C116.968 67.0733 116.908 67.2333 116.788 67.34C116.668 67.4333 116.495 67.48 116.268 67.48H109.308V66.42H115.888L115.568 66.68C115.568 65.96 115.462 65.3533 115.248 64.86C115.035 64.3533 114.722 63.9667 114.308 63.7C113.908 63.4333 113.402 63.3 112.788 63.3C112.108 63.3 111.528 63.46 111.048 63.78C110.582 64.0867 110.228 64.52 109.988 65.08C109.748 65.6267 109.628 66.2667 109.628 67V67.12C109.628 68.3467 109.922 69.28 110.508 69.92C111.108 70.56 111.955 70.88 113.048 70.88C113.502 70.88 113.948 70.82 114.388 70.7C114.842 70.58 115.282 70.38 115.708 70.1C115.895 69.98 116.062 69.9267 116.208 69.94C116.368 69.94 116.495 69.9867 116.588 70.08C116.682 70.16 116.742 70.2667 116.768 70.4C116.808 70.52 116.795 70.6533 116.728 70.8C116.675 70.9467 116.562 71.0733 116.388 71.18C115.948 71.5 115.428 71.7467 114.828 71.92C114.228 72.0933 113.635 72.18 113.048 72.18ZM127.829 72.14C127.603 72.14 127.403 72.08 127.229 71.96C127.056 71.84 126.916 71.6467 126.809 71.38L123.829 63.28C123.749 63.0533 123.723 62.8533 123.749 62.68C123.789 62.5067 123.876 62.3733 124.009 62.28C124.143 62.1867 124.309 62.14 124.509 62.14C124.709 62.14 124.869 62.1867 124.989 62.28C125.123 62.3733 125.229 62.5467 125.309 62.8L128.109 70.8H127.629L130.509 62.8C130.603 62.56 130.716 62.3933 130.849 62.3C130.996 62.1933 131.183 62.14 131.409 62.14C131.623 62.14 131.803 62.1933 131.949 62.3C132.096 62.4067 132.209 62.5733 132.289 62.8L135.109 70.8H134.649L137.489 62.76C137.583 62.52 137.696 62.36 137.829 62.28C137.963 62.1867 138.123 62.14 138.309 62.14C138.523 62.14 138.683 62.1933 138.789 62.3C138.909 62.4067 138.976 62.5467 138.989 62.72C139.003 62.8933 138.969 63.08 138.889 63.28L135.909 71.38C135.816 71.6333 135.676 71.8267 135.489 71.96C135.316 72.08 135.116 72.14 134.889 72.14C134.663 72.14 134.463 72.08 134.289 71.96C134.116 71.8267 133.983 71.6333 133.889 71.38L130.929 63.26H131.789L128.849 71.38C128.756 71.6333 128.623 71.8267 128.449 71.96C128.276 72.08 128.069 72.14 127.829 72.14ZM144.346 72.18C143.679 72.18 143.079 72.0533 142.546 71.8C142.026 71.5333 141.612 71.1733 141.306 70.72C140.999 70.2667 140.846 69.76 140.846 69.2C140.846 68.48 141.026 67.9133 141.386 67.5C141.759 67.0867 142.366 66.7933 143.206 66.62C144.059 66.4467 145.219 66.36 146.686 66.36H147.586V67.42H146.706C145.626 67.42 144.772 67.4733 144.146 67.58C143.532 67.6733 143.099 67.84 142.846 68.08C142.606 68.32 142.486 68.66 142.486 69.1C142.486 69.6467 142.672 70.0933 143.046 70.44C143.432 70.7867 143.952 70.96 144.606 70.96C145.139 70.96 145.606 70.8333 146.006 70.58C146.419 70.3267 146.739 69.98 146.966 69.54C147.206 69.1 147.326 68.5933 147.326 68.02V65.74C147.326 64.9133 147.159 64.32 146.826 63.96C146.492 63.5867 145.946 63.4 145.186 63.4C144.719 63.4 144.252 63.46 143.786 63.58C143.319 63.7 142.826 63.8933 142.306 64.16C142.119 64.2533 141.959 64.2867 141.826 64.26C141.692 64.22 141.586 64.1467 141.506 64.04C141.426 63.9333 141.379 63.8133 141.366 63.68C141.352 63.5333 141.379 63.3933 141.446 63.26C141.526 63.1267 141.646 63.02 141.806 62.94C142.392 62.6467 142.972 62.4333 143.546 62.3C144.119 62.1667 144.666 62.1 145.186 62.1C146.026 62.1 146.719 62.24 147.266 62.52C147.812 62.7867 148.219 63.2 148.486 63.76C148.752 64.3067 148.886 65.0133 148.886 65.88V71.3C148.886 71.5667 148.819 71.7733 148.686 71.92C148.566 72.0667 148.386 72.14 148.146 72.14C147.892 72.14 147.699 72.0667 147.566 71.92C147.432 71.7733 147.366 71.5667 147.366 71.3V69.74H147.546C147.439 70.2467 147.232 70.68 146.926 71.04C146.632 71.4 146.266 71.68 145.826 71.88C145.386 72.08 144.892 72.18 144.346 72.18ZM146.966 59.88C146.659 59.88 146.419 59.8 146.246 59.64C146.086 59.48 146.006 59.2533 146.006 58.96C146.006 58.6667 146.086 58.44 146.246 58.28C146.419 58.1067 146.659 58.02 146.966 58.02C147.259 58.02 147.486 58.1067 147.646 58.28C147.806 58.44 147.886 58.6667 147.886 58.96C147.886 59.2533 147.806 59.48 147.646 59.64C147.486 59.8 147.259 59.88 146.966 59.88ZM143.466 59.88C143.172 59.88 142.939 59.8 142.766 59.64C142.606 59.48 142.526 59.2533 142.526 58.96C142.526 58.6667 142.606 58.44 142.766 58.28C142.939 58.1067 143.172 58.02 143.466 58.02C143.772 58.02 144.006 58.1067 144.166 58.28C144.326 58.44 144.406 58.6667 144.406 58.96C144.406 59.2533 144.326 59.48 144.166 59.64C144.006 59.8 143.772 59.88 143.466 59.88ZM152.691 72.14C152.424 72.14 152.224 72.0667 152.091 71.92C151.958 71.7733 151.891 71.5667 151.891 71.3V58.58C151.891 58.3133 151.958 58.1133 152.091 57.98C152.224 57.8333 152.424 57.76 152.691 57.76C152.944 57.76 153.144 57.8333 153.291 57.98C153.438 58.1133 153.511 58.3133 153.511 58.58V64.44H153.251C153.531 63.6667 153.984 63.0867 154.611 62.7C155.251 62.3 155.984 62.1 156.811 62.1C157.584 62.1 158.224 62.24 158.731 62.52C159.251 62.8 159.638 63.2267 159.891 63.8C160.144 64.36 160.271 65.0733 160.271 65.94V71.3C160.271 71.5667 160.198 71.7733 160.051 71.92C159.918 72.0667 159.724 72.14 159.471 72.14C159.204 72.14 158.998 72.0667 158.851 71.92C158.718 71.7733 158.651 71.5667 158.651 71.3V66.04C158.651 65.1333 158.471 64.4733 158.111 64.06C157.764 63.6333 157.204 63.42 156.431 63.42C155.538 63.42 154.824 63.7 154.291 64.26C153.771 64.8067 153.511 65.54 153.511 66.46V71.3C153.511 71.86 153.238 72.14 152.691 72.14ZM166.218 72.18C165.258 72.18 164.525 71.8867 164.018 71.3C163.512 70.7133 163.258 69.8733 163.258 68.78V58.58C163.258 58.3133 163.325 58.1133 163.458 57.98C163.592 57.8333 163.792 57.76 164.058 57.76C164.312 57.76 164.512 57.8333 164.658 57.98C164.805 58.1133 164.878 58.3133 164.878 58.58V68.66C164.878 69.38 165.018 69.92 165.298 70.28C165.592 70.6267 166.018 70.8 166.578 70.8C166.698 70.8 166.805 70.7933 166.898 70.78C166.992 70.7667 167.085 70.76 167.178 70.76C167.325 70.7467 167.425 70.78 167.478 70.86C167.545 70.94 167.578 71.1 167.578 71.34C167.578 71.58 167.525 71.76 167.418 71.88C167.312 72 167.138 72.08 166.898 72.12C166.792 72.1333 166.678 72.1467 166.558 72.16C166.438 72.1733 166.325 72.18 166.218 72.18ZM173.459 72.18C172.432 72.18 171.545 71.98 170.799 71.58C170.065 71.1667 169.492 70.5867 169.079 69.84C168.679 69.0933 168.479 68.2 168.479 67.16C168.479 66.1467 168.679 65.2667 169.079 64.52C169.479 63.76 170.025 63.1667 170.719 62.74C171.425 62.3133 172.239 62.1 173.159 62.1C173.812 62.1 174.399 62.2133 174.919 62.44C175.439 62.6533 175.879 62.9667 176.239 63.38C176.612 63.7933 176.892 64.2933 177.079 64.88C177.279 65.4667 177.379 66.1267 177.379 66.86C177.379 67.0733 177.319 67.2333 177.199 67.34C177.079 67.4333 176.905 67.48 176.679 67.48H169.719V66.42H176.299L175.979 66.68C175.979 65.96 175.872 65.3533 175.659 64.86C175.445 64.3533 175.132 63.9667 174.719 63.7C174.319 63.4333 173.812 63.3 173.199 63.3C172.519 63.3 171.939 63.46 171.459 63.78C170.992 64.0867 170.639 64.52 170.399 65.08C170.159 65.6267 170.039 66.2667 170.039 67V67.12C170.039 68.3467 170.332 69.28 170.919 69.92C171.519 70.56 172.365 70.88 173.459 70.88C173.912 70.88 174.359 70.82 174.799 70.7C175.252 70.58 175.692 70.38 176.119 70.1C176.305 69.98 176.472 69.9267 176.619 69.94C176.779 69.94 176.905 69.9867 176.999 70.08C177.092 70.16 177.152 70.2667 177.179 70.4C177.219 70.52 177.205 70.6533 177.139 70.8C177.085 70.9467 176.972 71.0733 176.799 71.18C176.359 71.5 175.839 71.7467 175.239 71.92C174.639 72.0933 174.045 72.18 173.459 72.18ZM180.523 72.14C180.256 72.14 180.056 72.0667 179.923 71.92C179.79 71.7733 179.723 71.5667 179.723 71.3V62.96C179.723 62.6933 179.79 62.4933 179.923 62.36C180.056 62.2133 180.25 62.14 180.503 62.14C180.756 62.14 180.95 62.2133 181.083 62.36C181.23 62.4933 181.303 62.6933 181.303 62.96V64.68L181.083 64.44C181.363 63.6667 181.816 63.0867 182.443 62.7C183.083 62.3 183.816 62.1 184.643 62.1C185.416 62.1 186.056 62.24 186.563 62.52C187.083 62.8 187.47 63.2267 187.723 63.8C187.976 64.36 188.103 65.0733 188.103 65.94V71.3C188.103 71.5667 188.03 71.7733 187.883 71.92C187.75 72.0667 187.556 72.14 187.303 72.14C187.036 72.14 186.83 72.0667 186.683 71.92C186.55 71.7733 186.483 71.5667 186.483 71.3V66.04C186.483 65.1333 186.303 64.4733 185.943 64.06C185.596 63.6333 185.036 63.42 184.263 63.42C183.37 63.42 182.656 63.7 182.123 64.26C181.603 64.8067 181.343 65.54 181.343 66.46V71.3C181.343 71.86 181.07 72.14 180.523 72.14Z" fill="black"/>
<g clip-path="url(#clip0_171132_19726)">
<path d="M68 99H4V163H68V99Z" fill="#444DF2"/>
<path d="M55.1746 137.029C55.789 138.437 56.7746 139.653 57.5298 140.984C58.285 142.315 58.797 143.915 58.3746 145.387C58.7458 145.477 59.0402 145.054 59.181 144.696C60.0002 142.507 59.117 138.936 58.3234 136.811C57.3122 134.085 55.1362 131.73 55.021 128.824C54.0482 131.41 54.0482 134.482 55.1746 137.029Z" fill="#797EF3"/>
<path d="M53.5614 108.434C55.3022 110.546 56.659 113.131 56.6078 115.87C56.5822 116.83 56.3902 117.765 56.1982 118.699C55.8014 120.619 55.4046 122.526 55.0078 124.446C54.9054 124.92 54.8158 125.394 54.5598 125.803C53.971 126.763 52.627 127.07 51.5774 126.686C50.5278 126.302 49.747 125.342 49.3374 124.306C48.6974 122.718 48.7742 120.901 49.2478 119.262C49.7214 117.611 50.5662 116.101 51.4366 114.629C52.0894 113.528 52.7806 112.414 53.8046 111.646L53.5614 108.434Z" fill="#797EF3"/>
<path d="M43.5394 163H29.8178C29.805 163 29.805 163 29.7922 163C27.4754 162.885 25.133 162.962 22.8034 162.987C22.3426 162.987 21.8818 163 21.4082 163C21.4978 162.693 21.5874 162.398 21.6642 162.104C23.1234 157.048 23.8274 152.146 24.0834 146.962C24.1346 145.963 24.1602 144.952 24.1858 143.941C24.5314 144.043 24.877 144.133 25.2354 144.222C25.3122 144.248 25.3762 144.261 25.453 144.274C26.0418 144.414 26.6306 144.542 27.2322 144.632C32.4546 145.528 37.8434 144.965 43.1554 144.901C45.2546 144.875 44.2946 148.984 43.4626 152.197C43.4626 152.21 43.4498 152.222 43.4498 152.235C43.0786 153.63 42.7458 154.859 42.6946 155.499C42.5026 158.021 42.6946 160.632 43.5394 163Z" fill="#E8C5AA"/>
<path d="M48.224 110.251C47.008 109.381 45.5488 108.83 44 108.293C37.1136 105.899 28.6144 106.616 23.2512 111.966C21.2032 114.002 19.7312 116.587 18.9504 119.378C18.1056 122.386 18.5408 125.048 18.7328 128.082C19.0272 132.894 19.7824 137.989 22.9056 141.662C28.192 147.883 36.512 151.787 44.6144 152.312C47.136 152.478 49.9392 152.146 52.1152 150.789C53.4208 149.97 54.496 148.715 55.008 147.243C55.3536 146.245 55.2 145.106 55.3792 144.056C55.7248 141.982 56.4416 139.998 56.6976 137.912C56.9664 135.71 56.9152 133.483 56.7232 131.282C56.608 129.925 56.5696 128.53 56.2112 127.211C55.8528 125.88 55.1744 124.69 54.7648 123.358C53.9456 120.683 53.1776 117.752 51.9104 115.256C51.0144 113.502 49.8368 111.39 48.224 110.251Z" fill="#F4D3B8"/>
<path d="M45.4507 129.059C46.449 128.826 46.9394 127.27 46.5461 125.583C46.1527 123.896 45.0246 122.718 44.0263 122.95C43.028 123.183 42.5376 124.739 42.9309 126.426C43.3243 128.113 44.4524 129.292 45.4507 129.059Z" fill="#1B1464"/>
<path d="M52.9099 125.801C53.6946 125.618 54.0824 124.403 53.7765 123.088C53.4706 121.774 52.5848 120.856 51.8002 121.039C51.0155 121.222 50.6277 122.437 50.9349 123.751C51.2408 125.066 52.1253 125.984 52.9099 125.801Z" fill="#1B1464"/>
<path d="M54.6725 130.876C54.8658 131.108 54.9054 131.527 54.6277 132.238C54.3666 132.906 53.9173 133.582 53.5819 134.071L54.7442 134.866C55.0744 134.383 55.612 133.587 55.9384 132.75C56.2494 131.956 56.4798 130.84 55.7528 129.971L54.6725 130.876ZM51.9742 129.79C52.5029 130.048 53.189 130.195 53.628 130.327C54.1349 130.478 54.4677 130.637 54.6802 130.884L55.7477 129.966C55.2562 129.394 54.5842 129.143 54.0312 128.978C53.4104 128.792 52.9829 128.715 52.5899 128.525L51.9742 129.79ZM49.0251 125.906C49.2811 127.654 50.4651 129.051 51.9717 129.789L52.5912 128.525C51.4354 127.957 50.597 126.922 50.4178 125.701L49.0251 125.906ZM53.5819 134.071C53.3618 134.392 53.445 134.83 53.765 135.049C54.085 135.268 54.524 135.186 54.7429 134.866L53.5819 134.071ZM55.2126 130.424L55.7528 129.972C55.7502 129.97 55.749 129.967 55.7464 129.966L55.2126 130.424ZM52.2814 129.157L51.9717 129.789C51.973 129.789 51.973 129.79 51.9742 129.79L52.2814 129.157ZM50.4178 125.701C50.3614 125.316 50.0043 125.051 49.619 125.107C49.2338 125.163 48.9688 125.52 49.0251 125.906L50.4178 125.701Z" fill="#1B1464"/>
<path d="M46.2914 140.535C48.3727 140.384 50.8943 140.184 52.7234 138.643L51.8159 137.566C50.3938 138.764 48.3586 138.974 46.1903 139.131L46.2914 140.535ZM42.9135 140.443C44.0681 140.699 45.247 140.61 46.2914 140.535L46.1903 139.131C45.11 139.209 44.1385 139.273 43.2194 139.069L42.9135 140.443ZM52.1666 141.268C49.2841 142.459 45.6591 141.612 43.5919 139.288L42.5398 140.224C45.0038 142.994 49.2636 143.991 52.7042 142.57L52.1666 141.268ZM52.7222 138.643C53.0191 138.392 53.0575 137.948 52.8066 137.651C52.5558 137.354 52.1116 137.316 51.8146 137.566L52.7222 138.643ZM43.0658 139.755L43.2182 139.068C42.9199 139.001 42.6127 139.136 42.4578 139.398C42.303 139.662 42.3362 139.995 42.5385 140.222L43.0658 139.755ZM52.7042 142.569C53.0639 142.42 53.2342 142.008 53.0857 141.65C52.9372 141.29 52.525 141.12 52.1666 141.268L52.7042 142.569Z" fill="#1B1464"/>
<path d="M40.7629 120.376C39.5942 120.911 38.4589 121.839 37.9226 123.127L39.2218 123.668C39.5814 122.804 40.3917 122.094 41.3478 121.657L40.7629 120.376ZM45.3414 119.814C43.7146 119.489 42.2976 119.678 40.7654 120.376L41.3478 121.657C42.6304 121.074 43.7478 120.931 45.0662 121.195L45.3414 119.814ZM37.9226 123.125C37.7728 123.484 37.943 123.896 38.3014 124.046C38.6598 124.195 39.072 124.025 39.2218 123.667L37.9226 123.125ZM41.056 121.016L40.7642 120.375C40.7642 120.375 40.7629 120.375 40.7629 120.376L41.056 121.016ZM45.065 121.194C45.4464 121.271 45.8176 121.022 45.8931 120.642C45.9699 120.261 45.7216 119.89 45.3414 119.814L45.065 121.194Z" fill="#1B1464"/>
<path d="M50.1952 118.533C50.4 119.206 50.4 119.206 50.3987 119.206C50.3987 119.206 50.3987 119.206 50.4 119.206C50.4013 119.206 50.4051 119.205 50.409 119.203C50.4179 119.201 50.4346 119.196 50.4563 119.191C50.4998 119.179 50.5651 119.164 50.6496 119.146C50.8186 119.11 51.0566 119.07 51.3254 119.052C51.8861 119.014 52.4736 119.079 52.8998 119.355L53.664 118.172C52.8602 117.653 51.9053 117.602 51.232 117.648C50.8838 117.671 50.5792 117.723 50.3629 117.769C50.2541 117.792 50.1658 117.813 50.1018 117.829C50.0698 117.836 50.0454 117.844 50.0262 117.849C50.0173 117.852 50.0096 117.854 50.0045 117.856C50.0019 117.857 49.9994 117.857 49.9968 117.858C49.9955 117.858 49.9955 117.858 49.9942 117.859H49.993C49.9904 117.859 49.9904 117.859 50.1952 118.533ZM52.8986 119.355C53.225 119.566 53.6614 119.472 53.8714 119.145C54.0813 118.817 53.9891 118.382 53.6614 118.172L52.8986 119.355ZM49.9904 117.859C49.6179 117.972 49.408 118.365 49.5206 118.738C49.6333 119.11 50.0262 119.32 50.3987 119.207L49.9904 117.859Z" fill="#1B1464"/>
<path d="M43.3985 113.618C43.6289 113.912 43.8721 114.206 44.1153 114.488C45.8305 116.472 48.1345 116.395 50.5921 116.651C52.4225 116.83 54.3809 117.317 55.5073 118.776C56.4289 119.979 56.5825 121.63 56.3521 123.128C56.2625 123.755 56.1089 124.37 56.0449 124.997C55.8401 127.006 56.5825 129.054 57.8881 130.578C59.1937 132.114 61.0497 133.138 62.9953 133.611C61.9713 132.69 60.9345 131.755 60.1665 130.59C59.2961 129.259 58.8225 127.685 58.8353 126.098C58.8481 124.472 59.3473 122.885 59.6801 121.298C60.4225 117.752 60.1921 114.04 59.1937 110.571C58.3617 107.704 56.9281 103.762 54.2529 102.11C52.0513 100.741 49.6577 100.05 47.0337 100.254C44.8065 100.434 42.5665 101.47 41.2993 103.326C39.1233 106.514 41.2993 110.917 43.3985 113.618Z" fill="#797EF3"/>
<path d="M42.7202 107.883C42.5282 108.024 42.3362 108.152 42.1442 108.28C41.8882 108.446 41.6322 108.613 41.3762 108.766C41.2098 108.869 41.0434 108.971 40.877 109.074C38.3042 110.712 35.7186 112.35 33.3762 114.309C31.8914 115.55 30.509 116.894 29.1522 118.264C28.5378 118.878 27.7442 119.442 27.1938 120.094C26.6562 120.734 26.669 121.413 26.5794 122.245C26.5666 122.373 26.5538 122.514 26.5282 122.642C26.0418 126.827 25.5554 131.013 25.0562 135.186C24.6978 138.206 25.005 141.125 25.2098 144.043C25.2098 144.094 25.2226 144.146 25.2226 144.197C25.325 145.81 25.4018 147.422 25.3122 149.074C25.2866 149.547 25.2482 150.021 25.1842 150.494C24.9794 152.261 24.7618 154.014 24.557 155.781C24.2882 158.059 24.0066 160.389 23.0466 162.475C22.9698 162.642 22.8802 162.821 22.7906 162.987H10.6562C10.3618 162.731 10.093 162.475 9.90099 162.168C9.14579 160.939 9.51699 158.712 9.97779 157.458C10.477 156.139 11.3474 154.987 11.949 153.72C12.5506 152.44 12.845 150.878 12.1666 149.65C11.8722 149.112 11.4242 148.69 11.053 148.203C9.40179 145.95 9.96499 142.814 10.7714 140.139C11.5778 137.464 12.5634 134.571 11.565 131.96C11.0914 130.731 10.2082 129.694 9.65779 128.491C8.16019 125.189 9.44019 121.246 11.4626 118.238C12.2946 116.997 13.2546 115.819 13.7922 114.424C14.381 112.901 14.4194 111.224 14.6626 109.611C14.9058 107.998 15.4434 106.309 16.7362 105.298C17.7986 104.466 19.1554 104.261 20.397 103.813C21.6642 103.352 22.701 102.571 23.8402 101.88C26.4898 100.28 29.5106 99.3968 32.6082 99.3456C34.8738 99.32 37.1394 99.704 39.2898 100.395C40.6466 100.83 41.4786 101.381 42.2722 102.187C42.6818 102.61 43.0914 103.109 43.5522 103.685C43.8978 104.12 44.2434 104.568 44.3458 105.106C44.5506 106.245 43.6802 107.179 42.7202 107.883Z" fill="#797EF3"/>
<path d="M21.3056 124.843C20.4864 123.87 19.3472 123.23 17.7856 123.192C15.4944 123.141 13.2928 124.715 12.4736 126.853C11.1424 130.296 13.3696 134.507 16.3776 136.274C19.0528 137.848 22.1888 136.926 22.9696 133.816C23.3152 132.434 23.1744 130.974 23.0464 129.566C22.8672 127.864 22.3552 126.098 21.3056 124.843Z" fill="#F4D3B8"/>
<path d="M19.8722 130.283C19.9656 129.586 19.9644 129.586 19.9644 129.586C19.9644 129.586 19.9644 129.586 19.9631 129.586H19.9618C19.9605 129.586 19.9592 129.586 19.958 129.586C19.9541 129.586 19.9503 129.584 19.9452 129.584C19.9349 129.583 19.9208 129.582 19.9042 129.579C19.8696 129.575 19.8223 129.57 19.7621 129.566C19.6431 129.557 19.4767 129.547 19.2796 129.546C18.8892 129.543 18.3516 129.574 17.8076 129.715C17.2687 129.854 16.6632 130.118 16.2127 130.627C15.7429 131.157 15.5087 131.877 15.5868 132.777L16.9896 132.655C16.9397 132.083 17.0895 131.762 17.2674 131.561C17.4645 131.338 17.7717 131.178 18.1608 131.078C18.5448 130.978 18.9506 130.953 19.2732 130.954C19.4319 130.955 19.5624 130.963 19.6533 130.969C19.6981 130.973 19.7327 130.976 19.7544 130.978C19.766 130.979 19.7736 130.981 19.7775 130.981C19.78 130.981 19.7813 130.981 19.7813 130.981C19.7788 130.981 19.7788 130.981 19.8722 130.283ZM15.3922 127.595C15.4972 128.291 15.4972 128.291 15.4972 128.291C15.4972 128.291 15.4997 128.291 15.5023 128.29C15.5074 128.289 15.5164 128.289 15.5279 128.286C15.5522 128.284 15.5906 128.279 15.6418 128.274C15.7429 128.263 15.8914 128.253 16.0719 128.249C16.4354 128.242 16.909 128.265 17.3762 128.375C17.846 128.485 18.2696 128.674 18.582 128.969C18.8789 129.25 19.1196 129.667 19.172 130.334L20.5762 130.227C20.4994 129.231 20.1167 128.48 19.5496 127.945C18.998 127.424 18.317 127.148 17.7 127.003C17.0792 126.857 16.4802 126.831 16.045 126.84C15.8248 126.844 15.6418 126.858 15.5112 126.869C15.446 126.876 15.3935 126.882 15.3564 126.886C15.3372 126.889 15.3231 126.89 15.3116 126.892C15.3064 126.894 15.3013 126.894 15.2975 126.894C15.2962 126.894 15.2936 126.894 15.2936 126.895H15.2924C15.2924 126.895 15.2924 126.895 15.2911 126.895C15.2872 126.899 15.2872 126.899 15.3922 127.595ZM15.5868 132.777C15.62 133.164 15.9618 133.451 16.3496 133.417C16.7375 133.383 17.0242 133.042 16.9896 132.654L15.5868 132.777ZM19.8722 130.283L19.7788 130.981C19.9887 131.009 20.2012 130.94 20.356 130.794C20.5109 130.648 20.5903 130.441 20.5736 130.228L19.8722 130.283ZM15.2872 126.899C14.9032 126.958 14.6383 127.316 14.6972 127.7C14.756 128.084 15.1144 128.349 15.4984 128.29L15.2872 126.899Z" fill="#EABC97"/>
<path d="M22.9825 116.523C23.7633 114.334 25.0689 112.261 26.4001 110.392C27.6929 108.562 29.4465 107.064 31.4561 106.066C33.3377 105.144 35.5137 104.658 37.5361 105.195C40.8385 106.078 42.8481 110.2 41.1969 113.323C40.5441 114.565 39.3025 115.371 38.1505 116.152C34.4513 118.686 30.8289 121.938 29.8817 126.315C29.2929 129.016 29.8177 131.819 29.3825 134.533C29.0369 136.619 28.0641 138.386 27.4497 140.344C26.7969 142.366 27.1425 144.747 27.7441 146.744C28.4225 148.984 29.5361 151.045 30.6241 153.118C31.4305 154.654 32.2113 156.6 31.2129 158.021C31.6993 156.715 31.1617 155.218 30.2913 154.13C29.4209 153.042 28.2561 152.235 27.2321 151.288C24.8641 149.074 23.3153 146.014 22.8673 142.814C22.6753 141.483 22.5217 140.05 22.4321 138.693C22.3297 137.067 23.0081 135.454 23.1873 133.842C23.5201 130.795 22.0993 128.453 21.8305 125.624C21.5489 122.654 21.9713 119.365 22.9825 116.523Z" fill="#797EF3"/>
<path d="M42.8481 152.312C42.8481 151.608 42.8481 151.608 42.8481 151.608C42.8468 151.608 42.8455 151.608 42.8417 151.608C42.8353 151.608 42.8251 151.608 42.8097 151.608C42.7803 151.607 42.7342 151.605 42.6714 151.603C42.5473 151.598 42.3604 151.586 42.1159 151.562C41.6282 151.516 40.9153 151.421 40.0346 151.232C38.2721 150.853 35.8401 150.091 33.1879 148.565L32.4865 149.787C35.2858 151.397 37.8599 152.204 39.739 152.609C40.6785 152.811 41.4465 152.914 41.9828 152.965C42.2516 152.99 42.4628 153.003 42.6087 153.01C42.6817 153.013 42.7393 153.015 42.779 153.016C42.7994 153.016 42.8148 153.017 42.8263 153.017C42.8314 153.017 42.8366 153.017 42.8404 153.017C42.8417 153.017 42.8442 153.017 42.8442 153.017H42.8455C42.8481 153.016 42.8481 153.016 42.8481 152.312ZM33.1892 148.565C32.8526 148.372 32.4212 148.487 32.2279 148.825C32.0346 149.163 32.1498 149.593 32.4878 149.787L33.1892 148.565ZM42.8481 153.016C43.2372 153.016 43.5521 152.701 43.5521 152.312C43.5521 151.923 43.2372 151.608 42.8481 151.608V153.016Z" fill="#1B1464"/>
</g>
<g clip-path="url(#clip1_171132_19726)">
<path d="M148 99H84V163H148V99Z" fill="#ADB0D9"/>
<path d="M131.859 116.382C132.102 115.486 132.755 114.629 132.589 113.72C132.461 113.016 132.166 112.286 132.256 111.557C132.32 111.019 133.126 109.406 133.83 109.598C134.112 109.675 134.253 109.995 134.342 110.264C134.854 111.736 135.264 112.99 135.43 114.565C135.597 116.152 135.635 117.752 135.571 119.352C135.533 120.338 135.443 121.336 135.046 122.232C134.701 123.026 134.112 123.717 133.395 124.19C133.19 123.742 132.755 123.461 132.435 123.09C131.923 122.514 131.68 121.758 131.539 121.003C131.539 119.403 131.437 117.97 131.859 116.382Z" fill="#444DF2"/>
<path d="M130.375 131C130.119 129.95 130.221 128.85 130.323 127.774C130.451 126.482 130.835 125.138 131.629 124.19C132.243 123.461 133.114 122.974 134.291 122.949C135.072 122.936 136.199 123.128 136.647 123.832C137.107 124.574 137.223 125.816 137.159 126.648C137.069 127.774 136.608 128.811 136.16 129.822C135.674 130.936 135.034 133.33 133.549 133.432C132 133.547 130.733 132.446 130.375 131Z" fill="#F5B18F"/>
<path d="M122.131 163H93.6514C93.7538 162.565 93.8562 162.13 93.9586 161.694C95.9938 152.965 96.7874 144.504 96.9026 135.352C104.109 138.014 111.687 136.875 119.123 136.76C121.888 136.722 120.967 139.858 120.992 142.789C121.031 146.45 121.171 150.098 121.389 153.733C121.568 156.83 121.824 159.928 122.131 163Z" fill="#F5B18F"/>
<path d="M134.675 119.736C134.381 123.397 133.933 127.058 133.689 130.731C133.587 132.357 133.523 133.97 133.523 135.595C133.536 140.613 134.137 146.053 131.373 150.238C129.337 153.31 125.741 155.115 122.08 155.589C119.43 155.934 116.781 155.614 114.195 155.038C110.163 154.155 106.029 152.542 102.611 150.046C100.512 148.51 98.6942 146.642 97.3502 144.389C96.0574 142.238 95.2894 139.819 94.8926 137.323C94.6878 136.005 94.5854 134.661 94.5726 133.317C94.547 130.821 94.803 128.325 95.1614 125.854C95.6734 122.322 96.1726 118.584 98.1822 115.538C100.064 112.696 102.854 110.482 105.965 109.112C111.161 106.834 117.037 106.68 122.707 107.026C124.717 107.154 126.739 107.333 128.646 107.973C130.553 108.613 132.345 109.752 133.433 111.429C134.982 113.822 134.905 116.894 134.675 119.736Z" fill="#FEC29B"/>
<path d="M114.883 132.339C115.906 132.272 116.643 130.817 116.53 129.088C116.416 127.36 115.495 126.013 114.472 126.08C113.449 126.148 112.712 127.603 112.826 129.331C112.939 131.06 113.86 132.406 114.883 132.339Z" fill="#1B1464"/>
<path d="M126.929 130.662C127.952 130.595 128.69 129.14 128.576 127.411C128.463 125.683 127.541 124.336 126.519 124.404C125.496 124.471 124.758 125.926 124.872 127.655C124.985 129.383 125.907 130.73 126.929 130.662Z" fill="#1B1464"/>
<path d="M111.446 123.412C112.05 123.052 113.014 122.716 113.982 122.654C114.954 122.593 115.795 122.813 116.329 123.389L117.362 122.432C116.425 121.42 115.082 121.173 113.892 121.249C112.696 121.324 111.516 121.732 110.725 122.203L111.446 123.412ZM116.329 123.389C116.594 123.675 117.039 123.691 117.324 123.426C117.609 123.161 117.626 122.716 117.361 122.432L116.329 123.389ZM110.724 122.204C110.39 122.404 110.281 122.835 110.479 123.169C110.679 123.503 111.11 123.612 111.445 123.413L110.724 122.204Z" fill="#1B1464"/>
<path d="M126.65 121.886C126.991 122.502 126.99 122.502 126.99 122.502C126.99 122.502 126.991 122.502 126.993 122.501C126.995 122.5 127.002 122.496 127.01 122.492C127.027 122.483 127.055 122.469 127.092 122.451C127.167 122.415 127.278 122.365 127.418 122.31C127.7 122.199 128.087 122.075 128.516 122.012C129.373 121.886 130.3 122.012 130.994 122.868L132.087 121.981C130.963 120.596 129.445 120.454 128.312 120.619C127.746 120.702 127.251 120.862 126.902 121.001C126.725 121.07 126.582 121.135 126.482 121.184C126.431 121.208 126.391 121.228 126.363 121.244C126.349 121.252 126.337 121.258 126.328 121.262C126.324 121.264 126.321 121.266 126.318 121.268C126.317 121.269 126.315 121.269 126.314 121.271C126.314 121.271 126.313 121.271 126.313 121.272C126.309 121.271 126.308 121.271 126.65 121.886ZM130.993 122.868C131.237 123.17 131.681 123.216 131.983 122.972C132.285 122.727 132.331 122.283 132.087 121.981L130.993 122.868ZM126.308 121.271C125.967 121.459 125.844 121.888 126.034 122.228C126.222 122.569 126.651 122.692 126.991 122.502L126.308 121.271Z" fill="#1B1464"/>
<path d="M114.029 143.221C116.205 145.301 119.333 146.329 122.317 145.971L122.149 144.573C119.577 144.882 116.869 143.989 115 142.203L114.029 143.221ZM122.317 145.971C122.703 145.925 122.978 145.574 122.932 145.187C122.886 144.801 122.536 144.526 122.149 144.572L122.317 145.971ZM115.001 142.203C114.72 141.934 114.274 141.944 114.006 142.226C113.737 142.507 113.747 142.953 114.029 143.221L115.001 142.203Z" fill="#1B1464"/>
<path d="M134.547 112.402C133.485 115.589 128.557 116.139 125.741 116.446C121.453 116.92 117.639 115.96 113.517 115C112.979 114.872 106.029 113.17 106.029 113.17C105.671 116.728 104.864 119.877 102.701 122.731C101.767 123.96 102.586 125.496 102.445 127.109C102.279 129.17 102.215 131.678 101.575 133.65C101.498 133.906 101.255 134.123 100.986 134.085C100.615 134.034 100.499 133.586 100.359 133.24C100.039 132.434 99.1297 131.704 98.2337 132.088C97.3889 132.459 96.9665 133.778 96.5313 134.507C96.1217 135.198 95.4817 135.787 95.2513 136.555C95.1745 136.811 95.1489 137.08 95.0337 137.323C94.9185 137.566 94.6881 137.784 94.4193 137.784C94.2273 137.784 94.0481 137.656 93.9073 137.528C92.5121 136.325 92.2817 134.738 91.8081 133.099C91.2705 131.179 91.0529 129.195 90.8609 127.224C90.7457 125.944 90.6433 124.651 90.4769 123.371C90.3361 122.258 90.0289 121.157 90.0161 120.03C89.9649 116.395 90.7201 112.709 92.4993 109.56C94.8289 105.464 99.5777 103.301 103.84 102.174C110.855 100.331 117.856 101.342 124.679 103.518C127.431 104.402 135.853 108.523 134.547 112.402Z" fill="#444DF2"/>
<path d="M124.282 131.836C123.719 131.324 123.319 131.033 123.021 130.64C122.778 130.318 122.642 129.963 122.737 129.386L121.347 129.158C121.185 130.142 121.44 130.882 121.897 131.488C122.3 132.021 122.911 132.492 123.335 132.878L124.282 131.836ZM125.498 134.606C125.53 133.55 125.047 132.523 124.279 131.833L123.338 132.88C123.825 133.317 124.109 133.954 124.091 134.562L125.498 134.606ZM118.797 137.1C119.931 137.757 121.493 138.127 122.838 137.86C123.524 137.724 124.186 137.414 124.685 136.855C125.189 136.29 125.471 135.532 125.497 134.603L124.089 134.564C124.069 135.221 123.879 135.643 123.633 135.918C123.383 136.198 123.022 136.388 122.561 136.478C121.616 136.667 120.4 136.403 119.498 135.881L118.797 137.1ZM122.737 129.386C122.8 129.002 122.54 128.64 122.156 128.577C121.772 128.514 121.409 128.774 121.347 129.158L122.737 129.386ZM123.808 132.357L123.335 132.878C123.336 132.879 123.337 132.88 123.338 132.88L123.808 132.357ZM124.794 134.584L124.09 134.562V134.564L124.794 134.584ZM119.501 135.882C119.164 135.687 118.734 135.803 118.538 136.139C118.344 136.476 118.459 136.906 118.796 137.102L119.501 135.882Z" fill="#1B1464"/>
<path d="M98.8608 124.843C98.0416 123.87 96.9024 123.23 95.3408 123.192C93.0496 123.141 90.848 124.715 90.0288 126.853C88.6976 130.296 90.9248 134.507 93.9328 136.274C96.608 137.848 99.744 136.926 100.525 133.816C100.87 132.434 100.73 130.974 100.602 129.566C100.422 127.864 99.9104 126.098 98.8608 124.843Z" fill="#FEC29B"/>
<path d="M97.4142 130.283C97.5076 129.586 97.5064 129.586 97.5064 129.586C97.5064 129.586 97.5063 129.586 97.5051 129.586H97.5038C97.5025 129.586 97.5012 129.586 97.4999 129.586C97.4961 129.586 97.4923 129.584 97.4871 129.584C97.4769 129.583 97.4628 129.582 97.4462 129.579C97.4116 129.575 97.3643 129.57 97.3041 129.566C97.1851 129.557 97.0187 129.547 96.8215 129.546C96.4311 129.543 95.8935 129.574 95.3495 129.715C94.8107 129.854 94.2052 130.118 93.7547 130.627C93.2849 131.157 93.0507 131.877 93.1287 132.777L94.5316 132.655C94.4817 132.083 94.6315 131.762 94.8094 131.561C95.0065 131.338 95.3137 131.178 95.7028 131.078C96.0868 130.978 96.4926 130.953 96.8151 130.954C96.9739 130.955 97.1044 130.963 97.1953 130.969C97.2401 130.973 97.2747 130.976 97.2964 130.978C97.3079 130.979 97.3156 130.981 97.3195 130.981C97.322 130.981 97.3233 130.981 97.3233 130.981C97.3208 130.981 97.3207 130.981 97.4142 130.283ZM92.9342 127.595C93.0391 128.291 93.0391 128.291 93.0391 128.291C93.0391 128.291 93.0417 128.291 93.0443 128.29C93.0494 128.289 93.0583 128.289 93.0699 128.286C93.0942 128.284 93.1326 128.279 93.1838 128.274C93.2849 128.263 93.4334 128.253 93.6139 128.249C93.9774 128.242 94.451 128.265 94.9182 128.375C95.3879 128.485 95.8116 128.674 96.1239 128.969C96.4209 129.25 96.6616 129.667 96.714 130.334L98.1182 130.227C98.0414 129.231 97.6587 128.48 97.0916 127.945C96.54 127.424 95.859 127.148 95.242 127.003C94.6212 126.857 94.0222 126.831 93.587 126.84C93.3668 126.844 93.1838 126.858 93.0532 126.869C92.9879 126.876 92.9355 126.882 92.8984 126.886C92.8792 126.889 92.8651 126.89 92.8535 126.892C92.8484 126.894 92.8433 126.894 92.8395 126.894C92.8382 126.894 92.8356 126.894 92.8356 126.895H92.8344C92.8344 126.895 92.8343 126.895 92.8331 126.895C92.8292 126.899 92.8292 126.899 92.9342 127.595ZM93.1287 132.777C93.162 133.164 93.5038 133.451 93.8916 133.417C94.2795 133.383 94.5662 133.042 94.5316 132.654L93.1287 132.777ZM97.4142 130.283L97.3207 130.981C97.5307 131.009 97.7432 130.94 97.898 130.794C98.0529 130.648 98.1323 130.441 98.1156 130.228L97.4142 130.283ZM92.8292 126.899C92.4452 126.958 92.1803 127.316 92.2391 127.7C92.298 128.084 92.6564 128.349 93.0404 128.29L92.8292 126.899Z" fill="#F4AC7D"/>
<path d="M120.64 154.809C115.338 155.046 109.051 153.417 104.666 150.485L103.883 151.655C108.535 154.766 115.124 156.464 120.703 156.215L120.64 154.809ZM104.667 150.485C104.343 150.269 103.907 150.356 103.69 150.68C103.474 151.004 103.561 151.44 103.885 151.657L104.667 150.485ZM120.704 156.215C121.092 156.197 121.393 155.868 121.376 155.48C121.359 155.092 121.029 154.791 120.641 154.808L120.704 156.215Z" fill="#1B1464"/>
</g>
<g clip-path="url(#clip2_171132_19726)">
<path d="M228 99H164V163H228V99Z" fill="#ADB0D9"/>
<path d="M203.284 163H174.802C174.903 162.699 175.007 162.4 175.108 162.1C177.14 156.078 177.933 150.247 178.049 143.934C185.261 145.77 192.834 144.983 200.275 144.906C203.044 144.878 202.113 147.045 202.149 149.061C202.192 151.581 202.323 154.1 202.541 156.612C202.725 158.748 202.973 160.879 203.284 163Z" fill="#ADB0D9"/>
<path d="M203.284 163H174.802C174.903 162.699 175.007 162.4 175.108 162.1C177.14 156.078 177.933 150.247 178.049 143.934C185.261 145.77 192.834 144.983 200.275 144.906C203.044 144.878 202.113 147.045 202.149 149.061C202.192 151.581 202.323 154.1 202.541 156.612C202.725 158.748 202.973 160.879 203.284 163Z" fill="#E8AE8E"/>
<path d="M183.085 149.089C183.131 149.144 183.178 149.199 183.224 149.253C183.818 149.952 184.416 150.654 185.115 151.25C188.759 154.35 194.431 154.706 198.92 155.581C201.646 156.112 204.375 156.203 207.062 155.38C210.159 154.43 212.938 152.336 214.495 149.495C216.433 145.954 216.354 141.697 216.226 137.662C216.153 135.372 216.081 133.084 216.008 130.794C215.962 129.358 215.917 127.92 215.99 126.485C216.169 122.949 217.093 119.321 216.33 115.796C215.697 112.87 213.249 109.816 210.518 108.576C206.207 106.619 201.042 106.103 196.377 106.63C193.002 107.012 189.568 107.416 186.465 108.795C183.677 110.034 180.064 111.614 178.575 114.38C176.687 117.888 175.613 121.943 175.156 125.883C174.779 129.139 174.847 132.448 175.362 135.686C175.85 138.749 176.665 141.536 178.69 143.918C180.153 145.642 181.619 147.365 183.085 149.089Z" fill="#F4C19F"/>
<path d="M203.338 139.134C202.957 139.134 202.643 138.83 202.634 138.447C202.626 138.058 202.933 137.735 203.322 137.726C205.077 137.685 205.777 137.177 206.969 136.082C205.607 133.039 204.805 129.811 204.584 126.478C204.558 126.09 204.851 125.755 205.239 125.729C205.625 125.705 205.962 125.996 205.988 126.384C206.206 129.666 207.059 132.975 208.457 135.952C208.588 136.229 208.524 136.558 208.3 136.766C206.669 138.284 205.709 139.079 203.354 139.133C203.35 139.134 203.345 139.134 203.338 139.134Z" fill="#1B1464"/>
<path d="M197.688 132.334C198.714 132.267 199.454 130.813 199.341 129.087C199.228 127.36 198.304 126.016 197.277 126.083C196.251 126.15 195.511 127.604 195.624 129.331C195.737 131.057 196.661 132.402 197.688 132.334Z" fill="#1B1464"/>
<path d="M211.909 131.935C212.935 131.867 213.676 130.413 213.562 128.687C213.449 126.961 212.525 125.616 211.499 125.684C210.472 125.751 209.732 127.205 209.845 128.931C209.959 130.657 210.883 132.002 211.909 131.935Z" fill="#1B1464"/>
<path d="M215.11 126.117C214.911 126.117 214.711 126.032 214.573 125.867C212.092 122.933 209.176 122.991 209.148 122.99C208.755 123.004 208.435 122.697 208.422 122.307C208.409 121.918 208.715 121.594 209.104 121.582C209.25 121.578 212.733 121.509 215.649 124.957C215.9 125.254 215.863 125.698 215.566 125.949C215.432 126.062 215.27 126.117 215.11 126.117Z" fill="#1B1464"/>
<path d="M190.987 127.276C190.939 127.276 190.89 127.271 190.84 127.261C190.46 127.182 190.217 126.803 190.296 126.423C190.327 126.274 191.142 122.75 198.339 120.747C198.714 120.643 199.101 120.862 199.205 121.236C199.309 121.611 199.09 121.999 198.716 122.103C192.447 123.849 191.68 126.693 191.672 126.721C191.602 127.054 191.313 127.276 190.987 127.276Z" fill="#1B1464"/>
<path d="M203.484 146.377C202.927 146.377 202.349 146.295 201.768 146.128C200.415 145.74 199.204 144.969 198.136 144.288C197.809 144.079 197.713 143.643 197.921 143.316C198.13 142.988 198.565 142.893 198.893 143.101C199.927 143.762 200.997 144.445 202.153 144.775C203.352 145.118 204.502 145.006 205.307 144.467C205.629 144.251 206.067 144.338 206.284 144.66C206.5 144.983 206.413 145.42 206.09 145.637C205.361 146.126 204.457 146.377 203.484 146.377Z" fill="#1B1464"/>
<path d="M177.934 137.674C177.446 135.521 177.985 133.086 178.091 130.892C178.106 130.615 178.13 130.309 178.314 130.113C178.688 129.715 179.298 130.071 179.803 130.237C180.737 130.544 181.786 130.05 182.404 129.243C183.133 128.29 183.345 127.003 183.377 125.772C183.394 125.076 183.338 124.482 183.066 123.859C182.9 123.484 182.538 122.416 182.136 122.277C183.784 122.845 185.783 122.75 187.008 121.447C187.374 121.058 187.65 120.583 187.886 120.093C188.512 118.787 189.128 116.469 187.946 115.325C189.087 116.473 190.716 117.303 192.311 116.908C193.938 116.505 195.173 114.423 194.39 112.851C195.202 114.567 196.219 116.464 197.97 116.924C199.918 117.436 202.054 115.454 201.847 113.327C202.705 115.483 204.019 117.635 206.077 118.455C208.134 119.274 210.954 118.043 211.165 115.712C211.109 116.323 210.868 116.978 210.899 117.586C211.014 119.851 213.056 121.595 214.767 122.601C216.406 123.563 218.33 124.629 220.296 124.3C222.155 123.991 223.077 122.424 223.351 120.546C223.53 119.316 223.451 117.925 222.644 117.024C221.738 118.45 220.054 119.265 218.45 119.056C219.373 118.512 220.06 117.405 219.905 116.294C219.721 114.959 218.429 114.435 217.359 114.691C218.424 113.327 219.825 112.312 219.745 110.287C219.657 108.041 217.847 105.751 216.072 104.742C215.146 104.216 214.062 103.911 213.041 104.163C212.019 104.416 211.101 105.327 211.021 106.442C210.753 104.253 209.357 102.347 207.613 101.158C205.87 99.9689 203.807 99.4185 201.754 99.1318C200.44 98.9475 199.044 98.8771 197.853 99.4953C196.663 100.114 195.789 101.63 196.242 102.956C194.71 100.559 191.954 99.2803 189.238 99.0998C186.522 98.9193 183.828 99.7129 181.289 100.757C180.322 101.155 179.316 101.635 178.735 102.549C177.48 104.526 178.856 107.156 180.29 108.987C179.435 107.107 177.133 106.675 175.174 106.633C173.133 106.589 170.685 106.982 169.83 108.958C168.902 111.101 170.505 113.459 171.999 115.198C169.791 114.211 166.929 116.121 166.797 118.67C166.665 121.218 169.312 123.453 171.61 122.73C171.053 121.976 169.812 122.27 169.32 123.074C168.827 123.877 168.896 124.929 169.101 125.863C169.432 127.383 170.076 128.824 170.972 130.058C171.662 131.008 173.185 131.769 173.748 130.729C172.12 130.887 170.644 132.192 170.196 133.868C169.748 135.544 170.359 137.483 171.665 138.531C172.244 138.997 172.993 139.298 173.698 139.116C174.404 138.935 174.987 138.149 174.81 137.399C174.102 137.083 173.258 137.684 173.023 138.462C172.787 139.241 173.011 140.094 173.34 140.833C173.933 142.165 174.875 143.317 176.031 144.126C176.293 144.309 176.593 144.482 176.902 144.435C177.375 144.363 177.646 143.832 177.805 143.353C178.437 141.451 178.365 139.596 177.934 137.674Z" fill="#444DF2"/>
<path d="M178.858 124.85C178.04 123.883 176.897 123.239 175.337 123.204C173.045 123.151 170.849 124.731 170.02 126.869C168.685 130.314 170.917 134.517 173.926 136.294C176.599 137.871 179.736 136.952 180.516 133.833C180.861 132.449 180.726 130.997 180.586 129.578C180.42 127.868 179.908 126.091 178.858 124.85Z" fill="#F4C19F"/>
<path d="M173.834 133.415C173.473 133.415 173.166 133.139 173.134 132.773C173.03 131.58 173.497 130.863 173.907 130.471C174.653 129.758 175.743 129.573 176.532 129.543C176.413 129.273 176.239 129.048 176.008 128.864C174.955 128.027 173.064 128.285 173.044 128.288C172.66 128.348 172.301 128.082 172.243 127.698C172.184 127.314 172.449 126.954 172.833 126.896C172.934 126.881 175.338 126.534 176.883 127.762C177.623 128.35 178.04 129.18 178.121 130.226C178.137 130.437 178.057 130.646 177.903 130.791C177.748 130.937 177.537 131.005 177.326 130.978C176.857 130.918 175.502 130.893 174.877 131.492C174.603 131.755 174.492 132.134 174.537 132.651C174.57 133.039 174.283 133.38 173.897 133.414C173.875 133.414 173.855 133.415 173.834 133.415Z" fill="#EAAA7F"/>
<path d="M201.688 156.321C201.49 156.321 198.185 156.303 193.949 155.206C189.981 154.178 184.434 151.964 180.545 147.256C180.298 146.957 180.34 146.512 180.64 146.265C180.939 146.018 181.383 146.061 181.631 146.36C185.271 150.767 190.511 152.856 194.265 153.834C198.37 154.903 201.65 154.913 201.691 154.913C202.08 154.913 202.395 155.228 202.395 155.616C202.395 156.005 202.081 156.32 201.692 156.321C201.692 156.321 201.691 156.321 201.688 156.321Z" fill="#1B1464"/>
</g>
<g clip-path="url(#clip3_171132_19726)">
<path d="M308 99H244V163H308V99Z" fill="#797EF3"/>
<path d="M293.28 128.235C292.883 127.237 292.845 126.123 292.806 125.048C292.768 123.742 292.973 122.36 293.638 121.323C294.15 120.517 294.957 119.915 296.121 119.736C296.889 119.621 298.041 119.672 298.566 120.299C299.129 120.965 299.398 122.181 299.437 123.026C299.488 124.152 299.168 125.24 298.861 126.302C298.515 127.467 298.195 129.925 296.749 130.219C295.225 130.552 293.817 129.618 293.28 128.235Z" fill="#D9A48E"/>
<path d="M288.07 163H259.59C259.693 162.565 259.795 162.13 259.898 161.694C261.933 152.965 262.726 144.504 262.842 135.352C270.048 138.014 277.626 136.875 285.062 136.76C287.827 136.722 286.906 139.858 286.931 142.789C286.97 146.45 287.11 150.098 287.328 153.733C287.52 156.83 287.763 159.928 288.07 163Z" fill="#D9A48E"/>
<path d="M295.751 116.562C296.48 120.082 296.275 123.794 296.519 127.518C296.621 129.144 296.775 130.757 296.992 132.37C297.671 137.336 298.963 142.661 296.775 147.166C295.162 150.482 291.834 152.734 288.263 153.682C285.677 154.373 283.015 154.398 280.365 154.168C276.256 153.81 271.943 152.773 268.231 150.738C265.952 149.496 263.904 147.87 262.266 145.822C260.115 143.109 259.527 140.728 259.143 137.438C257.85 126.392 251.232 113.81 263.431 106.194C272.378 100.6 287.251 101.778 293.434 110.942C294.663 112.734 295.354 114.616 295.751 116.562Z" fill="#E5B69E"/>
<path d="M277.953 131.576C278.958 131.375 279.498 129.836 279.16 128.137C278.821 126.439 277.731 125.224 276.726 125.425C275.721 125.625 275.18 127.165 275.519 128.863C275.858 130.562 276.947 131.776 277.953 131.576Z" fill="#1B1464"/>
<path d="M289.676 128.323C290.682 128.123 291.222 126.583 290.883 124.885C290.544 123.186 289.455 121.972 288.45 122.172C287.444 122.373 286.904 123.912 287.243 125.611C287.582 127.309 288.671 128.524 289.676 128.323Z" fill="#1B1464"/>
<path d="M273.386 123.184C273.942 122.75 274.856 122.293 275.808 122.105C276.765 121.917 277.632 122.022 278.243 122.521L279.133 121.431C278.067 120.56 276.707 120.494 275.537 120.724C274.362 120.956 273.245 121.509 272.521 122.075L273.386 123.184ZM278.243 122.521C278.543 122.767 278.988 122.722 279.233 122.421C279.479 122.121 279.434 121.676 279.133 121.431L278.243 122.521ZM272.521 122.073C272.214 122.313 272.16 122.754 272.399 123.061C272.639 123.369 273.08 123.422 273.388 123.183L272.521 122.073Z" fill="#1B1464"/>
<path d="M285.062 118.149C285.48 118.716 285.48 118.716 285.48 118.716C285.48 118.716 285.481 118.715 285.482 118.715C285.485 118.712 285.49 118.708 285.499 118.703C285.514 118.691 285.54 118.675 285.574 118.652C285.643 118.607 285.747 118.542 285.879 118.469C286.145 118.322 286.513 118.147 286.93 118.03C287.764 117.794 288.698 117.799 289.494 118.556L290.464 117.536C289.172 116.308 287.649 116.364 286.547 116.675C285.997 116.832 285.527 117.054 285.198 117.237C285.032 117.33 284.899 117.411 284.805 117.473C284.758 117.504 284.721 117.529 284.694 117.547C284.681 117.556 284.669 117.564 284.662 117.57C284.658 117.573 284.654 117.575 284.651 117.578C284.65 117.579 284.649 117.579 284.648 117.58L284.646 117.582C284.645 117.582 284.645 117.582 285.062 118.149ZM289.492 118.557C289.774 118.825 290.219 118.814 290.488 118.531C290.756 118.25 290.746 117.804 290.463 117.536L289.492 118.557ZM284.645 117.582C284.333 117.812 284.266 118.254 284.497 118.566C284.727 118.878 285.169 118.945 285.481 118.715L284.645 117.582Z" fill="#1B1464"/>
<path d="M278.542 142.487C280.978 144.262 284.202 144.879 287.121 144.123L286.767 142.759C284.259 143.411 281.467 142.876 279.372 141.349L278.542 142.487ZM287.121 144.123C287.497 144.025 287.724 143.641 287.625 143.265C287.528 142.889 287.144 142.662 286.767 142.761L287.121 144.123ZM279.372 141.35C279.058 141.121 278.616 141.19 278.389 141.505C278.161 141.82 278.228 142.26 278.543 142.488L279.372 141.35Z" fill="#1B1464"/>
<path d="M285.624 126.839C285.494 126.206 285.534 125.548 285.586 124.777L284.182 124.682C284.132 125.42 284.069 126.273 284.246 127.125L285.624 126.839ZM287.669 130.473C286.67 129.437 285.91 128.234 285.624 126.84L284.245 127.123C284.599 128.851 285.53 130.284 286.655 131.452L287.669 130.473ZM288.246 134.988C288.891 134.192 289.073 133.342 288.885 132.516C288.707 131.733 288.214 131.046 287.671 130.476L286.651 131.447C287.119 131.938 287.415 132.404 287.511 132.828C287.598 133.207 287.543 133.619 287.151 134.101L288.246 134.988ZM282.591 135.797C283.404 136.135 284.445 136.347 285.454 136.284C286.46 136.221 287.529 135.874 288.246 134.99L287.153 134.103C286.77 134.575 286.142 134.83 285.366 134.878C284.593 134.927 283.766 134.761 283.131 134.497L282.591 135.797ZM285.586 124.775C285.613 124.388 285.32 124.052 284.931 124.025C284.543 123.998 284.207 124.292 284.181 124.681L285.586 124.775ZM284.934 126.981L285.624 126.84V126.839L284.934 126.981ZM287.162 130.962L287.671 130.476C287.67 130.475 287.669 130.474 287.667 130.473L287.162 130.962ZM283.131 134.497C282.773 134.347 282.36 134.517 282.211 134.877C282.061 135.236 282.231 135.648 282.591 135.797L283.131 134.497Z" fill="#1B1464"/>
<path d="M288.147 143.672C288.147 143.698 288.135 143.723 288.135 143.749C288.058 144.248 287.802 144.696 287.482 145.08C286.394 146.386 284.589 146.987 282.912 146.782C281.235 146.578 279.687 145.63 278.573 144.35C278.01 143.698 277.549 142.942 277.421 142.098C277.37 141.752 277.395 141.355 277.664 141.138C277.767 141.048 277.895 140.997 278.023 140.958C279.559 140.459 281.197 141.099 282.759 141.496C283.68 141.726 284.627 141.88 285.575 141.982C286.829 142.123 288.378 141.854 288.147 143.672ZM296.531 127.518C296.365 127.954 296.263 128.402 296.173 128.85C295.802 130.821 295.981 132.882 295.367 134.814C294.816 136.542 293.37 138.104 292 139.243C291.693 139.499 291.36 139.755 290.976 139.896C289.555 140.421 288.16 139.627 286.765 139.602C285.818 139.576 284.871 139.704 283.923 139.653C281.888 139.538 279.93 138.565 277.882 138.654C275.911 138.744 274.349 140.05 272.506 140.626C271.29 141.01 269.933 140.792 268.807 140.19C267.834 139.678 266.797 138.859 266.272 137.874C265.671 136.734 265.543 135.262 265.095 134.046C264.826 133.304 263.367 130.206 263.021 132.472C262.803 133.867 262.739 135.237 262.227 136.581C261.933 137.362 261.536 138.104 261.28 138.898C259.527 144.402 263.827 148.344 268.218 150.75C271.93 152.773 276.243 153.822 280.352 154.181C282.989 154.411 285.664 154.373 288.25 153.694C291.808 152.747 295.149 150.482 296.762 147.179C298.951 142.674 297.658 137.349 296.979 132.382C296.787 130.757 296.634 129.144 296.531 127.518Z" fill="#1B1464"/>
<path d="M261.229 126.264C260.294 125.406 259.078 124.92 257.517 125.099C255.238 125.342 253.267 127.198 252.73 129.426C251.859 133.01 254.624 136.888 257.837 138.258C260.691 139.474 263.686 138.155 264.045 134.955C264.211 133.534 263.878 132.114 263.558 130.731C263.174 129.054 262.432 127.352 261.229 126.264Z" fill="#E5B69E"/>
<path d="M260.499 131.832C260.499 131.128 260.499 131.128 260.499 131.128C260.499 131.128 260.499 131.128 260.498 131.128H260.497C260.495 131.128 260.494 131.128 260.493 131.128C260.489 131.128 260.485 131.128 260.48 131.128C260.47 131.128 260.456 131.128 260.439 131.129C260.404 131.131 260.356 131.132 260.297 131.134C260.178 131.141 260.011 131.154 259.816 131.178C259.428 131.228 258.898 131.328 258.377 131.539C257.86 131.747 257.295 132.088 256.914 132.652C256.517 133.24 256.378 133.982 256.573 134.864L257.948 134.558C257.824 134 257.93 133.664 258.08 133.44C258.246 133.194 258.53 132.994 258.904 132.843C259.273 132.693 259.672 132.614 259.992 132.574C260.15 132.554 260.282 132.545 260.371 132.54C260.416 132.537 260.45 132.536 260.474 132.536C260.485 132.536 260.493 132.536 260.497 132.536C260.499 132.536 260.5 132.536 260.5 132.536C260.499 132.536 260.499 132.536 260.499 131.832ZM255.712 129.758C255.908 130.434 255.908 130.434 255.908 130.434C255.908 130.434 255.91 130.434 255.913 130.433C255.918 130.432 255.926 130.429 255.938 130.427C255.963 130.42 256 130.411 256.05 130.4C256.15 130.377 256.296 130.347 256.474 130.319C256.834 130.264 257.306 130.224 257.784 130.272C258.266 130.319 258.708 130.451 259.055 130.702C259.386 130.94 259.676 131.321 259.813 131.975L261.192 131.689C260.988 130.711 260.512 130.017 259.881 129.56C259.266 129.116 258.556 128.933 257.924 128.87C257.29 128.807 256.692 128.861 256.261 128.926C256.043 128.96 255.863 128.997 255.735 129.026C255.671 129.042 255.62 129.054 255.583 129.063C255.565 129.068 255.549 129.072 255.539 129.075C255.534 129.076 255.529 129.077 255.526 129.079C255.525 129.079 255.524 129.08 255.522 129.08H255.521C255.521 129.08 255.521 129.08 255.52 129.08C255.516 129.083 255.516 129.083 255.712 129.758ZM256.573 134.864C256.658 135.244 257.034 135.483 257.413 135.399C257.792 135.316 258.031 134.939 257.948 134.56L256.573 134.864ZM260.499 131.832V132.536C260.712 132.536 260.911 132.44 261.046 132.276C261.179 132.112 261.233 131.896 261.189 131.689L260.499 131.832ZM255.516 129.083C255.142 129.191 254.927 129.582 255.036 129.954C255.145 130.328 255.535 130.543 255.908 130.434L255.516 129.083Z" fill="#DB9F7F"/>
<path d="M259.616 113.835C258.797 113.835 258.797 115.115 259.616 115.115C260.448 115.115 260.448 113.835 259.616 113.835Z" fill="#DB9F7F"/>
<path d="M260.704 111.582C259.885 111.582 259.885 112.862 260.704 112.862C261.523 112.862 261.523 111.582 260.704 111.582Z" fill="#DB9F7F"/>
<path d="M262.035 113.746C261.216 113.746 261.216 115.026 262.035 115.026C262.854 115.026 262.854 113.746 262.035 113.746Z" fill="#DB9F7F"/>
</g>
<g clip-path="url(#clip4_171132_19726)">
<path d="M388 99H324V163H388V99Z" fill="#797EF3"/>
<path d="M363.668 163H340.165C340.735 160.912 341.197 159.063 341.282 158.675C342.031 155.243 342.505 151.762 342.694 148.269C342.793 146.457 342.816 144.642 342.762 142.83C342.725 141.574 342.153 139.567 342.722 138.37C343.813 136.075 348.883 138.77 351.135 139.063C355.002 139.567 358.934 139.33 362.813 139.095C362.223 147.063 362.513 155.083 363.668 163Z" fill="#797EF3"/>
<path d="M380.019 134.826C380.381 136.466 381.078 138.055 381.09 139.736C380.742 139.82 380.418 139.543 380.179 139.276C377.649 136.457 376.845 132.521 376.314 128.769C375.986 126.452 375.145 122.604 376.243 120.411C376.802 119.293 378.827 117.994 379.985 119.069C381.353 120.343 380.25 124.833 380.068 126.468C379.759 129.24 379.409 132.066 380.019 134.826Z" fill="#444DF2"/>
<path d="M360.06 103.28C358.981 102.667 357.861 102.126 356.7 101.67C351.743 99.727 345.92 99.5299 341.225 102.045C337.095 104.258 334.202 108.353 332.644 112.773C331.086 117.193 330.743 121.945 330.719 126.63C330.688 132.326 331.109 138.018 331.811 143.669C332.259 147.284 333.377 156.577 338.215 156.769C344.152 157.003 350.112 156.709 355.999 155.895C361.013 155.202 369.274 159.019 373.28 155.576C375.672 153.519 374.8 146.127 375.826 143.143C377.074 139.518 378.005 135.749 378.116 131.916C378.263 126.864 376.949 121.776 374.372 117.428C373.001 115.115 371.29 113.019 369.464 111.045C366.696 108.052 363.589 105.285 360.06 103.28Z" fill="#444DF2"/>
<path d="M363.668 163H340.165C340.735 160.912 341.197 159.063 341.282 158.675C342.031 155.243 342.505 151.762 342.694 148.269C342.793 146.457 342.816 144.642 342.762 142.83C342.725 141.574 342.153 139.567 342.722 138.37C343.813 136.075 348.883 138.77 351.135 139.063C355.002 139.567 358.934 139.33 362.813 139.095C362.223 147.063 362.513 155.083 363.668 163Z" fill="#E8AE8E"/>
<path d="M343.037 146.896C346.949 151.097 352.335 153.761 358.117 155.254C363.621 156.674 370.102 156.842 374.315 153.026C377.856 149.821 378.821 144.691 379.184 139.928C379.62 134.222 379.481 128.487 379.232 122.771C379.123 120.285 378.991 117.783 378.395 115.369C377.492 111.718 375.238 106.867 371.67 105.246C367.359 103.289 362.194 102.774 357.529 103.301C354.154 103.682 350.72 104.087 347.617 105.465C344.829 106.704 341.216 108.285 339.727 111.051C337.839 114.558 336.765 118.614 336.308 122.553C335.615 128.528 336.425 134.695 338.748 140.251C339.812 142.802 341.275 145.005 343.037 146.896Z" fill="#F4C19F"/>
<path d="M339.754 123.57C338.936 122.603 337.793 121.959 336.233 121.924C333.941 121.871 331.745 123.451 330.916 125.589C329.581 129.034 331.813 133.237 334.822 135.014C337.495 136.591 340.632 135.672 341.412 132.553C341.757 131.169 341.622 129.717 341.482 128.298C341.316 126.588 340.804 124.811 339.754 123.57Z" fill="#F4C19F"/>
<path d="M334.73 132.135C334.369 132.135 334.062 131.859 334.03 131.493C333.926 130.3 334.393 129.583 334.803 129.191C335.549 128.478 336.639 128.293 337.428 128.263C337.309 127.993 337.135 127.768 336.904 127.584C335.851 126.747 333.96 127.005 333.94 127.008C333.556 127.067 333.197 126.802 333.139 126.418C333.08 126.034 333.345 125.674 333.729 125.616C333.83 125.601 336.234 125.254 337.779 126.482C338.519 127.07 338.936 127.9 339.017 128.946C339.033 129.157 338.953 129.365 338.799 129.511C338.644 129.657 338.433 129.725 338.222 129.698C337.753 129.638 336.398 129.613 335.773 130.212C335.499 130.475 335.388 130.854 335.433 131.371C335.466 131.759 335.179 132.1 334.793 132.134C334.771 132.134 334.751 132.135 334.73 132.135Z" fill="#EAAA7F"/>
<path d="M351.32 120.332C351.316 120.338 351.314 120.343 351.31 120.348C350.888 120.966 349.394 120.905 348.749 120.987C348.212 121.054 340.607 121.728 340.571 121.371C340.861 124.334 341.152 127.298 341.443 130.261C341.811 134.027 342.125 138.072 340.246 141.356C340.933 136.348 340.032 131.133 337.704 126.645C336.963 125.216 336.068 123.826 335.753 122.246C335.483 120.887 335.663 119.479 335.95 118.123C336.667 114.747 338.051 111.513 339.999 108.664C343.576 103.434 350.068 100.764 356.232 100.326C358.971 100.132 361.725 100.16 364.459 100.411C368.376 100.77 372.837 102.045 375.423 105.205C376.945 107.067 377.919 109.304 378.874 111.511C379.091 112.014 382.12 121.28 381.353 121.112C379.794 120.773 378.236 120.434 376.677 120.094C375.004 119.731 373.33 119.366 371.633 119.142C368.165 118.685 364.659 118.826 361.185 119.131C360.275 119.21 354.601 120.507 354.148 119.2C353.398 117.036 352.646 114.873 351.896 112.71C351.773 112.357 351.258 111.98 351.139 112.335C351.141 113.821 352.045 119.212 351.32 120.332Z" fill="#444DF2"/>
<path d="M364.49 139.134C364.102 139.134 363.787 138.821 363.786 138.433C363.785 138.044 364.098 137.728 364.486 137.726C364.532 137.726 369.03 137.67 369.286 135.177C369.387 134.186 369.09 133.842 368.552 133.218C367.666 132.194 366.454 130.791 366.534 126.25C366.541 125.866 366.854 125.559 367.238 125.559C367.242 125.559 367.247 125.559 367.251 125.559C367.64 125.565 367.95 125.886 367.942 126.276C367.871 130.279 368.838 131.398 369.617 132.298C370.223 132.999 370.85 133.726 370.687 135.321C370.301 139.069 364.729 139.134 364.493 139.136C364.493 139.134 364.491 139.134 364.49 139.134Z" fill="#1B1464"/>
<path d="M358.837 132.334C359.863 132.267 360.603 130.813 360.49 129.087C360.377 127.361 359.453 126.016 358.426 126.083C357.4 126.151 356.66 127.605 356.773 129.331C356.886 131.057 357.81 132.402 358.837 132.334Z" fill="#1B1464"/>
<path d="M373.058 131.935C374.085 131.868 374.825 130.414 374.712 128.688C374.598 126.961 373.674 125.617 372.648 125.684C371.622 125.751 370.881 127.205 370.995 128.931C371.108 130.658 372.032 132.002 373.058 131.935Z" fill="#1B1464"/>
<path d="M376.562 125.369C376.418 125.369 376.273 125.326 376.147 125.234C373.074 122.987 370.311 123.686 370.194 123.717C369.819 123.817 369.434 123.595 369.333 123.22C369.232 122.846 369.451 122.461 369.823 122.357C369.965 122.319 373.333 121.432 376.978 124.096C377.292 124.325 377.361 124.765 377.132 125.08C376.994 125.269 376.78 125.369 376.562 125.369Z" fill="#1B1464"/>
<path d="M351.574 126.133C351.464 126.133 351.351 126.108 351.246 126.052C350.902 125.87 350.77 125.445 350.952 125.101C351.022 124.967 352.746 121.858 360.051 121.858C360.115 121.858 360.179 121.858 360.245 121.86C360.634 121.862 360.946 122.18 360.943 122.569C360.941 122.955 360.626 123.268 360.239 123.268C360.238 123.268 360.236 123.268 360.234 123.268C353.722 123.22 352.21 125.732 352.197 125.757C352.072 125.997 351.827 126.133 351.574 126.133Z" fill="#1B1464"/>
<path d="M363.319 145.107C357.747 145.107 354.041 140.595 353.874 140.39C353.63 140.088 353.677 139.644 353.98 139.401C354.282 139.156 354.725 139.204 354.97 139.507C355.027 139.577 358.938 144.299 364.406 143.634C364.793 143.588 365.143 143.862 365.189 144.248C365.237 144.633 364.961 144.985 364.575 145.031C364.147 145.083 363.728 145.107 363.319 145.107Z" fill="#1B1464"/>
<path d="M362.504 156.728C354.297 156.728 345.919 150.452 345.567 150.185C345.257 149.95 345.195 149.509 345.431 149.199C345.665 148.889 346.107 148.828 346.418 149.062C346.501 149.125 354.776 155.319 362.505 155.319C362.894 155.319 363.209 155.634 363.209 156.023C363.209 156.412 362.893 156.728 362.504 156.728Z" fill="#1B1464"/>
</g>
<g clip-path="url(#clip5_171132_19726)">
<path d="M468 99.0015H404V163H468V99.0015Z" fill="#444DF2"/>
<path d="M441.651 152.21C441.207 155.775 440.781 159.397 440.639 163H410.768C411.161 162.397 411.626 161.76 412.149 161.065C414.713 157.659 416.79 153.888 418.309 149.905C419.068 147.914 419.689 145.869 420.159 143.79C420.487 142.348 421.58 139.216 421.089 137.794C421.37 138.608 421.765 139.36 422.25 140.055C423.785 142.253 426.218 143.854 428.748 144.865C432.077 146.195 435.669 146.709 439.114 147.698C439.835 147.905 440.585 148.156 441.088 148.713C441.905 149.619 441.802 150.999 441.651 152.21Z" fill="#444DF2"/>
<path d="M441.651 152.21C441.207 155.775 440.781 159.397 440.639 163H410.768C411.161 162.397 411.626 161.76 412.149 161.065C414.713 157.659 416.79 153.888 418.309 149.905C419.068 147.914 419.689 145.869 420.159 143.79C420.487 142.348 421.58 139.216 421.089 137.794C421.37 138.608 421.765 139.36 422.25 140.055C423.785 142.253 426.218 143.854 428.748 144.865C432.077 146.195 435.669 146.709 439.114 147.698C439.835 147.905 440.585 148.156 441.088 148.713C441.905 149.619 441.802 150.999 441.651 152.21Z" fill="#EAAA7F"/>
<path d="M417.551 122.301C417.51 119.5 417.807 116.664 419.102 114.149C421.321 109.831 426.19 107.155 431.137 106.218C436.086 105.281 441.174 105.829 446.157 106.418C449.151 106.772 453.615 107.312 455.222 110.055C457.345 113.678 457.551 118.906 457.974 122.96C458.396 127.014 458.912 131.057 459.317 135.113C459.671 138.67 459.534 142.446 458.095 145.828C456.376 149.87 452.613 153.157 448.151 154.244C441.804 155.789 433.135 153.778 429.051 148.961C426.052 145.425 422.691 141.569 420.705 137.42C418.664 133.152 417.833 128.427 417.6 123.75C417.576 123.268 417.558 122.785 417.551 122.301Z" fill="#F7C9A4"/>
<path d="M422.113 139.611C421.203 139.713 420.31 139.626 419.492 139.202C418.491 138.682 417.793 137.736 417.152 136.809C413.559 131.624 410.813 125.387 410.248 119.046C410.031 116.615 410.598 114 412.306 112.256C412.741 111.811 413.245 111.426 413.591 110.909C414.047 110.228 414.182 109.39 414.474 108.623C415.435 106.093 417.983 104.306 420.438 103.168C431.734 97.9327 445.659 97.1468 456.306 103.602C457.209 104.15 458.103 105.019 458.728 105.87C461.352 109.447 458.793 114.438 455.522 116.404C450.87 119.202 446.026 120.359 440.595 119.732C436.036 119.205 431.661 117.681 427.328 116.167C429.021 120.308 428.957 124.984 427.393 129.149C426.667 131.083 426.847 132.137 426.827 134.153C426.816 135.327 426.862 138.09 425.481 138.638C424.409 139.063 423.248 139.484 422.113 139.611Z" fill="#1B1464"/>
<path d="M423.377 127.248C426.807 129.627 427.864 135.564 427.951 139.452C427.955 139.634 427.958 139.824 428.038 139.987C428.298 140.524 424.636 140.711 424.339 140.713C422.894 140.727 421.448 140.575 420.037 140.257C418.506 139.913 418.04 139.51 417.13 138.193C416.366 137.087 415.768 135.861 415.446 134.554C414.922 132.433 415.169 130.078 416.364 128.25C416.759 127.645 417.26 127.097 417.876 126.721C419.54 125.708 421.775 126.137 423.377 127.248Z" fill="#F7C9A4"/>
<path d="M426.026 139.71C423.088 141.708 419.428 140.528 418.39 139.648C416.878 138.367 415.913 136.456 415.444 134.555C414.921 132.434 415.168 130.079 416.362 128.251C416.758 127.646 417.258 127.098 417.875 126.722C419.539 125.708 421.774 126.138 423.376 127.248C425.126 128.461 426.324 130.439 426.591 132.552" fill="#F7C9A4"/>
<path d="M444.612 132.524C445.553 132.462 446.233 131.128 446.129 129.543C446.025 127.959 445.177 126.725 444.235 126.787C443.293 126.848 442.614 128.183 442.718 129.767C442.822 131.352 443.67 132.586 444.612 132.524Z" fill="#1B1464"/>
<path d="M454.611 129.455C455.553 129.393 456.232 128.058 456.128 126.474C456.024 124.89 455.176 123.655 454.235 123.717C453.293 123.779 452.614 125.113 452.718 126.698C452.822 128.282 453.669 129.516 454.611 129.455Z" fill="#1B1464"/>
<path d="M450.748 140.727C449.317 140.727 447.886 140.303 446.943 139.951C446.609 139.826 446.438 139.455 446.564 139.119C446.689 138.785 447.062 138.615 447.396 138.741C448.481 139.146 451.179 139.976 452.778 138.919C452.906 138.834 452.946 138.788 452.957 138.771C452.961 138.71 452.913 138.547 452.891 138.476C452.484 137.123 451.969 135.777 451.473 134.477C450.707 132.474 449.916 130.402 449.469 128.208C449.398 127.858 449.624 127.517 449.974 127.445C450.323 127.373 450.665 127.6 450.737 127.949C451.163 130.039 451.935 132.06 452.681 134.016C453.186 135.338 453.709 136.707 454.13 138.103C454.204 138.348 454.327 138.756 454.185 139.181C454.048 139.592 453.724 139.843 453.492 139.996C452.677 140.534 451.713 140.727 450.748 140.727Z" fill="#1B1464"/>
<path d="M437.765 129.425C437.453 129.425 437.178 129.197 437.128 128.879C436.694 126.11 438.409 123.169 441.033 122.184C441.367 122.059 441.739 122.228 441.865 122.562C441.99 122.896 441.821 123.268 441.487 123.394C439.416 124.171 438.062 126.493 438.405 128.678C438.46 129.03 438.219 129.361 437.866 129.416C437.832 129.422 437.798 129.425 437.765 129.425Z" fill="#1B1464"/>
<path d="M456.433 121.726C456.172 121.726 455.926 121.566 455.829 121.308C455.684 120.922 455.349 120.601 454.911 120.426C454.473 120.25 454.008 120.252 453.637 120.428C453.316 120.583 452.929 120.446 452.776 120.125C452.621 119.804 452.758 119.417 453.079 119.262C453.775 118.928 454.619 118.915 455.392 119.225C456.165 119.535 456.765 120.127 457.038 120.851C457.164 121.185 456.996 121.557 456.662 121.684C456.586 121.712 456.508 121.726 456.433 121.726Z" fill="#1B1464"/>
<path d="M448.123 147.407C446.488 147.407 444.852 146.945 443.507 146.028C443.213 145.827 443.136 145.425 443.338 145.129C443.539 144.835 443.941 144.758 444.237 144.959C446.413 146.444 449.498 146.511 451.738 145.121C452.041 144.933 452.439 145.027 452.627 145.33C452.815 145.633 452.722 146.031 452.418 146.22C451.141 147.013 449.632 147.407 448.123 147.407Z" fill="#1B1464"/>
<path d="M440.832 155.698C440.792 155.698 440.753 155.694 440.712 155.686C435.765 154.756 430.801 151.734 426.737 147.177C426.499 146.911 426.523 146.503 426.789 146.264C427.055 146.026 427.464 146.051 427.702 146.317C431.578 150.661 436.283 153.539 440.951 154.415C441.302 154.482 441.532 154.818 441.467 155.169C441.408 155.482 441.137 155.698 440.832 155.698Z" fill="#1B1464"/>
<path d="M419.856 136.302C419.525 136.302 419.242 136.049 419.214 135.712C419.119 134.617 419.547 133.959 419.923 133.599C420.608 132.945 421.608 132.774 422.333 132.747C422.224 132.5 422.066 132.294 421.855 132.126C420.882 131.349 419.147 131.592 419.131 131.595C418.779 131.646 418.45 131.403 418.397 131.051C418.345 130.699 418.587 130.37 418.939 130.316C419.032 130.302 421.239 129.983 422.657 131.111C423.337 131.651 423.72 132.413 423.792 133.373C423.808 133.567 423.734 133.758 423.593 133.892C423.451 134.027 423.256 134.088 423.063 134.064C422.633 134.009 421.389 133.984 420.815 134.535C420.563 134.777 420.461 135.125 420.503 135.6C420.534 135.956 420.271 136.269 419.915 136.3C419.895 136.301 419.876 136.302 419.856 136.302Z" fill="#EAAA7F"/>
</g>
<defs>
<clipPath id="clip0_171132_19726">
<rect x="4" y="99" width="64" height="64" rx="32" fill="white"/>
</clipPath>
<clipPath id="clip1_171132_19726">
<rect x="84" y="99" width="64" height="64" rx="32" fill="white"/>
</clipPath>
<clipPath id="clip2_171132_19726">
<rect x="164" y="99" width="64" height="64" rx="32" fill="white"/>
</clipPath>
<clipPath id="clip3_171132_19726">
<rect x="244" y="99" width="64" height="64" rx="32" fill="white"/>
</clipPath>
<clipPath id="clip4_171132_19726">
<rect x="324" y="99" width="64" height="64" rx="32" fill="white"/>
</clipPath>
<clipPath id="clip5_171132_19726">
<rect x="404" y="99" width="64" height="64" rx="32" fill="white"/>
</clipPath>
</defs>
</svg>
