<svg width="66" height="46" viewBox="0 0 66 46" fill="none" xmlns="http://www.w3.org/2000/svg">
<path d="M23 0.5H41C54.531 0.5 65.5 11.469 65.5 25V45.5H23C10.5736 45.5 0.5 35.4264 0.5 23C0.5 10.5736 10.5736 0.5 23 0.5Z" fill="white"/>
<path d="M23 0.5H41C54.531 0.5 65.5 11.469 65.5 25V45.5H23C10.5736 45.5 0.5 35.4264 0.5 23C0.5 10.5736 10.5736 0.5 23 0.5Z" stroke="#ADB0D9"/>
<rect x="13" y="3" width="40" height="40" rx="20" fill="#ECEEFE"/>
<mask id="mask0_1817_19850" style="mask-type:alpha" maskUnits="userSpaceOnUse" x="21" y="11" width="24" height="24">
<rect x="21" y="11" width="24" height="24" fill="#D9D9D9"/>
</mask>
<g mask="url(#mask0_1817_19850)">
<path d="M33 33.8C31.5 33.8 30.0956 33.5167 28.787 32.9501C27.479 32.3834 26.3376 31.6127 25.363 30.6381C24.3876 29.6627 23.6166 28.5207 23.05 27.212C22.4833 25.904 22.2 24.5 22.2 23C22.2 21.5 22.4833 20.0917 23.05 18.775C23.6166 17.4584 24.3876 16.3127 25.363 15.338C26.3376 14.3627 27.479 13.5957 28.787 13.037C30.0956 12.479 31.5 12.2 33 12.2C33.7666 12.2 34.5126 12.275 35.238 12.425C35.9626 12.575 36.65 12.7917 37.3 13.075C37.1166 13.3584 36.9666 13.6584 36.85 13.975C36.7333 14.2917 36.675 14.6334 36.675 15C36.675 15.1334 36.6833 15.2624 36.7 15.387C36.7166 15.5124 36.7416 15.6417 36.775 15.775C36.2083 15.475 35.6083 15.2457 34.975 15.087C34.3416 14.929 33.6833 14.85 33 14.85C30.7333 14.85 28.8083 15.6417 27.225 17.225C25.6416 18.8084 24.85 20.7334 24.85 23C24.85 25.2667 25.6416 27.1917 27.225 28.775C28.8083 30.3584 30.7333 31.15 33 31.15C35.2666 31.15 37.1916 30.3584 38.775 28.775C40.3583 27.1917 41.15 25.2667 41.15 23C41.15 22.4667 41.1 21.95 41 21.45C40.9 20.95 40.7583 20.4667 40.575 20C40.7916 20.1 41.021 20.179 41.263 20.237C41.5043 20.2957 41.75 20.325 42 20.325C42.25 20.325 42.4916 20.3 42.725 20.25C42.9583 20.2 43.1833 20.125 43.4 20.025C43.5333 20.5084 43.6333 20.996 43.7 21.488C43.7666 21.9794 43.7999 22.4834 43.7999 23C43.7999 24.5 43.5206 25.904 42.962 27.212C42.4039 28.5207 41.6376 29.6627 40.663 30.6381C39.6876 31.6127 38.5416 32.3834 37.225 32.9501C35.9083 33.5167 34.5 33.8 33 33.8ZM36.7 22.2C37.2 22.2 37.6166 22.0334 37.95 21.7C38.2833 21.3667 38.45 20.95 38.45 20.45C38.45 19.95 38.2833 19.5334 37.95 19.2C37.6166 18.8667 37.2 18.7 36.7 18.7C36.2 18.7 35.7833 18.8667 35.45 19.2C35.1166 19.5334 34.95 19.95 34.95 20.45C34.95 20.95 35.1166 21.3667 35.45 21.7C35.7833 22.0334 36.2 22.2 36.7 22.2ZM29.3 22.2C29.8 22.2 30.2166 22.0334 30.55 21.7C30.8833 21.3667 31.05 20.95 31.05 20.45C31.05 19.95 30.8833 19.5334 30.55 19.2C30.2166 18.8667 29.8 18.7 29.3 18.7C28.8 18.7 28.3833 18.8667 28.05 19.2C27.7166 19.5334 27.55 19.95 27.55 20.45C27.55 20.95 27.7166 21.3667 28.05 21.7C28.3833 22.0334 28.8 22.2 29.3 22.2ZM33 29C34.3833 29 35.5666 28.6124 36.55 27.837C37.5333 27.0624 38.2166 26.1334 38.6 25.05H27.4C27.7833 26.1334 28.4666 27.0624 29.45 27.837C30.4333 28.6124 31.6166 29 33 29ZM40.6749 16.325H40C39.6333 16.325 39.3206 16.1957 39.062 15.937C38.804 15.679 38.6749 15.3667 38.6749 15C38.6749 14.6334 38.804 14.3207 39.062 14.062C39.3206 13.804 39.6333 13.675 40 13.675H40.6749V13C40.6749 12.6334 40.804 12.3207 41.062 12.062C41.3206 11.804 41.6333 11.675 42 11.675C42.3666 11.675 42.6793 11.804 42.938 12.062C43.1959 12.3207 43.325 12.6334 43.325 13V13.675H44C44.3666 13.675 44.6793 13.804 44.938 14.062C45.1959 14.3207 45.325 14.6334 45.325 15C45.325 15.3667 45.1959 15.679 44.938 15.937C44.6793 16.1957 44.3666 16.325 44 16.325H43.325V17C43.325 17.3667 43.1959 17.6794 42.938 17.938C42.6793 18.196 42.3666 18.325 42 18.325C41.6333 18.325 41.3206 18.196 41.062 17.938C40.804 17.6794 40.6749 17.3667 40.6749 17V16.325Z" fill="#535AF1"/>
</g>
</svg>
