<svg width="40" height="40" viewBox="0 0 40 40" fill="none" xmlns="http://www.w3.org/2000/svg">
<g id="Group 31">
<g id="45. Close/Hover">
<rect width="40" height="40" rx="20" fill="#ECEEFE"/>
</g>
<g id="edit">
<mask id="mask0_173627_7437" style="mask-type:alpha" maskUnits="userSpaceOnUse" x="8" y="8" width="24" height="24">
<rect id="Bounding box" x="8" y="8" width="24" height="24" fill="#D9D9D9"/>
</mask>
<g mask="url(#mask0_173627_7437)">
<path id="edit_2" d="M13 27H14.4L23.025 18.375L21.625 16.975L13 25.6V27ZM27.3 16.925L23.05 12.725L24.45 11.325C24.8333 10.9417 25.3043 10.75 25.863 10.75C26.421 10.75 26.8917 10.9417 27.275 11.325L28.675 12.725C29.0583 13.1083 29.2583 13.571 29.275 14.113C29.2917 14.6543 29.1083 15.1167 28.725 15.5L27.3 16.925ZM12 29C11.7167 29 11.4793 28.904 11.288 28.712C11.096 28.5207 11 28.2833 11 28V25.175C11 25.0417 11.025 24.9127 11.075 24.788C11.125 24.6627 11.2 24.55 11.3 24.45L21.6 14.15L25.85 18.4L15.55 28.7C15.45 28.8 15.3377 28.875 15.213 28.925C15.0877 28.975 14.9583 29 14.825 29H12Z" fill="#1C1B1F"/>
</g>
</g>
</g>
</svg>
