<svg width="40" height="40" viewBox="0 0 40 40" fill="none" xmlns="http://www.w3.org/2000/svg">
<g id="Group 33">
<g id="45. Close/Hover">
<rect width="40" height="40" rx="20" fill="#ECEEFE"/>
</g>
<path id="edit" d="M12.65 25.675H14.5L23 17.175L21.15 15.325L12.65 23.825V25.675ZM28.175 15.725L22.575 10.125L23.925 8.775C24.4417 8.25833 25.071 8 25.813 8C26.5543 8 27.1833 8.25833 27.7 8.775L29.55 10.65C30.0667 11.1667 30.325 11.7833 30.325 12.5C30.325 13.2167 30.0667 13.8333 29.55 14.35L28.175 15.725ZM11.3 28.325C10.9333 28.325 10.625 28.2 10.375 27.95C10.125 27.7 10 27.3917 10 27.025V23.25C10 23.0667 10.029 22.9 10.087 22.75C10.1457 22.6 10.2417 22.4583 10.375 22.325L21.15 11.55L26.75 17.15L16 27.95C15.8667 28.0833 15.725 28.179 15.575 28.237C15.425 28.2957 15.2583 28.325 15.075 28.325H11.3Z" fill="#535AF1"/>
</g>
</svg>
