<svg width="40" height="40" viewBox="0 0 40 40" fill="none" xmlns="http://www.w3.org/2000/svg">
<rect width="40" height="40" rx="20" fill="#ECEEFE"/>
<mask id="mask0_173624_7416" style="mask-type:alpha" maskUnits="userSpaceOnUse" x="8" y="8" width="24" height="24">
<rect x="8" y="8" width="24" height="24" fill="#D9D9D9"/>
</mask>
<g mask="url(#mask0_173624_7416)">
<path d="M20.0002 30.8C18.5002 30.8 17.0959 30.5167 15.7872 29.9501C14.4792 29.3834 13.3379 28.6127 12.3632 27.6381C11.3879 26.6627 10.6169 25.5207 10.0502 24.212C9.48353 22.904 9.2002 21.5 9.2002 20C9.2002 18.5 9.48353 17.0917 10.0502 15.775C10.6169 14.4584 11.3879 13.3127 12.3632 12.338C13.3379 11.3627 14.4792 10.5957 15.7872 10.037C17.0959 9.47905 18.5002 9.20005 20.0002 9.20005C20.7669 9.20005 21.5129 9.27505 22.2382 9.42505C22.9629 9.57505 23.6502 9.79172 24.3002 10.075C24.1169 10.3584 23.9669 10.6584 23.8502 10.975C23.7335 11.2917 23.6752 11.6334 23.6752 12C23.6752 12.1334 23.6835 12.2624 23.7002 12.387C23.7169 12.5124 23.7419 12.6417 23.7752 12.775C23.2085 12.475 22.6085 12.2457 21.9752 12.087C21.3419 11.929 20.6835 11.85 20.0002 11.85C17.7335 11.85 15.8085 12.6417 14.2252 14.225C12.6419 15.8084 11.8502 17.7334 11.8502 20C11.8502 22.2667 12.6419 24.1917 14.2252 25.775C15.8085 27.3584 17.7335 28.15 20.0002 28.15C22.2669 28.15 24.1919 27.3584 25.7752 25.775C27.3585 24.1917 28.1502 22.2667 28.1502 20C28.1502 19.4667 28.1002 18.95 28.0002 18.45C27.9002 17.95 27.7585 17.4667 27.5752 17C27.7919 17.1 28.0212 17.179 28.2632 17.237C28.5045 17.2957 28.7502 17.325 29.0002 17.325C29.2502 17.325 29.4919 17.3 29.7252 17.25C29.9585 17.2 30.1835 17.125 30.4002 17.025C30.5335 17.5084 30.6335 17.996 30.7002 18.488C30.7669 18.9794 30.8002 19.4834 30.8002 20C30.8002 21.5 30.5209 22.904 29.9622 24.212C29.4042 25.5207 28.6379 26.6627 27.6632 27.6381C26.6879 28.6127 25.5419 29.3834 24.2252 29.9501C22.9085 30.5167 21.5002 30.8 20.0002 30.8ZM23.7002 19.2C24.2002 19.2 24.6169 19.0334 24.9502 18.7C25.2835 18.3667 25.4502 17.95 25.4502 17.45C25.4502 16.95 25.2835 16.5334 24.9502 16.2C24.6169 15.8667 24.2002 15.7 23.7002 15.7C23.2002 15.7 22.7835 15.8667 22.4502 16.2C22.1169 16.5334 21.9502 16.95 21.9502 17.45C21.9502 17.95 22.1169 18.3667 22.4502 18.7C22.7835 19.0334 23.2002 19.2 23.7002 19.2ZM16.3002 19.2C16.8002 19.2 17.2169 19.0334 17.5502 18.7C17.8835 18.3667 18.0502 17.95 18.0502 17.45C18.0502 16.95 17.8835 16.5334 17.5502 16.2C17.2169 15.8667 16.8002 15.7 16.3002 15.7C15.8002 15.7 15.3835 15.8667 15.0502 16.2C14.7169 16.5334 14.5502 16.95 14.5502 17.45C14.5502 17.95 14.7169 18.3667 15.0502 18.7C15.3835 19.0334 15.8002 19.2 16.3002 19.2ZM20.0002 26C21.3835 26 22.5669 25.6124 23.5502 24.837C24.5335 24.0624 25.2169 23.1334 25.6002 22.05H14.4002C14.7835 23.1334 15.4669 24.0624 16.4502 24.837C17.4335 25.6124 18.6169 26 20.0002 26ZM27.6752 13.325H27.0002C26.6335 13.325 26.3209 13.1957 26.0622 12.937C25.8042 12.679 25.6752 12.3667 25.6752 12C25.6752 11.6334 25.8042 11.3207 26.0622 11.062C26.3209 10.804 26.6335 10.675 27.0002 10.675H27.6752V10C27.6752 9.63338 27.8042 9.32072 28.0622 9.06205C28.3209 8.80405 28.6335 8.67505 29.0002 8.67505C29.3669 8.67505 29.6795 8.80405 29.9382 9.06205C30.1962 9.32072 30.3252 9.63338 30.3252 10V10.675H31.0002C31.3669 10.675 31.6795 10.804 31.9382 11.062C32.1962 11.3207 32.3252 11.6334 32.3252 12C32.3252 12.3667 32.1962 12.679 31.9382 12.937C31.6795 13.1957 31.3669 13.325 31.0002 13.325H30.3252V14C30.3252 14.3667 30.1962 14.6794 29.9382 14.938C29.6795 15.196 29.3669 15.325 29.0002 15.325C28.6335 15.325 28.3209 15.196 28.0622 14.938C27.8042 14.6794 27.6752 14.3667 27.6752 14V13.325Z" fill="#535AF1"/>
</g>
</svg>
