<svg width="40" height="40" viewBox="0 0 40 40" fill="none" xmlns="http://www.w3.org/2000/svg">
<g id="Group 32">
<g id="45. Close/Hover">
<rect width="40" height="40" rx="20" fill="#ECEEFE"/>
</g>
<path id="check_circle" d="M18.4 21.2L16.425 19.225C16.175 18.975 15.8667 18.85 15.5 18.85C15.1333 18.85 14.825 18.975 14.575 19.225C14.325 19.475 14.2 19.7833 14.2 20.15C14.2 20.5167 14.325 20.825 14.575 21.075L17.475 23.975C17.7386 24.2417 18.0462 24.375 18.3977 24.375C18.7492 24.375 19.0583 24.2417 19.325 23.975L25.075 18.225C25.325 17.975 25.45 17.6667 25.45 17.3C25.45 16.9333 25.325 16.625 25.075 16.375C24.825 16.125 24.5167 16 24.15 16C23.7833 16 23.475 16.125 23.225 16.375L18.4 21.2ZM19.8 30.6C18.306 30.6 16.902 30.3165 15.588 29.7495C14.274 29.1825 13.131 28.413 12.159 27.441C11.187 26.469 10.4175 25.326 9.8505 24.012C9.2835 22.698 9 21.294 9 19.8C9 18.3017 9.28399 16.8937 9.85198 15.576C10.42 14.2582 11.1908 13.1119 12.1645 12.1372C13.1382 11.1624 14.2811 10.3958 15.5935 9.8375C16.9058 9.27917 18.3079 9 19.8 9C21.2981 9 22.706 9.27917 24.0236 9.8375C25.3412 10.3958 26.4875 11.1625 27.4625 12.1375C28.4375 13.1125 29.2042 14.259 29.7625 15.5771C30.3208 16.8951 30.6 18.3035 30.6 19.8021C30.6 21.3007 30.3208 22.7042 29.7625 24.0125C29.2042 25.3208 28.4376 26.4618 27.4628 27.4355C26.4881 28.4092 25.3418 29.18 24.024 29.748C22.7063 30.316 21.2983 30.6 19.8 30.6ZM19.8 27.95C22.0752 27.95 24.0023 27.1605 25.5814 25.5814C27.1605 24.0023 27.95 22.0752 27.95 19.8C27.95 17.5248 27.1605 15.5977 25.5814 14.0186C24.0023 12.4395 22.0752 11.65 19.8 11.65C17.5248 11.65 15.5976 12.4395 14.0186 14.0186C12.4395 15.5977 11.65 17.5248 11.65 19.8C11.65 22.0752 12.4395 24.0023 14.0186 25.5814C15.5976 27.1605 17.5248 27.95 19.8 27.95Z" fill="#535AF1"/>
</g>
</svg>
