<svg width="34" height="34" viewBox="0 0 34 34" fill="none" xmlns="http://www.w3.org/2000/svg">
<g clip-path="url(#clip0_528_8617)">
<rect width="34" height="34" rx="17" fill="white"/>
<g clip-path="url(#clip1_528_8617)">
<path d="M34 0H0V34H34V0Z" fill="#ADB0D9"/>
<path d="M25.4252 9.23445C25.5544 8.75845 25.9012 8.30285 25.8128 7.82005C25.7448 7.44605 25.5884 7.05845 25.636 6.67085C25.67 6.38525 26.0984 5.52845 26.4724 5.63045C26.622 5.67125 26.6968 5.84125 26.7444 5.98405C27.0164 6.76605 27.234 7.43245 27.3224 8.26885C27.4108 9.11205 27.4312 9.96205 27.3972 10.8121C27.3768 11.3357 27.3292 11.8661 27.1184 12.3421C26.9348 12.7637 26.622 13.1309 26.2412 13.3825C26.1324 13.1445 25.9012 12.9949 25.7312 12.7977C25.4592 12.4917 25.33 12.0905 25.2552 11.6893C25.2552 10.8393 25.2008 10.0777 25.4252 9.23445Z" fill="#444DF2"/>
<path d="M24.6364 16.9999C24.5004 16.4423 24.5548 15.8575 24.6092 15.2863C24.6772 14.5995 24.8812 13.8855 25.3028 13.3823C25.6292 12.9947 26.0916 12.7363 26.7172 12.7227C27.132 12.7159 27.7304 12.8179 27.9684 13.1919C28.2132 13.5863 28.2744 14.2459 28.2404 14.6879C28.1928 15.2863 27.948 15.8371 27.71 16.3743C27.4516 16.9659 27.1116 18.2375 26.3228 18.2919C25.5 18.3531 24.8268 17.7683 24.6364 16.9999Z" fill="#F5B18F"/>
<path d="M20.2572 34H5.1272C5.1816 33.7688 5.23599 33.5376 5.29039 33.3064C6.37159 28.6688 6.79319 24.174 6.85439 19.312C10.6828 20.7264 14.7084 20.1212 18.6592 20.06C20.128 20.0396 19.6384 21.7056 19.652 23.2628C19.6724 25.2076 19.7472 27.1456 19.8628 29.0768C19.958 30.7224 20.094 32.368 20.2572 34Z" fill="#F5B18F"/>
<path d="M26.9212 11.0161C26.7648 12.9609 26.5268 14.9057 26.3976 16.8573C26.3432 17.7209 26.3092 18.5777 26.3092 19.4413C26.316 22.1069 26.6356 24.9969 25.1668 27.2205C24.0856 28.8525 22.1748 29.8113 20.23 30.0629C18.8224 30.2465 17.4148 30.0765 16.0412 29.7705C13.8992 29.3013 11.7028 28.4445 9.88718 27.1185C8.77198 26.3025 7.80638 25.3097 7.09238 24.1129C6.40558 22.9705 5.99758 21.6853 5.78678 20.3593C5.67798 19.6589 5.62358 18.9449 5.61678 18.2309C5.60318 16.9049 5.73918 15.5789 5.92958 14.2665C6.20158 12.3897 6.46678 10.4041 7.53438 8.7857C8.53398 7.2761 10.0164 6.0997 11.6688 5.3721C14.4296 4.1617 17.5508 4.0801 20.5632 4.2637C21.6308 4.3317 22.7052 4.4269 23.7184 4.7669C24.7316 5.1069 25.6836 5.7121 26.2616 6.6029C27.0844 7.8745 27.0436 9.5065 26.9212 11.0161Z" fill="#FEC29B"/>
<path d="M16.4065 17.7116C16.9499 17.6759 17.3416 16.9027 17.2813 15.9845C17.2211 15.0663 16.7317 14.3509 16.1883 14.3866C15.6449 14.4223 15.2532 15.1955 15.3135 16.1137C15.3737 17.0318 15.8631 17.7473 16.4065 17.7116Z" fill="#1B1464"/>
<path d="M22.8063 16.8207C23.3497 16.7851 23.7413 16.0118 23.6811 15.0936C23.6208 14.1755 23.1314 13.4601 22.588 13.4957C22.0446 13.5314 21.653 14.3046 21.7132 15.2228C21.7735 16.141 22.2629 16.8564 22.8063 16.8207Z" fill="#1B1464"/>
<path d="M14.5805 12.9689C14.9015 12.7778 15.4135 12.599 15.9276 12.5663C16.4444 12.5337 16.8912 12.6507 17.1747 12.9567L17.7235 12.448C17.2257 11.9108 16.5124 11.7796 15.88 11.8197C15.2449 11.8598 14.6179 12.0761 14.1977 12.3263L14.5805 12.9689ZM17.1747 12.9567C17.3155 13.1083 17.5522 13.1171 17.7031 12.9764C17.8548 12.8356 17.8636 12.599 17.7228 12.448L17.1747 12.9567ZM14.197 12.327C14.0196 12.4331 13.9617 12.6622 14.0671 12.8397C14.1732 13.0172 14.4024 13.075 14.5799 12.9696L14.197 12.327Z" fill="#1B1464"/>
<path d="M22.6576 12.1583C22.8392 12.4854 22.8385 12.4854 22.8385 12.4854C22.8385 12.4854 22.8392 12.4854 22.8398 12.4847C22.8412 12.4841 22.8446 12.482 22.8494 12.48C22.8582 12.4752 22.8732 12.4677 22.8929 12.4582C22.9323 12.4392 22.9915 12.4127 23.0656 12.3834C23.2159 12.3243 23.4212 12.2583 23.649 12.225C24.1046 12.1583 24.597 12.225 24.9655 12.6799L25.5462 12.2087C24.9492 11.4729 24.1427 11.3974 23.5409 11.4851C23.2404 11.5293 22.9772 11.6143 22.7916 11.6878C22.6977 11.7245 22.6216 11.7592 22.5685 11.785C22.5413 11.7979 22.5202 11.8088 22.5053 11.817C22.4978 11.8211 22.4917 11.8245 22.4869 11.8265C22.4849 11.8279 22.4828 11.8285 22.4815 11.8299C22.4808 11.8306 22.4801 11.8306 22.4794 11.8313C22.4794 11.8313 22.4788 11.8313 22.4788 11.8319C22.4767 11.8313 22.476 11.8313 22.6576 12.1583ZM24.9648 12.6799C25.0947 12.8404 25.3307 12.8649 25.4912 12.735C25.6516 12.6051 25.6761 12.3691 25.5462 12.2087L24.9648 12.6799ZM22.476 11.8313C22.2952 11.9312 22.2299 12.159 22.3305 12.3399C22.4305 12.5208 22.6583 12.5861 22.8392 12.4854L22.476 11.8313Z" fill="#1B1464"/>
<path d="M15.9528 23.4926C17.1088 24.5976 18.7707 25.1436 20.3558 24.9532L20.2667 24.2106C18.9006 24.3745 17.4617 23.9006 16.4689 22.9513L15.9528 23.4926ZM20.3558 24.9532C20.5611 24.9287 20.7073 24.7424 20.6829 24.537C20.6584 24.3317 20.4721 24.1855 20.2667 24.21L20.3558 24.9532ZM16.4696 22.9513C16.32 22.8085 16.0833 22.8139 15.9405 22.9635C15.7977 23.1131 15.8032 23.3498 15.9528 23.4926L16.4696 22.9513Z" fill="#1B1464"/>
<path d="M26.8532 7.11956C26.2888 8.81276 23.6708 9.10516 22.1748 9.26836C19.8968 9.51996 17.8704 9.00996 15.6808 8.49996C15.3952 8.43196 11.7028 7.52756 11.7028 7.52756C11.5124 9.41796 11.084 11.0908 9.93479 12.6072C9.43839 13.26 9.87359 14.076 9.79879 14.9328C9.71039 16.0276 9.67639 17.3604 9.33639 18.4076C9.29559 18.5436 9.16639 18.6592 9.02359 18.6388C8.82639 18.6116 8.76519 18.3736 8.69039 18.19C8.52039 17.7616 8.03759 17.374 7.56159 17.578C7.11279 17.7752 6.8884 18.4756 6.6572 18.8632C6.4396 19.2304 6.0996 19.5432 5.9772 19.9512C5.9364 20.0872 5.92279 20.23 5.86159 20.3592C5.80039 20.4884 5.678 20.604 5.5352 20.604C5.4332 20.604 5.338 20.536 5.2632 20.468C4.522 19.8288 4.39959 18.9856 4.14799 18.1152C3.86239 17.0952 3.74679 16.0412 3.64479 14.994C3.58359 14.314 3.52919 13.6272 3.44079 12.9472C3.36599 12.3556 3.20279 11.7708 3.19599 11.1724C3.16879 9.24116 3.57 7.28276 4.5152 5.60996C5.7528 3.43396 8.27559 2.28476 10.54 1.68636C14.2664 0.707161 17.986 1.24436 21.6104 2.40036C23.0724 2.86956 27.5468 5.05916 26.8532 7.11956Z" fill="#444DF2"/>
<path d="M21.3996 17.444C21.1004 17.172 20.8882 17.0176 20.7298 16.8089C20.6006 16.6375 20.5285 16.4492 20.5788 16.1425L19.8404 16.0214C19.7547 16.5444 19.89 16.9374 20.1328 17.259C20.347 17.5426 20.6713 17.7928 20.8964 17.9975L21.3996 17.444ZM22.0456 18.9155C22.0626 18.3545 21.8062 17.8092 21.3982 17.4426L20.8984 17.9989C21.1568 18.2308 21.3078 18.5694 21.2983 18.8924L22.0456 18.9155ZM18.4858 20.2408C19.0883 20.5897 19.9179 20.7862 20.6326 20.6441C20.997 20.572 21.3486 20.4074 21.6138 20.1103C21.8817 19.8104 22.0313 19.4078 22.0449 18.9142L21.2969 18.8931C21.2867 19.2426 21.1854 19.4663 21.0548 19.6125C20.9222 19.7614 20.7305 19.8621 20.4857 19.9104C19.9832 20.0103 19.3372 19.8702 18.8584 19.5928L18.4858 20.2408ZM20.5788 16.1425C20.6122 15.9385 20.4741 15.746 20.2701 15.7127C20.0661 15.6794 19.8737 15.8174 19.8404 16.0214L20.5788 16.1425ZM21.148 17.7208L20.8964 17.9975C20.8971 17.9982 20.8978 17.9989 20.8984 17.9989L21.148 17.7208ZM21.6716 18.904L21.2976 18.8924V18.8931L21.6716 18.904ZM18.8598 19.5935C18.681 19.4901 18.4525 19.5513 18.3484 19.7302C18.2451 19.909 18.3063 20.1375 18.4851 20.2415L18.8598 19.5935Z" fill="#1B1464"/>
<path d="M7.89479 13.7292C7.45959 13.2124 6.85439 12.8724 6.02479 12.852C4.80759 12.8248 3.63799 13.6612 3.20279 14.7968C2.49559 16.626 3.67879 18.8632 5.27679 19.8016C6.69799 20.638 8.36399 20.1484 8.77879 18.496C8.96239 17.7616 8.8876 16.9864 8.8196 16.2384C8.7244 15.334 8.45239 14.3956 7.89479 13.7292Z" fill="#FEC29B"/>
<path d="M7.12639 16.6191C7.17603 16.2485 7.17536 16.2485 7.17536 16.2485C7.17536 16.2485 7.17535 16.2485 7.17467 16.2485H7.17399C7.17331 16.2485 7.17263 16.2485 7.17195 16.2485C7.16991 16.2485 7.16787 16.2478 7.16515 16.2478C7.15971 16.2471 7.15223 16.2465 7.14339 16.2451C7.12503 16.2431 7.09987 16.2403 7.06791 16.2383C7.00467 16.2335 6.91627 16.2281 6.81155 16.2274C6.60415 16.2261 6.31855 16.2424 6.02955 16.3172C5.74327 16.3913 5.42164 16.5314 5.18228 16.802C4.93272 17.0835 4.80827 17.4657 4.84975 17.9437L5.59504 17.8791C5.56852 17.5752 5.64807 17.4045 5.74259 17.2977C5.84731 17.1794 6.01051 17.0944 6.21723 17.0414C6.42123 16.9883 6.63679 16.9747 6.80815 16.9754C6.89247 16.9761 6.96184 16.9802 7.01012 16.9836C7.03392 16.9856 7.05227 16.987 7.06383 16.9883C7.06995 16.989 7.07403 16.9897 7.07607 16.9897C7.07743 16.9897 7.07812 16.9897 7.07812 16.9897C7.07676 16.9897 7.07675 16.9897 7.12639 16.6191ZM4.74639 15.1911C4.80215 15.561 4.80215 15.561 4.80215 15.561C4.80215 15.561 4.80351 15.561 4.80487 15.5603C4.80759 15.5597 4.81235 15.5597 4.81847 15.5583C4.83139 15.5569 4.85179 15.5542 4.87899 15.5515C4.93271 15.5461 5.01159 15.5406 5.10747 15.5386C5.30059 15.5345 5.55219 15.5467 5.80039 15.6052C6.04995 15.6637 6.27503 15.7643 6.44095 15.9207C6.59871 16.0703 6.72656 16.292 6.75444 16.6463L7.50039 16.5892C7.45959 16.0601 7.25628 15.661 6.95504 15.3767C6.66196 15.1 6.3002 14.9538 5.97244 14.8763C5.64264 14.7987 5.3244 14.7851 5.0932 14.7899C4.97624 14.7919 4.87899 14.7994 4.80963 14.8055C4.77495 14.8089 4.74708 14.8123 4.72736 14.8144C4.71716 14.8157 4.70967 14.8164 4.70355 14.8178C4.70083 14.8185 4.69811 14.8185 4.69607 14.8185C4.69539 14.8185 4.69404 14.8185 4.69404 14.8191H4.69336C4.69336 14.8191 4.69335 14.8191 4.69267 14.8191C4.69063 14.8212 4.69063 14.8212 4.74639 15.1911ZM4.84975 17.9437C4.86743 18.1498 5.049 18.3021 5.25504 18.2837C5.46108 18.2661 5.6134 18.0845 5.59504 17.8785L4.84975 17.9437ZM7.12639 16.6191L7.07675 16.9897C7.18827 17.0047 7.30116 16.9679 7.38344 16.8904C7.46572 16.8129 7.50788 16.7027 7.49904 16.5899L7.12639 16.6191ZM4.69063 14.8212C4.48663 14.8525 4.34587 15.0429 4.37715 15.2469C4.40843 15.4509 4.59883 15.5916 4.80283 15.5603L4.69063 14.8212Z" fill="#F4AC7D"/>
<path d="M19.465 29.6488C16.6484 29.7746 13.3083 28.9089 10.9786 27.3517L10.5631 27.9733C13.0342 29.6257 16.5349 30.528 19.4983 30.3954L19.465 29.6488ZM10.9793 27.3517C10.8072 27.2368 10.5754 27.2831 10.4604 27.4551C10.3455 27.6271 10.3918 27.859 10.5638 27.9739L10.9793 27.3517ZM19.499 30.3954C19.705 30.3859 19.8648 30.2111 19.856 30.0051C19.8472 29.7991 19.6717 29.6393 19.4657 29.6481L19.499 30.3954Z" fill="#1B1464"/>
</g>
</g>
<defs>
<clipPath id="clip0_528_8617">
<rect width="34" height="34" rx="17" fill="white"/>
</clipPath>
<clipPath id="clip1_528_8617">
<rect width="34" height="34" fill="white"/>
</clipPath>
</defs>
</svg>
