<svg width="200" height="146" viewBox="0 0 200 146" fill="none" xmlns="http://www.w3.org/2000/svg">
<rect x="0.5" y="113.5" width="82" height="31" rx="15.5" fill="white"/>
<rect x="0.5" y="113.5" width="82" height="31" rx="15.5" stroke="#444DF2"/>
<path d="M10.9205 132V125.455H11.9261V132H10.9205ZM11.4318 124.364C11.2358 124.364 11.0668 124.297 10.9247 124.163C10.7855 124.03 10.7159 123.869 10.7159 123.682C10.7159 123.494 10.7855 123.334 10.9247 123.2C11.0668 123.067 11.2358 123 11.4318 123C11.6278 123 11.7955 123.067 11.9347 123.2C12.0767 123.334 12.1477 123.494 12.1477 123.682C12.1477 123.869 12.0767 124.03 11.9347 124.163C11.7955 124.297 11.6278 124.364 11.4318 124.364ZM16.4272 132.136C15.8136 132.136 15.2852 131.991 14.842 131.702C14.3988 131.412 14.0579 131.013 13.8192 130.504C13.5806 129.996 13.4613 129.415 13.4613 128.761C13.4613 128.097 13.5835 127.51 13.8278 127.001C14.0749 126.49 14.4187 126.091 14.859 125.804C15.3022 125.514 15.8192 125.369 16.4102 125.369C16.8704 125.369 17.2852 125.455 17.6545 125.625C18.0238 125.795 18.3263 126.034 18.5621 126.341C18.7979 126.648 18.9442 127.006 19.0011 127.415H17.9954C17.9187 127.116 17.7482 126.852 17.484 126.622C17.2227 126.389 16.8704 126.273 16.4272 126.273C16.0352 126.273 15.6914 126.375 15.396 126.58C15.1033 126.781 14.8746 127.067 14.7099 127.436C14.5479 127.803 14.467 128.233 14.467 128.727C14.467 129.233 14.5465 129.673 14.7056 130.048C14.8675 130.423 15.0948 130.714 15.3874 130.922C15.6829 131.129 16.0295 131.233 16.4272 131.233C16.6886 131.233 16.9258 131.188 17.1388 131.097C17.3519 131.006 17.5323 130.875 17.68 130.705C17.8278 130.534 17.9329 130.33 17.9954 130.091H19.0011C18.9442 130.477 18.8036 130.825 18.5792 131.135C18.3576 131.442 18.0636 131.686 17.6971 131.868C17.3335 132.047 16.9102 132.136 16.4272 132.136ZM23.1303 132.136C22.5394 132.136 22.021 131.996 21.5749 131.714C21.1317 131.433 20.7852 131.04 20.5352 130.534C20.288 130.028 20.1644 129.437 20.1644 128.761C20.1644 128.08 20.288 127.484 20.5352 126.976C20.7852 126.467 21.1317 126.072 21.5749 125.791C22.021 125.51 22.5394 125.369 23.1303 125.369C23.7212 125.369 24.2383 125.51 24.6815 125.791C25.1275 126.072 25.4741 126.467 25.7212 126.976C25.9712 127.484 26.0962 128.08 26.0962 128.761C26.0962 129.437 25.9712 130.028 25.7212 130.534C25.4741 131.04 25.1275 131.433 24.6815 131.714C24.2383 131.996 23.7212 132.136 23.1303 132.136ZM23.1303 131.233C23.5792 131.233 23.9485 131.118 24.2383 130.888C24.5281 130.658 24.7425 130.355 24.8817 129.98C25.021 129.605 25.0906 129.199 25.0906 128.761C25.0906 128.324 25.021 127.916 24.8817 127.538C24.7425 127.161 24.5281 126.855 24.2383 126.622C23.9485 126.389 23.5792 126.273 23.1303 126.273C22.6815 126.273 22.3121 126.389 22.0224 126.622C21.7326 126.855 21.5181 127.161 21.3789 127.538C21.2397 127.916 21.1701 128.324 21.1701 128.761C21.1701 129.199 21.2397 129.605 21.3789 129.98C21.5181 130.355 21.7326 130.658 22.0224 130.888C22.3121 131.118 22.6815 131.233 23.1303 131.233ZM28.6371 128.062V132H27.6314V125.455H28.603V126.477H28.6882C28.8416 126.145 29.0746 125.878 29.3871 125.676C29.6996 125.472 30.103 125.369 30.5973 125.369C31.0405 125.369 31.4283 125.46 31.7607 125.642C32.093 125.821 32.3516 126.094 32.5362 126.46C32.7209 126.824 32.8132 127.284 32.8132 127.841V132H31.8075V127.909C31.8075 127.395 31.674 126.994 31.407 126.707C31.1399 126.418 30.7734 126.273 30.3075 126.273C29.9865 126.273 29.6996 126.342 29.4467 126.482C29.1967 126.621 28.9993 126.824 28.8544 127.091C28.7095 127.358 28.6371 127.682 28.6371 128.062Z" fill="black"/>
<path d="M65.48 134C65.288 134 65.1387 133.952 65.032 133.856C64.9253 133.749 64.872 133.605 64.872 133.424C64.872 133.243 64.9253 133.109 65.032 133.024C65.1387 132.928 65.288 132.88 65.48 132.88H67.56V123.808H68.248L65.928 125.344C65.7893 125.419 65.656 125.451 65.528 125.44C65.4107 125.429 65.3093 125.387 65.224 125.312C65.1493 125.227 65.096 125.131 65.064 125.024C65.032 124.907 65.0373 124.789 65.08 124.672C65.1227 124.544 65.2133 124.437 65.352 124.352L67.56 122.896C67.6987 122.811 67.832 122.741 67.96 122.688C68.088 122.635 68.216 122.608 68.344 122.608C68.4933 122.608 68.616 122.656 68.712 122.752C68.8187 122.837 68.872 122.976 68.872 123.168V132.88H70.792C70.984 132.88 71.1333 132.928 71.24 133.024C71.3467 133.109 71.4 133.243 71.4 133.424C71.4 133.616 71.3467 133.76 71.24 133.856C71.1333 133.952 70.984 134 70.792 134H65.48Z" fill="black"/>
<path d="M32.52 30C32.52 13.4315 45.9515 0 62.52 0H160.52C177.089 0 190.52 13.4315 190.52 30V82C190.52 98.5685 177.089 112 160.52 112H32.52V30Z" fill="#444DF2"/>
<path d="M67.4462 23.0625V27H66.4405V18.2727H67.4462V21.4773H67.5314C67.6848 21.1392 67.9149 20.8707 68.2217 20.6719C68.5314 20.4702 68.9433 20.3693 69.4575 20.3693C69.9035 20.3693 70.2942 20.4588 70.6294 20.6378C70.9646 20.8139 71.2246 21.0852 71.4092 21.4517C71.5967 21.8153 71.6905 22.2784 71.6905 22.8409V27H70.6848V22.9091C70.6848 22.3892 70.5498 21.9872 70.28 21.7031C70.0129 21.4162 69.6422 21.2727 69.1677 21.2727C68.8382 21.2727 68.5427 21.3423 68.2814 21.4815C68.0229 21.6207 67.8183 21.8239 67.6677 22.0909C67.52 22.358 67.4462 22.6818 67.4462 23.0625ZM73.5303 27V20.4545H74.536V27H73.5303ZM74.0417 19.3636C73.8457 19.3636 73.6766 19.2969 73.5346 19.1634C73.3954 19.0298 73.3258 18.8693 73.3258 18.6818C73.3258 18.4943 73.3954 18.3338 73.5346 18.2003C73.6766 18.0668 73.8457 18 74.0417 18C74.2377 18 74.4053 18.0668 74.5445 18.2003C74.6866 18.3338 74.7576 18.4943 74.7576 18.6818C74.7576 18.8693 74.6866 19.0298 74.5445 19.1634C74.4053 19.2969 74.2377 19.3636 74.0417 19.3636ZM79.1223 27.1364C78.4916 27.1364 77.9476 26.9972 77.4902 26.7188C77.0356 26.4375 76.6848 26.0455 76.4376 25.5426C76.1933 25.0369 76.0712 24.4489 76.0712 23.7784C76.0712 23.108 76.1933 22.517 76.4376 22.0057C76.6848 21.4915 77.0285 21.0909 77.4689 20.804C77.9121 20.5142 78.4291 20.3693 79.02 20.3693C79.3609 20.3693 79.6976 20.4261 80.03 20.5398C80.3623 20.6534 80.6649 20.8381 80.9376 21.0938C81.2104 21.3466 81.4277 21.6818 81.5896 22.0994C81.7516 22.517 81.8325 23.0312 81.8325 23.642V24.0682H76.7871V23.1989H80.8098C80.8098 22.8295 80.7359 22.5 80.5882 22.2102C80.4433 21.9205 80.2359 21.6918 79.966 21.5241C79.699 21.3565 79.3837 21.2727 79.02 21.2727C78.6195 21.2727 78.2729 21.3722 77.9802 21.571C77.6905 21.767 77.4675 22.0227 77.3112 22.3381C77.155 22.6534 77.0768 22.9915 77.0768 23.3523V23.9318C77.0768 24.4261 77.1621 24.8452 77.3325 25.1889C77.5058 25.5298 77.7459 25.7898 78.0527 25.9688C78.3595 26.1449 78.716 26.233 79.1223 26.233C79.3865 26.233 79.6251 26.196 79.8382 26.1222C80.0541 26.0455 80.2402 25.9318 80.3964 25.7812C80.5527 25.6278 80.6734 25.4375 80.7587 25.2102L81.7302 25.483C81.628 25.8125 81.4561 26.1023 81.2146 26.3523C80.9731 26.5994 80.6748 26.7926 80.3197 26.9318C79.9646 27.0682 79.5655 27.1364 79.1223 27.1364ZM83.3623 27V20.4545H84.3339V21.4432H84.4021C84.5214 21.1193 84.7373 20.8565 85.0498 20.6548C85.3623 20.4531 85.7146 20.3523 86.1067 20.3523C86.1805 20.3523 86.2729 20.3537 86.3837 20.3565C86.4945 20.3594 86.5783 20.3636 86.6351 20.3693V21.392C86.601 21.3835 86.5229 21.3707 86.4007 21.3537C86.2814 21.3338 86.155 21.3239 86.0214 21.3239C85.7033 21.3239 85.4192 21.3906 85.1692 21.5241C84.922 21.6548 84.726 21.8366 84.5811 22.0696C84.4391 22.2997 84.368 22.5625 84.368 22.858V27H83.3623ZM93.6738 27.1364C93.1283 27.1364 92.6468 26.9986 92.2292 26.723C91.8116 26.4446 91.4849 26.0526 91.2491 25.5469C91.0133 25.0384 90.8954 24.4375 90.8954 23.7443C90.8954 23.0568 91.0133 22.4602 91.2491 21.9545C91.4849 21.4489 91.813 21.0582 92.2334 20.7827C92.6539 20.5071 93.1397 20.3693 93.6908 20.3693C94.117 20.3693 94.4536 20.4403 94.7008 20.5824C94.9508 20.7216 95.1411 20.8807 95.2718 21.0597C95.4053 21.2358 95.509 21.3807 95.5829 21.4943H95.6681V18.2727H96.6738V27H95.7022V25.9943H95.5829C95.509 26.1136 95.4039 26.2642 95.2675 26.446C95.1312 26.625 94.9366 26.7855 94.6837 26.9276C94.4309 27.0668 94.0942 27.1364 93.6738 27.1364ZM93.8101 26.233C94.2136 26.233 94.5545 26.1278 94.8329 25.9176C95.1113 25.7045 95.3229 25.4105 95.4678 25.0355C95.6127 24.6577 95.6851 24.2216 95.6851 23.7273C95.6851 23.2386 95.6141 22.8111 95.4721 22.4446C95.33 22.0753 95.1198 21.7884 94.8414 21.5838C94.563 21.3764 94.2192 21.2727 93.8101 21.2727C93.384 21.2727 93.0289 21.3821 92.7448 21.6009C92.4636 21.8168 92.2519 22.1108 92.1099 22.483C91.9707 22.8523 91.9011 23.267 91.9011 23.7273C91.9011 24.1932 91.9721 24.6165 92.1141 24.9972C92.259 25.375 92.4721 25.6761 92.7533 25.9006C93.0374 26.1222 93.3897 26.233 93.8101 26.233ZM100.581 27.1534C100.167 27.1534 99.7903 27.0753 99.4522 26.919C99.1141 26.7599 98.8457 26.5312 98.6468 26.233C98.4479 25.9318 98.3485 25.5682 98.3485 25.142C98.3485 24.767 98.4224 24.4631 98.5701 24.2301C98.7178 23.9943 98.9153 23.8097 99.1624 23.6761C99.4096 23.5426 99.6823 23.4432 99.9806 23.3778C100.282 23.3097 100.584 23.2557 100.888 23.2159C101.286 23.1648 101.608 23.1264 101.856 23.1009C102.106 23.0724 102.287 23.0256 102.401 22.9602C102.518 22.8949 102.576 22.7812 102.576 22.6193V22.5852C102.576 22.1648 102.461 21.8381 102.231 21.6051C102.003 21.3722 101.658 21.2557 101.195 21.2557C100.715 21.2557 100.339 21.3608 100.066 21.571C99.7931 21.7812 99.6013 22.0057 99.4905 22.2443L98.536 21.9034C98.7065 21.5057 98.9337 21.196 99.2178 20.9744C99.5047 20.75 99.8172 20.5937 100.155 20.5057C100.496 20.4148 100.831 20.3693 101.161 20.3693C101.371 20.3693 101.613 20.3949 101.885 20.446C102.161 20.4943 102.427 20.5952 102.682 20.7486C102.941 20.902 103.155 21.1335 103.326 21.4432C103.496 21.7528 103.581 22.1676 103.581 22.6875V27H102.576V26.1136H102.525C102.456 26.2557 102.343 26.4077 102.184 26.5696C102.025 26.7315 101.813 26.8693 101.549 26.983C101.285 27.0966 100.962 27.1534 100.581 27.1534ZM100.735 26.25C101.133 26.25 101.468 26.1719 101.741 26.0156C102.016 25.8594 102.223 25.6577 102.363 25.4105C102.505 25.1634 102.576 24.9034 102.576 24.6307V23.7102C102.533 23.7614 102.439 23.8082 102.295 23.8509C102.152 23.8906 101.988 23.9261 101.8 23.9574C101.616 23.9858 101.435 24.0114 101.259 24.0341C101.086 24.054 100.945 24.071 100.837 24.0852C100.576 24.1193 100.331 24.1747 100.104 24.2514C99.8797 24.3253 99.6979 24.4375 99.5587 24.5881C99.4224 24.7358 99.3542 24.9375 99.3542 25.1932C99.3542 25.5426 99.4834 25.8068 99.742 25.9858C100.003 26.1619 100.334 26.25 100.735 26.25ZM110.053 21.9205L109.15 22.1761C109.093 22.0256 109.009 21.8793 108.899 21.7372C108.791 21.5923 108.643 21.473 108.455 21.3793C108.268 21.2855 108.028 21.2386 107.735 21.2386C107.335 21.2386 107.001 21.331 106.734 21.5156C106.47 21.6974 106.337 21.929 106.337 22.2102C106.337 22.4602 106.428 22.6577 106.61 22.8026C106.792 22.9474 107.076 23.0682 107.462 23.1648L108.434 23.4034C109.019 23.5455 109.455 23.7628 109.742 24.0554C110.029 24.3452 110.173 24.7187 110.173 25.1761C110.173 25.5511 110.065 25.8864 109.849 26.1818C109.636 26.4773 109.337 26.7102 108.954 26.8807C108.57 27.0511 108.124 27.1364 107.616 27.1364C106.948 27.1364 106.396 26.9915 105.958 26.7017C105.521 26.4119 105.244 25.9886 105.127 25.4318L106.082 25.1932C106.173 25.5455 106.345 25.8097 106.597 25.9858C106.853 26.1619 107.187 26.25 107.599 26.25C108.068 26.25 108.44 26.1506 108.715 25.9517C108.994 25.75 109.133 25.5085 109.133 25.2273C109.133 25 109.053 24.8097 108.894 24.6562C108.735 24.5 108.491 24.3835 108.161 24.3068L107.07 24.0511C106.471 23.9091 106.031 23.6889 105.749 23.3906C105.471 23.0895 105.332 22.7131 105.332 22.2614C105.332 21.892 105.436 21.5653 105.643 21.2812C105.853 20.9972 106.139 20.7741 106.499 20.6122C106.863 20.4503 107.275 20.3693 107.735 20.3693C108.383 20.3693 108.891 20.5114 109.261 20.7955C109.633 21.0795 109.897 21.4545 110.053 21.9205ZM115.062 27V20.4545H116.067V27H115.062ZM115.573 19.3636C115.377 19.3636 115.208 19.2969 115.066 19.1634C114.927 19.0298 114.857 18.8693 114.857 18.6818C114.857 18.4943 114.927 18.3338 115.066 18.2003C115.208 18.0668 115.377 18 115.573 18C115.769 18 115.937 18.0668 116.076 18.2003C116.218 18.3338 116.289 18.4943 116.289 18.6818C116.289 18.8693 116.218 19.0298 116.076 19.1634C115.937 19.2969 115.769 19.3636 115.573 19.3636ZM120.568 27.1364C119.955 27.1364 119.426 26.9915 118.983 26.7017C118.54 26.4119 118.199 26.0128 117.96 25.5043C117.722 24.9957 117.602 24.4148 117.602 23.7614C117.602 23.0966 117.725 22.5099 117.969 22.0014C118.216 21.4901 118.56 21.0909 119 20.804C119.443 20.5142 119.96 20.3693 120.551 20.3693C121.011 20.3693 121.426 20.4545 121.796 20.625C122.165 20.7955 122.467 21.0341 122.703 21.3409C122.939 21.6477 123.085 22.0057 123.142 22.4148H122.136C122.06 22.1165 121.889 21.8523 121.625 21.6222C121.364 21.3892 121.011 21.2727 120.568 21.2727C120.176 21.2727 119.833 21.375 119.537 21.5795C119.244 21.7812 119.016 22.0668 118.851 22.4361C118.689 22.8026 118.608 23.233 118.608 23.7273C118.608 24.233 118.688 24.6733 118.847 25.0483C119.009 25.4233 119.236 25.7145 119.529 25.9219C119.824 26.1293 120.171 26.233 120.568 26.233C120.83 26.233 121.067 26.1875 121.28 26.0966C121.493 26.0057 121.673 25.875 121.821 25.7045C121.969 25.5341 122.074 25.3295 122.136 25.0909H123.142C123.085 25.4773 122.945 25.8253 122.72 26.1349C122.499 26.4418 122.205 26.6861 121.838 26.8679C121.475 27.0469 121.051 27.1364 120.568 27.1364ZM127.271 27.1364C126.681 27.1364 126.162 26.9957 125.716 26.7145C125.273 26.4332 124.926 26.0398 124.676 25.5341C124.429 25.0284 124.306 24.4375 124.306 23.7614C124.306 23.0795 124.429 22.4844 124.676 21.9759C124.926 21.4673 125.273 21.0724 125.716 20.7912C126.162 20.5099 126.681 20.3693 127.271 20.3693C127.862 20.3693 128.379 20.5099 128.823 20.7912C129.269 21.0724 129.615 21.4673 129.862 21.9759C130.112 22.4844 130.237 23.0795 130.237 23.7614C130.237 24.4375 130.112 25.0284 129.862 25.5341C129.615 26.0398 129.269 26.4332 128.823 26.7145C128.379 26.9957 127.862 27.1364 127.271 27.1364ZM127.271 26.233C127.72 26.233 128.09 26.1179 128.379 25.8878C128.669 25.6577 128.884 25.3551 129.023 24.9801C129.162 24.6051 129.232 24.1989 129.232 23.7614C129.232 23.3239 129.162 22.9162 129.023 22.5384C128.884 22.1605 128.669 21.8551 128.379 21.6222C128.09 21.3892 127.72 21.2727 127.271 21.2727C126.823 21.2727 126.453 21.3892 126.163 21.6222C125.874 21.8551 125.659 22.1605 125.52 22.5384C125.381 22.9162 125.311 23.3239 125.311 23.7614C125.311 24.1989 125.381 24.6051 125.52 24.9801C125.659 25.3551 125.874 25.6577 126.163 25.8878C126.453 26.1179 126.823 26.233 127.271 26.233ZM132.778 23.0625V27H131.773V20.4545H132.744V21.4773H132.829C132.983 21.1449 133.216 20.8778 133.528 20.6761C133.841 20.4716 134.244 20.3693 134.738 20.3693C135.182 20.3693 135.569 20.4602 135.902 20.642C136.234 20.821 136.493 21.0938 136.677 21.4602C136.862 21.8239 136.954 22.2841 136.954 22.8409V27H135.949V22.9091C135.949 22.3949 135.815 21.9943 135.548 21.7074C135.281 21.4176 134.915 21.2727 134.449 21.2727C134.128 21.2727 133.841 21.3423 133.588 21.4815C133.338 21.6207 133.14 21.8239 132.996 22.0909C132.851 22.358 132.778 22.6818 132.778 23.0625ZM66.4405 42V35.4545H67.4121V36.4432H67.4802C67.5996 36.1193 67.8155 35.8565 68.128 35.6548C68.4405 35.4531 68.7927 35.3523 69.1848 35.3523C69.2587 35.3523 69.351 35.3537 69.4618 35.3565C69.5726 35.3594 69.6564 35.3636 69.7132 35.3693V36.392C69.6791 36.3835 69.601 36.3707 69.4788 36.3537C69.3595 36.3338 69.2331 36.3239 69.0996 36.3239C68.7814 36.3239 68.4973 36.3906 68.2473 36.5241C68.0001 36.6548 67.8041 36.8366 67.6592 37.0696C67.5172 37.2997 67.4462 37.5625 67.4462 37.858V42H66.4405ZM73.4504 42.1364C72.8197 42.1364 72.2757 41.9972 71.8183 41.7188C71.3638 41.4375 71.0129 41.0455 70.7658 40.5426C70.5214 40.0369 70.3993 39.4489 70.3993 38.7784C70.3993 38.108 70.5214 37.517 70.7658 37.0057C71.0129 36.4915 71.3567 36.0909 71.797 35.804C72.2402 35.5142 72.7572 35.3693 73.3481 35.3693C73.6891 35.3693 74.0257 35.4261 74.3581 35.5398C74.6905 35.6534 74.993 35.8381 75.2658 36.0938C75.5385 36.3466 75.7558 36.6818 75.9177 37.0994C76.0797 37.517 76.1606 38.0312 76.1606 38.642V39.0682H71.1152V38.1989H75.1379C75.1379 37.8295 75.0641 37.5 74.9163 37.2102C74.7714 36.9205 74.5641 36.6918 74.2942 36.5241C74.0271 36.3565 73.7118 36.2727 73.3481 36.2727C72.9476 36.2727 72.601 36.3722 72.3084 36.571C72.0186 36.767 71.7956 37.0227 71.6393 37.3381C71.4831 37.6534 71.405 37.9915 71.405 38.3523V38.9318C71.405 39.4261 71.4902 39.8452 71.6606 40.1889C71.8339 40.5298 72.074 40.7898 72.3808 40.9688C72.6876 41.1449 73.0442 41.233 73.4504 41.233C73.7146 41.233 73.9533 41.196 74.1663 41.1222C74.3822 41.0455 74.5683 40.9318 74.7246 40.7812C74.8808 40.6278 75.0016 40.4375 75.0868 40.2102L76.0584 40.483C75.9561 40.8125 75.7842 41.1023 75.5427 41.3523C75.3013 41.5994 75.003 41.7926 74.6479 41.9318C74.2927 42.0682 73.8936 42.1364 73.4504 42.1364ZM77.6905 42V35.4545H78.6962V42H77.6905ZM78.2018 34.3636C78.0058 34.3636 77.8368 34.2969 77.6947 34.1634C77.5555 34.0298 77.4859 33.8693 77.4859 33.6818C77.4859 33.4943 77.5555 33.3338 77.6947 33.2003C77.8368 33.0668 78.0058 33 78.2018 33C78.3979 33 78.5655 33.0668 78.7047 33.2003C78.8467 33.3338 78.9177 33.4943 78.9177 33.6818C78.9177 33.8693 78.8467 34.0298 78.7047 34.1634C78.5655 34.2969 78.3979 34.3636 78.2018 34.3636ZM81.5438 38.0625V42H80.5381V35.4545H81.5097V36.4773H81.5949C81.7484 36.1449 81.9813 35.8778 82.2938 35.6761C82.6063 35.4716 83.0097 35.3693 83.504 35.3693C83.9472 35.3693 84.335 35.4602 84.6674 35.642C84.9998 35.821 85.2583 36.0938 85.443 36.4602C85.6276 36.8239 85.7199 37.2841 85.7199 37.8409V42H84.7143V37.9091C84.7143 37.3949 84.5807 36.9943 84.3137 36.7074C84.0467 36.4176 83.6802 36.2727 83.2143 36.2727C82.8932 36.2727 82.6063 36.3423 82.3535 36.4815C82.1035 36.6207 81.906 36.8239 81.7611 37.0909C81.6163 37.358 81.5438 37.6818 81.5438 38.0625Z" fill="white"/>
<path d="M74.876 63.18C74.144 63.18 73.538 63.048 73.058 62.784C72.578 62.508 72.218 62.1 71.978 61.56C71.75 61.02 71.636 60.348 71.636 59.544V55.188C71.636 54.804 71.732 54.522 71.924 54.342C72.116 54.15 72.392 54.054 72.752 54.054C73.112 54.054 73.388 54.15 73.58 54.342C73.784 54.522 73.886 54.804 73.886 55.188V59.58C73.886 60.204 74.012 60.666 74.264 60.966C74.516 61.266 74.918 61.416 75.47 61.416C76.07 61.416 76.562 61.212 76.946 60.804C77.33 60.384 77.522 59.832 77.522 59.148V55.188C77.522 54.804 77.618 54.522 77.81 54.342C78.002 54.15 78.278 54.054 78.638 54.054C78.998 54.054 79.274 54.15 79.466 54.342C79.67 54.522 79.772 54.804 79.772 55.188V61.992C79.772 62.76 79.406 63.144 78.674 63.144C78.326 63.144 78.056 63.048 77.864 62.856C77.672 62.652 77.576 62.364 77.576 61.992V60.624L77.828 61.164C77.576 61.812 77.192 62.31 76.676 62.658C76.172 63.006 75.572 63.18 74.876 63.18ZM85.3358 63.18C84.8198 63.18 84.2738 63.126 83.6978 63.018C83.1218 62.91 82.6058 62.724 82.1498 62.46C81.9578 62.34 81.8198 62.202 81.7358 62.046C81.6638 61.878 81.6338 61.716 81.6458 61.56C81.6698 61.392 81.7298 61.248 81.8258 61.128C81.9338 61.008 82.0658 60.93 82.2218 60.894C82.3898 60.858 82.5698 60.888 82.7618 60.984C83.2418 61.212 83.6918 61.374 84.1118 61.47C84.5318 61.554 84.9458 61.596 85.3538 61.596C85.9298 61.596 86.3558 61.5 86.6318 61.308C86.9198 61.104 87.0638 60.84 87.0638 60.516C87.0638 60.24 86.9678 60.03 86.7758 59.886C86.5958 59.73 86.3198 59.616 85.9478 59.544L84.1478 59.202C83.4038 59.058 82.8338 58.788 82.4378 58.392C82.0538 57.984 81.8618 57.462 81.8618 56.826C81.8618 56.25 82.0178 55.752 82.3298 55.332C82.6538 54.912 83.0978 54.588 83.6618 54.36C84.2258 54.132 84.8738 54.018 85.6058 54.018C86.1338 54.018 86.6258 54.078 87.0818 54.198C87.5498 54.306 87.9998 54.48 88.4318 54.72C88.6118 54.816 88.7318 54.942 88.7918 55.098C88.8638 55.254 88.8818 55.416 88.8458 55.584C88.8098 55.74 88.7378 55.884 88.6298 56.016C88.5218 56.136 88.3838 56.214 88.2158 56.25C88.0598 56.274 87.8798 56.238 87.6758 56.142C87.3038 55.95 86.9438 55.812 86.5958 55.728C86.2598 55.644 85.9358 55.602 85.6238 55.602C85.0358 55.602 84.5978 55.704 84.3098 55.908C84.0338 56.112 83.8958 56.382 83.8958 56.718C83.8958 56.97 83.9798 57.18 84.1478 57.348C84.3158 57.516 84.5738 57.63 84.9218 57.69L86.7218 58.032C87.5018 58.176 88.0898 58.44 88.4858 58.824C88.8938 59.208 89.0978 59.724 89.0978 60.372C89.0978 61.248 88.7558 61.938 88.0718 62.442C87.3878 62.934 86.4758 63.18 85.3358 63.18ZM95.2409 63.18C94.2449 63.18 93.3869 62.994 92.6669 62.622C91.9469 62.25 91.3889 61.722 90.9929 61.038C90.6089 60.354 90.4169 59.544 90.4169 58.608C90.4169 57.696 90.6029 56.898 90.9749 56.214C91.3589 55.53 91.8809 54.996 92.5409 54.612C93.2129 54.216 93.9749 54.018 94.8269 54.018C95.4509 54.018 96.0089 54.12 96.5009 54.324C97.0049 54.528 97.4309 54.822 97.7789 55.206C98.1389 55.59 98.4089 56.058 98.5889 56.61C98.7809 57.15 98.8769 57.762 98.8769 58.446C98.8769 58.662 98.7989 58.83 98.6429 58.95C98.4989 59.058 98.2889 59.112 98.0129 59.112H92.2349V57.816H97.2929L97.0049 58.086C97.0049 57.534 96.9209 57.072 96.7529 56.7C96.5969 56.328 96.3629 56.046 96.0509 55.854C95.7509 55.65 95.3729 55.548 94.9169 55.548C94.4129 55.548 93.9809 55.668 93.6209 55.908C93.2729 56.136 93.0029 56.466 92.8109 56.898C92.6309 57.318 92.5409 57.822 92.5409 58.41V58.536C92.5409 59.52 92.7689 60.258 93.2249 60.75C93.6929 61.23 94.3769 61.47 95.2769 61.47C95.5889 61.47 95.9369 61.434 96.3209 61.362C96.7169 61.278 97.0889 61.14 97.4369 60.948C97.6889 60.804 97.9109 60.744 98.1029 60.768C98.2949 60.78 98.4449 60.846 98.5529 60.966C98.6729 61.086 98.7449 61.236 98.7689 61.416C98.7929 61.584 98.7569 61.758 98.6609 61.938C98.5769 62.118 98.4269 62.274 98.2109 62.406C97.7909 62.67 97.3049 62.868 96.7529 63C96.2129 63.12 95.7089 63.18 95.2409 63.18ZM101.811 63.144C101.439 63.144 101.151 63.048 100.947 62.856C100.755 62.652 100.659 62.364 100.659 61.992V55.188C100.659 54.816 100.755 54.534 100.947 54.342C101.139 54.15 101.409 54.054 101.757 54.054C102.105 54.054 102.375 54.15 102.567 54.342C102.759 54.534 102.855 54.816 102.855 55.188V56.322H102.675C102.843 55.602 103.173 55.056 103.665 54.684C104.157 54.312 104.811 54.09 105.627 54.018C105.879 53.994 106.077 54.06 106.221 54.216C106.377 54.36 106.467 54.588 106.491 54.9C106.515 55.2 106.443 55.446 106.275 55.638C106.119 55.818 105.879 55.926 105.555 55.962L105.159 55.998C104.427 56.07 103.875 56.298 103.503 56.682C103.131 57.054 102.945 57.582 102.945 58.266V61.992C102.945 62.364 102.849 62.652 102.657 62.856C102.465 63.048 102.183 63.144 101.811 63.144ZM108.824 63.144C108.464 63.144 108.188 63.048 107.996 62.856C107.804 62.652 107.708 62.364 107.708 61.992V55.188C107.708 54.816 107.804 54.534 107.996 54.342C108.188 54.15 108.458 54.054 108.806 54.054C109.154 54.054 109.424 54.15 109.616 54.342C109.808 54.534 109.904 54.816 109.904 55.188V56.412L109.706 55.962C109.97 55.326 110.378 54.846 110.93 54.522C111.494 54.186 112.13 54.018 112.838 54.018C113.546 54.018 114.128 54.15 114.584 54.414C115.04 54.678 115.382 55.08 115.61 55.62C115.838 56.148 115.952 56.82 115.952 57.636V61.992C115.952 62.364 115.856 62.652 115.664 62.856C115.472 63.048 115.196 63.144 114.836 63.144C114.476 63.144 114.194 63.048 113.99 62.856C113.798 62.652 113.702 62.364 113.702 61.992V57.744C113.702 57.06 113.57 56.562 113.306 56.25C113.054 55.938 112.658 55.782 112.118 55.782C111.458 55.782 110.93 55.992 110.534 56.412C110.15 56.82 109.958 57.366 109.958 58.05V61.992C109.958 62.76 109.58 63.144 108.824 63.144ZM121.135 63.18C120.499 63.18 119.929 63.06 119.425 62.82C118.933 62.568 118.543 62.232 118.255 61.812C117.979 61.392 117.841 60.918 117.841 60.39C117.841 59.742 118.009 59.232 118.345 58.86C118.681 58.476 119.227 58.2 119.983 58.032C120.739 57.864 121.753 57.78 123.025 57.78H123.925V59.076H123.043C122.299 59.076 121.705 59.112 121.261 59.184C120.817 59.256 120.499 59.382 120.307 59.562C120.127 59.73 120.037 59.97 120.037 60.282C120.037 60.678 120.175 61.002 120.451 61.254C120.727 61.506 121.111 61.632 121.603 61.632C121.999 61.632 122.347 61.542 122.647 61.362C122.959 61.17 123.205 60.912 123.385 60.588C123.565 60.264 123.655 59.892 123.655 59.472V57.402C123.655 56.802 123.523 56.37 123.259 56.106C122.995 55.842 122.551 55.71 121.927 55.71C121.579 55.71 121.201 55.752 120.793 55.836C120.397 55.92 119.977 56.064 119.533 56.268C119.305 56.376 119.101 56.406 118.921 56.358C118.753 56.31 118.621 56.214 118.525 56.07C118.429 55.914 118.381 55.746 118.381 55.566C118.381 55.386 118.429 55.212 118.525 55.044C118.621 54.864 118.783 54.732 119.011 54.648C119.563 54.42 120.091 54.258 120.595 54.162C121.111 54.066 121.579 54.018 121.999 54.018C122.863 54.018 123.571 54.15 124.123 54.414C124.687 54.678 125.107 55.08 125.383 55.62C125.659 56.148 125.797 56.832 125.797 57.672V61.992C125.797 62.364 125.707 62.652 125.527 62.856C125.347 63.048 125.089 63.144 124.753 63.144C124.417 63.144 124.153 63.048 123.961 62.856C123.781 62.652 123.691 62.364 123.691 61.992V61.128H123.835C123.751 61.548 123.583 61.914 123.331 62.226C123.091 62.526 122.785 62.76 122.413 62.928C122.041 63.096 121.615 63.18 121.135 63.18ZM129.233 63.144C128.873 63.144 128.597 63.048 128.405 62.856C128.213 62.652 128.117 62.364 128.117 61.992V55.188C128.117 54.816 128.213 54.534 128.405 54.342C128.597 54.15 128.867 54.054 129.215 54.054C129.563 54.054 129.833 54.15 130.025 54.342C130.217 54.534 130.313 54.816 130.313 55.188V56.502L130.115 55.962C130.355 55.362 130.727 54.888 131.231 54.54C131.735 54.192 132.335 54.018 133.031 54.018C133.739 54.018 134.321 54.186 134.777 54.522C135.233 54.858 135.551 55.374 135.731 56.07H135.479C135.719 55.434 136.115 54.936 136.667 54.576C137.219 54.204 137.855 54.018 138.575 54.018C139.247 54.018 139.799 54.15 140.231 54.414C140.675 54.678 141.005 55.08 141.221 55.62C141.437 56.148 141.545 56.82 141.545 57.636V61.992C141.545 62.364 141.443 62.652 141.239 62.856C141.047 63.048 140.771 63.144 140.411 63.144C140.051 63.144 139.775 63.048 139.583 62.856C139.391 62.652 139.295 62.364 139.295 61.992V57.726C139.295 57.054 139.181 56.562 138.953 56.25C138.737 55.938 138.365 55.782 137.837 55.782C137.249 55.782 136.787 55.992 136.451 56.412C136.115 56.82 135.947 57.39 135.947 58.122V61.992C135.947 62.364 135.851 62.652 135.659 62.856C135.467 63.048 135.191 63.144 134.831 63.144C134.471 63.144 134.189 63.048 133.985 62.856C133.793 62.652 133.697 62.364 133.697 61.992V57.726C133.697 57.054 133.583 56.562 133.355 56.25C133.139 55.938 132.773 55.782 132.257 55.782C131.669 55.782 131.207 55.992 130.871 56.412C130.535 56.82 130.367 57.39 130.367 58.122V61.992C130.367 62.76 129.989 63.144 129.233 63.144ZM148.204 63.18C147.208 63.18 146.35 62.994 145.63 62.622C144.91 62.25 144.352 61.722 143.956 61.038C143.572 60.354 143.38 59.544 143.38 58.608C143.38 57.696 143.566 56.898 143.938 56.214C144.322 55.53 144.844 54.996 145.504 54.612C146.176 54.216 146.938 54.018 147.79 54.018C148.414 54.018 148.972 54.12 149.464 54.324C149.968 54.528 150.394 54.822 150.742 55.206C151.102 55.59 151.372 56.058 151.552 56.61C151.744 57.15 151.84 57.762 151.84 58.446C151.84 58.662 151.762 58.83 151.606 58.95C151.462 59.058 151.252 59.112 150.976 59.112H145.198V57.816H150.256L149.968 58.086C149.968 57.534 149.884 57.072 149.716 56.7C149.56 56.328 149.326 56.046 149.014 55.854C148.714 55.65 148.336 55.548 147.88 55.548C147.376 55.548 146.944 55.668 146.584 55.908C146.236 56.136 145.966 56.466 145.774 56.898C145.594 57.318 145.504 57.822 145.504 58.41V58.536C145.504 59.52 145.732 60.258 146.188 60.75C146.656 61.23 147.34 61.47 148.24 61.47C148.552 61.47 148.9 61.434 149.284 61.362C149.68 61.278 150.052 61.14 150.4 60.948C150.652 60.804 150.874 60.744 151.066 60.768C151.258 60.78 151.408 60.846 151.516 60.966C151.636 61.086 151.708 61.236 151.732 61.416C151.756 61.584 151.72 61.758 151.624 61.938C151.54 62.118 151.39 62.274 151.174 62.406C150.754 62.67 150.268 62.868 149.716 63C149.176 63.12 148.672 63.18 148.204 63.18Z" fill="white"/>
<path d="M71.7276 86.112C71.5142 86.112 71.3542 86.0533 71.2476 85.936C71.1409 85.8187 71.0876 85.6533 71.0876 85.44V75.264C71.0876 75.0507 71.1409 74.8907 71.2476 74.784C71.3542 74.6667 71.5142 74.608 71.7276 74.608C71.9302 74.608 72.0902 74.6667 72.2076 74.784C72.3249 74.8907 72.3836 75.0507 72.3836 75.264V79.952H72.1756C72.3996 79.3333 72.7622 78.8693 73.2636 78.56C73.7756 78.24 74.3622 78.08 75.0236 78.08C75.6422 78.08 76.1542 78.192 76.5596 78.416C76.9756 78.64 77.2849 78.9813 77.4876 79.44C77.6902 79.888 77.7916 80.4587 77.7916 81.152V85.44C77.7916 85.6533 77.7329 85.8187 77.6156 85.936C77.5089 86.0533 77.3542 86.112 77.1516 86.112C76.9382 86.112 76.7729 86.0533 76.6556 85.936C76.5489 85.8187 76.4956 85.6533 76.4956 85.44V81.232C76.4956 80.5067 76.3516 79.9787 76.0636 79.648C75.7862 79.3067 75.3382 79.136 74.7196 79.136C74.0049 79.136 73.4342 79.36 73.0076 79.808C72.5916 80.2453 72.3836 80.832 72.3836 81.568V85.44C72.3836 85.888 72.1649 86.112 71.7276 86.112ZM82.6293 86.144C82.096 86.144 81.616 86.0427 81.1893 85.84C80.7733 85.6267 80.4427 85.3387 80.1973 84.976C79.952 84.6133 79.8293 84.208 79.8293 83.76C79.8293 83.184 79.9733 82.7307 80.2613 82.4C80.56 82.0693 81.0453 81.8347 81.7173 81.696C82.4 81.5573 83.328 81.488 84.5013 81.488H85.2213V82.336H84.5173C83.6533 82.336 82.9707 82.3787 82.4693 82.464C81.9787 82.5387 81.632 82.672 81.4293 82.864C81.2373 83.056 81.1413 83.328 81.1413 83.68C81.1413 84.1173 81.2907 84.4747 81.5893 84.752C81.8987 85.0293 82.3147 85.168 82.8373 85.168C83.264 85.168 83.6373 85.0667 83.9573 84.864C84.288 84.6613 84.544 84.384 84.7253 84.032C84.9173 83.68 85.0133 83.2747 85.0133 82.816V80.992C85.0133 80.3307 84.88 79.856 84.6133 79.568C84.3467 79.2693 83.9093 79.12 83.3013 79.12C82.928 79.12 82.5547 79.168 82.1813 79.264C81.808 79.36 81.4133 79.5147 80.9973 79.728C80.848 79.8027 80.72 79.8293 80.6133 79.808C80.5067 79.776 80.4213 79.7173 80.3573 79.632C80.2933 79.5467 80.256 79.4507 80.2453 79.344C80.2347 79.2267 80.256 79.1147 80.3093 79.008C80.3733 78.9013 80.4693 78.816 80.5973 78.752C81.0667 78.5173 81.5307 78.3467 81.9893 78.24C82.448 78.1333 82.8853 78.08 83.3013 78.08C83.9733 78.08 84.528 78.192 84.9653 78.416C85.4027 78.6293 85.728 78.96 85.9413 79.408C86.1547 79.8453 86.2613 80.4107 86.2613 81.104V85.44C86.2613 85.6533 86.208 85.8187 86.1013 85.936C86.0053 86.0533 85.8613 86.112 85.6693 86.112C85.4667 86.112 85.312 86.0533 85.2053 85.936C85.0987 85.8187 85.0453 85.6533 85.0453 85.44V84.192H85.1893C85.104 84.5973 84.9387 84.944 84.6933 85.232C84.4587 85.52 84.1653 85.744 83.8133 85.904C83.4613 86.064 83.0667 86.144 82.6293 86.144ZM91.7857 86.144C91.1777 86.144 90.6657 86.0373 90.2497 85.824C89.8444 85.6 89.5404 85.28 89.3377 84.864C89.135 84.4373 89.0337 83.92 89.0337 83.312V79.232H87.9617C87.7804 79.232 87.6417 79.1893 87.5457 79.104C87.4497 79.008 87.4017 78.88 87.4017 78.72C87.4017 78.56 87.4497 78.4373 87.5457 78.352C87.6417 78.2667 87.7804 78.224 87.9617 78.224H89.0337V76.384C89.0337 76.1707 89.0924 76.0107 89.2097 75.904C89.327 75.7867 89.487 75.728 89.6897 75.728C89.8924 75.728 90.047 75.7867 90.1537 75.904C90.271 76.0107 90.3297 76.1707 90.3297 76.384V78.224H92.3457C92.527 78.224 92.6657 78.2667 92.7617 78.352C92.8577 78.4373 92.9057 78.56 92.9057 78.72C92.9057 78.88 92.8577 79.008 92.7617 79.104C92.6657 79.1893 92.527 79.232 92.3457 79.232H90.3297V83.184C90.3297 83.792 90.4577 84.256 90.7137 84.576C90.9697 84.8853 91.3857 85.04 91.9617 85.04C92.1644 85.04 92.335 85.0187 92.4737 84.976C92.623 84.9333 92.7457 84.912 92.8417 84.912C92.9377 84.9013 93.0177 84.9333 93.0817 85.008C93.1457 85.0827 93.1777 85.2107 93.1777 85.392C93.1777 85.52 93.151 85.6373 93.0977 85.744C93.055 85.8507 92.975 85.9253 92.8577 85.968C92.7297 86.0107 92.559 86.048 92.3457 86.08C92.143 86.1227 91.9564 86.144 91.7857 86.144ZM99.0405 86.112C98.8271 86.112 98.6618 86.0533 98.5445 85.936C98.4378 85.8187 98.3845 85.6533 98.3845 85.44V78.768C98.3845 78.5547 98.4378 78.3947 98.5445 78.288C98.6511 78.1707 98.8058 78.112 99.0085 78.112C99.2111 78.112 99.3658 78.1707 99.4725 78.288C99.5898 78.3947 99.6485 78.5547 99.6485 78.768V80.064H99.4885C99.6591 79.4347 99.9845 78.9493 100.464 78.608C100.944 78.2667 101.536 78.0853 102.24 78.064C102.4 78.0533 102.528 78.0907 102.624 78.176C102.72 78.2507 102.774 78.384 102.784 78.576C102.795 78.7573 102.752 78.9013 102.656 79.008C102.56 79.1147 102.411 79.1787 102.208 79.2L101.952 79.232C101.227 79.296 100.667 79.5307 100.272 79.936C99.8885 80.3307 99.6965 80.8747 99.6965 81.568V85.44C99.6965 85.6533 99.6378 85.8187 99.5205 85.936C99.4138 86.0533 99.2538 86.112 99.0405 86.112ZM107.529 86.144C106.708 86.144 105.998 85.984 105.401 85.664C104.814 85.3333 104.356 84.8693 104.025 84.272C103.705 83.6747 103.545 82.96 103.545 82.128C103.545 81.3173 103.705 80.6133 104.025 80.016C104.345 79.408 104.782 78.9333 105.337 78.592C105.902 78.2507 106.553 78.08 107.289 78.08C107.812 78.08 108.281 78.1707 108.697 78.352C109.113 78.5227 109.465 78.7733 109.753 79.104C110.052 79.4347 110.276 79.8347 110.425 80.304C110.585 80.7733 110.665 81.3013 110.665 81.888C110.665 82.0587 110.617 82.1867 110.521 82.272C110.425 82.3467 110.286 82.384 110.105 82.384H104.537V81.536H109.801L109.545 81.744C109.545 81.168 109.46 80.6827 109.289 80.288C109.118 79.8827 108.868 79.5733 108.537 79.36C108.217 79.1467 107.812 79.04 107.321 79.04C106.777 79.04 106.313 79.168 105.929 79.424C105.556 79.6693 105.273 80.016 105.081 80.464C104.889 80.9013 104.793 81.4133 104.793 82V82.096C104.793 83.0773 105.028 83.824 105.497 84.336C105.977 84.848 106.654 85.104 107.529 85.104C107.892 85.104 108.249 85.056 108.601 84.96C108.964 84.864 109.316 84.704 109.657 84.48C109.806 84.384 109.94 84.3413 110.057 84.352C110.185 84.352 110.286 84.3893 110.361 84.464C110.436 84.528 110.484 84.6133 110.505 84.72C110.537 84.816 110.526 84.9227 110.473 85.04C110.43 85.1573 110.34 85.2587 110.201 85.344C109.849 85.6 109.433 85.7973 108.953 85.936C108.473 86.0747 107.998 86.144 107.529 86.144ZM114.989 86.144C114.455 86.144 113.975 86.0427 113.549 85.84C113.133 85.6267 112.802 85.3387 112.557 84.976C112.311 84.6133 112.189 84.208 112.189 83.76C112.189 83.184 112.333 82.7307 112.621 82.4C112.919 82.0693 113.405 81.8347 114.077 81.696C114.759 81.5573 115.687 81.488 116.861 81.488H117.581V82.336H116.877C116.013 82.336 115.33 82.3787 114.829 82.464C114.338 82.5387 113.991 82.672 113.789 82.864C113.597 83.056 113.501 83.328 113.501 83.68C113.501 84.1173 113.65 84.4747 113.949 84.752C114.258 85.0293 114.674 85.168 115.197 85.168C115.623 85.168 115.997 85.0667 116.317 84.864C116.647 84.6613 116.903 84.384 117.085 84.032C117.277 83.68 117.373 83.2747 117.373 82.816V80.992C117.373 80.3307 117.239 79.856 116.973 79.568C116.706 79.2693 116.269 79.12 115.661 79.12C115.287 79.12 114.914 79.168 114.541 79.264C114.167 79.36 113.773 79.5147 113.357 79.728C113.207 79.8027 113.079 79.8293 112.973 79.808C112.866 79.776 112.781 79.7173 112.717 79.632C112.653 79.5467 112.615 79.4507 112.605 79.344C112.594 79.2267 112.615 79.1147 112.669 79.008C112.733 78.9013 112.829 78.816 112.957 78.752C113.426 78.5173 113.89 78.3467 114.349 78.24C114.807 78.1333 115.245 78.08 115.661 78.08C116.333 78.08 116.887 78.192 117.325 78.416C117.762 78.6293 118.087 78.96 118.301 79.408C118.514 79.8453 118.621 80.4107 118.621 81.104V85.44C118.621 85.6533 118.567 85.8187 118.461 85.936C118.365 86.0533 118.221 86.112 118.029 86.112C117.826 86.112 117.671 86.0533 117.565 85.936C117.458 85.8187 117.405 85.6533 117.405 85.44V84.192H117.549C117.463 84.5973 117.298 84.944 117.053 85.232C116.818 85.52 116.525 85.744 116.173 85.904C115.821 86.064 115.426 86.144 114.989 86.144ZM124.465 89.024C123.9 89.024 123.345 88.9547 122.801 88.816C122.268 88.688 121.782 88.48 121.345 88.192C121.217 88.1173 121.132 88.0267 121.089 87.92C121.057 87.8133 121.052 87.7067 121.073 87.6C121.094 87.504 121.142 87.4133 121.217 87.328C121.292 87.2533 121.377 87.2053 121.473 87.184C121.58 87.1627 121.686 87.1787 121.793 87.232C122.262 87.52 122.71 87.7173 123.137 87.824C123.564 87.9307 123.985 87.984 124.401 87.984C125.158 87.984 125.729 87.7813 126.113 87.376C126.508 86.9707 126.705 86.384 126.705 85.616V83.808H126.865C126.705 84.4267 126.364 84.9173 125.841 85.28C125.329 85.6427 124.726 85.824 124.033 85.824C123.318 85.824 122.7 85.664 122.177 85.344C121.654 85.0133 121.249 84.5547 120.961 83.968C120.684 83.3813 120.545 82.704 120.545 81.936C120.545 81.36 120.625 80.8373 120.785 80.368C120.945 79.888 121.174 79.4827 121.473 79.152C121.782 78.8107 122.15 78.5493 122.577 78.368C123.014 78.176 123.5 78.08 124.033 78.08C124.737 78.08 125.345 78.2613 125.857 78.624C126.369 78.976 126.7 79.456 126.849 80.064L126.689 80.256V78.768C126.689 78.5547 126.742 78.3947 126.849 78.288C126.966 78.1707 127.126 78.112 127.329 78.112C127.542 78.112 127.702 78.1707 127.809 78.288C127.916 78.3947 127.969 78.5547 127.969 78.768V85.44C127.969 86.624 127.67 87.5147 127.073 88.112C126.486 88.72 125.617 89.024 124.465 89.024ZM124.273 84.768C124.774 84.768 125.206 84.656 125.569 84.432C125.932 84.1973 126.209 83.8667 126.401 83.44C126.604 83.0133 126.705 82.512 126.705 81.936C126.705 81.072 126.486 80.3893 126.049 79.888C125.612 79.376 125.02 79.12 124.273 79.12C123.782 79.12 123.356 79.2373 122.993 79.472C122.63 79.696 122.348 80.0213 122.145 80.448C121.953 80.864 121.857 81.36 121.857 81.936C121.857 82.8 122.076 83.488 122.513 84C122.95 84.512 123.537 84.768 124.273 84.768ZM131.04 86.08C130.827 86.08 130.667 86.0213 130.56 85.904C130.453 85.776 130.4 85.6 130.4 85.376V78.832C130.4 78.608 130.453 78.4373 130.56 78.32C130.667 78.2027 130.827 78.144 131.04 78.144C131.243 78.144 131.403 78.2027 131.52 78.32C131.637 78.4373 131.696 78.608 131.696 78.832V85.376C131.696 85.6 131.637 85.776 131.52 85.904C131.413 86.0213 131.253 86.08 131.04 86.08ZM131.04 76.352C130.773 76.352 130.565 76.2827 130.416 76.144C130.267 75.9947 130.192 75.7973 130.192 75.552C130.192 75.296 130.267 75.104 130.416 74.976C130.565 74.8373 130.773 74.768 131.04 74.768C131.317 74.768 131.525 74.8373 131.664 74.976C131.813 75.104 131.888 75.296 131.888 75.552C131.888 75.7973 131.813 75.9947 131.664 76.144C131.525 76.2827 131.317 76.352 131.04 76.352ZM137.623 86.144C136.801 86.144 136.092 85.984 135.495 85.664C134.908 85.3333 134.449 84.8693 134.119 84.272C133.799 83.6747 133.639 82.96 133.639 82.128C133.639 81.3173 133.799 80.6133 134.119 80.016C134.439 79.408 134.876 78.9333 135.431 78.592C135.996 78.2507 136.647 78.08 137.383 78.08C137.905 78.08 138.375 78.1707 138.791 78.352C139.207 78.5227 139.559 78.7733 139.847 79.104C140.145 79.4347 140.369 79.8347 140.519 80.304C140.679 80.7733 140.759 81.3013 140.759 81.888C140.759 82.0587 140.711 82.1867 140.615 82.272C140.519 82.3467 140.38 82.384 140.199 82.384H134.631V81.536H139.895L139.639 81.744C139.639 81.168 139.553 80.6827 139.383 80.288C139.212 79.8827 138.961 79.5733 138.631 79.36C138.311 79.1467 137.905 79.04 137.415 79.04C136.871 79.04 136.407 79.168 136.023 79.424C135.649 79.6693 135.367 80.016 135.175 80.464C134.983 80.9013 134.887 81.4133 134.887 82V82.096C134.887 83.0773 135.121 83.824 135.591 84.336C136.071 84.848 136.748 85.104 137.623 85.104C137.985 85.104 138.343 85.056 138.695 84.96C139.057 84.864 139.409 84.704 139.751 84.48C139.9 84.384 140.033 84.3413 140.151 84.352C140.279 84.352 140.38 84.3893 140.455 84.464C140.529 84.528 140.577 84.6133 140.599 84.72C140.631 84.816 140.62 84.9227 140.567 85.04C140.524 85.1573 140.433 85.2587 140.295 85.344C139.943 85.6 139.527 85.7973 139.047 85.936C138.567 86.0747 138.092 86.144 137.623 86.144ZM143.29 86.112C143.077 86.112 142.912 86.0533 142.794 85.936C142.688 85.8187 142.634 85.6533 142.634 85.44V78.768C142.634 78.5547 142.688 78.3947 142.794 78.288C142.901 78.1707 143.056 78.112 143.258 78.112C143.461 78.112 143.616 78.1707 143.722 78.288C143.84 78.3947 143.898 78.5547 143.898 78.768V80.064H143.738C143.909 79.4347 144.234 78.9493 144.714 78.608C145.194 78.2667 145.786 78.0853 146.49 78.064C146.65 78.0533 146.778 78.0907 146.874 78.176C146.97 78.2507 147.024 78.384 147.034 78.576C147.045 78.7573 147.002 78.9013 146.906 79.008C146.81 79.1147 146.661 79.1787 146.458 79.2L146.202 79.232C145.477 79.296 144.917 79.5307 144.522 79.936C144.138 80.3307 143.946 80.8747 143.946 81.568V85.44C143.946 85.6533 143.888 85.8187 143.77 85.936C143.664 86.0533 143.504 86.112 143.29 86.112ZM151.911 86.144C151.303 86.144 150.791 86.0373 150.375 85.824C149.969 85.6 149.665 85.28 149.463 84.864C149.26 84.4373 149.159 83.92 149.159 83.312V79.232H148.087C147.905 79.232 147.767 79.1893 147.671 79.104C147.575 79.008 147.527 78.88 147.527 78.72C147.527 78.56 147.575 78.4373 147.671 78.352C147.767 78.2667 147.905 78.224 148.087 78.224H149.159V76.384C149.159 76.1707 149.217 76.0107 149.335 75.904C149.452 75.7867 149.612 75.728 149.815 75.728C150.017 75.728 150.172 75.7867 150.279 75.904C150.396 76.0107 150.455 76.1707 150.455 76.384V78.224H152.471C152.652 78.224 152.791 78.2667 152.887 78.352C152.983 78.4373 153.031 78.56 153.031 78.72C153.031 78.88 152.983 79.008 152.887 79.104C152.791 79.1893 152.652 79.232 152.471 79.232H150.455V83.184C150.455 83.792 150.583 84.256 150.839 84.576C151.095 84.8853 151.511 85.04 152.087 85.04C152.289 85.04 152.46 85.0187 152.599 84.976C152.748 84.9333 152.871 84.912 152.967 84.912C153.063 84.9013 153.143 84.9333 153.207 85.008C153.271 85.0827 153.303 85.2107 153.303 85.392C153.303 85.52 153.276 85.6373 153.223 85.744C153.18 85.8507 153.1 85.9253 152.983 85.968C152.855 86.0107 152.684 86.048 152.471 86.08C152.268 86.1227 152.081 86.144 151.911 86.144Z" fill="white"/>
</svg>
