<svg width="1920" height="1080" viewBox="0 0 1920 1080" fill="none" xmlns="http://www.w3.org/2000/svg">
  <rect width="1920" height="1080" fill="#ECEEFE"/>
  <g clip-path="url(#clip0)">
    <path d="M139.831 75H107.685C104.777 75 102.461 77.3154 102.461 80.1692V106.769H139.777C142.631 106.769 144.946 104.454 144.946 101.6V80.1692C145 77.3154 142.685 75 139.831 75Z" fill="#92C83E"/>
    <path d="M113.823 93.4153C115.221 93.4153 116.354 92.2822 116.354 90.8845C116.354 89.4868 115.221 88.3538 113.823 88.3538C112.425 88.3538 111.292 89.4868 111.292 90.8845C111.292 92.2822 112.425 93.4153 113.823 93.4153Z" fill="white"/>
    <path d="M123.731 93.4153C125.128 93.4153 126.261 92.2822 126.261 90.8845C126.261 89.4868 125.128 88.3538 123.731 88.3538C122.333 88.3538 121.2 89.4868 121.2 90.8845C121.2 92.2822 122.333 93.4153 123.731 93.4153Z" fill="white"/>
    <path d="M133.638 93.4153C135.036 93.4153 136.169 92.2822 136.169 90.8845C136.169 89.4868 135.036 88.3538 133.638 88.3538C132.241 88.3538 131.108 89.4868 131.108 90.8845C131.108 92.2822 132.241 93.4153 133.638 93.4153Z" fill="white"/>
    <path d="M80.3309 112.908C77.477 112.908 75.1616 115.223 75.1616 118.077V139.777C75.1616 142.631 77.477 144.946 80.3309 144.946H112.477C115.331 144.946 117.646 142.631 117.646 139.777V112.854H80.3309V112.908Z" fill="#FBB03B"/>
    <path d="M86.4692 131.485C87.8669 131.485 89 130.352 89 128.954C89 127.556 87.8669 126.423 86.4692 126.423C85.0715 126.423 83.9385 127.556 83.9385 128.954C83.9385 130.352 85.0715 131.485 86.4692 131.485Z" fill="white"/>
    <path d="M96.377 131.485C97.7747 131.485 98.9077 130.352 98.9077 128.954C98.9077 127.556 97.7747 126.423 96.377 126.423C94.9793 126.423 93.8462 127.556 93.8462 128.954C93.8462 130.352 94.9793 131.485 96.377 131.485Z" fill="white"/>
    <path d="M106.285 131.485C107.682 131.485 108.815 130.352 108.815 128.954C108.815 127.556 107.682 126.423 106.285 126.423C104.887 126.423 103.754 127.556 103.754 128.954C103.754 130.352 104.887 131.485 106.285 131.485Z" fill="white"/>
    <path d="M96.3769 96.1077V106.823H85.7154C79.7923 106.823 75 102.031 75 96.1077C75 90.1846 79.7923 85.3923 85.7154 85.3923C91.6385 85.3923 96.3769 90.2385 96.3769 96.1077Z" fill="#ED1E79"/>
    <path d="M123.623 123.623V112.908H134.338C140.262 112.908 145.054 117.7 145.054 123.623C145.054 129.546 140.262 134.338 134.338 134.338C128.415 134.338 123.623 129.492 123.623 123.623Z" fill="#3FA9F5"/>
  </g>
  <g clip-path="url(#clip1)">
    <path d="M169.695 98.2673H163.259C162.531 98.2673 161.968 98.461 161.581 98.8482C161.194 99.2354 161 99.7979 161 100.526V119.409C161 120.137 161.194 120.7 161.581 121.087C161.968 121.474 162.531 121.668 163.259 121.668H169.695C171.668 121.668 173.41 121.41 174.922 120.884C176.434 120.368 177.725 119.603 178.776 118.607C179.828 117.611 180.62 116.385 181.164 114.937C181.708 113.49 181.976 111.821 181.976 109.94C181.976 106.178 180.906 103.292 178.776 101.273C176.637 99.2723 173.613 98.2673 169.695 98.2673ZM177.034 113.554C176.702 114.587 176.195 115.435 175.522 116.108C174.849 116.781 174.01 117.288 172.995 117.639C171.99 117.98 170.801 118.155 169.427 118.155H165.241V101.78H169.427C172.129 101.78 174.148 102.453 175.503 103.809C176.849 105.155 177.532 107.202 177.532 109.949C177.532 111.323 177.366 112.522 177.034 113.554Z" fill="black"/>
    <path d="M196.203 99.7887C195.917 99.1433 195.566 98.6915 195.161 98.4149C194.755 98.1383 194.294 98 193.787 98C193.28 98 192.782 98.1383 192.376 98.4149C191.971 98.6915 191.62 99.1525 191.334 99.7887L182.575 119.206C182.354 119.713 182.28 120.174 182.345 120.58C182.409 120.986 182.603 121.318 182.926 121.557C183.248 121.797 183.672 121.926 184.207 121.926C184.779 121.926 185.221 121.779 185.535 121.493C185.848 121.207 186.143 120.737 186.429 120.101L188.061 116.247H199.476L201.135 120.101C201.403 120.718 201.707 121.179 202.048 121.474C202.389 121.769 202.869 121.926 203.496 121.926C204.003 121.926 204.418 121.806 204.722 121.576C205.035 121.345 205.22 121.013 205.284 120.599C205.349 120.174 205.266 119.713 205.017 119.206L196.203 99.7887ZM193.713 102.877H193.778L198.01 112.872H189.509L193.713 102.877Z" fill="black"/>
    <path d="M222.046 109.59C223.024 109.221 223.826 108.668 224.453 107.921C225.273 106.943 225.679 105.754 225.679 104.334C225.679 103.071 225.375 101.992 224.766 101.079C224.158 100.176 223.282 99.4751 222.129 98.9864C220.977 98.4978 219.585 98.2581 217.943 98.2581H209.977C209.249 98.2581 208.686 98.4517 208.299 98.8389C207.912 99.2262 207.718 99.7886 207.718 100.517V119.4C207.718 120.128 207.912 120.691 208.299 121.078C208.686 121.465 209.249 121.659 209.977 121.659H218.312C220.811 121.659 222.766 121.087 224.167 119.953C225.568 118.81 226.278 117.205 226.278 115.122C226.278 113.527 225.827 112.236 224.914 111.24C224.195 110.447 223.227 109.903 222.046 109.59ZM211.803 101.485H217.215C218.672 101.485 219.769 101.771 220.488 102.333C221.207 102.896 221.567 103.735 221.567 104.841C221.567 105.948 221.207 106.787 220.488 107.349C219.769 107.912 218.681 108.197 217.215 108.197H211.803V101.485ZM221.097 117.565C220.387 118.155 219.28 118.441 217.777 118.441H211.803V111.406H217.777C219.28 111.406 220.387 111.692 221.097 112.273C221.807 112.844 222.157 113.729 222.157 114.928C222.157 116.127 221.807 116.984 221.097 117.565Z" fill="black"/>
    <path d="M242.976 105.173C242.312 105.173 241.805 105.348 241.445 105.689C241.095 106.031 240.911 106.556 240.911 107.266V114.568C240.911 115.832 240.56 116.846 239.85 117.602C239.14 118.367 238.237 118.745 237.13 118.745C236.116 118.745 235.369 118.469 234.908 117.915C234.447 117.362 234.208 116.514 234.208 115.361V107.266C234.208 106.556 234.023 106.031 233.664 105.689C233.295 105.348 232.788 105.173 232.124 105.173C231.46 105.173 230.953 105.348 230.593 105.689C230.243 106.031 230.059 106.556 230.059 107.266V115.297C230.059 116.781 230.271 118.017 230.704 119.013C231.137 120.008 231.792 120.755 232.677 121.253C233.562 121.751 234.678 122 236.033 122C237.389 122 238.43 121.677 239.371 121.041C240.044 120.58 240.588 119.981 241.012 119.243V119.815C241.012 120.497 241.187 121.022 241.547 121.391C241.897 121.76 242.395 121.935 243.041 121.935C244.387 121.935 245.069 121.225 245.069 119.815V107.266C245.069 106.556 244.885 106.031 244.525 105.689C244.156 105.348 243.649 105.173 242.985 105.173H242.976Z" fill="black"/>
    <path d="M262.486 106.132C261.426 105.45 260.172 105.1 258.733 105.1C257.387 105.1 256.198 105.431 255.184 106.095C254.455 106.566 253.911 107.146 253.524 107.838V100.093C253.524 99.4107 253.34 98.8851 252.98 98.5348C252.62 98.1844 252.104 98 251.44 98C250.776 98 250.269 98.1752 249.91 98.5348C249.559 98.8851 249.375 99.4107 249.375 100.093V119.806C249.375 120.488 249.55 121.013 249.91 121.382C250.26 121.751 250.776 121.926 251.44 121.926C252.104 121.926 252.584 121.742 252.934 121.382C253.284 121.013 253.469 120.488 253.469 119.806V119.114C253.847 119.852 254.4 120.469 255.147 120.967C256.179 121.65 257.378 122 258.752 122C260.126 122 261.416 121.659 262.486 120.967C263.556 120.285 264.395 119.299 264.994 118.026C265.593 116.754 265.888 115.251 265.888 113.527C265.888 111.803 265.593 110.281 264.994 109.027C264.395 107.773 263.565 106.805 262.504 106.123L262.486 106.132ZM261.177 116.468C260.836 117.252 260.356 117.842 259.729 118.247C259.102 118.653 258.392 118.847 257.572 118.847C256.336 118.847 255.34 118.395 254.584 117.501C253.828 116.606 253.46 115.279 253.46 113.536C253.46 112.365 253.635 111.388 253.976 110.595C254.317 109.811 254.796 109.221 255.423 108.834C256.041 108.446 256.76 108.253 257.581 108.253C258.816 108.253 259.812 108.686 260.568 109.562C261.324 110.438 261.693 111.756 261.693 113.527C261.693 114.698 261.518 115.675 261.177 116.468Z" fill="black"/>
    <path d="M282.401 106.132C281.341 105.45 280.087 105.1 278.649 105.1C277.303 105.1 276.113 105.431 275.099 106.095C274.371 106.566 273.827 107.146 273.439 107.838V100.093C273.439 99.4107 273.255 98.8851 272.895 98.5348C272.536 98.1844 272.019 98 271.356 98C270.692 98 270.185 98.1752 269.825 98.5348C269.475 98.8851 269.29 99.4107 269.29 100.093V119.806C269.29 120.488 269.465 121.013 269.825 121.382C270.175 121.751 270.692 121.926 271.356 121.926C272.019 121.926 272.499 121.742 272.849 121.382C273.2 121.013 273.384 120.488 273.384 119.806V119.114C273.762 119.852 274.315 120.469 275.062 120.967C276.095 121.65 277.293 122 278.667 122C280.041 122 281.332 121.659 282.401 120.967C283.471 120.285 284.31 119.299 284.909 118.026C285.508 116.754 285.804 115.251 285.804 113.527C285.804 111.803 285.508 110.281 284.909 109.027C284.31 107.773 283.48 106.805 282.42 106.123L282.401 106.132ZM281.092 116.468C280.751 117.252 280.271 117.842 279.644 118.247C279.018 118.653 278.308 118.847 277.487 118.847C276.251 118.847 275.256 118.395 274.5 117.501C273.744 116.606 273.375 115.279 273.375 113.536C273.375 112.365 273.55 111.388 273.891 110.595C274.232 109.811 274.712 109.221 275.339 108.834C275.956 108.446 276.676 108.253 277.496 108.253C278.732 108.253 279.727 108.686 280.484 109.562C281.24 110.438 281.608 111.756 281.608 113.527C281.608 114.698 281.433 115.675 281.092 116.468Z" fill="black"/>
    <path d="M296.812 118.515C296.656 118.533 296.499 118.552 296.351 118.561C296.195 118.57 296.029 118.579 295.854 118.579C295.061 118.579 294.443 118.34 294.01 117.851C293.576 117.362 293.364 116.615 293.364 115.592V100.093C293.364 99.4107 293.18 98.8851 292.82 98.5348C292.461 98.1844 291.944 98 291.28 98C290.617 98 290.109 98.1752 289.75 98.5348C289.399 98.8851 289.215 99.4107 289.215 100.093V115.795C289.215 117.832 289.676 119.372 290.607 120.423C291.539 121.474 292.922 122 294.756 122C294.996 122 295.245 121.991 295.485 121.963C295.725 121.945 295.964 121.917 296.186 121.899C296.693 121.834 297.061 121.64 297.283 121.336C297.504 121.023 297.615 120.599 297.615 120.045C297.615 119.4 297.559 118.976 297.449 118.764C297.338 118.552 297.126 118.469 296.822 118.515H296.812Z" fill="black"/>
    <path d="M312.911 117.537C312.56 117.501 312.146 117.62 311.685 117.888C311.039 118.238 310.366 118.487 309.647 118.635C308.928 118.782 308.282 118.847 307.701 118.847C306.042 118.847 304.788 118.395 303.93 117.501C303.257 116.791 302.861 115.786 302.723 114.495H312.745C313.252 114.495 313.648 114.393 313.925 114.181C314.202 113.969 314.34 113.665 314.34 113.268C314.34 112.005 314.165 110.871 313.824 109.866C313.482 108.861 312.985 108.004 312.33 107.294C311.675 106.584 310.892 106.04 309.97 105.671C309.048 105.293 308.015 105.109 306.862 105.109C305.295 105.109 303.894 105.468 302.667 106.187C301.441 106.907 300.473 107.893 299.781 109.156C299.081 110.419 298.74 111.885 298.74 113.573C298.74 115.26 299.099 116.791 299.818 118.054C300.537 119.317 301.561 120.285 302.889 120.976C304.216 121.659 305.802 122.009 307.637 122.009C308.504 122.009 309.435 121.889 310.44 121.659C311.445 121.428 312.339 121.069 313.114 120.58C313.51 120.34 313.796 120.045 313.962 119.713C314.128 119.381 314.192 119.059 314.146 118.736C314.1 118.413 313.971 118.146 313.768 117.925C313.556 117.703 313.28 117.574 312.92 117.547L312.911 117.537ZM304.659 108.575C305.313 108.142 306.106 107.93 307.028 107.93C307.867 107.93 308.568 108.114 309.14 108.474C309.702 108.843 310.136 109.368 310.431 110.051C310.68 110.622 310.818 111.314 310.864 112.107H302.723C302.806 111.48 302.944 110.899 303.165 110.401C303.506 109.617 304.004 109.009 304.659 108.575Z" fill="black"/>
  </g>
  <defs>
    <clipPath id="clip0">
      <rect width="70" height="70" fill="white" transform="translate(75 75)"/>
    </clipPath>
    <clipPath id="clip1">
      <rect width="156.106" height="24" fill="white" transform="translate(161 98)"/>
    </clipPath>
  </defs>
</svg>
