<svg width="100" height="40" viewBox="0 0 100 40" fill="none" xmlns="http://www.w3.org/2000/svg">
<g clip-path="url(#clip0_392_3943)">
<rect width="40" height="40" rx="20" fill="white"/>
<path d="M40 0.000976562H0V40.0001H40V0.000976562Z" fill="#444DF2"/>
<path d="M23.532 33.256C23.2544 35.484 22.988 37.7479 22.8992 39.9999H4.22961C4.47521 39.6231 4.76641 39.2247 5.09281 38.7903C6.69521 36.6616 7.99361 34.3048 8.94321 31.8153C9.41761 30.5713 9.80561 29.2929 10.0992 27.9938C10.304 27.0922 10.9872 25.1346 10.6808 24.2458C10.856 24.7546 11.1032 25.225 11.4064 25.6594C12.3656 27.033 13.8864 28.0338 15.4672 28.6657C17.548 29.4969 19.7928 29.8177 21.9464 30.4361C22.3968 30.5657 22.8656 30.7225 23.18 31.0705C23.6904 31.6369 23.6264 32.4993 23.532 33.256Z" fill="#444DF2"/>
<path d="M23.532 33.256C23.2544 35.484 22.988 37.7479 22.8992 39.9999H4.22961C4.47521 39.6231 4.76641 39.2247 5.09281 38.7903C6.69521 36.6616 7.99361 34.3048 8.94321 31.8153C9.41761 30.5713 9.80561 29.2929 10.0992 27.9938C10.304 27.0922 10.9872 25.1346 10.6808 24.2458C10.856 24.7546 11.1032 25.225 11.4064 25.6594C12.3656 27.033 13.8864 28.0338 15.4672 28.6657C17.548 29.4969 19.7928 29.8177 21.9464 30.4361C22.3968 30.5657 22.8656 30.7225 23.18 31.0705C23.6904 31.6369 23.6264 32.4993 23.532 33.256Z" fill="#EAAA7F"/>
<path d="M8.46959 14.563C8.44399 12.8127 8.62959 11.0399 9.43839 9.46796C10.8256 6.76962 13.8688 5.09686 16.9608 4.51127C20.0536 3.92569 23.2336 4.26808 26.348 4.63607C28.2192 4.85767 31.0096 5.19526 32.0136 6.90962C33.3408 9.17357 33.4696 12.4415 33.7336 14.975C33.9976 17.5086 34.32 20.0357 34.5728 22.5709C34.7944 24.794 34.7088 27.154 33.8096 29.2675C32.7352 31.7938 30.3832 33.8482 27.5944 34.5274C23.6272 35.493 18.2096 34.2362 15.6568 31.2259C13.7824 29.0155 11.6816 26.606 10.4408 24.0124C9.16479 21.3453 8.64559 18.3918 8.49999 15.4686C8.48479 15.1678 8.47359 14.8654 8.46959 14.563Z" fill="#F7C9A4"/>
<path d="M11.3208 25.3819C10.752 25.4459 10.1936 25.3915 9.68239 25.1259C9.05679 24.8012 8.62079 24.21 8.21999 23.6308C5.97439 20.3901 4.25839 16.4917 3.90479 12.5286C3.76959 11.0095 4.12399 9.37511 5.19119 8.28473C5.46319 8.00714 5.77839 7.76634 5.99439 7.44315C6.27919 7.01756 6.36399 6.49357 6.54639 6.01438C7.14719 4.43282 8.73919 3.31604 10.2736 2.60486C17.3336 -0.667064 26.0368 -1.15825 32.6912 2.87605C33.256 3.21845 33.8144 3.76163 34.2048 4.29362C35.8448 6.52957 34.2456 9.6487 32.2016 10.8775C29.2936 12.6262 26.2664 13.3494 22.872 12.9574C20.0224 12.6278 17.288 11.6759 14.58 10.7295C15.6384 13.3174 15.5984 16.2397 14.6208 18.8429C14.1672 20.0517 14.2792 20.7108 14.2672 21.9708C14.26 22.7044 14.2888 24.4316 13.4256 24.774C12.756 25.0395 12.0304 25.3027 11.3208 25.3819Z" fill="#1B1464"/>
<path d="M12.1104 17.6548C14.2544 19.142 14.9152 22.8523 14.9696 25.2827C14.972 25.3963 14.9736 25.5147 15.024 25.6171C15.1864 25.9523 12.8976 26.0691 12.712 26.0707C11.8088 26.0795 10.9048 25.9843 10.0232 25.7859C9.0664 25.5707 8.7752 25.3187 8.2064 24.4955C7.7288 23.8043 7.3552 23.0379 7.1536 22.2211C6.8264 20.8956 6.9808 19.4236 7.7272 18.2812C7.9744 17.9028 8.2872 17.5604 8.6728 17.3253C9.7128 16.6925 11.1096 16.9605 12.1104 17.6548Z" fill="#F7C9A4"/>
<path d="M13.7664 25.4436C11.9304 26.6923 9.64241 25.9547 8.99361 25.4052C8.04881 24.6044 7.44561 23.41 7.15281 22.222C6.82561 20.8965 6.98001 19.4245 7.72641 18.2821C7.97361 17.9037 8.28641 17.5613 8.67201 17.3261C9.71201 16.6926 11.1088 16.9613 12.1104 17.6549C13.204 18.4133 13.9528 19.6493 14.1192 20.9701" fill="#F7C9A4"/>
<path d="M25.3822 20.9528C25.9708 20.9142 26.3952 20.0801 26.3302 19.0898C26.2652 18.0996 25.7354 17.3282 25.1468 17.3668C24.5582 17.4054 24.1337 18.2395 24.1987 19.2298C24.2637 20.22 24.7936 20.9914 25.3822 20.9528Z" fill="#1B1464"/>
<path d="M31.6321 19.0343C32.2207 18.9957 32.6451 18.1616 32.5801 17.1714C32.5151 16.1812 31.9853 15.4097 31.3967 15.4484C30.8081 15.487 30.3836 16.3211 30.4486 17.3113C30.5136 18.3015 31.0435 19.073 31.6321 19.0343Z" fill="#1B1464"/>
<path d="M29.2176 26.0797C28.3232 26.0797 27.4288 25.8149 26.8392 25.5949C26.6304 25.5165 26.524 25.2845 26.6024 25.0749C26.6808 24.8661 26.9136 24.7597 27.1224 24.8381C27.8008 25.0917 29.4872 25.6101 30.4864 24.9493C30.5664 24.8965 30.5912 24.8677 30.5984 24.8573C30.6008 24.8189 30.5704 24.7173 30.5568 24.6725C30.3024 23.827 29.9808 22.9862 29.6704 22.1734C29.192 20.9214 28.6976 19.6263 28.4184 18.2551C28.3736 18.0367 28.5152 17.8231 28.7336 17.7783C28.952 17.7335 29.1656 17.8751 29.2104 18.0935C29.4768 19.3999 29.9592 20.663 30.4256 21.8854C30.7416 22.7118 31.068 23.567 31.3312 24.4397C31.3776 24.5925 31.4544 24.8477 31.3656 25.1133C31.28 25.3701 31.0776 25.5269 30.9328 25.6229C30.4232 25.9589 29.8208 26.0797 29.2176 26.0797Z" fill="#1B1464"/>
<path d="M21.1032 19.0157C20.908 19.0157 20.736 18.8733 20.7048 18.6742C20.4336 16.9438 21.5056 15.1054 23.1456 14.4903C23.3544 14.4119 23.5872 14.5175 23.6656 14.7262C23.744 14.935 23.6384 15.1678 23.4296 15.2462C22.1352 15.7318 21.2888 17.183 21.5032 18.5486C21.5376 18.7686 21.3872 18.9757 21.1664 19.0101C21.1448 19.0141 21.124 19.0157 21.1032 19.0157Z" fill="#1B1464"/>
<path d="M32.7704 14.2039C32.6072 14.2039 32.4536 14.1039 32.3928 13.9423C32.3024 13.7015 32.0928 13.5007 31.8192 13.3911C31.5456 13.2815 31.2552 13.2823 31.0232 13.3927C30.8224 13.4895 30.5808 13.4039 30.4848 13.2031C30.388 13.0023 30.4736 12.7607 30.6744 12.6639C31.1096 12.4551 31.6368 12.4471 32.12 12.6407C32.6032 12.8343 32.9784 13.2047 33.1488 13.6567C33.2272 13.8655 33.1224 14.0983 32.9136 14.1775C32.8664 14.1951 32.8176 14.2039 32.7704 14.2039Z" fill="#1B1464"/>
<path d="M27.5768 30.2547C26.5552 30.2547 25.5328 29.9659 24.692 29.3923C24.508 29.2667 24.46 29.0155 24.5864 28.8307C24.712 28.6467 24.9632 28.5987 25.148 28.7243C26.508 29.6523 28.436 29.6947 29.836 28.8259C30.0256 28.7083 30.2744 28.7667 30.392 28.9563C30.5096 29.1459 30.4512 29.3947 30.2616 29.5123C29.4632 30.0083 28.52 30.2547 27.5768 30.2547Z" fill="#1B1464"/>
<path d="M23.02 35.4361C22.9952 35.4361 22.9704 35.4337 22.9448 35.4289C19.8528 34.8473 16.7504 32.9585 14.2104 30.1106C14.0616 29.9442 14.0768 29.689 14.2432 29.5402C14.4096 29.3914 14.6648 29.4066 14.8136 29.573C17.236 32.2882 20.1768 34.0865 23.0944 34.6345C23.3136 34.6761 23.4576 34.8865 23.4168 35.1057C23.38 35.3009 23.2104 35.4361 23.02 35.4361Z" fill="#1B1464"/>
<path d="M9.9104 23.3141C9.7032 23.3141 9.5264 23.1557 9.5088 22.9453C9.4496 22.2605 9.7168 21.8493 9.952 21.6245C10.38 21.2157 11.0048 21.1085 11.4584 21.0917C11.3904 20.9373 11.2912 20.8085 11.1592 20.7037C10.5512 20.2182 9.4672 20.3702 9.4568 20.3718C9.2368 20.4038 9.0312 20.2518 8.9984 20.0318C8.9656 19.8118 9.1168 19.6062 9.3368 19.5726C9.3952 19.5638 10.7744 19.3646 11.6608 20.0694C12.0856 20.407 12.3248 20.8829 12.3704 21.4829C12.38 21.6045 12.3336 21.7237 12.2456 21.8077C12.1568 21.8917 12.0352 21.9301 11.9144 21.9149C11.6456 21.8805 10.868 21.8653 10.5096 22.2093C10.352 22.3605 10.288 22.5781 10.3144 22.8749C10.3336 23.0973 10.1696 23.2933 9.9472 23.3125C9.9344 23.3133 9.9224 23.3141 9.9104 23.3141Z" fill="#EAAA7F"/>
</g>
<rect x="1" y="1" width="38" height="38" rx="19" stroke="white" stroke-width="2"/>
<g clip-path="url(#clip1_392_3943)">
<rect x="30" width="40" height="40" rx="20" fill="white"/>
<path d="M70 0H30V40H70V0Z" fill="#797EF3"/>
<path d="M54.7928 40H40.1032C40.4592 38.6952 40.748 37.5392 40.8016 37.2968C41.2696 35.152 41.5656 32.976 41.684 30.7928C41.7456 29.6608 41.76 28.5264 41.7264 27.3936C41.7032 26.6088 41.3456 25.3544 41.7016 24.6064C42.3832 23.172 45.552 24.856 46.9592 25.0392C49.376 25.3544 51.8336 25.2064 54.2584 25.0592C53.8896 30.0392 54.0704 35.052 54.7928 40Z" fill="#797EF3"/>
<path d="M65.012 22.3913C65.2384 23.4161 65.6736 24.4097 65.6816 25.4601C65.464 25.5129 65.2616 25.3393 65.112 25.1729C63.5304 23.4105 63.028 20.9505 62.696 18.6057C62.4912 17.1577 61.9656 14.7529 62.652 13.3817C63.0016 12.6833 64.2672 11.8713 64.9904 12.5433C65.8456 13.3393 65.156 16.1457 65.0424 17.1673C64.8496 18.9001 64.6304 20.6665 65.012 22.3913Z" fill="#444DF2"/>
<path d="M52.5376 2.67524C51.8632 2.29204 51.1632 1.95364 50.4376 1.66884C47.3392 0.454439 43.7 0.331239 40.7656 1.90324C38.184 3.28644 36.376 5.84564 35.4024 8.60804C34.4288 11.3704 34.2144 14.3408 34.1992 17.2688C34.18 20.8288 34.4432 24.3864 34.8816 27.9184C35.1616 30.1776 35.8608 35.9856 38.884 36.1056C42.5952 36.252 46.32 36.068 49.9992 35.5592C53.1328 35.1264 58.296 37.512 60.8 35.36C62.2952 34.0744 61.7496 29.4544 62.3912 27.5896C63.1712 25.324 63.7528 22.968 63.8224 20.5728C63.9144 17.4152 63.0928 14.2352 61.4824 11.5176C60.6256 10.072 59.556 8.76164 58.4152 7.52804C56.6848 5.65764 54.7432 3.92804 52.5376 2.67524Z" fill="#444DF2"/>
<path d="M54.7928 40H40.1032C40.4592 38.6952 40.748 37.5392 40.8016 37.2968C41.2696 35.152 41.5656 32.976 41.684 30.7928C41.7456 29.6608 41.76 28.5264 41.7264 27.3936C41.7032 26.6088 41.3456 25.3544 41.7016 24.6064C42.3832 23.172 45.552 24.856 46.9592 25.0392C49.376 25.3544 51.8336 25.2064 54.2584 25.0592C53.8896 30.0392 54.0704 35.052 54.7928 40Z" fill="#E8AE8E"/>
<path d="M41.8984 29.9353C44.3432 32.5609 47.7096 34.2257 51.3232 35.1585C54.7632 36.0465 58.8136 36.1513 61.4472 33.7665C63.66 31.7633 64.2632 28.5569 64.4904 25.5801C64.7624 22.0137 64.676 18.4297 64.52 14.8569C64.452 13.3033 64.3696 11.7393 63.9968 10.2305C63.4328 7.94891 62.024 4.91691 59.7936 3.90411C57.0992 2.68091 53.8712 2.35851 50.956 2.68811C48.8464 2.92651 46.7 3.17931 44.7608 4.04091C43.0184 4.81531 40.76 5.80331 39.8296 7.53211C38.6496 9.72411 37.9784 12.2585 37.6928 14.7209C37.2592 18.4553 37.7656 22.3097 39.2176 25.7817C39.8824 27.3761 40.7968 28.7529 41.8984 29.9353Z" fill="#F4C19F"/>
<path d="M39.8464 15.356C39.3352 14.752 38.6208 14.3496 37.6456 14.3272C36.2128 14.2944 34.8408 15.2816 34.3224 16.6184C33.488 18.7712 34.8832 21.3984 36.764 22.5088C38.4344 23.4944 40.3952 22.92 40.8824 20.9704C41.0984 20.1056 41.0136 19.1984 40.9264 18.3112C40.8224 17.2424 40.5024 16.132 39.8464 15.356Z" fill="#F4C19F"/>
<path d="M36.7064 20.7097C36.4808 20.7097 36.2888 20.5369 36.2688 20.3081C36.204 19.5625 36.496 19.1145 36.752 18.8697C37.2184 18.4241 37.8992 18.3081 38.3928 18.2897C38.3184 18.1209 38.2096 17.9801 38.0648 17.8649C37.4072 17.3417 36.2248 17.5033 36.2128 17.5049C35.9728 17.5417 35.748 17.3761 35.712 17.1361C35.6752 16.8961 35.8408 16.6713 36.0808 16.6353C36.144 16.6257 37.6464 16.4089 38.612 17.1761C39.0744 17.5441 39.3352 18.0625 39.3856 18.7161C39.396 18.8481 39.3456 18.9785 39.2496 19.0697C39.1528 19.1609 39.0208 19.2033 38.8888 19.1865C38.596 19.1489 37.7488 19.1329 37.3584 19.5073C37.1872 19.6721 37.1176 19.9089 37.1456 20.2321C37.1664 20.4745 36.9872 20.6873 36.7456 20.7089C36.732 20.7089 36.7192 20.7097 36.7064 20.7097Z" fill="#EAAA7F"/>
<path d="M47.0752 13.3327C47.0728 13.3359 47.0712 13.3391 47.0688 13.3423C46.8048 13.7287 45.8712 13.6903 45.468 13.7415C45.1328 13.7839 40.3792 14.2047 40.3568 13.9815C40.5384 15.8335 40.72 17.6863 40.9016 19.5383C41.132 21.8919 41.328 24.4199 40.1536 26.4727C40.5832 23.3423 40.02 20.0831 38.5648 17.2783C38.1016 16.3847 37.5424 15.5159 37.3456 14.5287C37.1768 13.6791 37.2896 12.7991 37.4688 11.9519C37.9168 9.84149 38.7816 7.82069 39.9992 6.03989C42.2352 2.77109 46.2928 1.10229 50.1448 0.828692C51.8568 0.707092 53.5784 0.724692 55.2872 0.881492C57.7352 1.10629 60.5232 1.90309 62.1392 3.87829C63.0904 5.04149 63.6992 6.43989 64.296 7.81909C64.432 8.13349 66.3248 13.9247 65.8456 13.8199C64.8712 13.6079 63.8976 13.3959 62.9232 13.1839C61.8776 12.9567 60.8312 12.7287 59.7704 12.5887C57.6032 12.3031 55.412 12.3911 53.2408 12.5815C52.672 12.6311 49.1256 13.4415 48.8424 12.6247C48.3736 11.2727 47.904 9.92069 47.4352 8.56869C47.3584 8.34789 47.036 8.11269 46.9616 8.33429C46.9632 9.26309 47.528 12.6327 47.0752 13.3327Z" fill="#444DF2"/>
<path d="M55.3064 25.0839C55.064 25.0839 54.8672 24.8879 54.8664 24.6455C54.8656 24.4023 55.0616 24.2047 55.304 24.2039C55.3328 24.2039 58.144 24.1687 58.304 22.6103C58.3672 21.9911 58.1816 21.7759 57.8448 21.3863C57.2912 20.7463 56.5336 19.8695 56.584 17.0311C56.588 16.7911 56.784 16.5991 57.024 16.5991C57.0264 16.5991 57.0296 16.5991 57.032 16.5991C57.2752 16.6031 57.4688 16.8039 57.464 17.0471C57.4192 19.5495 58.024 20.2487 58.5104 20.8111C58.8896 21.2495 59.2816 21.7039 59.1792 22.7007C58.9384 25.0431 55.456 25.0839 55.308 25.0847C55.308 25.0839 55.3072 25.0839 55.3064 25.0839Z" fill="#1B1464"/>
<path d="M51.7728 20.8342C52.4143 20.792 52.877 19.8833 52.8062 18.8044C52.7354 17.7255 52.1579 16.8851 51.5164 16.9272C50.8749 16.9693 50.4122 17.878 50.4831 18.9569C50.5539 20.0358 51.1313 20.8763 51.7728 20.8342Z" fill="#1B1464"/>
<path d="M60.6613 20.5844C61.3028 20.5423 61.7654 19.6335 61.6946 18.5547C61.6238 17.4758 61.0464 16.6353 60.4048 16.6774C59.7633 16.7195 59.3007 17.6283 59.3715 18.7072C59.4423 19.786 60.0198 20.6265 60.6613 20.5844Z" fill="#1B1464"/>
<path d="M62.8512 16.4809C62.7608 16.4809 62.6704 16.4537 62.592 16.3961C60.6712 14.9921 58.944 15.4289 58.8712 15.4481C58.6368 15.5105 58.396 15.3721 58.3328 15.1377C58.2696 14.9041 58.4064 14.6633 58.6392 14.5985C58.728 14.5745 60.8328 14.0201 63.1112 15.6849C63.3072 15.8281 63.3504 16.1033 63.2072 16.3001C63.1208 16.4185 62.9872 16.4809 62.8512 16.4809Z" fill="#1B1464"/>
<path d="M47.2336 16.9584C47.1648 16.9584 47.0944 16.9424 47.0288 16.9072C46.8136 16.7936 46.7312 16.528 46.8448 16.3128C46.8888 16.2296 47.9664 14.2864 52.532 14.2864C52.572 14.2864 52.612 14.2864 52.6528 14.2872C52.896 14.2888 53.0912 14.4872 53.0896 14.7304C53.088 14.972 52.8912 15.1672 52.6496 15.1672C52.6488 15.1672 52.6472 15.1672 52.6464 15.1672C48.576 15.1376 47.6312 16.7072 47.6232 16.7232C47.5448 16.8728 47.392 16.9584 47.2336 16.9584Z" fill="#1B1464"/>
<path d="M54.5744 28.8167C51.092 28.8167 48.7752 25.9967 48.6712 25.8687C48.5184 25.6799 48.548 25.4023 48.7376 25.2503C48.9264 25.0975 49.2032 25.1271 49.356 25.3167C49.392 25.3607 51.836 28.3119 55.2536 27.8959C55.4952 27.8671 55.7144 28.0383 55.7432 28.2799C55.7728 28.5207 55.6008 28.7407 55.3592 28.7695C55.092 28.8015 54.8296 28.8167 54.5744 28.8167Z" fill="#1B1464"/>
<path d="M54.0648 36.0801C48.936 36.0801 43.6992 32.1577 43.4792 31.9905C43.2856 31.8441 43.2472 31.5681 43.3944 31.3745C43.5408 31.1809 43.8168 31.1425 44.0112 31.2889C44.0632 31.3281 49.2352 35.1993 54.0656 35.1993C54.3088 35.1993 54.5056 35.3961 54.5056 35.6393C54.5056 35.8825 54.308 36.0801 54.0648 36.0801Z" fill="#1B1464"/>
</g>
<rect x="31" y="1" width="38" height="38" rx="19" stroke="white" stroke-width="2"/>
<g clip-path="url(#clip2_392_3943)">
<rect x="60" width="40" height="40" rx="20" fill="white"/>
<path d="M100 0H60V40H100V0Z" fill="#ADB0D9"/>
<path d="M84.5528 40H66.7512C66.8144 39.812 66.8792 39.6248 66.9424 39.4376C68.2128 35.6736 68.708 32.0296 68.7808 28.084C73.288 29.2312 78.0216 28.7392 82.672 28.6912C84.4024 28.6736 83.8208 30.028 83.8432 31.288C83.8704 32.8632 83.952 34.4376 84.088 36.0072C84.2032 37.3424 84.3584 38.6744 84.5528 40Z" fill="#ADB0D9"/>
<path d="M84.5528 40H66.7512C66.8144 39.812 66.8792 39.6248 66.9424 39.4376C68.2128 35.6736 68.708 32.0296 68.7808 28.084C73.288 29.2312 78.0216 28.7392 82.672 28.6912C84.4024 28.6736 83.8208 30.028 83.8432 31.288C83.8704 32.8632 83.952 34.4376 84.088 36.0072C84.2032 37.3424 84.3584 38.6744 84.5528 40Z" fill="#E8AE8E"/>
<path d="M71.928 31.3057C71.9568 31.3401 71.9864 31.3745 72.0152 31.4081C72.3864 31.8449 72.76 32.2841 73.1968 32.6561C75.4744 34.5937 79.0192 34.8161 81.8248 35.3633C83.5288 35.6953 85.2344 35.7521 86.9136 35.2377C88.8496 34.6441 90.5864 33.3353 91.5592 31.5593C92.7704 29.3465 92.7216 26.6857 92.6416 24.1641C92.596 22.7329 92.5504 21.3025 92.5048 19.8713C92.476 18.9737 92.448 18.0753 92.4936 17.1785C92.6056 14.9681 93.1832 12.7009 92.7064 10.4977C92.3104 8.66892 90.7808 6.76012 89.0736 5.98492C86.3792 4.76172 83.1512 4.43932 80.236 4.76892C78.1264 5.00732 75.98 5.26012 74.0408 6.12172C72.2984 6.89612 70.04 7.88412 69.1096 9.61292C67.9296 11.8049 67.2584 14.3393 66.9728 16.8017C66.7368 18.8369 66.7792 20.9049 67.1016 22.9289C67.4064 24.8433 67.916 26.5849 69.1816 28.0737C70.096 29.1513 71.012 30.2281 71.928 31.3057Z" fill="#F4C19F"/>
<path d="M84.5864 25.0841C84.348 25.0841 84.152 24.8937 84.1464 24.6545C84.1408 24.4113 84.3328 24.2097 84.576 24.2041C85.6728 24.1785 86.1104 23.8609 86.8552 23.1761C86.004 21.2745 85.5032 19.2569 85.3648 17.1737C85.3488 16.9313 85.532 16.7217 85.7744 16.7057C86.0152 16.6905 86.2264 16.8729 86.2424 17.1153C86.3784 19.1665 86.912 21.2345 87.7856 23.0953C87.8672 23.2681 87.8272 23.4737 87.6872 23.6041C86.668 24.5529 86.068 25.0497 84.596 25.0833C84.5936 25.0841 84.5904 25.0841 84.5864 25.0841Z" fill="#1B1464"/>
<path d="M81.0548 20.8339C81.6963 20.7918 82.1589 19.8831 82.0881 18.8042C82.0173 17.7253 81.4399 16.8848 80.7984 16.9269C80.1568 16.969 79.6942 17.8778 79.765 18.9567C79.8358 20.0355 80.4133 20.876 81.0548 20.8339Z" fill="#1B1464"/>
<path d="M89.9433 20.5842C90.5848 20.542 91.0474 19.6333 90.9766 18.5544C90.9058 17.4755 90.3283 16.6351 89.6868 16.6772C89.0453 16.7193 88.5827 17.628 88.6535 18.7069C88.7243 19.7858 89.3017 20.6263 89.9433 20.5842Z" fill="#1B1464"/>
<path d="M91.944 16.9481C91.8192 16.9481 91.6944 16.8953 91.608 16.7921C90.0576 14.9585 88.2352 14.9945 88.2176 14.9937C87.972 15.0025 87.772 14.8105 87.764 14.5673C87.756 14.3241 87.9472 14.1217 88.1904 14.1137C88.2816 14.1113 90.4584 14.0681 92.2808 16.2233C92.4376 16.4089 92.4144 16.6865 92.2288 16.8433C92.1448 16.9137 92.044 16.9481 91.944 16.9481Z" fill="#1B1464"/>
<path d="M76.8672 17.6728C76.8368 17.6728 76.8064 17.6696 76.7752 17.6632C76.5376 17.6136 76.3856 17.3768 76.4352 17.1392C76.4544 17.0464 76.964 14.844 81.4616 13.592C81.696 13.5272 81.9384 13.664 82.0032 13.8976C82.068 14.132 81.9312 14.3744 81.6976 14.4392C77.7792 15.5304 77.3 17.308 77.2952 17.3256C77.2512 17.5336 77.0704 17.6728 76.8672 17.6728Z" fill="#1B1464"/>
<path d="M84.6776 29.6105C84.3296 29.6105 83.968 29.5593 83.6048 29.4553C82.7592 29.2129 82.0024 28.7305 81.3352 28.3049C81.1304 28.1745 81.0704 27.9017 81.2008 27.6977C81.3312 27.4929 81.6032 27.4329 81.808 27.5633C82.4544 27.9761 83.1232 28.4033 83.8456 28.6097C84.5952 28.8241 85.3136 28.7537 85.8168 28.4169C86.0184 28.2817 86.292 28.3361 86.4272 28.5377C86.5624 28.7393 86.508 29.0129 86.3064 29.1481C85.8504 29.4537 85.2856 29.6105 84.6776 29.6105Z" fill="#1B1464"/>
<path d="M68.7088 24.1711C68.404 22.8255 68.7408 21.3039 68.8072 19.9327C68.816 19.7591 68.8312 19.5679 68.9464 19.4455C69.18 19.1967 69.5616 19.4191 69.8768 19.5231C70.4608 19.7151 71.116 19.4063 71.5024 18.9015C71.9584 18.3063 72.0904 17.5015 72.1104 16.7327C72.1216 16.2975 72.0864 15.9263 71.916 15.5367C71.8128 15.3023 71.5864 14.6351 71.3352 14.5479C72.3648 14.9031 73.6144 14.8439 74.38 14.0295C74.6088 13.7863 74.7816 13.4895 74.9288 13.1831C75.32 12.3671 75.7048 10.9183 74.9664 10.2031C75.6792 10.9207 76.6976 11.4391 77.6944 11.1927C78.7112 10.9407 79.4832 9.6391 78.9936 8.6567C79.5016 9.7295 80.1368 10.9151 81.2312 11.2023C82.4488 11.5223 83.784 10.2839 83.6544 8.9543C84.1904 10.3015 85.012 11.6471 86.2984 12.1591C87.584 12.6711 89.3464 11.9015 89.4784 10.4447C89.4432 10.8271 89.2928 11.2359 89.312 11.6159C89.384 13.0319 90.66 14.1215 91.7296 14.7503C92.7536 15.3519 93.956 16.0183 95.1848 15.8127C96.3472 15.6191 96.9232 14.6399 97.0944 13.4663C97.2064 12.6975 97.1568 11.8279 96.6528 11.2647C96.0864 12.1559 95.0336 12.6655 94.0312 12.5351C94.608 12.1951 95.0376 11.5031 94.9408 10.8087C94.8256 9.9743 94.0184 9.6471 93.3496 9.8071C94.0152 8.9543 94.8904 8.3199 94.8408 7.0543C94.7856 5.6503 93.6544 4.2191 92.5448 3.5887C91.9664 3.2599 91.2888 3.0695 90.6504 3.2271C90.012 3.3847 89.4384 3.9543 89.388 4.6511C89.2208 3.2831 88.348 2.0919 87.2584 1.3487C86.1688 0.605498 84.8792 0.261498 83.596 0.082298C82.7752 -0.032902 81.9024 -0.0769021 81.1584 0.309498C80.4144 0.695898 79.868 1.6439 80.1512 2.4727C79.1936 0.974298 77.4712 0.175098 75.7736 0.062298C74.076 -0.050502 72.3928 0.445498 70.8056 1.0983C70.2016 1.3471 69.5728 1.6471 69.2096 2.2183C68.4248 3.4535 69.2848 5.0975 70.1816 6.2415C69.6472 5.0671 68.208 4.7967 66.984 4.7703C65.708 4.7431 64.1784 4.9887 63.644 6.2239C63.064 7.5631 64.0656 9.0367 64.9992 10.1239C63.6192 9.5071 61.8304 10.7007 61.748 12.2935C61.6656 13.8863 63.32 15.2831 64.756 14.8311C64.408 14.3599 63.6328 14.5439 63.3248 15.0463C63.0168 15.5479 63.06 16.2055 63.188 16.7895C63.3952 17.7391 63.7976 18.6399 64.3576 19.4111C64.7888 20.0047 65.7408 20.4807 66.0928 19.8303C65.0752 19.9295 64.1528 20.7447 63.8728 21.7927C63.5928 22.8399 63.9744 24.0519 64.7904 24.7071C65.1528 24.9983 65.6208 25.1863 66.0616 25.0727C66.5024 24.9591 66.8672 24.4679 66.756 23.9991C66.3136 23.8015 65.7864 24.1775 65.6392 24.6639C65.492 25.1503 65.632 25.6839 65.8376 26.1455C66.208 26.9783 66.7968 27.6983 67.5192 28.2039C67.6832 28.3183 67.8704 28.4263 68.064 28.3967C68.3592 28.3519 68.5288 28.0199 68.628 27.7207C69.0232 26.5319 68.9784 25.3727 68.7088 24.1711Z" fill="#444DF2"/>
<path d="M69.2864 16.1561C68.7752 15.5521 68.0608 15.1497 67.0856 15.1273C65.6528 15.0945 64.2808 16.0817 63.7624 17.4185C62.928 19.5713 64.3232 22.1985 66.204 23.3089C67.8744 24.2945 69.8352 23.7201 70.3224 21.7705C70.5384 20.9057 70.4536 19.9985 70.3664 19.1113C70.2624 18.0425 69.9424 16.9321 69.2864 16.1561Z" fill="#F4C19F"/>
<path d="M66.1464 21.5097C65.9208 21.5097 65.7288 21.3369 65.7088 21.1081C65.644 20.3625 65.936 19.9145 66.192 19.6697C66.6584 19.2241 67.3392 19.1081 67.8328 19.0897C67.7584 18.9209 67.6496 18.7801 67.5048 18.6649C66.8472 18.1417 65.6648 18.3033 65.6528 18.3049C65.4128 18.3425 65.188 18.1761 65.152 17.9361C65.1152 17.6961 65.2808 17.4713 65.5208 17.4353C65.584 17.4257 67.0864 17.2089 68.052 17.9761C68.5144 18.3441 68.7752 18.8625 68.8256 19.5161C68.836 19.6481 68.7856 19.7785 68.6896 19.8697C68.5928 19.9609 68.4608 20.0033 68.3288 19.9865C68.036 19.9489 67.1888 19.9329 66.7984 20.3073C66.6272 20.4721 66.5576 20.7089 66.5856 21.0321C66.6064 21.2745 66.4272 21.4873 66.1856 21.5089C66.172 21.5089 66.1592 21.5097 66.1464 21.5097Z" fill="#EAAA7F"/>
<path d="M83.5552 35.8255C83.4312 35.8255 81.3656 35.8143 78.7184 35.1287C76.2384 34.4863 72.7712 33.1023 70.3408 30.1599C70.1864 29.9727 70.2128 29.6951 70.4 29.5407C70.5872 29.3863 70.8648 29.4127 71.0192 29.5999C73.2944 32.3543 76.5696 33.6599 78.916 34.2711C81.4816 34.9391 83.5312 34.9455 83.5568 34.9455C83.8 34.9455 83.9968 35.1423 83.9968 35.3847C83.9968 35.6279 83.8008 35.8247 83.5576 35.8255C83.5576 35.8255 83.5568 35.8255 83.5552 35.8255Z" fill="#1B1464"/>
</g>
<rect x="61" y="1" width="38" height="38" rx="19" stroke="white" stroke-width="2"/>
<defs>
<clipPath id="clip0_392_3943">
<rect width="40" height="40" rx="20" fill="white"/>
</clipPath>
<clipPath id="clip1_392_3943">
<rect x="30" width="40" height="40" rx="20" fill="white"/>
</clipPath>
<clipPath id="clip2_392_3943">
<rect x="60" width="40" height="40" rx="20" fill="white"/>
</clipPath>
</defs>
</svg>
