<svg width="142" height="46" viewBox="0 0 142 46" fill="none" xmlns="http://www.w3.org/2000/svg">
<rect width="142" height="46" rx="23" fill="#ECEEFE"/>
<g clip-path="url(#clip0_392_4022)">
<rect x="10" y="3" width="40" height="40" rx="20" fill="white"/>
<path d="M50 3.00098H10V43.0001H50V3.00098Z" fill="#444DF2"/>
<path d="M33.532 36.256C33.2544 38.484 32.988 40.7479 32.8992 42.9999H14.2296C14.4752 42.6231 14.7664 42.2247 15.0928 41.7903C16.6952 39.6616 17.9936 37.3048 18.9432 34.8153C19.4176 33.5713 19.8056 32.2929 20.0992 30.9938C20.304 30.0922 20.9872 28.1346 20.6808 27.2458C20.856 27.7546 21.1032 28.225 21.4064 28.6594C22.3656 30.033 23.8864 31.0338 25.4672 31.6657C27.548 32.4969 29.7928 32.8177 31.9464 33.4361C32.3968 33.5657 32.8656 33.7225 33.18 34.0705C33.6904 34.6369 33.6264 35.4993 33.532 36.256Z" fill="#444DF2"/>
<path d="M33.532 36.256C33.2544 38.484 32.988 40.7479 32.8992 42.9999H14.2296C14.4752 42.6231 14.7664 42.2247 15.0928 41.7903C16.6952 39.6616 17.9936 37.3048 18.9432 34.8153C19.4176 33.5713 19.8056 32.2929 20.0992 30.9938C20.304 30.0922 20.9872 28.1346 20.6808 27.2458C20.856 27.7546 21.1032 28.225 21.4064 28.6594C22.3656 30.033 23.8864 31.0338 25.4672 31.6657C27.548 32.4969 29.7928 32.8177 31.9464 33.4361C32.3968 33.5657 32.8656 33.7225 33.18 34.0705C33.6904 34.6369 33.6264 35.4993 33.532 36.256Z" fill="#EAAA7F"/>
<path d="M18.4696 17.563C18.444 15.8127 18.6296 14.0399 19.4384 12.468C20.8256 9.76962 23.8688 8.09686 26.9608 7.51127C30.0536 6.92569 33.2336 7.26808 36.348 7.63607C38.2192 7.85767 41.0096 8.19526 42.0136 9.90962C43.3408 12.1736 43.4696 15.4415 43.7336 17.975C43.9976 20.5086 44.32 23.0357 44.5728 25.5709C44.7944 27.794 44.7088 30.154 43.8096 32.2675C42.7352 34.7938 40.3832 36.8482 37.5944 37.5274C33.6272 38.493 28.2096 37.2362 25.6568 34.2259C23.7824 32.0155 21.6816 29.606 20.4408 27.0124C19.1648 24.3453 18.6456 21.3918 18.5 18.4686C18.4848 18.1678 18.4736 17.8654 18.4696 17.563Z" fill="#F7C9A4"/>
<path d="M21.3208 28.3819C20.752 28.4459 20.1936 28.3915 19.6824 28.1259C19.0568 27.8012 18.6208 27.21 18.22 26.6308C15.9744 23.3901 14.2584 19.4917 13.9048 15.5286C13.7696 14.0095 14.124 12.3751 15.1912 11.2847C15.4632 11.0071 15.7784 10.7663 15.9944 10.4431C16.2792 10.0176 16.364 9.49357 16.5464 9.01438C17.1472 7.43282 18.7392 6.31604 20.2736 5.60486C27.3336 2.33294 36.0368 1.84175 42.6912 5.87605C43.256 6.21845 43.8144 6.76163 44.2048 7.29362C45.8448 9.52957 44.2456 12.6487 42.2016 13.8775C39.2936 15.6262 36.2664 16.3494 32.872 15.9574C30.0224 15.6278 27.288 14.6759 24.58 13.7295C25.6384 16.3174 25.5984 19.2397 24.6208 21.8429C24.1672 23.0517 24.2792 23.7108 24.2672 24.9708C24.26 25.7044 24.2888 27.4316 23.4256 27.774C22.756 28.0395 22.0304 28.3027 21.3208 28.3819Z" fill="#1B1464"/>
<path d="M22.1104 20.6548C24.2544 22.142 24.9152 25.8523 24.9696 28.2827C24.972 28.3963 24.9736 28.5147 25.024 28.6171C25.1864 28.9523 22.8976 29.0691 22.712 29.0707C21.8088 29.0795 20.9048 28.9843 20.0232 28.7859C19.0664 28.5707 18.7752 28.3187 18.2064 27.4955C17.7288 26.8043 17.3552 26.0379 17.1536 25.2211C16.8264 23.8956 16.9808 22.4236 17.7272 21.2812C17.9744 20.9028 18.2872 20.5604 18.6728 20.3253C19.7128 19.6925 21.1096 19.9605 22.1104 20.6548Z" fill="#F7C9A4"/>
<path d="M23.7664 28.4436C21.9304 29.6923 19.6424 28.9547 18.9936 28.4052C18.0488 27.6044 17.4456 26.41 17.1528 25.222C16.8256 23.8965 16.98 22.4245 17.7264 21.2821C17.9736 20.9037 18.2864 20.5613 18.672 20.3261C19.712 19.6926 21.1088 19.9613 22.1104 20.6549C23.204 21.4133 23.9528 22.6493 24.1192 23.9701" fill="#F7C9A4"/>
<path d="M35.3822 23.9528C35.9708 23.9142 36.3952 23.0801 36.3302 22.0898C36.2652 21.0996 35.7354 20.3282 35.1468 20.3668C34.5582 20.4054 34.1337 21.2395 34.1987 22.2298C34.2637 23.22 34.7936 23.9914 35.3822 23.9528Z" fill="#1B1464"/>
<path d="M41.6321 22.0343C42.2207 21.9957 42.6451 21.1616 42.5801 20.1714C42.5151 19.1812 41.9853 18.4097 41.3967 18.4484C40.8081 18.487 40.3836 19.3211 40.4486 20.3113C40.5136 21.3015 41.0435 22.073 41.6321 22.0343Z" fill="#1B1464"/>
<path d="M39.2176 29.0797C38.3232 29.0797 37.4288 28.8149 36.8392 28.5949C36.6304 28.5165 36.524 28.2845 36.6024 28.0749C36.6808 27.8661 36.9136 27.7597 37.1224 27.8381C37.8008 28.0917 39.4872 28.6101 40.4864 27.9493C40.5664 27.8965 40.5912 27.8677 40.5984 27.8573C40.6008 27.8189 40.5704 27.7173 40.5568 27.6725C40.3024 26.827 39.9808 25.9862 39.6704 25.1734C39.192 23.9214 38.6976 22.6263 38.4184 21.2551C38.3736 21.0367 38.5152 20.8231 38.7336 20.7783C38.952 20.7335 39.1656 20.8751 39.2104 21.0935C39.4768 22.3999 39.9592 23.663 40.4256 24.8854C40.7416 25.7118 41.068 26.567 41.3312 27.4397C41.3776 27.5925 41.4544 27.8477 41.3656 28.1133C41.28 28.3701 41.0776 28.5269 40.9328 28.6229C40.4232 28.9589 39.8208 29.0797 39.2176 29.0797Z" fill="#1B1464"/>
<path d="M31.1032 22.0157C30.908 22.0157 30.736 21.8733 30.7048 21.6742C30.4336 19.9438 31.5056 18.1054 33.1456 17.4903C33.3544 17.4119 33.5872 17.5175 33.6656 17.7262C33.744 17.935 33.6384 18.1678 33.4296 18.2462C32.1352 18.7318 31.2888 20.183 31.5032 21.5486C31.5376 21.7686 31.3872 21.9757 31.1664 22.0101C31.1448 22.0141 31.124 22.0157 31.1032 22.0157Z" fill="#1B1464"/>
<path d="M42.7704 17.2039C42.6072 17.2039 42.4536 17.1039 42.3928 16.9423C42.3024 16.7015 42.0928 16.5007 41.8192 16.3911C41.5456 16.2815 41.2552 16.2823 41.0232 16.3927C40.8224 16.4895 40.5808 16.4039 40.4848 16.2031C40.388 16.0023 40.4736 15.7607 40.6744 15.6639C41.1096 15.4551 41.6368 15.4471 42.12 15.6407C42.6032 15.8343 42.9784 16.2047 43.1488 16.6567C43.2272 16.8655 43.1224 17.0983 42.9136 17.1775C42.8664 17.1951 42.8176 17.2039 42.7704 17.2039Z" fill="#1B1464"/>
<path d="M37.5768 33.2547C36.5552 33.2547 35.5328 32.9659 34.692 32.3923C34.508 32.2667 34.46 32.0155 34.5864 31.8307C34.712 31.6467 34.9632 31.5987 35.148 31.7243C36.508 32.6523 38.436 32.6947 39.836 31.8259C40.0256 31.7083 40.2744 31.7667 40.392 31.9563C40.5096 32.1459 40.4512 32.3947 40.2616 32.5123C39.4632 33.0083 38.52 33.2547 37.5768 33.2547Z" fill="#1B1464"/>
<path d="M33.02 38.4361C32.9952 38.4361 32.9704 38.4337 32.9448 38.4289C29.8528 37.8473 26.7504 35.9585 24.2104 33.1106C24.0616 32.9442 24.0768 32.689 24.2432 32.5402C24.4096 32.3914 24.6648 32.4066 24.8136 32.573C27.236 35.2882 30.1768 37.0865 33.0944 37.6345C33.3136 37.6761 33.4576 37.8865 33.4168 38.1057C33.38 38.3009 33.2104 38.4361 33.02 38.4361Z" fill="#1B1464"/>
<path d="M19.9104 26.3141C19.7032 26.3141 19.5264 26.1557 19.5088 25.9453C19.4496 25.2605 19.7168 24.8493 19.952 24.6245C20.38 24.2157 21.0048 24.1085 21.4584 24.0917C21.3904 23.9373 21.2912 23.8085 21.1592 23.7037C20.5512 23.2182 19.4672 23.3702 19.4568 23.3718C19.2368 23.4038 19.0312 23.2518 18.9984 23.0318C18.9656 22.8118 19.1168 22.6062 19.3368 22.5726C19.3952 22.5638 20.7744 22.3646 21.6608 23.0694C22.0856 23.407 22.3248 23.8829 22.3704 24.4829C22.38 24.6045 22.3336 24.7237 22.2456 24.8077C22.1568 24.8917 22.0352 24.9301 21.9144 24.9149C21.6456 24.8805 20.868 24.8653 20.5096 25.2093C20.352 25.3605 20.288 25.5781 20.3144 25.8749C20.3336 26.0973 20.1696 26.2933 19.9472 26.3125C19.9344 26.3133 19.9224 26.3141 19.9104 26.3141Z" fill="#EAAA7F"/>
</g>
<rect x="11" y="4" width="38" height="38" rx="19" stroke="white" stroke-width="2"/>
<g clip-path="url(#clip1_392_4022)">
<rect x="40" y="3" width="40" height="40" rx="20" fill="white"/>
<path d="M80 3H40V43H80V3Z" fill="#797EF3"/>
<path d="M64.7928 43H50.1032C50.4592 41.6952 50.748 40.5392 50.8016 40.2968C51.2696 38.152 51.5656 35.976 51.684 33.7928C51.7456 32.6608 51.76 31.5264 51.7264 30.3936C51.7032 29.6088 51.3456 28.3544 51.7016 27.6064C52.3832 26.172 55.552 27.856 56.9592 28.0392C59.376 28.3544 61.8336 28.2064 64.2584 28.0592C63.8896 33.0392 64.0704 38.052 64.7928 43Z" fill="#797EF3"/>
<path d="M75.012 25.3913C75.2384 26.4161 75.6736 27.4097 75.6816 28.4601C75.464 28.5129 75.2616 28.3393 75.112 28.1729C73.5304 26.4105 73.028 23.9505 72.696 21.6057C72.4912 20.1577 71.9656 17.7529 72.652 16.3817C73.0016 15.6833 74.2672 14.8713 74.9904 15.5433C75.8456 16.3393 75.156 19.1457 75.0424 20.1673C74.8496 21.9001 74.6304 23.6665 75.012 25.3913Z" fill="#444DF2"/>
<path d="M62.5376 5.67524C61.8632 5.29204 61.1632 4.95364 60.4376 4.66884C57.3392 3.45444 53.7 3.33124 50.7656 4.90324C48.184 6.28644 46.376 8.84564 45.4024 11.608C44.4288 14.3704 44.2144 17.3408 44.1992 20.2688C44.18 23.8288 44.4432 27.3864 44.8816 30.9184C45.1616 33.1776 45.8608 38.9856 48.884 39.1056C52.5952 39.252 56.32 39.068 59.9992 38.5592C63.1328 38.1264 68.296 40.512 70.8 38.36C72.2952 37.0744 71.7496 32.4544 72.3912 30.5896C73.1712 28.324 73.7528 25.968 73.8224 23.5728C73.9144 20.4152 73.0928 17.2352 71.4824 14.5176C70.6256 13.072 69.556 11.7616 68.4152 10.528C66.6848 8.65764 64.7432 6.92804 62.5376 5.67524Z" fill="#444DF2"/>
<path d="M64.7928 43H50.1032C50.4592 41.6952 50.748 40.5392 50.8016 40.2968C51.2696 38.152 51.5656 35.976 51.684 33.7928C51.7456 32.6608 51.76 31.5264 51.7264 30.3936C51.7032 29.6088 51.3456 28.3544 51.7016 27.6064C52.3832 26.172 55.552 27.856 56.9592 28.0392C59.376 28.3544 61.8336 28.2064 64.2584 28.0592C63.8896 33.0392 64.0704 38.052 64.7928 43Z" fill="#E8AE8E"/>
<path d="M51.8984 32.9353C54.3432 35.5609 57.7096 37.2257 61.3232 38.1585C64.7632 39.0465 68.8136 39.1513 71.4472 36.7665C73.66 34.7633 74.2632 31.5569 74.4904 28.5801C74.7624 25.0137 74.676 21.4297 74.52 17.8569C74.452 16.3033 74.3696 14.7393 73.9968 13.2305C73.4328 10.9489 72.024 7.91691 69.7936 6.90411C67.0992 5.68091 63.8712 5.35851 60.956 5.68811C58.8464 5.92651 56.7 6.17931 54.7608 7.04091C53.0184 7.81531 50.76 8.80331 49.8296 10.5321C48.6496 12.7241 47.9784 15.2585 47.6928 17.7209C47.2592 21.4553 47.7656 25.3097 49.2176 28.7817C49.8824 30.3761 50.7968 31.7529 51.8984 32.9353Z" fill="#F4C19F"/>
<path d="M49.8464 18.356C49.3352 17.752 48.6208 17.3496 47.6456 17.3272C46.2128 17.2944 44.8408 18.2816 44.3224 19.6184C43.488 21.7712 44.8832 24.3984 46.764 25.5088C48.4344 26.4944 50.3952 25.92 50.8824 23.9704C51.0984 23.1056 51.0136 22.1984 50.9264 21.3112C50.8224 20.2424 50.5024 19.132 49.8464 18.356Z" fill="#F4C19F"/>
<path d="M46.7064 23.7097C46.4808 23.7097 46.2888 23.5369 46.2688 23.3081C46.204 22.5625 46.496 22.1145 46.752 21.8697C47.2184 21.4241 47.8992 21.3081 48.3928 21.2897C48.3184 21.1209 48.2096 20.9801 48.0648 20.8649C47.4072 20.3417 46.2248 20.5033 46.2128 20.5049C45.9728 20.5417 45.748 20.3761 45.712 20.1361C45.6752 19.8961 45.8408 19.6713 46.0808 19.6353C46.144 19.6257 47.6464 19.4089 48.612 20.1761C49.0744 20.5441 49.3352 21.0625 49.3856 21.7161C49.396 21.8481 49.3456 21.9785 49.2496 22.0697C49.1528 22.1609 49.0208 22.2033 48.8888 22.1865C48.596 22.1489 47.7488 22.1329 47.3584 22.5073C47.1872 22.6721 47.1176 22.9089 47.1456 23.2321C47.1664 23.4745 46.9872 23.6873 46.7456 23.7089C46.732 23.7089 46.7192 23.7097 46.7064 23.7097Z" fill="#EAAA7F"/>
<path d="M57.0752 16.3327C57.0728 16.3359 57.0712 16.3391 57.0688 16.3423C56.8048 16.7287 55.8712 16.6903 55.468 16.7415C55.1328 16.7839 50.3792 17.2047 50.3568 16.9815C50.5384 18.8335 50.72 20.6863 50.9016 22.5383C51.132 24.8919 51.328 27.4199 50.1536 29.4727C50.5832 26.3423 50.02 23.0831 48.5648 20.2783C48.1016 19.3847 47.5424 18.5159 47.3456 17.5287C47.1768 16.6791 47.2896 15.7991 47.4688 14.9519C47.9168 12.8415 48.7816 10.8207 49.9992 9.03989C52.2352 5.77109 56.2928 4.10229 60.1448 3.82869C61.8568 3.70709 63.5784 3.72469 65.2872 3.88149C67.7352 4.10629 70.5232 4.90309 72.1392 6.87829C73.0904 8.04149 73.6992 9.43989 74.296 10.8191C74.432 11.1335 76.3248 16.9247 75.8456 16.8199C74.8712 16.6079 73.8976 16.3959 72.9232 16.1839C71.8776 15.9567 70.8312 15.7287 69.7704 15.5887C67.6032 15.3031 65.412 15.3911 63.2408 15.5815C62.672 15.6311 59.1256 16.4415 58.8424 15.6247C58.3736 14.2727 57.904 12.9207 57.4352 11.5687C57.3584 11.3479 57.036 11.1127 56.9616 11.3343C56.9632 12.2631 57.528 15.6327 57.0752 16.3327Z" fill="#444DF2"/>
<path d="M65.3064 28.0839C65.064 28.0839 64.8672 27.8879 64.8664 27.6455C64.8656 27.4023 65.0616 27.2047 65.304 27.2039C65.3328 27.2039 68.144 27.1687 68.304 25.6103C68.3672 24.9911 68.1816 24.7759 67.8448 24.3863C67.2912 23.7463 66.5336 22.8695 66.584 20.0311C66.588 19.7911 66.784 19.5991 67.024 19.5991C67.0264 19.5991 67.0296 19.5991 67.032 19.5991C67.2752 19.6031 67.4688 19.8039 67.464 20.0471C67.4192 22.5495 68.024 23.2487 68.5104 23.8111C68.8896 24.2495 69.2816 24.7039 69.1792 25.7007C68.9384 28.0431 65.456 28.0839 65.308 28.0847C65.308 28.0839 65.3072 28.0839 65.3064 28.0839Z" fill="#1B1464"/>
<path d="M61.7728 23.8342C62.4143 23.792 62.877 22.8833 62.8062 21.8044C62.7354 20.7255 62.1579 19.8851 61.5164 19.9272C60.8749 19.9693 60.4122 20.878 60.4831 21.9569C60.5539 23.0358 61.1313 23.8763 61.7728 23.8342Z" fill="#1B1464"/>
<path d="M70.6613 23.5844C71.3028 23.5423 71.7654 22.6335 71.6946 21.5547C71.6238 20.4758 71.0464 19.6353 70.4048 19.6774C69.7633 19.7195 69.3007 20.6283 69.3715 21.7072C69.4423 22.786 70.0198 23.6265 70.6613 23.5844Z" fill="#1B1464"/>
<path d="M72.8512 19.4809C72.7608 19.4809 72.6704 19.4537 72.592 19.3961C70.6712 17.9921 68.944 18.4289 68.8712 18.4481C68.6368 18.5105 68.396 18.3721 68.3328 18.1377C68.2696 17.9041 68.4064 17.6633 68.6392 17.5985C68.728 17.5745 70.8328 17.0201 73.1112 18.6849C73.3072 18.8281 73.3504 19.1033 73.2072 19.3001C73.1208 19.4185 72.9872 19.4809 72.8512 19.4809Z" fill="#1B1464"/>
<path d="M57.2336 19.9584C57.1648 19.9584 57.0944 19.9424 57.0288 19.9072C56.8136 19.7936 56.7312 19.528 56.8448 19.3128C56.8888 19.2296 57.9664 17.2864 62.532 17.2864C62.572 17.2864 62.612 17.2864 62.6528 17.2872C62.896 17.2888 63.0912 17.4872 63.0896 17.7304C63.088 17.972 62.8912 18.1672 62.6496 18.1672C62.6488 18.1672 62.6472 18.1672 62.6464 18.1672C58.576 18.1376 57.6312 19.7072 57.6232 19.7232C57.5448 19.8728 57.392 19.9584 57.2336 19.9584Z" fill="#1B1464"/>
<path d="M64.5744 31.8167C61.092 31.8167 58.7752 28.9967 58.6712 28.8687C58.5184 28.6799 58.548 28.4023 58.7376 28.2503C58.9264 28.0975 59.2032 28.1271 59.356 28.3167C59.392 28.3607 61.836 31.3119 65.2536 30.8959C65.4952 30.8671 65.7144 31.0383 65.7432 31.2799C65.7728 31.5207 65.6008 31.7407 65.3592 31.7695C65.092 31.8015 64.8296 31.8167 64.5744 31.8167Z" fill="#1B1464"/>
<path d="M64.0648 39.0801C58.936 39.0801 53.6992 35.1577 53.4792 34.9905C53.2856 34.8441 53.2472 34.5681 53.3944 34.3745C53.5408 34.1809 53.8168 34.1425 54.0112 34.2889C54.0632 34.3281 59.2352 38.1993 64.0656 38.1993C64.3088 38.1993 64.5056 38.3961 64.5056 38.6393C64.5056 38.8825 64.308 39.0801 64.0648 39.0801Z" fill="#1B1464"/>
</g>
<rect x="41" y="4" width="38" height="38" rx="19" stroke="white" stroke-width="2"/>
<g clip-path="url(#clip2_392_4022)">
<rect x="70" y="3" width="40" height="40" rx="20" fill="white"/>
<path d="M110 3H70V43H110V3Z" fill="#ADB0D9"/>
<path d="M94.5528 43H76.7512C76.8144 42.812 76.8792 42.6248 76.9424 42.4376C78.2128 38.6736 78.708 35.0296 78.7808 31.084C83.288 32.2312 88.0216 31.7392 92.672 31.6912C94.4024 31.6736 93.8208 33.028 93.8432 34.288C93.8704 35.8632 93.952 37.4376 94.088 39.0072C94.2032 40.3424 94.3584 41.6744 94.5528 43Z" fill="#ADB0D9"/>
<path d="M94.5528 43H76.7512C76.8144 42.812 76.8792 42.6248 76.9424 42.4376C78.2128 38.6736 78.708 35.0296 78.7808 31.084C83.288 32.2312 88.0216 31.7392 92.672 31.6912C94.4024 31.6736 93.8208 33.028 93.8432 34.288C93.8704 35.8632 93.952 37.4376 94.088 39.0072C94.2032 40.3424 94.3584 41.6744 94.5528 43Z" fill="#E8AE8E"/>
<path d="M81.928 34.3057C81.9568 34.3401 81.9864 34.3745 82.0152 34.4081C82.3864 34.8449 82.76 35.2841 83.1968 35.6561C85.4744 37.5937 89.0192 37.8161 91.8248 38.3633C93.5288 38.6953 95.2344 38.7521 96.9136 38.2377C98.8496 37.6441 100.586 36.3353 101.559 34.5593C102.77 32.3465 102.722 29.6857 102.642 27.1641C102.596 25.7329 102.55 24.3025 102.505 22.8713C102.476 21.9737 102.448 21.0753 102.494 20.1785C102.606 17.9681 103.183 15.7009 102.706 13.4977C102.31 11.6689 100.781 9.76012 99.0736 8.98492C96.3792 7.76172 93.1512 7.43932 90.236 7.76892C88.1264 8.00732 85.98 8.26012 84.0408 9.12172C82.2984 9.89612 80.04 10.8841 79.1096 12.6129C77.9296 14.8049 77.2584 17.3393 76.9728 19.8017C76.7368 21.8369 76.7792 23.9049 77.1016 25.9289C77.4064 27.8433 77.916 29.5849 79.1816 31.0737C80.096 32.1513 81.012 33.2281 81.928 34.3057Z" fill="#F4C19F"/>
<path d="M94.5864 28.0841C94.348 28.0841 94.152 27.8937 94.1464 27.6545C94.1408 27.4113 94.3328 27.2097 94.576 27.2041C95.6728 27.1785 96.1104 26.8609 96.8552 26.1761C96.004 24.2745 95.5032 22.2569 95.3648 20.1737C95.3488 19.9313 95.532 19.7217 95.7744 19.7057C96.0152 19.6905 96.2264 19.8729 96.2424 20.1153C96.3784 22.1665 96.912 24.2345 97.7856 26.0953C97.8672 26.2681 97.8272 26.4737 97.6872 26.6041C96.668 27.5529 96.068 28.0497 94.596 28.0833C94.5936 28.0841 94.5904 28.0841 94.5864 28.0841Z" fill="#1B1464"/>
<path d="M91.0548 23.8339C91.6963 23.7918 92.1589 22.8831 92.0881 21.8042C92.0173 20.7253 91.4399 19.8848 90.7984 19.9269C90.1568 19.969 89.6942 20.8778 89.765 21.9567C89.8358 23.0355 90.4133 23.876 91.0548 23.8339Z" fill="#1B1464"/>
<path d="M99.9433 23.5842C100.585 23.542 101.047 22.6333 100.977 21.5544C100.906 20.4755 100.328 19.6351 99.6868 19.6772C99.0453 19.7193 98.5827 20.628 98.6535 21.7069C98.7243 22.7858 99.3017 23.6263 99.9433 23.5842Z" fill="#1B1464"/>
<path d="M101.944 19.9481C101.819 19.9481 101.694 19.8953 101.608 19.7921C100.058 17.9585 98.2352 17.9945 98.2176 17.9937C97.972 18.0025 97.772 17.8105 97.764 17.5673C97.756 17.3241 97.9472 17.1217 98.1904 17.1137C98.2816 17.1113 100.458 17.0681 102.281 19.2233C102.438 19.4089 102.414 19.6865 102.229 19.8433C102.145 19.9137 102.044 19.9481 101.944 19.9481Z" fill="#1B1464"/>
<path d="M86.8672 20.6728C86.8368 20.6728 86.8064 20.6696 86.7752 20.6632C86.5376 20.6136 86.3856 20.3768 86.4352 20.1392C86.4544 20.0464 86.964 17.844 91.4616 16.592C91.696 16.5272 91.9384 16.664 92.0032 16.8976C92.068 17.132 91.9312 17.3744 91.6976 17.4392C87.7792 18.5304 87.3 20.308 87.2952 20.3256C87.2512 20.5336 87.0704 20.6728 86.8672 20.6728Z" fill="#1B1464"/>
<path d="M94.6776 32.6105C94.3296 32.6105 93.968 32.5593 93.6048 32.4553C92.7592 32.2129 92.0024 31.7305 91.3352 31.3049C91.1304 31.1745 91.0704 30.9017 91.2008 30.6977C91.3312 30.4929 91.6032 30.4329 91.808 30.5633C92.4544 30.9761 93.1232 31.4033 93.8456 31.6097C94.5952 31.8241 95.3136 31.7537 95.8168 31.4169C96.0184 31.2817 96.292 31.3361 96.4272 31.5377C96.5624 31.7393 96.508 32.0129 96.3064 32.1481C95.8504 32.4537 95.2856 32.6105 94.6776 32.6105Z" fill="#1B1464"/>
<path d="M78.7088 27.1711C78.404 25.8255 78.7408 24.3039 78.8072 22.9327C78.816 22.7591 78.8312 22.5679 78.9464 22.4455C79.18 22.1967 79.5616 22.4191 79.8768 22.5231C80.4608 22.7151 81.116 22.4063 81.5024 21.9015C81.9584 21.3063 82.0904 20.5015 82.1104 19.7327C82.1216 19.2975 82.0864 18.9263 81.916 18.5367C81.8128 18.3023 81.5864 17.6351 81.3352 17.5479C82.3648 17.9031 83.6144 17.8439 84.38 17.0295C84.6088 16.7863 84.7816 16.4895 84.9288 16.1831C85.32 15.3671 85.7048 13.9183 84.9664 13.2031C85.6792 13.9207 86.6976 14.4391 87.6944 14.1927C88.7112 13.9407 89.4832 12.6391 88.9936 11.6567C89.5016 12.7295 90.1368 13.9151 91.2312 14.2023C92.4488 14.5223 93.784 13.2839 93.6544 11.9543C94.1904 13.3015 95.012 14.6471 96.2984 15.1591C97.584 15.6711 99.3464 14.9015 99.4784 13.4447C99.4432 13.8271 99.2928 14.2359 99.312 14.6159C99.384 16.0319 100.66 17.1215 101.73 17.7503C102.754 18.3519 103.956 19.0183 105.185 18.8127C106.347 18.6191 106.923 17.6399 107.094 16.4663C107.206 15.6975 107.157 14.8279 106.653 14.2647C106.086 15.1559 105.034 15.6655 104.031 15.5351C104.608 15.1951 105.038 14.5031 104.941 13.8087C104.826 12.9743 104.018 12.6471 103.35 12.8071C104.015 11.9543 104.89 11.3199 104.841 10.0543C104.786 8.6503 103.654 7.2191 102.545 6.5887C101.966 6.2599 101.289 6.0695 100.65 6.2271C100.012 6.3847 99.4384 6.9543 99.388 7.6511C99.2208 6.2831 98.348 5.0919 97.2584 4.3487C96.1688 3.6055 94.8792 3.2615 93.596 3.0823C92.7752 2.9671 91.9024 2.9231 91.1584 3.3095C90.4144 3.6959 89.868 4.6439 90.1512 5.4727C89.1936 3.9743 87.4712 3.1751 85.7736 3.0623C84.076 2.9495 82.3928 3.4455 80.8056 4.0983C80.2016 4.3471 79.5728 4.6471 79.2096 5.2183C78.4248 6.4535 79.2848 8.0975 80.1816 9.2415C79.6472 8.0671 78.208 7.7967 76.984 7.7703C75.708 7.7431 74.1784 7.9887 73.644 9.2239C73.064 10.5631 74.0656 12.0367 74.9992 13.1239C73.6192 12.5071 71.8304 13.7007 71.748 15.2935C71.6656 16.8863 73.32 18.2831 74.756 17.8311C74.408 17.3599 73.6328 17.5439 73.3248 18.0463C73.0168 18.5479 73.06 19.2055 73.188 19.7895C73.3952 20.7391 73.7976 21.6399 74.3576 22.4111C74.7888 23.0047 75.7408 23.4807 76.0928 22.8303C75.0752 22.9295 74.1528 23.7447 73.8728 24.7927C73.5928 25.8399 73.9744 27.0519 74.7904 27.7071C75.1528 27.9983 75.6208 28.1863 76.0616 28.0727C76.5024 27.9591 76.8672 27.4679 76.756 26.9991C76.3136 26.8015 75.7864 27.1775 75.6392 27.6639C75.492 28.1503 75.632 28.6839 75.8376 29.1455C76.208 29.9783 76.7968 30.6983 77.5192 31.2039C77.6832 31.3183 77.8704 31.4263 78.064 31.3967C78.3592 31.3519 78.5288 31.0199 78.628 30.7207C79.0232 29.5319 78.9784 28.3727 78.7088 27.1711Z" fill="#444DF2"/>
<path d="M79.2864 19.1561C78.7752 18.5521 78.0608 18.1497 77.0856 18.1273C75.6528 18.0945 74.2808 19.0817 73.7624 20.4185C72.928 22.5713 74.3232 25.1985 76.204 26.3089C77.8744 27.2945 79.8352 26.7201 80.3224 24.7705C80.5384 23.9057 80.4536 22.9985 80.3664 22.1113C80.2624 21.0425 79.9424 19.9321 79.2864 19.1561Z" fill="#F4C19F"/>
<path d="M76.1464 24.5097C75.9208 24.5097 75.7288 24.3369 75.7088 24.1081C75.644 23.3625 75.936 22.9145 76.192 22.6697C76.6584 22.2241 77.3392 22.1081 77.8328 22.0897C77.7584 21.9209 77.6496 21.7801 77.5048 21.6649C76.8472 21.1417 75.6648 21.3033 75.6528 21.3049C75.4128 21.3425 75.188 21.1761 75.152 20.9361C75.1152 20.6961 75.2808 20.4713 75.5208 20.4353C75.584 20.4257 77.0864 20.2089 78.052 20.9761C78.5144 21.3441 78.7752 21.8625 78.8256 22.5161C78.836 22.6481 78.7856 22.7785 78.6896 22.8697C78.5928 22.9609 78.4608 23.0033 78.3288 22.9865C78.036 22.9489 77.1888 22.9329 76.7984 23.3073C76.6272 23.4721 76.5576 23.7089 76.5856 24.0321C76.6064 24.2745 76.4272 24.4873 76.1856 24.5089C76.172 24.5089 76.1592 24.5097 76.1464 24.5097Z" fill="#EAAA7F"/>
<path d="M93.5552 38.8255C93.4312 38.8255 91.3656 38.8143 88.7184 38.1287C86.2384 37.4863 82.7712 36.1023 80.3408 33.1599C80.1864 32.9727 80.2128 32.6951 80.4 32.5407C80.5872 32.3863 80.8648 32.4127 81.0192 32.5999C83.2944 35.3543 86.5696 36.6599 88.916 37.2711C91.4816 37.9391 93.5312 37.9455 93.5568 37.9455C93.8 37.9455 93.9968 38.1423 93.9968 38.3847C93.9968 38.6279 93.8008 38.8247 93.5576 38.8255C93.5576 38.8255 93.5568 38.8255 93.5552 38.8255Z" fill="#1B1464"/>
</g>
<rect x="71" y="4" width="38" height="38" rx="19" stroke="white" stroke-width="2"/>
<defs>
<clipPath id="clip0_392_4022">
<rect x="10" y="3" width="40" height="40" rx="20" fill="white"/>
</clipPath>
<clipPath id="clip1_392_4022">
<rect x="40" y="3" width="40" height="40" rx="20" fill="white"/>
</clipPath>
<clipPath id="clip2_392_4022">
<rect x="70" y="3" width="40" height="40" rx="20" fill="white"/>
</clipPath>
</defs>
</svg>
