<svg width="342" height="70" viewBox="0 0 342 70" fill="none" xmlns="http://www.w3.org/2000/svg">
<path d="M4.576 46.256C3.91467 46.256 3.392 46.0747 3.008 45.712C2.64533 45.328 2.464 44.784 2.464 44.08V25.616C2.464 24.912 2.64533 24.3787 3.008 24.016C3.392 23.632 3.936 23.44 4.64 23.44H15.808C16.3627 23.44 16.7787 23.5787 17.056 23.856C17.3333 24.1333 17.472 24.528 17.472 25.04C17.472 25.5733 17.3333 25.9893 17.056 26.288C16.7787 26.5653 16.3627 26.704 15.808 26.704H6.56V33.072H15.136C15.6693 33.072 16.0747 33.2107 16.352 33.488C16.6507 33.7653 16.8 34.16 16.8 34.672C16.8 35.2053 16.6507 35.6213 16.352 35.92C16.0747 36.1973 15.6693 36.336 15.136 36.336H6.56V44.08C6.56 45.5307 5.89867 46.256 4.576 46.256ZM21.7843 46.256C21.1229 46.256 20.6109 46.0853 20.2483 45.744C19.9069 45.3813 19.7363 44.8693 19.7363 44.208V32.112C19.7363 31.4507 19.9069 30.9493 20.2483 30.608C20.5896 30.2667 21.0696 30.096 21.6883 30.096C22.3069 30.096 22.7869 30.2667 23.1283 30.608C23.4696 30.9493 23.6403 31.4507 23.6403 32.112V34.128H23.3203C23.6189 32.848 24.2056 31.8773 25.0803 31.216C25.9549 30.5547 27.1176 30.16 28.5683 30.032C29.0163 29.9893 29.3683 30.1067 29.6243 30.384C29.9016 30.64 30.0616 31.0453 30.1043 31.6C30.1469 32.1333 30.0189 32.5707 29.7203 32.912C29.4429 33.232 29.0163 33.424 28.4403 33.488L27.7363 33.552C26.4349 33.68 25.4536 34.0853 24.7923 34.768C24.1309 35.4293 23.8003 36.368 23.8003 37.584V44.208C23.8003 44.8693 23.6296 45.3813 23.2883 45.744C22.9469 46.0853 22.4456 46.256 21.7843 46.256ZM39.7295 46.32C37.9588 46.32 36.4335 45.9893 35.1535 45.328C33.8735 44.6667 32.8815 43.728 32.1775 42.512C31.4948 41.296 31.1535 39.856 31.1535 38.192C31.1535 36.5707 31.4842 35.152 32.1455 33.936C32.8282 32.72 33.7562 31.7707 34.9295 31.088C36.1242 30.384 37.4788 30.032 38.9935 30.032C40.1028 30.032 41.0948 30.2133 41.9695 30.576C42.8655 30.9387 43.6228 31.4613 44.2415 32.144C44.8815 32.8267 45.3615 33.6587 45.6815 34.64C46.0228 35.6 46.1935 36.688 46.1935 37.904C46.1935 38.288 46.0548 38.5867 45.7775 38.8C45.5215 38.992 45.1482 39.088 44.6575 39.088H34.3855V36.784H43.3775L42.8655 37.264C42.8655 36.2827 42.7162 35.4613 42.4175 34.8C42.1402 34.1387 41.7242 33.6373 41.1695 33.296C40.6362 32.9333 39.9642 32.752 39.1535 32.752C38.2575 32.752 37.4895 32.9653 36.8495 33.392C36.2308 33.7973 35.7508 34.384 35.4095 35.152C35.0895 35.8987 34.9295 36.7947 34.9295 37.84V38.064C34.9295 39.8133 35.3348 41.1253 36.1455 42C36.9775 42.8533 38.1935 43.28 39.7935 43.28C40.3482 43.28 40.9668 43.216 41.6495 43.088C42.3535 42.9387 43.0148 42.6933 43.6335 42.352C44.0815 42.096 44.4762 41.9893 44.8175 42.032C45.1588 42.0533 45.4255 42.1707 45.6175 42.384C45.8308 42.5973 45.9588 42.864 46.0015 43.184C46.0442 43.4827 45.9802 43.792 45.8095 44.112C45.6602 44.432 45.3935 44.7093 45.0095 44.944C44.2628 45.4133 43.3988 45.7653 42.4175 46C41.4575 46.2133 40.5615 46.32 39.7295 46.32ZM55.3773 46.32C54.0119 46.32 52.8066 45.9893 51.7613 45.328C50.7373 44.6667 49.9373 43.728 49.3613 42.512C48.7853 41.2747 48.4973 39.824 48.4973 38.16C48.4973 36.4747 48.7853 35.0347 49.3613 33.84C49.9373 32.624 50.7373 31.6853 51.7613 31.024C52.8066 30.3627 54.0119 30.032 55.3773 30.032C56.6786 30.032 57.8093 30.352 58.7693 30.992C59.7506 31.632 60.4119 32.4747 60.7533 33.52H60.4013V25.2C60.4013 24.5387 60.5719 24.0373 60.9133 23.696C61.2546 23.3547 61.7453 23.184 62.3853 23.184C63.0253 23.184 63.5159 23.3547 63.8573 23.696C64.2199 24.0373 64.4013 24.5387 64.4013 25.2V44.208C64.4013 44.8693 64.2306 45.3813 63.8893 45.744C63.5479 46.0853 63.0573 46.256 62.4173 46.256C61.7773 46.256 61.2866 46.0853 60.9453 45.744C60.6039 45.3813 60.4333 44.8693 60.4333 44.208V41.712L60.7853 42.672C60.4653 43.7813 59.8146 44.6667 58.8333 45.328C57.8519 45.9893 56.6999 46.32 55.3773 46.32ZM56.4973 43.28C57.2866 43.28 57.9799 43.088 58.5773 42.704C59.1746 42.32 59.6333 41.7547 59.9533 41.008C60.2946 40.24 60.4653 39.2907 60.4653 38.16C60.4653 36.4533 60.1026 35.184 59.3773 34.352C58.6519 33.4987 57.6919 33.072 56.4973 33.072C55.7079 33.072 55.0146 33.264 54.4173 33.648C53.8199 34.0107 53.3506 34.576 53.0093 35.344C52.6893 36.0907 52.5293 37.0293 52.5293 38.16C52.5293 39.8453 52.8919 41.1253 53.6173 42C54.3426 42.8533 55.3026 43.28 56.4973 43.28ZM76.2608 46.32C74.4901 46.32 72.9648 45.9893 71.6848 45.328C70.4048 44.6667 69.4128 43.728 68.7088 42.512C68.0261 41.296 67.6848 39.856 67.6848 38.192C67.6848 36.5707 68.0154 35.152 68.6768 33.936C69.3594 32.72 70.2874 31.7707 71.4608 31.088C72.6554 30.384 74.0101 30.032 75.5248 30.032C76.6341 30.032 77.6261 30.2133 78.5008 30.576C79.3968 30.9387 80.1541 31.4613 80.7728 32.144C81.4128 32.8267 81.8928 33.6587 82.2128 34.64C82.5541 35.6 82.7248 36.688 82.7248 37.904C82.7248 38.288 82.5861 38.5867 82.3088 38.8C82.0528 38.992 81.6794 39.088 81.1888 39.088H70.9168V36.784H79.9088L79.3968 37.264C79.3968 36.2827 79.2474 35.4613 78.9488 34.8C78.6714 34.1387 78.2554 33.6373 77.7008 33.296C77.1674 32.9333 76.4954 32.752 75.6848 32.752C74.7888 32.752 74.0208 32.9653 73.3808 33.392C72.7621 33.7973 72.2821 34.384 71.9408 35.152C71.6208 35.8987 71.4608 36.7947 71.4608 37.84V38.064C71.4608 39.8133 71.8661 41.1253 72.6768 42C73.5088 42.8533 74.7248 43.28 76.3248 43.28C76.8794 43.28 77.4981 43.216 78.1808 43.088C78.8848 42.9387 79.5461 42.6933 80.1648 42.352C80.6128 42.096 81.0074 41.9893 81.3488 42.032C81.6901 42.0533 81.9568 42.1707 82.1488 42.384C82.3621 42.5973 82.4901 42.864 82.5328 43.184C82.5754 43.4827 82.5114 43.792 82.3408 44.112C82.1914 44.432 81.9248 44.7093 81.5408 44.944C80.7941 45.4133 79.9301 45.7653 78.9488 46C77.9888 46.2133 77.0928 46.32 76.2608 46.32ZM87.9405 46.256C87.2792 46.256 86.7672 46.0853 86.4045 45.744C86.0632 45.3813 85.8925 44.8693 85.8925 44.208V32.112C85.8925 31.4507 86.0632 30.9493 86.4045 30.608C86.7458 30.2667 87.2258 30.096 87.8445 30.096C88.4632 30.096 88.9432 30.2667 89.2845 30.608C89.6258 30.9493 89.7965 31.4507 89.7965 32.112V34.128H89.4765C89.7752 32.848 90.3618 31.8773 91.2365 31.216C92.1112 30.5547 93.2738 30.16 94.7245 30.032C95.1725 29.9893 95.5245 30.1067 95.7805 30.384C96.0578 30.64 96.2178 31.0453 96.2605 31.6C96.3032 32.1333 96.1752 32.5707 95.8765 32.912C95.5992 33.232 95.1725 33.424 94.5965 33.488L93.8925 33.552C92.5912 33.68 91.6098 34.0853 90.9485 34.768C90.2872 35.4293 89.9565 36.368 89.9565 37.584V44.208C89.9565 44.8693 89.7858 45.3813 89.4445 45.744C89.1032 46.0853 88.6018 46.256 87.9405 46.256ZM100.408 46.224C99.7678 46.224 99.2771 46.032 98.9358 45.648C98.5944 45.264 98.4238 44.7307 98.4238 44.048V32.304C98.4238 31.6 98.5944 31.0667 98.9358 30.704C99.2771 30.32 99.7678 30.128 100.408 30.128C101.048 30.128 101.538 30.32 101.88 30.704C102.242 31.0667 102.424 31.6 102.424 32.304V44.048C102.424 44.7307 102.253 45.264 101.912 45.648C101.57 46.032 101.069 46.224 100.408 46.224ZM100.408 27.152C99.6611 27.152 99.0744 26.9707 98.6478 26.608C98.2424 26.224 98.0398 25.7013 98.0398 25.04C98.0398 24.3573 98.2424 23.8347 98.6478 23.472C99.0744 23.1093 99.6611 22.928 100.408 22.928C101.176 22.928 101.762 23.1093 102.168 23.472C102.573 23.8347 102.776 24.3573 102.776 25.04C102.776 25.7013 102.573 26.224 102.168 26.608C101.762 26.9707 101.176 27.152 100.408 27.152ZM108.564 46.256C107.924 46.256 107.433 46.0853 107.092 45.744C106.751 45.3813 106.58 44.8693 106.58 44.208V25.2C106.58 24.5387 106.751 24.0373 107.092 23.696C107.433 23.3547 107.924 23.184 108.564 23.184C109.204 23.184 109.695 23.3547 110.036 23.696C110.399 24.0373 110.58 24.5387 110.58 25.2V37.008H110.644L115.924 31.44C116.351 31.0133 116.724 30.6827 117.044 30.448C117.364 30.2133 117.801 30.096 118.356 30.096C118.911 30.096 119.327 30.2453 119.604 30.544C119.903 30.8213 120.052 31.1627 120.052 31.568C120.052 31.9733 119.86 32.3787 119.476 32.784L113.908 38.672V37.008L120.02 43.6C120.404 44.0053 120.575 44.4213 120.532 44.848C120.511 45.2533 120.34 45.5947 120.02 45.872C119.7 46.128 119.295 46.256 118.804 46.256C118.207 46.256 117.727 46.1387 117.364 45.904C117.023 45.6693 116.639 45.3173 116.212 44.848L110.644 39.024H110.58V44.208C110.58 45.5733 109.908 46.256 108.564 46.256ZM134.984 46C134.28 46 133.736 45.8187 133.352 45.456C132.989 45.072 132.808 44.528 132.808 43.824V25.616C132.808 24.912 132.989 24.3787 133.352 24.016C133.736 23.632 134.28 23.44 134.984 23.44H142.664C144.242 23.44 145.586 23.6747 146.696 24.144C147.805 24.6133 148.648 25.2853 149.224 26.16C149.821 27.0347 150.12 28.08 150.12 29.296C150.12 30.6613 149.725 31.8133 148.936 32.752C148.146 33.6907 147.069 34.32 145.704 34.64V34.16C147.282 34.3947 148.509 34.992 149.384 35.952C150.258 36.912 150.696 38.16 150.696 39.696C150.696 41.7013 150.013 43.2587 148.648 44.368C147.304 45.456 145.426 46 143.016 46H134.984ZM136.744 42.896H142.504C143.954 42.896 145.021 42.6187 145.704 42.064C146.386 41.488 146.728 40.6347 146.728 39.504C146.728 38.352 146.386 37.4987 145.704 36.944C145.021 36.3893 143.954 36.112 142.504 36.112H136.744V42.896ZM136.744 33.008H141.96C143.368 33.008 144.413 32.7413 145.096 32.208C145.8 31.6533 146.152 30.8427 146.152 29.776C146.152 28.7093 145.8 27.9093 145.096 27.376C144.413 26.8213 143.368 26.544 141.96 26.544H136.744V33.008ZM162.167 46.32C160.396 46.32 158.871 45.9893 157.591 45.328C156.311 44.6667 155.319 43.728 154.615 42.512C153.932 41.296 153.591 39.856 153.591 38.192C153.591 36.5707 153.922 35.152 154.583 33.936C155.266 32.72 156.194 31.7707 157.367 31.088C158.562 30.384 159.916 30.032 161.431 30.032C162.54 30.032 163.532 30.2133 164.407 30.576C165.303 30.9387 166.06 31.4613 166.679 32.144C167.319 32.8267 167.799 33.6587 168.119 34.64C168.46 35.6 168.631 36.688 168.631 37.904C168.631 38.288 168.492 38.5867 168.215 38.8C167.959 38.992 167.586 39.088 167.095 39.088H156.823V36.784H165.815L165.303 37.264C165.303 36.2827 165.154 35.4613 164.855 34.8C164.578 34.1387 164.162 33.6373 163.607 33.296C163.074 32.9333 162.402 32.752 161.591 32.752C160.695 32.752 159.927 32.9653 159.287 33.392C158.668 33.7973 158.188 34.384 157.847 35.152C157.527 35.8987 157.367 36.7947 157.367 37.84V38.064C157.367 39.8133 157.772 41.1253 158.583 42C159.415 42.8533 160.631 43.28 162.231 43.28C162.786 43.28 163.404 43.216 164.087 43.088C164.791 42.9387 165.452 42.6933 166.071 42.352C166.519 42.096 166.914 41.9893 167.255 42.032C167.596 42.0533 167.863 42.1707 168.055 42.384C168.268 42.5973 168.396 42.864 168.439 43.184C168.482 43.4827 168.418 43.792 168.247 44.112C168.098 44.432 167.831 44.7093 167.447 44.944C166.7 45.4133 165.836 45.7653 164.855 46C163.895 46.2133 162.999 46.32 162.167 46.32ZM179.031 46.32C177.388 46.32 175.959 45.9893 174.743 45.328C173.527 44.6453 172.588 43.6853 171.927 42.448C171.265 41.2107 170.935 39.76 170.935 38.096C170.935 36.8373 171.116 35.7173 171.479 34.736C171.863 33.7333 172.407 32.8907 173.111 32.208C173.815 31.504 174.668 30.9707 175.671 30.608C176.673 30.224 177.793 30.032 179.031 30.032C179.735 30.032 180.492 30.128 181.303 30.32C182.135 30.512 182.913 30.832 183.639 31.28C183.98 31.4933 184.204 31.7493 184.311 32.048C184.417 32.3467 184.439 32.656 184.375 32.976C184.311 33.2747 184.172 33.5413 183.959 33.776C183.767 33.9893 183.521 34.128 183.223 34.192C182.924 34.2347 182.593 34.16 182.231 33.968C181.761 33.6907 181.281 33.488 180.791 33.36C180.3 33.2107 179.831 33.136 179.383 33.136C178.679 33.136 178.06 33.2533 177.527 33.488C176.993 33.7013 176.535 34.0213 176.151 34.448C175.788 34.8533 175.511 35.3653 175.319 35.984C175.127 36.6027 175.031 37.3173 175.031 38.128C175.031 39.7067 175.404 40.9547 176.151 41.872C176.919 42.768 177.996 43.216 179.383 43.216C179.831 43.216 180.289 43.152 180.759 43.024C181.249 42.896 181.74 42.6933 182.231 42.416C182.593 42.224 182.913 42.16 183.191 42.224C183.489 42.288 183.735 42.4373 183.927 42.672C184.119 42.8853 184.236 43.152 184.279 43.472C184.321 43.7707 184.279 44.0693 184.151 44.368C184.044 44.6667 183.831 44.912 183.511 45.104C182.807 45.5307 182.06 45.84 181.271 46.032C180.481 46.224 179.735 46.32 179.031 46.32ZM188.877 46.256C188.237 46.256 187.746 46.0853 187.405 45.744C187.063 45.3813 186.893 44.8693 186.893 44.208V25.2C186.893 24.5387 187.063 24.0373 187.405 23.696C187.746 23.3547 188.237 23.184 188.877 23.184C189.517 23.184 190.007 23.3547 190.349 23.696C190.711 24.0373 190.893 24.5387 190.893 25.2V37.008H190.957L196.237 31.44C196.663 31.0133 197.037 30.6827 197.357 30.448C197.677 30.2133 198.114 30.096 198.669 30.096C199.223 30.096 199.639 30.2453 199.917 30.544C200.215 30.8213 200.365 31.1627 200.365 31.568C200.365 31.9733 200.173 32.3787 199.789 32.784L194.22 38.672V37.008L200.333 43.6C200.717 44.0053 200.887 44.4213 200.845 44.848C200.823 45.2533 200.653 45.5947 200.333 45.872C200.013 46.128 199.607 46.256 199.117 46.256C198.519 46.256 198.039 46.1387 197.677 45.904C197.335 45.6693 196.951 45.3173 196.525 44.848L190.957 39.024H190.893V44.208C190.893 45.5733 190.221 46.256 188.877 46.256Z" fill="black"/>
<g clip-path="url(#clip0_379_2444)">
<rect x="222" width="70" height="70" rx="35" fill="white"/>
<path d="M294.5 -2.49976H219.5V72.5H294.5V-2.49976Z" fill="#ADB0D9"/>
<path d="M265.535 72.5H232.16C232.28 72.14 232.4 71.795 232.52 71.45C234.905 64.4001 235.835 57.5601 235.97 50.1651C244.415 52.3101 253.295 51.3951 262.01 51.3051C265.25 51.2751 264.17 53.8101 264.2 56.1801C264.245 59.1351 264.41 62.0901 264.665 65.0301C264.875 67.52 265.175 70.01 265.535 72.5Z" fill="#ADB0D9"/>
<path d="M265.535 72.5H232.16C232.28 72.14 232.4 71.795 232.52 71.45C234.905 64.4001 235.835 57.5601 235.97 50.1651C244.415 52.3101 253.295 51.3951 262.01 51.3051C265.25 51.2751 264.17 53.8101 264.2 56.1801C264.245 59.1351 264.41 62.0901 264.665 65.0301C264.875 67.52 265.175 70.01 265.535 72.5Z" fill="#E8AE8E"/>
<path d="M241.865 56.195C241.925 56.255 241.97 56.33 242.03 56.39C242.72 57.215 243.425 58.025 244.25 58.73C248.525 62.36 255.17 62.78 260.42 63.8C263.615 64.43 266.81 64.535 269.96 63.56C273.59 62.45 276.845 59.99 278.675 56.66C280.94 52.505 280.85 47.5251 280.7 42.8001C280.61 40.1151 280.535 37.4301 280.445 34.7451C280.385 33.0651 280.34 31.3701 280.43 29.6901C280.64 25.5501 281.72 21.2901 280.835 17.1652C280.1 13.7302 277.22 10.1602 274.025 8.70519C268.97 6.4102 262.925 5.8102 257.45 6.4252C253.49 6.87519 249.47 7.34019 245.84 8.96019C242.57 10.4152 238.34 12.2602 236.6 15.5002C234.395 19.6102 233.135 24.3651 232.595 28.9851C232.145 32.7951 232.235 36.6801 232.835 40.4751C233.405 44.0601 234.365 47.3301 236.735 50.12C238.43 52.16 240.155 54.185 241.865 56.195Z" fill="#F4C19F"/>
<path d="M265.595 44.5401C265.145 44.5401 264.785 44.1801 264.77 43.7301C264.755 43.2801 265.115 42.8901 265.58 42.8901C267.635 42.8451 268.46 42.2451 269.855 40.9701C268.265 37.4002 267.32 33.6202 267.065 29.7202C267.035 29.2702 267.38 28.8652 267.83 28.8352C268.28 28.8052 268.67 29.1502 268.715 29.6002C268.97 33.4402 269.975 37.3252 271.61 40.8052C271.76 41.1352 271.685 41.5101 271.43 41.7651C269.525 43.5501 268.4 44.4801 265.64 44.5401C265.61 44.5401 265.61 44.5401 265.595 44.5401Z" fill="#1B1464"/>
<path d="M258.975 36.5696C260.174 36.4909 261.038 34.7852 260.905 32.7597C260.772 30.7343 259.692 29.1561 258.494 29.2347C257.295 29.3134 256.431 31.0192 256.564 33.0446C256.697 35.0701 257.776 36.6483 258.975 36.5696Z" fill="#1B1464"/>
<path d="M275.641 36.1045C276.839 36.0259 277.703 34.3201 277.571 32.2946C277.438 30.2692 276.358 28.691 275.159 28.7697C273.961 28.8483 273.097 30.5541 273.229 32.5796C273.362 34.605 274.442 36.1832 275.641 36.1045Z" fill="#1B1464"/>
<path d="M279.395 29.2851C279.155 29.2851 278.93 29.1801 278.765 29.0001C275.855 25.5651 272.435 25.6251 272.405 25.6251C271.94 25.6401 271.565 25.2801 271.55 24.8301C271.535 24.3801 271.895 23.9901 272.345 23.9751C272.51 23.9751 276.59 23.8851 280.01 27.9351C280.31 28.2801 280.265 28.8051 279.92 29.1051C279.77 29.2101 279.59 29.2851 279.395 29.2851Z" fill="#1B1464"/>
<path d="M251.12 30.6351C251.06 30.6351 251 30.6351 250.94 30.6201C250.49 30.5301 250.205 30.0801 250.31 29.6301C250.34 29.4501 251.3 25.3251 259.73 22.9851C260.165 22.8651 260.63 23.1201 260.75 23.5551C260.87 23.9901 260.615 24.4551 260.18 24.5751C252.83 26.6151 251.93 29.9601 251.93 29.9901C251.84 30.3801 251.51 30.6351 251.12 30.6351Z" fill="#1B1464"/>
<path d="M265.775 53.0151C265.13 53.0151 264.44 52.9251 263.765 52.7301C262.175 52.2801 260.765 51.3651 259.505 50.5701C259.115 50.3301 259.01 49.8201 259.25 49.4301C259.49 49.0401 260 48.9351 260.39 49.1751C261.605 49.9551 262.85 50.7501 264.215 51.1401C265.625 51.5451 266.96 51.4101 267.905 50.7801C268.28 50.5251 268.79 50.6301 269.045 51.0051C269.3 51.3801 269.195 51.8901 268.82 52.1451C267.965 52.7301 266.915 53.0151 265.775 53.0151Z" fill="#1B1464"/>
<path d="M235.835 42.8151C235.265 40.2951 235.895 37.4451 236.015 34.8651C236.03 34.5351 236.06 34.1751 236.27 33.9501C236.705 33.4851 237.425 33.9051 238.01 34.1001C239.105 34.4601 240.335 33.8751 241.055 32.9301C241.91 31.8201 242.165 30.3052 242.195 28.8652C242.21 28.0552 242.15 27.3502 241.835 26.6302C241.64 26.1952 241.22 24.9352 240.74 24.7702C242.675 25.4302 245.015 25.3252 246.455 23.7952C246.89 23.3452 247.205 22.7902 247.49 22.2052C248.225 20.6752 248.945 17.9602 247.565 16.6102C248.9 17.9602 250.805 18.9202 252.68 18.4702C254.585 18.0052 256.04 15.5602 255.11 13.7152C256.07 15.7252 257.255 17.9452 259.31 18.4852C261.59 19.0852 264.095 16.7602 263.855 14.2702C264.86 16.7902 266.405 19.3252 268.805 20.2852C271.22 21.2452 274.52 19.8052 274.775 17.0752C274.715 17.7952 274.43 18.5602 274.46 19.2652C274.595 21.9202 276.98 23.9602 278.99 25.1452C280.91 26.2702 283.16 27.5152 285.47 27.1402C287.645 26.7802 288.725 24.9352 289.055 22.7452C289.265 21.3052 289.175 19.6702 288.23 18.6202C287.165 20.2852 285.2 21.2452 283.31 21.0052C284.39 20.3602 285.2 19.0702 285.02 17.7652C284.81 16.2052 283.295 15.5902 282.035 15.8902C283.28 14.2852 284.93 13.1002 284.825 10.7302C284.72 8.10523 282.605 5.42024 280.52 4.23524C279.44 3.62024 278.165 3.26024 276.965 3.56024C275.765 3.86024 274.7 4.92524 274.595 6.23023C274.28 3.66524 272.645 1.43025 270.605 0.0352554C268.565 -1.35974 266.15 -2.00474 263.75 -2.34974C262.205 -2.55974 260.57 -2.64974 259.175 -1.92974C257.78 -1.20974 256.76 0.575254 257.285 2.12025C255.485 -0.684742 252.26 -2.18474 249.08 -2.39474C245.9 -2.60474 242.735 -1.67474 239.765 -0.459742C238.625 0.00525594 237.455 0.575254 236.765 1.64025C235.295 3.95024 236.9 7.04023 238.595 9.18522C237.59 6.98023 234.89 6.47023 232.595 6.42523C230.21 6.38023 227.33 6.83023 226.325 9.15522C225.245 11.6602 227.12 14.4352 228.86 16.4752C226.265 15.3202 222.92 17.5552 222.77 20.5402C222.62 23.5252 225.725 26.1502 228.41 25.2952C227.765 24.4102 226.31 24.7552 225.725 25.7002C225.14 26.6452 225.23 27.8752 225.47 28.9702C225.86 30.7552 226.61 32.4351 227.66 33.8901C228.47 35.0001 230.255 35.9001 230.915 34.6701C229.01 34.8501 227.27 36.3801 226.76 38.3451C226.235 40.3101 226.955 42.5751 228.485 43.8051C229.16 44.3451 230.045 44.7051 230.87 44.4951C231.695 44.2851 232.385 43.3551 232.175 42.4851C231.35 42.1101 230.36 42.8151 230.075 43.7301C229.805 44.6451 230.06 45.6351 230.45 46.5051C231.14 48.0651 232.25 49.4151 233.6 50.3601C233.9 50.5701 234.26 50.7801 234.62 50.7201C235.175 50.6301 235.49 50.0151 235.685 49.4601C236.42 47.2401 236.33 45.0801 235.835 42.8151Z" fill="#444DF2"/>
<path d="M236.915 27.7852C235.955 26.6452 234.62 25.8952 232.79 25.8502C230.105 25.7902 227.525 27.6352 226.565 30.1402C225.005 34.1751 227.615 39.1101 231.14 41.1801C234.275 43.0251 237.95 41.9451 238.865 38.3001C239.27 36.6801 239.105 34.9701 238.955 33.3202C238.745 31.3252 238.145 29.2552 236.915 27.7852Z" fill="#F4C19F"/>
<path d="M231.02 37.8351C230.6 37.8351 230.24 37.5051 230.195 37.0851C230.075 35.6901 230.615 34.8501 231.095 34.3851C231.965 33.5451 233.24 33.3351 234.17 33.3051C234.035 32.9901 233.825 32.7201 233.555 32.5101C232.325 31.5352 230.105 31.8352 230.09 31.8352C229.64 31.9102 229.22 31.5952 229.145 31.1452C229.07 30.6952 229.385 30.2752 229.835 30.2002C229.955 30.1852 232.775 29.7802 234.575 31.2202C235.445 31.9102 235.925 32.8851 236.03 34.1151C236.045 34.3701 235.955 34.6101 235.775 34.7751C235.595 34.9401 235.34 35.0301 235.1 35.0001C234.545 34.9251 232.955 34.8951 232.235 35.6001C231.92 35.9151 231.785 36.3501 231.83 36.9651C231.875 37.4151 231.53 37.8201 231.08 37.8651C231.08 37.8351 231.05 37.8351 231.02 37.8351Z" fill="#EAAA7F"/>
<path d="M263.66 64.6701C263.42 64.6701 259.55 64.6551 254.585 63.3651C249.935 62.1651 243.44 59.5701 238.88 54.0501C238.595 53.7051 238.64 53.1801 238.985 52.8951C239.33 52.6101 239.855 52.6551 240.14 53.0001C244.4 58.1601 250.55 60.6201 254.945 61.7601C259.76 63.0051 263.6 63.0201 263.645 63.0201C264.095 63.0201 264.47 63.3951 264.47 63.8451C264.5 64.2951 264.125 64.6701 263.66 64.6701C263.675 64.6701 263.675 64.6701 263.66 64.6701Z" fill="#1B1464"/>
</g>
<circle cx="283.667" cy="61.6668" r="7.33333" fill="#92C83E" stroke="#ECEEFE" stroke-width="2"/>
<mask id="mask0_379_2444" style="mask-type:alpha" maskUnits="userSpaceOnUse" x="312" y="20" width="30" height="30">
<rect x="312" y="20" width="30" height="30" fill="#D9D9D9"/>
</mask>
<g mask="url(#mask0_379_2444)">
<path d="M327 38.7188C326.833 38.7188 326.672 38.6875 326.516 38.625C326.36 38.5625 326.229 38.4792 326.125 38.375L320.375 32.625C320.146 32.3958 320.031 32.1042 320.031 31.75C320.031 31.3958 320.146 31.1042 320.375 30.875C320.604 30.6458 320.896 30.5312 321.25 30.5312C321.604 30.5312 321.896 30.6458 322.125 30.875L327 35.75L331.875 30.875C332.104 30.6458 332.396 30.5312 332.75 30.5312C333.104 30.5312 333.396 30.6458 333.625 30.875C333.854 31.1042 333.969 31.3958 333.969 31.75C333.969 32.1042 333.854 32.3958 333.625 32.625L327.875 38.375C327.75 38.5 327.615 38.5883 327.469 38.64C327.323 38.6925 327.167 38.7188 327 38.7188Z" fill="black"/>
</g>
<defs>
<clipPath id="clip0_379_2444">
<rect x="222" width="70" height="70" rx="35" fill="white"/>
</clipPath>
</defs>
</svg>
