<svg width="342" height="70" viewBox="0 0 342 70" fill="none" xmlns="http://www.w3.org/2000/svg">
  <path d="M4.576 46.256C3.91467 46.256 3.392 46.0747 3.008 45.712C2.64533 45.328 2.464 44.784 2.464 44.08V25.616C2.464 24.912 2.64533 24.3787 3.008 24.016C3.392 23.632 3.936 23.44 4.64 23.44H15.808C16.3627 23.44 16.7787 23.5787 17.056 23.856C17.3333 24.1333 17.472 24.528 17.472 25.04C17.472 25.5733 17.3333 25.9893 17.056 26.288C16.7787 26.5653 16.3627 26.704 15.808 26.704H6.56V33.072H15.136C15.6693 33.072 16.0747 33.2107 16.352 33.488C16.6507 33.7653 16.8 34.16 16.8 34.672C16.8 35.2053 16.6507 35.6213 16.352 35.92C16.0747 36.1973 15.6693 36.336 15.136 36.336H6.56V44.08C6.56 45.5307 5.89867 46.256 4.576 46.256ZM21.7843 46.256C21.1229 46.256 20.6109 46.0853 20.2483 45.744C19.9069 45.3813 19.7363 44.8693 19.7363 44.208V32.112C19.7363 31.4507 19.9069 30.9493 20.2483 30.608C20.5896 30.2667 21.0696 30.096 21.6883 30.096C22.3069 30.096 22.7869 30.2667 23.1283 30.608C23.4696 30.9493 23.6403 31.4507 23.6403 32.112V34.128H23.3203C23.6189 32.848 24.2056 31.8773 25.0803 31.216C25.9549 30.5547 27.1176 30.16 28.5683 30.032C29.0163 29.9893 29.3683 30.1067 29.6243 30.384C29.9016 30.64 30.0616 31.0453 30.1043 31.6C30.1469 32.1333 30.0189 32.5707 29.7203 32.912C29.4429 33.232 29.0163 33.424 28.4403 33.488L27.7363 33.552C26.4349 33.68 25.4536 34.0853 24.7923 34.768C24.1309 35.4293 23.8003 36.368 23.8003 37.584V44.208C23.8003 44.8693 23.6296 45.3813 23.2883 45.744C22.9469 46.0853 22.4456 46.256 21.7843 46.256Z" fill="black"/>
  <circle cx="283.667" cy="61.6668" r="7.33333" fill="#92C83E" stroke="#ECEEFE" stroke-width="2"/>
  <g transform="translate(312 20)">
    <path d="M15 38.7188C14.833 38.7188 14.672 38.6875 14.516 38.625C14.36 38.5625 14.229 38.4792 14.125 38.375L8.375 32.625C8.146 32.3958 8.031 32.1042 8.031 31.75C8.031 31.3958 8.146 31.1042 8.375 30.875C8.604 30.6458 8.896 30.5312 9.25 30.5312C9.604 30.5312 9.896 30.6458 10.125 30.875L15 35.75L19.875 30.875C20.104 30.6458 20.396 30.5312 20.75 30.5312C21.104 30.5312 21.396 30.6458 21.625 30.875C21.854 31.1042 21.969 31.3958 21.969 31.75C21.969 32.1042 21.854 32.3958 21.625 32.625L15.875 38.375C15.75 38.5 15.615 38.5883 15.469 38.64C15.323 38.6925 15.167 38.7188 15 38.7188Z" fill="black"/>
  </g>
</svg>
