<svg width="255" height="46" viewBox="0 0 255 46" fill="none" xmlns="http://www.w3.org/2000/svg">
<path d="M23 0.5H230C243.531 0.5 254.5 11.469 254.5 25V45.5H23C10.5736 45.5 0.5 35.4264 0.5 23C0.5 10.5736 10.5736 0.5 23 0.5Z" fill="white"/>
<path d="M23 0.5H230C243.531 0.5 254.5 11.469 254.5 25V45.5H23C10.5736 45.5 0.5 35.4264 0.5 23C0.5 10.5736 10.5736 0.5 23 0.5Z" stroke="#ADB0D9"/>
<path d="M40 33C45.5228 33 50 28.5228 50 23C50 17.4772 45.5228 13 40 13C34.4772 13 30 17.4772 30 23C30 28.5228 34.4772 33 40 33Z" fill="#4BD37B"/>
<path d="M44.6667 17L37.6667 24.2L35.3333 21.8L33 24.2L37.6667 29L47 19.4L44.6667 17Z" fill="white"/>
<g clip-path="url(#clip0_490_4577)">
<path d="M84.9184 21.3733C84.9184 21.3733 83.3971 21.6578 84.6467 19.1689C85.5523 17.3556 85.4617 15.2578 84.6467 14.1556C83.3427 12.36 80.7709 12.9467 81.0426 13.9778C81.9482 17.4978 79.9016 18.5467 78.833 20.7511C77.7464 23.0089 77.8731 26.1911 78.3621 29.0356C78.67 30.8133 79.4669 33 82.3647 33H86.3854L84.9184 21.3733Z" fill="#FFDD67"/>
<path d="M82.8176 32.5022C79.9198 32.5022 79.2678 30.3156 78.9599 28.5378C78.4709 25.6934 78.3804 23.4356 79.3403 21.1245C80.3726 18.6356 81.4593 18.5645 81.4593 13.6222C81.4593 13.3734 81.6042 13.2134 81.731 13.1067C81.242 13.2667 80.9703 13.5334 80.9703 13.9422C80.9703 17.64 79.8836 18.5467 78.815 20.7689C77.7465 23.0089 77.8733 26.1911 78.3623 29.0356C78.6702 30.8134 79.4671 33 82.3649 33H86.3856V32.5022H82.7995H82.8176Z" fill="#EBA352"/>
<path d="M89.8991 24.271H84.9185C83.1798 24.271 83.1798 21.3555 84.9185 21.3555H89.8991C91.6378 21.3555 91.6378 24.271 89.8991 24.271Z" fill="#FFDD67"/>
<path d="M90.2795 23.7912H85.2989C84.1217 23.7912 83.7414 22.4756 84.1579 21.6045C83.2342 22.2978 83.4697 24.2712 84.9005 24.2712H89.8811C90.4425 24.2712 90.8229 23.9689 91.0221 23.5423C90.8229 23.6845 90.5693 23.7912 90.2795 23.7912Z" fill="#EBA352"/>
<path d="M90.4243 27.1866H84.4476C82.3648 27.1866 82.3648 24.271 84.4476 24.271H90.4243C92.5071 24.271 92.5071 27.1866 90.4243 27.1866Z" fill="#FFDD67"/>
<path d="M90.8951 26.7067H84.9184C83.5057 26.7067 83.0529 25.3911 83.5419 24.52C82.419 25.2134 82.7269 27.1867 84.4475 27.1867H90.4242C91.0943 27.1867 91.5471 26.8845 91.8007 26.4578C91.5652 26.6 91.2573 26.7067 90.8951 26.7067Z" fill="#EBA352"/>
<path d="M89.8628 30.1023H84.8098C83.053 30.1023 83.053 27.1868 84.8098 27.1868H89.8628C91.6196 27.1868 91.6196 30.1023 89.8628 30.1023Z" fill="#FFDD67"/>
<path d="M90.2613 29.6222H85.2083C84.013 29.6222 83.6326 28.3067 84.0492 27.4355C83.1074 28.1289 83.361 30.1022 84.8099 30.1022H89.8629C90.4425 30.1022 90.8228 29.8 91.022 29.3733C90.8228 29.5155 90.5692 29.6222 90.2613 29.6222Z" fill="#EBA352"/>
<path d="M89.3194 33H86.0594C84.1758 33 84.1758 30.0845 86.0594 30.0845H89.3194C91.203 30.0845 91.203 33 89.3194 33Z" fill="#FFDD67"/>
<path d="M89.7542 32.5199H86.4941C85.2263 32.5199 84.8098 31.2044 85.2626 30.3333C84.2483 31.0266 84.52 32.9999 86.0776 32.9999H89.3376C89.9534 32.9999 90.3518 32.6977 90.5692 32.271C90.3518 32.4133 90.0802 32.5199 89.7542 32.5199Z" fill="#EBA352"/>
</g>
<mask id="mask0_490_4577" style="mask-type:alpha" maskUnits="userSpaceOnUse" x="118" y="11" width="24" height="24">
<rect x="118" y="11" width="24" height="24" fill="#D9D9D9"/>
</mask>
<g mask="url(#mask0_490_4577)">
<path d="M130 33C128.617 33 127.317 32.7375 126.1 32.2125C124.883 31.6875 123.825 30.975 122.925 30.075C122.025 29.175 121.312 28.1167 120.788 26.9C120.262 25.6833 120 24.3833 120 23C120 21.6167 120.262 20.3167 120.788 19.1C121.312 17.8833 122.025 16.825 122.925 15.925C123.825 15.025 124.883 14.3125 126.1 13.7875C127.317 13.2625 128.617 13 130 13C130.75 13 131.479 13.0792 132.188 13.2375C132.896 13.3958 133.567 13.625 134.2 13.925C134.133 14.0917 134.083 14.2667 134.05 14.45C134.017 14.6333 134 14.8167 134 15C134 15.2333 134.025 15.4542 134.075 15.6625C134.125 15.8708 134.192 16.0667 134.275 16.25C133.658 15.8667 132.992 15.5625 132.275 15.3375C131.558 15.1125 130.8 15 130 15C127.783 15 125.896 15.7792 124.338 17.3375C122.779 18.8958 122 20.7833 122 23C122 25.2167 122.779 27.1042 124.338 28.6625C125.896 30.2208 127.783 31 130 31C132.217 31 134.104 30.2208 135.663 28.6625C137.221 27.1042 138 25.2167 138 23C138 22.3333 137.921 21.6917 137.763 21.075C137.604 20.4583 137.383 19.875 137.1 19.325C137.367 19.5417 137.658 19.7083 137.975 19.825C138.292 19.9417 138.633 20 139 20C139.083 20 139.171 19.9958 139.263 19.9875C139.354 19.9792 139.442 19.9667 139.525 19.95C139.675 20.4333 139.792 20.9292 139.875 21.4375C139.958 21.9458 140 22.4667 140 23C140 24.3833 139.737 25.6833 139.212 26.9C138.688 28.1167 137.975 29.175 137.075 30.075C136.175 30.975 135.117 31.6875 133.9 32.2125C132.683 32.7375 131.383 33 130 33ZM133.5 22C133.933 22 134.292 21.8583 134.575 21.575C134.858 21.2917 135 20.9333 135 20.5C135 20.0667 134.858 19.7083 134.575 19.425C134.292 19.1417 133.933 19 133.5 19C133.067 19 132.708 19.1417 132.425 19.425C132.142 19.7083 132 20.0667 132 20.5C132 20.9333 132.142 21.2917 132.425 21.575C132.708 21.8583 133.067 22 133.5 22ZM126.5 22C126.933 22 127.292 21.8583 127.575 21.575C127.858 21.2917 128 20.9333 128 20.5C128 20.0667 127.858 19.7083 127.575 19.425C127.292 19.1417 126.933 19 126.5 19C126.067 19 125.708 19.1417 125.425 19.425C125.142 19.7083 125 20.0667 125 20.5C125 20.9333 125.142 21.2917 125.425 21.575C125.708 21.8583 126.067 22 126.5 22ZM130 28.5C131.183 28.5 132.229 28.175 133.137 27.525C134.046 26.875 134.7 26.0333 135.1 25H124.9C125.3 26.0333 125.954 26.875 126.863 27.525C127.771 28.175 128.817 28.5 130 28.5ZM138 16H137C136.717 16 136.479 15.9042 136.288 15.7125C136.096 15.5208 136 15.2833 136 15C136 14.7167 136.096 14.4792 136.288 14.2875C136.479 14.0958 136.717 14 137 14H138V13C138 12.7167 138.096 12.4792 138.288 12.2875C138.479 12.0958 138.717 12 139 12C139.283 12 139.521 12.0958 139.712 12.2875C139.904 12.4792 140 12.7167 140 13V14H141C141.283 14 141.521 14.0958 141.712 14.2875C141.904 14.4792 142 14.7167 142 15C142 15.2833 141.904 15.5208 141.712 15.7125C141.521 15.9042 141.283 16 141 16H140V17C140 17.2833 139.904 17.5208 139.712 17.7125C139.521 17.9042 139.283 18 139 18C138.717 18 138.479 17.9042 138.288 17.7125C138.096 17.5208 138 17.2833 138 17V16Z" fill="black"/>
</g>
<mask id="mask1_490_4577" style="mask-type:alpha" maskUnits="userSpaceOnUse" x="163" y="11" width="24" height="24">
<rect x="163" y="11" width="24" height="24" fill="#D9D9D9"/>
</mask>
<g mask="url(#mask1_490_4577)">
<path d="M170 25H180C180.283 25 180.521 24.904 180.712 24.712C180.904 24.5207 181 24.2833 181 24C181 23.7167 180.904 23.479 180.712 23.287C180.521 23.0957 180.283 23 180 23H170C169.717 23 169.479 23.0957 169.287 23.287C169.096 23.479 169 23.7167 169 24C169 24.2833 169.096 24.5207 169.287 24.712C169.479 24.904 169.717 25 170 25ZM170 22H180C180.283 22 180.521 21.904 180.712 21.712C180.904 21.5207 181 21.2833 181 21C181 20.7167 180.904 20.479 180.712 20.287C180.521 20.0957 180.283 20 180 20H170C169.717 20 169.479 20.0957 169.287 20.287C169.096 20.479 169 20.7167 169 21C169 21.2833 169.096 21.5207 169.287 21.712C169.479 21.904 169.717 22 170 22ZM170 19H180C180.283 19 180.521 18.9043 180.712 18.713C180.904 18.521 181 18.2833 181 18C181 17.7167 180.904 17.479 180.712 17.287C180.521 17.0957 180.283 17 180 17H170C169.717 17 169.479 17.0957 169.287 17.287C169.096 17.479 169 17.7167 169 18C169 18.2833 169.096 18.521 169.287 18.713C169.479 18.9043 169.717 19 170 19ZM183.3 31.3L181 29H167C166.45 29 165.979 28.8043 165.588 28.413C165.196 28.021 165 27.55 165 27V15C165 14.45 165.196 13.979 165.588 13.587C165.979 13.1957 166.45 13 167 13H183C183.55 13 184.021 13.1957 184.413 13.587C184.804 13.979 185 14.45 185 15V30.575C185 31.025 184.796 31.3373 184.388 31.512C183.979 31.6873 183.617 31.6167 183.3 31.3ZM167 15V27H181.825L183 28.175V15H167Z" fill="black"/>
</g>
<mask id="mask2_490_4577" style="mask-type:alpha" maskUnits="userSpaceOnUse" x="208" y="11" width="24" height="24">
<rect x="208" y="11" width="24" height="24" fill="#D9D9D9"/>
</mask>
<g mask="url(#mask2_490_4577)">
<path d="M220 31C219.45 31 218.979 30.8042 218.588 30.4125C218.196 30.0208 218 29.55 218 29C218 28.45 218.196 27.9792 218.588 27.5875C218.979 27.1958 219.45 27 220 27C220.55 27 221.021 27.1958 221.413 27.5875C221.804 27.9792 222 28.45 222 29C222 29.55 221.804 30.0208 221.413 30.4125C221.021 30.8042 220.55 31 220 31ZM220 25C219.45 25 218.979 24.8042 218.588 24.4125C218.196 24.0208 218 23.55 218 23C218 22.45 218.196 21.9792 218.588 21.5875C218.979 21.1958 219.45 21 220 21C220.55 21 221.021 21.1958 221.413 21.5875C221.804 21.9792 222 22.45 222 23C222 23.55 221.804 24.0208 221.413 24.4125C221.021 24.8042 220.55 25 220 25ZM220 19C219.45 19 218.979 18.8042 218.588 18.4125C218.196 18.0208 218 17.55 218 17C218 16.45 218.196 15.9792 218.588 15.5875C218.979 15.1958 219.45 15 220 15C220.55 15 221.021 15.1958 221.413 15.5875C221.804 15.9792 222 16.45 222 17C222 17.55 221.804 18.0208 221.413 18.4125C221.021 18.8042 220.55 19 220 19Z" fill="#1C1B1F"/>
</g>
<defs>
<clipPath id="clip0_490_4577">
<rect width="14" height="20" fill="white" transform="translate(78 13)"/>
</clipPath>
</defs>
</svg>
