<svg width="67" height="324" viewBox="0 0 67 324" fill="none" xmlns="http://www.w3.org/2000/svg">
<g filter="url(#filter0_d_1854_19335)">
<path d="M0 3H26C42.5685 3 56 16.4315 56 33V283C56 299.569 42.5685 313 26 313H0V3Z" fill="white"/>
<rect x="20" y="34" width="16" height="16" rx="1" stroke="black" stroke-width="2"/>
<path d="M25.7144 34V50" stroke="black" stroke-width="2"/>
<path d="M29.143 44.2857L31.0752 42.3535C31.2704 42.1583 31.2704 41.8417 31.0752 41.6464L29.143 39.7143" stroke="black" stroke-width="2" stroke-linecap="round"/>
<path d="M35.14 283.68C35.14 283.947 35.0733 284.16 34.94 284.32C34.8067 284.48 34.5933 284.613 34.3 284.72L21.86 289.08C21.5533 289.2 21.2933 289.187 21.08 289.04C20.8667 288.88 20.76 288.62 20.76 288.26C20.76 288.007 20.82 287.807 20.94 287.66C21.06 287.513 21.26 287.393 21.54 287.3L33.34 283.28L33.34 284L21.58 279.88C21.3 279.773 21.0933 279.647 20.96 279.5C20.8267 279.353 20.76 279.16 20.76 278.92C20.76 278.667 20.8267 278.473 20.96 278.34C21.0933 278.193 21.3067 278.073 21.6 277.98L33.34 273.94L33.34 274.58L21.54 270.52C21.2733 270.427 21.08 270.307 20.96 270.16C20.8267 270.013 20.76 269.807 20.76 269.54C20.76 269.233 20.8667 269.007 21.08 268.86C21.2933 268.713 21.5533 268.693 21.86 268.8L34.32 273.2C34.6 273.293 34.8067 273.42 34.94 273.58C35.0733 273.74 35.14 273.953 35.14 274.22C35.14 274.5 35.0733 274.72 34.94 274.88C34.8067 275.04 34.5933 275.173 34.3 275.28L23.1 279.18L23.1 278.74L34.32 282.66C34.6 282.767 34.8067 282.9 34.94 283.06C35.0733 283.207 35.14 283.413 35.14 283.68ZM35.18 263.521C35.18 264.481 34.9733 265.314 34.56 266.021C34.1467 266.728 33.56 267.274 32.8 267.661C32.04 268.048 31.1467 268.241 30.12 268.241C29.3467 268.241 28.6533 268.134 28.04 267.921C27.4133 267.694 26.88 267.374 26.44 266.961C26 266.548 25.6667 266.054 25.44 265.481C25.2 264.894 25.08 264.241 25.08 263.521C25.08 262.561 25.2867 261.728 25.7 261.021C26.1133 260.314 26.7 259.768 27.46 259.381C28.2067 258.994 29.0933 258.801 30.12 258.801C30.8933 258.801 31.5933 258.914 32.22 259.141C32.8467 259.354 33.38 259.668 33.82 260.081C34.26 260.494 34.6 260.994 34.84 261.581C35.0667 262.154 35.18 262.801 35.18 263.521ZM33.74 263.521C33.74 262.934 33.6 262.428 33.32 262.001C33.04 261.561 32.6333 261.228 32.1 261.001C31.5667 260.761 30.9067 260.641 30.12 260.641C28.9467 260.641 28.0533 260.901 27.44 261.421C26.8267 261.941 26.52 262.641 26.52 263.521C26.52 264.094 26.66 264.601 26.94 265.041C27.2067 265.468 27.6067 265.801 28.14 266.041C28.6733 266.281 29.3333 266.401 30.12 266.401C31.2933 266.401 32.1933 266.141 32.82 265.621C33.4333 265.088 33.74 264.388 33.74 263.521ZM35.14 255.53C35.14 255.836 35.06 256.07 34.9 256.23C34.74 256.39 34.5067 256.47 34.2 256.47L26.04 256.47C25.7333 256.47 25.5067 256.39 25.36 256.23C25.2 256.07 25.12 255.85 25.12 255.57C25.12 255.29 25.2 255.076 25.36 254.93C25.5067 254.77 25.7333 254.69 26.04 254.69L27.58 254.69L27.58 254.89C26.78 254.676 26.1733 254.276 25.76 253.69C25.3467 253.103 25.1133 252.363 25.06 251.47C25.0467 251.256 25.1 251.083 25.22 250.95C25.3267 250.816 25.5133 250.743 25.78 250.73C26.0333 250.716 26.24 250.776 26.4 250.91C26.5467 251.043 26.6333 251.25 26.66 251.53L26.68 251.89C26.7733 252.77 27.06 253.45 27.54 253.93C28.02 254.396 28.68 254.63 29.52 254.63L34.2 254.63C34.5067 254.63 34.74 254.71 34.9 254.87C35.06 255.016 35.14 255.236 35.14 255.53ZM35.14 248.265C35.14 248.545 35.06 248.765 34.9 248.925C34.74 249.085 34.5067 249.165 34.2 249.165L21.68 249.165C21.3733 249.165 21.1467 249.085 21 248.925C20.84 248.765 20.76 248.545 20.76 248.265C20.76 247.972 20.84 247.745 21 247.585C21.1467 247.425 21.3733 247.345 21.68 247.345L29.56 247.345L29.56 247.305L25.74 243.385C25.54 243.185 25.3867 243.005 25.28 242.845C25.1733 242.685 25.12 242.478 25.12 242.225C25.12 241.972 25.1867 241.778 25.32 241.645C25.44 241.512 25.6 241.445 25.8 241.445C25.9867 241.445 26.1733 241.538 26.36 241.725L30.4 245.885L29.5 245.885L33.88 241.345C34.0667 241.158 34.26 241.072 34.46 241.085C34.66 241.085 34.8267 241.158 34.96 241.305C35.08 241.438 35.14 241.618 35.14 241.845C35.14 242.112 35.0867 242.332 34.98 242.505C34.8733 242.665 34.7067 242.852 34.48 243.065L30.48 247.305L30.48 247.345L34.2 247.345C34.8267 247.345 35.14 247.652 35.14 248.265ZM35.18 235.825C35.18 236.425 35.1133 237.031 34.98 237.645C34.8333 238.245 34.5867 238.811 34.24 239.345C34.1467 239.491 34.0333 239.598 33.9 239.665C33.7533 239.718 33.6133 239.738 33.48 239.725C33.3333 239.698 33.2067 239.638 33.1 239.545C32.9933 239.451 32.9333 239.338 32.92 239.205C32.8933 239.058 32.9267 238.905 33.02 238.745C33.3133 238.225 33.52 237.725 33.64 237.245C33.76 236.751 33.82 236.265 33.82 235.785C33.82 235.051 33.6867 234.498 33.42 234.125C33.1533 233.751 32.8 233.565 32.36 233.565C31.9867 233.565 31.7 233.691 31.5 233.945C31.2867 234.185 31.1267 234.565 31.02 235.085L30.64 236.945C30.4533 237.771 30.1467 238.398 29.72 238.825C29.28 239.238 28.72 239.445 28.04 239.445C27.44 239.445 26.92 239.285 26.48 238.965C26.0267 238.631 25.68 238.171 25.44 237.585C25.2 236.998 25.08 236.325 25.08 235.565C25.08 234.978 25.16 234.425 25.32 233.905C25.4667 233.371 25.6933 232.891 26 232.465C26.0933 232.305 26.2133 232.205 26.36 232.165C26.4933 232.111 26.6333 232.105 26.78 232.145C26.9133 232.171 27.0267 232.231 27.12 232.325C27.2133 232.418 27.2733 232.538 27.3 232.685C27.3133 232.831 27.2733 232.991 27.18 233.165C26.9133 233.551 26.7267 233.951 26.62 234.365C26.5 234.765 26.44 235.165 26.44 235.565C26.44 236.285 26.58 236.831 26.86 237.205C27.14 237.565 27.5067 237.745 27.96 237.745C28.3067 237.745 28.5933 237.638 28.82 237.425C29.0467 237.198 29.2133 236.845 29.32 236.365L29.7 234.505C29.8867 233.638 30.1867 232.985 30.6 232.545C31 232.105 31.5467 231.885 32.24 231.885C33.1467 231.885 33.8667 232.245 34.4 232.965C34.92 233.671 35.18 234.625 35.18 235.825ZM38.74 228.617C38.74 228.897 38.66 229.117 38.5 229.277C38.34 229.437 38.1133 229.517 37.82 229.517L26.04 229.517C25.7333 229.517 25.5067 229.437 25.36 229.277C25.2 229.117 25.12 228.897 25.12 228.617C25.12 228.323 25.2 228.103 25.36 227.957C25.5067 227.797 25.7333 227.717 26.04 227.717L27.86 227.717L27.5 227.937C26.7667 227.723 26.18 227.303 25.74 226.677C25.3 226.05 25.08 225.297 25.08 224.417C25.08 223.55 25.2867 222.797 25.7 222.157C26.1 221.517 26.68 221.017 27.44 220.657C28.1867 220.297 29.08 220.117 30.12 220.117C31.1467 220.117 32.0467 220.297 32.82 220.657C33.58 221.003 34.1667 221.503 34.58 222.157C34.98 222.797 35.18 223.55 35.18 224.417C35.18 225.283 34.96 226.03 34.52 226.657C34.08 227.283 33.5 227.703 32.78 227.917L32.78 227.697L37.82 227.697C38.1133 227.697 38.34 227.777 38.5 227.937C38.66 228.097 38.74 228.323 38.74 228.617ZM33.74 224.837C33.74 224.263 33.6 223.763 33.32 223.337C33.04 222.897 32.6333 222.557 32.1 222.317C31.5667 222.077 30.9067 221.957 30.12 221.957C28.9467 221.957 28.0533 222.217 27.44 222.737C26.8267 223.257 26.52 223.957 26.52 224.837C26.52 225.423 26.66 225.937 26.94 226.377C27.2067 226.803 27.6067 227.137 28.14 227.377C28.6733 227.603 29.3333 227.717 30.12 227.717C31.2933 227.717 32.1933 227.457 32.82 226.937C33.4333 226.417 33.74 225.717 33.74 224.837ZM35.18 214.678C35.18 215.345 35.0467 215.952 34.78 216.498C34.5133 217.032 34.1533 217.452 33.7 217.758C33.2467 218.052 32.74 218.198 32.18 218.198C31.46 218.198 30.8933 218.018 30.48 217.658C30.0667 217.298 29.7733 216.692 29.6 215.838C29.4133 214.985 29.32 213.838 29.32 212.398L29.32 211.458L30.48 211.458L30.48 212.358C30.48 213.385 30.5267 214.198 30.62 214.798C30.7133 215.385 30.88 215.798 31.12 216.038C31.3467 216.278 31.6667 216.398 32.08 216.398C32.6 216.398 33.0267 216.218 33.36 215.858C33.6933 215.485 33.86 214.978 33.86 214.338C33.86 213.832 33.74 213.385 33.5 212.998C33.2467 212.612 32.9133 212.305 32.5 212.078C32.0733 211.852 31.5867 211.738 31.04 211.738L28.74 211.738C27.9533 211.738 27.3867 211.898 27.04 212.218C26.68 212.538 26.5 213.078 26.5 213.838C26.5 214.278 26.56 214.732 26.68 215.198C26.8 215.665 26.9867 216.152 27.24 216.658C27.3333 216.858 27.3667 217.032 27.34 217.178C27.3 217.325 27.22 217.445 27.1 217.538C26.9667 217.618 26.8267 217.665 26.68 217.678C26.52 217.678 26.3667 217.645 26.22 217.578C26.0733 217.498 25.9667 217.365 25.9 217.178C25.6067 216.592 25.4 216.012 25.28 215.438C25.1467 214.852 25.08 214.305 25.08 213.798C25.08 212.932 25.22 212.218 25.5 211.658C25.7667 211.098 26.1867 210.678 26.76 210.398C27.32 210.118 28.04 209.978 28.92 209.978L34.2 209.978C34.5067 209.978 34.74 210.052 34.9 210.198C35.06 210.345 35.14 210.558 35.14 210.838C35.14 211.105 35.06 211.318 34.9 211.478C34.74 211.625 34.5067 211.698 34.2 211.698L32.78 211.698L32.78 211.518C33.2733 211.625 33.7 211.825 34.06 212.118C34.42 212.412 34.7 212.778 34.9 213.218C35.0867 213.645 35.18 214.132 35.18 214.678ZM35.18 202.894C35.18 203.881 34.9733 204.734 34.56 205.454C34.1333 206.174 33.54 206.728 32.78 207.114C32.0067 207.501 31.1 207.694 30.06 207.694C29.2867 207.694 28.5933 207.588 27.98 207.374C27.3667 207.148 26.8467 206.828 26.42 206.414C25.98 206.001 25.6467 205.501 25.42 204.914C25.1933 204.314 25.08 203.641 25.08 202.894C25.08 202.428 25.1533 201.934 25.3 201.414C25.4467 200.894 25.6867 200.414 26.02 199.974C26.1267 199.828 26.2533 199.734 26.4 199.694C26.5333 199.654 26.6733 199.654 26.82 199.694C26.9667 199.721 27.0933 199.788 27.2 199.894C27.2933 199.988 27.3467 200.114 27.36 200.274C27.3733 200.421 27.3267 200.581 27.22 200.754C26.98 201.074 26.8067 201.414 26.7 201.774C26.5933 202.121 26.54 202.454 26.54 202.774C26.54 203.268 26.62 203.708 26.78 204.094C26.94 204.468 27.1733 204.788 27.48 205.054C27.7733 205.308 28.14 205.501 28.58 205.634C29.0067 205.768 29.5067 205.834 30.08 205.834C31.2133 205.834 32.1067 205.568 32.76 205.034C33.4 204.501 33.72 203.748 33.72 202.774C33.72 202.454 33.6733 202.121 33.58 201.774C33.4733 201.428 33.3 201.088 33.06 200.754C32.9533 200.581 32.9133 200.421 32.94 200.274C32.9533 200.128 33.0133 200.008 33.12 199.914C33.2133 199.808 33.3333 199.741 33.48 199.714C33.6133 199.688 33.7533 199.701 33.9 199.754C34.0467 199.794 34.1667 199.888 34.26 200.034C34.58 200.461 34.8133 200.928 34.96 201.434C35.1067 201.941 35.18 202.428 35.18 202.894ZM35.18 193.513C35.18 194.566 34.98 195.473 34.58 196.233C34.1667 196.979 33.5867 197.559 32.84 197.973C32.08 198.386 31.1867 198.593 30.16 198.593C29.1467 198.593 28.26 198.393 27.5 197.993C26.74 197.579 26.1467 197.019 25.72 196.313C25.2933 195.593 25.08 194.773 25.08 193.853C25.08 193.199 25.1933 192.613 25.42 192.093C25.6333 191.559 25.9467 191.106 26.36 190.733C26.7733 190.359 27.28 190.079 27.88 189.893C28.4667 189.693 29.1333 189.593 29.88 189.593C30.0933 189.593 30.26 189.659 30.38 189.793C30.4867 189.913 30.54 190.093 30.54 190.333L30.54 197.173L29.38 197.173L29.38 190.793L29.66 191.133C28.9667 191.133 28.38 191.239 27.9 191.453C27.4067 191.653 27.0333 191.953 26.78 192.353C26.5267 192.739 26.4 193.226 26.4 193.813C26.4 194.453 26.5533 194.999 26.86 195.453C27.1533 195.906 27.5733 196.253 28.12 196.493C28.6533 196.733 29.2733 196.853 29.98 196.853L30.1 196.853C31.3 196.853 32.2067 196.566 32.82 195.993C33.4333 195.419 33.74 194.593 33.74 193.513C33.74 193.086 33.6867 192.653 33.58 192.213C33.4733 191.759 33.28 191.326 33 190.913C32.88 190.713 32.8267 190.533 32.84 190.373C32.84 190.199 32.8933 190.059 33 189.953C33.0933 189.846 33.2133 189.779 33.36 189.753C33.4933 189.726 33.64 189.746 33.8 189.813C33.96 189.879 34.1 190.006 34.22 190.193C34.5267 190.633 34.7667 191.159 34.94 191.773C35.1 192.373 35.18 192.953 35.18 193.513ZM30.42 186.515C30.42 186.728 30.3467 186.908 30.2 187.055C30.0533 187.201 29.8733 187.275 29.66 187.275C29.4467 187.275 29.2733 187.201 29.14 187.055C28.9933 186.908 28.92 186.728 28.92 186.515L28.92 182.055C28.92 181.855 28.9933 181.681 29.14 181.535C29.2733 181.375 29.4467 181.295 29.66 181.295C29.8733 181.295 30.0533 181.375 30.2 181.535C30.3467 181.681 30.42 181.855 30.42 182.055L30.42 186.515ZM35.14 177.44C35.14 177.706 35.06 177.913 34.9 178.06C34.74 178.206 34.5267 178.28 34.26 178.28L21.64 178.28C21.36 178.28 21.1467 178.206 21 178.06C20.84 177.9 20.76 177.686 20.76 177.42C20.76 177.18 20.8067 176.993 20.9 176.86C20.9933 176.713 21.1533 176.58 21.38 176.46L31.44 171.1L31.44 171.72L21.38 166.36C21.1533 166.24 20.9933 166.113 20.9 165.98C20.8067 165.846 20.76 165.66 20.76 165.42C20.76 165.153 20.84 164.946 21 164.8C21.1467 164.653 21.36 164.58 21.64 164.58L34.26 164.58C34.5267 164.58 34.74 164.653 34.9 164.8C35.06 164.933 35.14 165.14 35.14 165.42C35.14 165.7 35.06 165.913 34.9 166.06C34.74 166.193 34.5267 166.26 34.26 166.26L23.48 166.26L23.48 165.82L32.46 170.62C32.6333 170.726 32.7667 170.84 32.86 170.96C32.94 171.066 32.98 171.22 32.98 171.42C32.98 171.606 32.9333 171.766 32.84 171.9C32.7467 172.02 32.62 172.126 32.46 172.22L23.46 177.08L23.46 176.6L34.26 176.6C34.5267 176.6 34.74 176.673 34.9 176.82C35.06 176.953 35.14 177.16 35.14 177.44ZM35.18 156.892C35.18 157.945 34.98 158.852 34.58 159.612C34.1667 160.358 33.5867 160.938 32.84 161.352C32.08 161.765 31.1867 161.972 30.16 161.972C29.1467 161.972 28.26 161.772 27.5 161.372C26.74 160.958 26.1467 160.398 25.72 159.692C25.2933 158.972 25.08 158.152 25.08 157.232C25.08 156.578 25.1933 155.992 25.42 155.472C25.6333 154.938 25.9467 154.485 26.36 154.112C26.7733 153.738 27.28 153.458 27.88 153.272C28.4667 153.072 29.1333 152.972 29.88 152.972C30.0933 152.972 30.26 153.038 30.38 153.172C30.4867 153.292 30.54 153.472 30.54 153.712L30.54 160.552L29.38 160.552L29.38 154.172L29.66 154.512C28.9667 154.512 28.38 154.618 27.9 154.832C27.4067 155.032 27.0333 155.332 26.78 155.732C26.5267 156.118 26.4 156.605 26.4 157.192C26.4 157.832 26.5533 158.378 26.86 158.832C27.1533 159.285 27.5733 159.632 28.12 159.872C28.6533 160.112 29.2733 160.232 29.98 160.232L30.1 160.232C31.3 160.232 32.2067 159.945 32.82 159.372C33.4333 158.798 33.74 157.972 33.74 156.892C33.74 156.465 33.6867 156.032 33.58 155.592C33.4733 155.138 33.28 154.705 33 154.292C32.88 154.092 32.8267 153.912 32.84 153.752C32.84 153.578 32.8933 153.438 33 153.332C33.0933 153.225 33.2133 153.158 33.36 153.132C33.4933 153.105 33.64 153.125 33.8 153.192C33.96 153.258 34.1 153.385 34.22 153.572C34.5267 154.012 34.7667 154.538 34.94 155.152C35.1 155.752 35.18 156.332 35.18 156.892ZM35.14 149.808C35.14 150.088 35.06 150.308 34.9 150.468C34.74 150.628 34.5067 150.708 34.2 150.708L26.04 150.708C25.7333 150.708 25.5067 150.628 25.36 150.468C25.2 150.308 25.12 150.088 25.12 149.808C25.12 149.528 25.2 149.315 25.36 149.168C25.5067 149.008 25.7333 148.928 26.04 148.928L27.68 148.928L27.38 149.148C26.62 148.868 26.0467 148.415 25.66 147.788C25.2733 147.148 25.08 146.421 25.08 145.608C25.08 144.821 25.22 144.175 25.5 143.668C25.78 143.161 26.2067 142.781 26.78 142.528C27.3533 142.275 28.08 142.148 28.96 142.148L34.2 142.148C34.5067 142.148 34.74 142.228 34.9 142.388C35.06 142.535 35.14 142.755 35.14 143.048C35.14 143.341 35.06 143.568 34.9 143.728C34.74 143.888 34.5067 143.968 34.2 143.968L29.06 143.968C28.1933 143.968 27.56 144.135 27.16 144.468C26.76 144.801 26.56 145.335 26.56 146.068C26.56 146.921 26.8267 147.608 27.36 148.128C27.88 148.635 28.5867 148.888 29.48 148.888L34.2 148.888C34.8267 148.888 35.14 149.195 35.14 149.808ZM35.18 135.783C35.18 136.569 35.0333 137.229 34.74 137.763C34.4467 138.283 34.0133 138.669 33.44 138.923C32.8667 139.176 32.1467 139.303 31.28 139.303L26.04 139.303C25.7333 139.303 25.5067 139.229 25.36 139.083C25.2 138.923 25.12 138.696 25.12 138.403C25.12 138.109 25.2 137.883 25.36 137.723C25.5067 137.563 25.7333 137.483 26.04 137.483L31.28 137.483C32.1067 137.483 32.72 137.316 33.12 136.983C33.5067 136.649 33.7 136.123 33.7 135.403C33.7 134.603 33.4333 133.956 32.9 133.463C32.3667 132.956 31.66 132.703 30.78 132.703L26.04 132.703C25.7333 132.703 25.5067 132.629 25.36 132.483C25.2 132.323 25.12 132.096 25.12 131.803C25.12 131.509 25.2 131.283 25.36 131.123C25.5067 130.963 25.7333 130.883 26.04 130.883L34.2 130.883C34.8267 130.883 35.14 131.176 35.14 131.763C35.14 132.056 35.06 132.283 34.9 132.443C34.74 132.589 34.5067 132.663 34.2 132.663L32.46 132.663L32.8 132.403C33.5733 132.669 34.1667 133.103 34.58 133.703C34.98 134.289 35.18 134.983 35.18 135.783ZM35.18 118.599C35.18 119.559 34.9733 120.393 34.56 121.099C34.1467 121.806 33.56 122.353 32.8 122.739C32.04 123.126 31.1467 123.319 30.12 123.319C29.3467 123.319 28.6533 123.213 28.04 122.999C27.4133 122.773 26.88 122.453 26.44 122.039C26 121.626 25.6667 121.133 25.44 120.559C25.2 119.973 25.08 119.319 25.08 118.599C25.08 117.639 25.2867 116.806 25.7 116.099C26.1133 115.393 26.7 114.846 27.46 114.459C28.2067 114.073 29.0933 113.879 30.12 113.879C30.8933 113.879 31.5933 113.993 32.22 114.219C32.8467 114.433 33.38 114.746 33.82 115.159C34.26 115.573 34.6 116.073 34.84 116.659C35.0667 117.233 35.18 117.879 35.18 118.599ZM33.74 118.599C33.74 118.013 33.6 117.506 33.32 117.079C33.04 116.639 32.6333 116.306 32.1 116.079C31.5667 115.839 30.9067 115.719 30.12 115.719C28.9467 115.719 28.0533 115.979 27.44 116.499C26.8267 117.019 26.52 117.719 26.52 118.599C26.52 119.173 26.66 119.679 26.94 120.119C27.2067 120.546 27.6067 120.879 28.14 121.119C28.6733 121.359 29.3333 121.479 30.12 121.479C31.2933 121.479 32.1933 121.219 32.82 120.699C33.4333 120.166 33.74 119.466 33.74 118.599ZM22.94 116.819C22.94 117.139 22.8533 117.386 22.68 117.559C22.5067 117.733 22.26 117.819 21.94 117.819C21.62 117.819 21.38 117.733 21.22 117.559C21.0467 117.386 20.96 117.139 20.96 116.819C20.96 116.499 21.0467 116.253 21.22 116.079C21.38 115.906 21.62 115.819 21.94 115.819C22.26 115.819 22.5067 115.906 22.68 116.079C22.8533 116.239 22.94 116.486 22.94 116.819ZM22.94 120.359C22.94 120.679 22.8533 120.933 22.68 121.119C22.5067 121.293 22.26 121.379 21.94 121.379C21.62 121.379 21.38 121.293 21.22 121.119C21.0467 120.933 20.96 120.679 20.96 120.359C20.96 120.039 21.0467 119.793 21.22 119.619C21.38 119.446 21.62 119.359 21.94 119.359C22.26 119.359 22.5067 119.446 22.68 119.619C22.8533 119.793 22.94 120.039 22.94 120.359ZM35.14 110.165C35.14 110.459 35.06 110.685 34.9 110.845C34.74 111.005 34.5067 111.085 34.2 111.085L26.66 111.085L26.66 112.285C26.66 112.525 26.6 112.712 26.48 112.845C26.3467 112.979 26.1733 113.045 25.96 113.045C25.7333 113.045 25.56 112.979 25.44 112.845C25.32 112.712 25.26 112.525 25.26 112.285L25.26 110.585L25.74 111.085L25 111.085C23.7067 111.085 22.7267 110.772 22.06 110.145C21.38 109.505 20.9867 108.572 20.88 107.345L20.84 106.725C20.8133 106.525 20.8467 106.365 20.94 106.245C21.02 106.125 21.1267 106.045 21.26 106.005C21.3933 105.965 21.5333 105.965 21.68 106.005C21.8133 106.032 21.9333 106.092 22.04 106.185C22.1467 106.279 22.2067 106.399 22.22 106.545L22.24 106.985C22.3067 107.785 22.5467 108.365 22.96 108.725C23.36 109.085 23.96 109.265 24.76 109.265L25.56 109.265L25.26 109.525L25.26 107.225C25.26 106.972 25.32 106.779 25.44 106.645C25.56 106.512 25.7333 106.445 25.96 106.445C26.1733 106.445 26.3467 106.512 26.48 106.645C26.6 106.779 26.66 106.972 26.66 107.225L26.66 109.265L34.2 109.265C34.8267 109.265 35.14 109.565 35.14 110.165ZM35.14 103.72C35.14 104.013 35.06 104.24 34.9 104.4C34.74 104.56 34.5067 104.64 34.2 104.64L26.66 104.64L26.66 105.84C26.66 106.08 26.6 106.267 26.48 106.4C26.3467 106.533 26.1733 106.6 25.96 106.6C25.7333 106.6 25.56 106.533 25.44 106.4C25.32 106.267 25.26 106.08 25.26 105.84L25.26 104.14L25.74 104.64L25 104.64C23.7067 104.64 22.7267 104.327 22.06 103.7C21.38 103.06 20.9867 102.127 20.88 100.9L20.84 100.28C20.8133 100.08 20.8467 99.9202 20.94 99.8002C21.02 99.6802 21.1267 99.6002 21.26 99.5602C21.3933 99.5202 21.5333 99.5202 21.68 99.5602C21.8133 99.5868 21.9333 99.6468 22.04 99.7402C22.1467 99.8335 22.2067 99.9535 22.22 100.1L22.24 100.54C22.3067 101.34 22.5467 101.92 22.96 102.28C23.36 102.64 23.96 102.82 24.76 102.82L25.56 102.82L25.26 103.08L25.26 100.78C25.26 100.527 25.32 100.333 25.44 100.2C25.56 100.067 25.7333 100 25.96 100C26.1733 100 26.3467 100.067 26.48 100.2C26.6 100.333 26.66 100.527 26.66 100.78L26.66 102.82L34.2 102.82C34.8267 102.82 35.14 103.12 35.14 103.72ZM35.14 97.5033C35.14 97.7833 35.06 98.0033 34.9 98.1633C34.74 98.3233 34.5067 98.4033 34.2 98.4033L26.04 98.4033C25.7333 98.4033 25.5067 98.3233 25.36 98.1633C25.2 98.0033 25.12 97.7833 25.12 97.5033C25.12 97.2233 25.2 97.0099 25.36 96.8633C25.5067 96.7033 25.7333 96.6233 26.04 96.6233L27.68 96.6233L27.38 96.8433C26.62 96.5633 26.0467 96.1099 25.66 95.4833C25.2733 94.8433 25.08 94.1166 25.08 93.3033C25.08 92.5166 25.22 91.8699 25.5 91.3633C25.78 90.8566 26.2067 90.4766 26.78 90.2233C27.3533 89.9699 28.08 89.8433 28.96 89.8433L34.2 89.8433C34.5067 89.8433 34.74 89.9233 34.9 90.0833C35.06 90.2299 35.14 90.4499 35.14 90.7433C35.14 91.0366 35.06 91.2633 34.9 91.4233C34.74 91.5833 34.5067 91.6633 34.2 91.6633L29.06 91.6633C28.1933 91.6633 27.56 91.8299 27.16 92.1633C26.76 92.4966 26.56 93.0299 26.56 93.7633C26.56 94.6166 26.8267 95.3033 27.36 95.8233C27.88 96.3299 28.5867 96.5833 29.48 96.5833L34.2 96.5833C34.8267 96.5833 35.14 96.8899 35.14 97.5033ZM35.18 82.458C35.18 83.5113 34.98 84.418 34.58 85.178C34.1667 85.9246 33.5867 86.5046 32.84 86.918C32.08 87.3313 31.1867 87.538 30.16 87.538C29.1467 87.538 28.26 87.338 27.5 86.938C26.74 86.5246 26.1467 85.9646 25.72 85.258C25.2933 84.538 25.08 83.718 25.08 82.798C25.08 82.1446 25.1933 81.558 25.42 81.038C25.6333 80.5046 25.9467 80.0513 26.36 79.678C26.7733 79.3046 27.28 79.0246 27.88 78.838C28.4667 78.638 29.1333 78.538 29.88 78.538C30.0933 78.538 30.26 78.6046 30.38 78.738C30.4867 78.858 30.54 79.038 30.54 79.278L30.54 86.118L29.38 86.118L29.38 79.738L29.66 80.078C28.9667 80.078 28.38 80.1846 27.9 80.398C27.4067 80.598 27.0333 80.898 26.78 81.298C26.5267 81.6846 26.4 82.1713 26.4 82.758C26.4 83.398 26.5533 83.9446 26.86 84.398C27.1533 84.8513 27.5733 85.198 28.12 85.438C28.6533 85.678 29.2733 85.798 29.98 85.798L30.1 85.798C31.3 85.798 32.2067 85.5113 32.82 84.938C33.4333 84.3646 33.74 83.538 33.74 82.458C33.74 82.0313 33.6867 81.598 33.58 81.158C33.4733 80.7046 33.28 80.2713 33 79.858C32.88 79.658 32.8267 79.478 32.84 79.318C32.84 79.1446 32.8933 79.0046 33 78.898C33.0933 78.7913 33.2133 78.7246 33.36 78.698C33.4933 78.6713 33.64 78.6913 33.8 78.758C33.96 78.8246 34.1 78.9513 34.22 79.138C34.5267 79.578 34.7667 80.1046 34.94 80.718C35.1 81.318 35.18 81.898 35.18 82.458ZM35.14 75.3744C35.14 75.6544 35.06 75.8744 34.9 76.0344C34.74 76.1944 34.5067 76.2744 34.2 76.2744L26.04 76.2744C25.7333 76.2744 25.5067 76.1944 25.36 76.0344C25.2 75.8744 25.12 75.6544 25.12 75.3744C25.12 75.0944 25.2 74.881 25.36 74.7344C25.5067 74.5744 25.7333 74.4944 26.04 74.4944L27.68 74.4944L27.38 74.7144C26.62 74.4344 26.0467 73.981 25.66 73.3544C25.2733 72.7144 25.08 71.9877 25.08 71.1744C25.08 70.3877 25.22 69.741 25.5 69.2344C25.78 68.7277 26.2067 68.3477 26.78 68.0944C27.3533 67.841 28.08 67.7144 28.96 67.7144L34.2 67.7144C34.5067 67.7144 34.74 67.7944 34.9 67.9544C35.06 68.101 35.14 68.321 35.14 68.6144C35.14 68.9077 35.06 69.1344 34.9 69.2944C34.74 69.4544 34.5067 69.5344 34.2 69.5344L29.06 69.5344C28.1933 69.5344 27.56 69.701 27.16 70.0344C26.76 70.3677 26.56 70.901 26.56 71.6344C26.56 72.4877 26.8267 73.1744 27.36 73.6944C27.88 74.201 28.5867 74.4544 29.48 74.4544L34.2 74.4544C34.8267 74.4544 35.14 74.761 35.14 75.3744Z" fill="black"/>
</g>
<defs>
<filter id="filter0_d_1854_19335" x="-3" y="0" width="70" height="324" filterUnits="userSpaceOnUse" color-interpolation-filters="sRGB">
<feFlood flood-opacity="0" result="BackgroundImageFix"/>
<feColorMatrix in="SourceAlpha" type="matrix" values="0 0 0 0 0 0 0 0 0 0 0 0 0 0 0 0 0 0 127 0" result="hardAlpha"/>
<feOffset dx="4" dy="4"/>
<feGaussianBlur stdDeviation="3.5"/>
<feComposite in2="hardAlpha" operator="out"/>
<feColorMatrix type="matrix" values="0 0 0 0 0 0 0 0 0 0 0 0 0 0 0 0 0 0 0.2 0"/>
<feBlend mode="normal" in2="BackgroundImageFix" result="effect1_dropShadow_1854_19335"/>
<feBlend mode="normal" in="SourceGraphic" in2="effect1_dropShadow_1854_19335" result="shape"/>
</filter>
</defs>
</svg>
