<svg width="66" height="46" viewBox="0 0 66 46" fill="none" xmlns="http://www.w3.org/2000/svg">
<path d="M23 0.5H41C54.531 0.5 65.5 11.469 65.5 25V45.5H23C10.5736 45.5 0.5 35.4264 0.5 23C0.5 10.5736 10.5736 0.5 23 0.5Z" fill="white"/>
<path d="M23 0.5H41C54.531 0.5 65.5 11.469 65.5 25V45.5H23C10.5736 45.5 0.5 35.4264 0.5 23C0.5 10.5736 10.5736 0.5 23 0.5Z" stroke="#ADB0D9"/>
<mask id="mask0_1817_19841" style="mask-type:alpha" maskUnits="userSpaceOnUse" x="21" y="11" width="24" height="24">
<rect x="21" y="11" width="24" height="24" fill="#D9D9D9"/>
</mask>
<g mask="url(#mask0_1817_19841)">
<path d="M33 33C31.6167 33 30.3167 32.7375 29.1 32.2125C27.8833 31.6875 26.825 30.975 25.925 30.075C25.025 29.175 24.3125 28.1167 23.7875 26.9C23.2625 25.6833 23 24.3833 23 23C23 21.6167 23.2625 20.3167 23.7875 19.1C24.3125 17.8833 25.025 16.825 25.925 15.925C26.825 15.025 27.8833 14.3125 29.1 13.7875C30.3167 13.2625 31.6167 13 33 13C33.75 13 34.4792 13.0792 35.1875 13.2375C35.8958 13.3958 36.5667 13.625 37.2 13.925C37.1333 14.0917 37.0833 14.2667 37.05 14.45C37.0167 14.6333 37 14.8167 37 15C37 15.2333 37.025 15.4542 37.075 15.6625C37.125 15.8708 37.1917 16.0667 37.275 16.25C36.6583 15.8667 35.9917 15.5625 35.275 15.3375C34.5583 15.1125 33.8 15 33 15C30.7833 15 28.8958 15.7792 27.3375 17.3375C25.7792 18.8958 25 20.7833 25 23C25 25.2167 25.7792 27.1042 27.3375 28.6625C28.8958 30.2208 30.7833 31 33 31C35.2167 31 37.1042 30.2208 38.6625 28.6625C40.2208 27.1042 41 25.2167 41 23C41 22.3333 40.9208 21.6917 40.7625 21.075C40.6042 20.4583 40.3833 19.875 40.1 19.325C40.3667 19.5417 40.6583 19.7083 40.975 19.825C41.2917 19.9417 41.6333 20 42 20C42.0833 20 42.1708 19.9958 42.2625 19.9875C42.3542 19.9792 42.4417 19.9667 42.525 19.95C42.675 20.4333 42.7917 20.9292 42.875 21.4375C42.9583 21.9458 43 22.4667 43 23C43 24.3833 42.7375 25.6833 42.2125 26.9C41.6875 28.1167 40.975 29.175 40.075 30.075C39.175 30.975 38.1167 31.6875 36.9 32.2125C35.6833 32.7375 34.3833 33 33 33ZM36.5 22C36.9333 22 37.2917 21.8583 37.575 21.575C37.8583 21.2917 38 20.9333 38 20.5C38 20.0667 37.8583 19.7083 37.575 19.425C37.2917 19.1417 36.9333 19 36.5 19C36.0667 19 35.7083 19.1417 35.425 19.425C35.1417 19.7083 35 20.0667 35 20.5C35 20.9333 35.1417 21.2917 35.425 21.575C35.7083 21.8583 36.0667 22 36.5 22ZM29.5 22C29.9333 22 30.2917 21.8583 30.575 21.575C30.8583 21.2917 31 20.9333 31 20.5C31 20.0667 30.8583 19.7083 30.575 19.425C30.2917 19.1417 29.9333 19 29.5 19C29.0667 19 28.7083 19.1417 28.425 19.425C28.1417 19.7083 28 20.0667 28 20.5C28 20.9333 28.1417 21.2917 28.425 21.575C28.7083 21.8583 29.0667 22 29.5 22ZM33 28.5C34.1833 28.5 35.2292 28.175 36.1375 27.525C37.0458 26.875 37.7 26.0333 38.1 25H27.9C28.3 26.0333 28.9542 26.875 29.8625 27.525C30.7708 28.175 31.8167 28.5 33 28.5ZM41 16H40C39.7167 16 39.4792 15.9042 39.2875 15.7125C39.0958 15.5208 39 15.2833 39 15C39 14.7167 39.0958 14.4792 39.2875 14.2875C39.4792 14.0958 39.7167 14 40 14H41V13C41 12.7167 41.0958 12.4792 41.2875 12.2875C41.4792 12.0958 41.7167 12 42 12C42.2833 12 42.5208 12.0958 42.7125 12.2875C42.9042 12.4792 43 12.7167 43 13V14H44C44.2833 14 44.5208 14.0958 44.7125 14.2875C44.9042 14.4792 45 14.7167 45 15C45 15.2833 44.9042 15.5208 44.7125 15.7125C44.5208 15.9042 44.2833 16 44 16H43V17C43 17.2833 42.9042 17.5208 42.7125 17.7125C42.5208 17.9042 42.2833 18 42 18C41.7167 18 41.4792 17.9042 41.2875 17.7125C41.0958 17.5208 41 17.2833 41 17V16Z" fill="black"/>
</g>
</svg>
