<svg width="534" height="314" viewBox="0 0 534 314" fill="none" xmlns="http://www.w3.org/2000/svg">
<g filter="url(#filter0_d_556_10162)">
<path d="M10 34C10 17.4315 23.4315 4 40 4H524V268C524 284.569 510.569 298 494 298H40C23.4315 298 10 284.569 10 268V34Z" fill="white" shape-rendering="crispEdges"/>
<path d="M53.408 71.5C52.912 71.5 52.528 71.364 52.256 71.092C51.984 70.804 51.848 70.412 51.848 69.916V56.068C51.848 55.556 51.976 55.172 52.232 54.916C52.504 54.644 52.888 54.508 53.384 54.508C53.88 54.508 54.256 54.644 54.512 54.916C54.784 55.172 54.92 55.556 54.92 56.068V68.884H61.88C62.312 68.884 62.64 68.996 62.864 69.22C63.104 69.444 63.224 69.764 63.224 70.18C63.224 70.596 63.104 70.924 62.864 71.164C62.64 71.388 62.312 71.5 61.88 71.5H53.408ZM70.7034 71.74C69.3754 71.74 68.2314 71.492 67.2714 70.996C66.3114 70.5 65.5674 69.796 65.0394 68.884C64.5274 67.972 64.2714 66.892 64.2714 65.644C64.2714 64.428 64.5194 63.364 65.0154 62.452C65.5274 61.54 66.2234 60.828 67.1034 60.316C67.9994 59.788 69.0154 59.524 70.1514 59.524C70.9834 59.524 71.7274 59.66 72.3834 59.932C73.0554 60.204 73.6234 60.596 74.0874 61.108C74.5674 61.62 74.9274 62.244 75.1674 62.98C75.4234 63.7 75.5514 64.516 75.5514 65.428C75.5514 65.716 75.4474 65.94 75.2394 66.1C75.0474 66.244 74.7674 66.316 74.3994 66.316H66.6954V64.588H73.4394L73.0554 64.948C73.0554 64.212 72.9434 63.596 72.7194 63.1C72.5114 62.604 72.1994 62.228 71.7834 61.972C71.3834 61.7 70.8794 61.564 70.2714 61.564C69.5994 61.564 69.0234 61.724 68.5434 62.044C68.0794 62.348 67.7194 62.788 67.4634 63.364C67.2234 63.924 67.1034 64.596 67.1034 65.38V65.548C67.1034 66.86 67.4074 67.844 68.0154 68.5C68.6394 69.14 69.5514 69.46 70.7514 69.46C71.1674 69.46 71.6314 69.412 72.1434 69.316C72.6714 69.204 73.1674 69.02 73.6314 68.764C73.9674 68.572 74.2634 68.492 74.5194 68.524C74.7754 68.54 74.9754 68.628 75.1194 68.788C75.2794 68.948 75.3754 69.148 75.4074 69.388C75.4394 69.612 75.3914 69.844 75.2634 70.084C75.1514 70.324 74.9514 70.532 74.6634 70.708C74.1034 71.06 73.4554 71.324 72.7194 71.5C71.9994 71.66 71.3274 71.74 70.7034 71.74ZM82.1752 71.74C81.1992 71.74 80.3912 71.564 79.7512 71.212C79.1112 70.844 78.6312 70.3 78.3112 69.58C78.0072 68.86 77.8552 67.964 77.8552 66.892V61.084C77.8552 60.572 77.9832 60.196 78.2392 59.956C78.4952 59.7 78.8632 59.572 79.3432 59.572C79.8232 59.572 80.1912 59.7 80.4472 59.956C80.7192 60.196 80.8552 60.572 80.8552 61.084V66.94C80.8552 67.772 81.0232 68.388 81.3592 68.788C81.6952 69.188 82.2312 69.388 82.9672 69.388C83.7672 69.388 84.4232 69.116 84.9352 68.572C85.4472 68.012 85.7032 67.276 85.7032 66.364V61.084C85.7032 60.572 85.8312 60.196 86.0872 59.956C86.3432 59.7 86.7112 59.572 87.1912 59.572C87.6712 59.572 88.0392 59.7 88.2952 59.956C88.5672 60.196 88.7032 60.572 88.7032 61.084V70.156C88.7032 71.18 88.2152 71.692 87.2392 71.692C86.7752 71.692 86.4152 71.564 86.1592 71.308C85.9032 71.036 85.7752 70.652 85.7752 70.156V68.332L86.1112 69.052C85.7752 69.916 85.2632 70.58 84.5752 71.044C83.9032 71.508 83.1032 71.74 82.1752 71.74ZM97.2016 71.74C96.1616 71.74 95.2896 71.564 94.5856 71.212C93.8976 70.86 93.3856 70.348 93.0496 69.676C92.7136 68.988 92.5456 68.14 92.5456 67.132V62.02H91.2976C90.9136 62.02 90.6176 61.924 90.4096 61.732C90.2016 61.524 90.0976 61.244 90.0976 60.892C90.0976 60.524 90.2016 60.244 90.4096 60.052C90.6176 59.86 90.9136 59.764 91.2976 59.764H92.5456V57.58C92.5456 57.084 92.6736 56.708 92.9296 56.452C93.2016 56.196 93.5776 56.068 94.0576 56.068C94.5376 56.068 94.9056 56.196 95.1616 56.452C95.4176 56.708 95.5456 57.084 95.5456 57.58V59.764H98.0896C98.4736 59.764 98.7696 59.86 98.9776 60.052C99.1856 60.244 99.2896 60.524 99.2896 60.892C99.2896 61.244 99.1856 61.524 98.9776 61.732C98.7696 61.924 98.4736 62.02 98.0896 62.02H95.5456V66.964C95.5456 67.732 95.7136 68.308 96.0496 68.692C96.3856 69.076 96.9296 69.268 97.6816 69.268C97.9536 69.268 98.1936 69.244 98.4016 69.196C98.6096 69.148 98.7936 69.116 98.9536 69.1C99.1456 69.084 99.3056 69.148 99.4336 69.292C99.5616 69.42 99.6256 69.692 99.6256 70.108C99.6256 70.428 99.5696 70.716 99.4576 70.972C99.3616 71.212 99.1776 71.38 98.9056 71.476C98.6976 71.54 98.4256 71.596 98.0896 71.644C97.7536 71.708 97.4576 71.74 97.2016 71.74ZM106.703 71.74C105.375 71.74 104.231 71.492 103.271 70.996C102.311 70.5 101.567 69.796 101.039 68.884C100.527 67.972 100.271 66.892 100.271 65.644C100.271 64.428 100.519 63.364 101.015 62.452C101.527 61.54 102.223 60.828 103.103 60.316C103.999 59.788 105.015 59.524 106.151 59.524C106.983 59.524 107.727 59.66 108.383 59.932C109.055 60.204 109.623 60.596 110.087 61.108C110.567 61.62 110.927 62.244 111.167 62.98C111.423 63.7 111.551 64.516 111.551 65.428C111.551 65.716 111.447 65.94 111.239 66.1C111.047 66.244 110.767 66.316 110.399 66.316H102.695V64.588H109.439L109.055 64.948C109.055 64.212 108.943 63.596 108.719 63.1C108.511 62.604 108.199 62.228 107.783 61.972C107.383 61.7 106.879 61.564 106.271 61.564C105.599 61.564 105.023 61.724 104.543 62.044C104.079 62.348 103.719 62.788 103.463 63.364C103.223 63.924 103.103 64.596 103.103 65.38V65.548C103.103 66.86 103.407 67.844 104.015 68.5C104.639 69.14 105.551 69.46 106.751 69.46C107.167 69.46 107.631 69.412 108.143 69.316C108.671 69.204 109.167 69.02 109.631 68.764C109.967 68.572 110.263 68.492 110.519 68.524C110.775 68.54 110.975 68.628 111.119 68.788C111.279 68.948 111.375 69.148 111.407 69.388C111.439 69.612 111.391 69.844 111.263 70.084C111.151 70.324 110.951 70.532 110.663 70.708C110.103 71.06 109.455 71.324 108.719 71.5C107.999 71.66 107.327 71.74 106.703 71.74ZM121.931 71.692C121.451 71.692 121.083 71.564 120.827 71.308C120.571 71.036 120.443 70.652 120.443 70.156V55.9C120.443 55.404 120.571 55.028 120.827 54.772C121.083 54.516 121.451 54.388 121.931 54.388C122.411 54.388 122.779 54.516 123.035 54.772C123.307 55.028 123.443 55.404 123.443 55.9V62.116H123.107C123.459 61.268 124.003 60.628 124.739 60.196C125.491 59.748 126.339 59.524 127.283 59.524C128.227 59.524 129.003 59.7 129.611 60.052C130.219 60.404 130.675 60.94 130.979 61.66C131.283 62.364 131.435 63.26 131.435 64.348V70.156C131.435 70.652 131.307 71.036 131.051 71.308C130.795 71.564 130.427 71.692 129.947 71.692C129.467 71.692 129.091 71.564 128.819 71.308C128.563 71.036 128.435 70.652 128.435 70.156V64.492C128.435 63.58 128.259 62.916 127.907 62.5C127.571 62.084 127.043 61.876 126.323 61.876C125.443 61.876 124.739 62.156 124.211 62.716C123.699 63.26 123.443 63.988 123.443 64.9V70.156C123.443 71.18 122.939 71.692 121.931 71.692ZM135.97 71.668C135.49 71.668 135.122 71.524 134.866 71.236C134.61 70.948 134.482 70.548 134.482 70.036V61.228C134.482 60.7 134.61 60.3 134.866 60.028C135.122 59.74 135.49 59.596 135.97 59.596C136.45 59.596 136.818 59.74 137.074 60.028C137.346 60.3 137.482 60.7 137.482 61.228V70.036C137.482 70.548 137.354 70.948 137.098 71.236C136.842 71.524 136.466 71.668 135.97 71.668ZM135.97 57.364C135.41 57.364 134.97 57.228 134.65 56.956C134.346 56.668 134.194 56.276 134.194 55.78C134.194 55.268 134.346 54.876 134.65 54.604C134.97 54.332 135.41 54.196 135.97 54.196C136.546 54.196 136.986 54.332 137.29 54.604C137.594 54.876 137.746 55.268 137.746 55.78C137.746 56.276 137.594 56.668 137.29 56.956C136.986 57.228 136.546 57.364 135.97 57.364ZM142.087 71.692C141.607 71.692 141.239 71.564 140.983 71.308C140.727 71.036 140.599 70.652 140.599 70.156V61.084C140.599 60.588 140.727 60.212 140.983 59.956C141.239 59.7 141.599 59.572 142.063 59.572C142.527 59.572 142.887 59.7 143.143 59.956C143.399 60.212 143.527 60.588 143.527 61.084V62.716L143.263 62.116C143.615 61.268 144.159 60.628 144.895 60.196C145.647 59.748 146.495 59.524 147.439 59.524C148.383 59.524 149.159 59.7 149.767 60.052C150.375 60.404 150.831 60.94 151.135 61.66C151.439 62.364 151.591 63.26 151.591 64.348V70.156C151.591 70.652 151.463 71.036 151.207 71.308C150.951 71.564 150.583 71.692 150.103 71.692C149.623 71.692 149.247 71.564 148.975 71.308C148.719 71.036 148.591 70.652 148.591 70.156V64.492C148.591 63.58 148.415 62.916 148.063 62.5C147.727 62.084 147.199 61.876 146.479 61.876C145.599 61.876 144.895 62.156 144.367 62.716C143.855 63.26 143.599 63.988 143.599 64.9V70.156C143.599 71.18 143.095 71.692 142.087 71.692ZM155.358 71.5C155.054 71.5 154.798 71.428 154.59 71.284C154.398 71.124 154.27 70.924 154.206 70.684C154.142 70.444 154.142 70.188 154.206 69.916C154.286 69.628 154.438 69.356 154.662 69.1L160.878 61.3V62.02H155.214C154.846 62.02 154.558 61.924 154.35 61.732C154.158 61.524 154.062 61.244 154.062 60.892C154.062 60.524 154.158 60.244 154.35 60.052C154.558 59.86 154.846 59.764 155.214 59.764H162.318C162.67 59.764 162.958 59.844 163.182 60.004C163.406 60.148 163.55 60.34 163.614 60.58C163.694 60.82 163.702 61.076 163.638 61.348C163.574 61.62 163.43 61.876 163.206 62.116L156.87 70.036V69.244H162.87C163.638 69.244 164.022 69.62 164.022 70.372C164.022 70.724 163.918 71.004 163.71 71.212C163.518 71.404 163.238 71.5 162.87 71.5H155.358ZM170.253 71.74C169.277 71.74 168.469 71.564 167.829 71.212C167.189 70.844 166.709 70.3 166.389 69.58C166.085 68.86 165.933 67.964 165.933 66.892V61.084C165.933 60.572 166.061 60.196 166.317 59.956C166.573 59.7 166.941 59.572 167.421 59.572C167.901 59.572 168.269 59.7 168.525 59.956C168.797 60.196 168.933 60.572 168.933 61.084V66.94C168.933 67.772 169.101 68.388 169.437 68.788C169.773 69.188 170.309 69.388 171.045 69.388C171.845 69.388 172.501 69.116 173.013 68.572C173.525 68.012 173.781 67.276 173.781 66.364V61.084C173.781 60.572 173.909 60.196 174.165 59.956C174.421 59.7 174.789 59.572 175.269 59.572C175.749 59.572 176.117 59.7 176.373 59.956C176.645 60.196 176.781 60.572 176.781 61.084V70.156C176.781 71.18 176.293 71.692 175.317 71.692C174.853 71.692 174.493 71.564 174.237 71.308C173.981 71.036 173.853 70.652 173.853 70.156V68.332L174.189 69.052C173.853 69.916 173.341 70.58 172.653 71.044C171.981 71.508 171.181 71.74 170.253 71.74ZM182.208 71.692C181.728 71.692 181.352 71.564 181.08 71.308C180.824 71.036 180.696 70.652 180.696 70.156V62.02H179.592C179.208 62.02 178.912 61.924 178.704 61.732C178.496 61.524 178.392 61.244 178.392 60.892C178.392 60.524 178.496 60.244 178.704 60.052C178.912 59.86 179.208 59.764 179.592 59.764H181.56L180.696 60.556V59.74C180.696 58.092 181.112 56.86 181.944 56.044C182.776 55.212 183.976 54.724 185.544 54.58L186.36 54.508C186.68 54.476 186.936 54.532 187.128 54.676C187.32 54.804 187.448 54.98 187.512 55.204C187.576 55.412 187.584 55.628 187.536 55.852C187.488 56.076 187.384 56.276 187.224 56.452C187.08 56.612 186.888 56.7 186.648 56.716L186.312 56.74C185.4 56.804 184.736 57.036 184.32 57.436C183.904 57.836 183.696 58.444 183.696 59.26V60.148L183.312 59.764H185.736C186.12 59.764 186.416 59.86 186.624 60.052C186.832 60.244 186.936 60.524 186.936 60.892C186.936 61.244 186.832 61.524 186.624 61.732C186.416 61.924 186.12 62.02 185.736 62.02H183.696V70.156C183.696 71.18 183.2 71.692 182.208 71.692ZM192.894 71.74C191.918 71.74 191.11 71.564 190.47 71.212C189.83 70.844 189.35 70.3 189.03 69.58C188.726 68.86 188.574 67.964 188.574 66.892V61.084C188.574 60.572 188.702 60.196 188.958 59.956C189.214 59.7 189.582 59.572 190.062 59.572C190.542 59.572 190.91 59.7 191.166 59.956C191.438 60.196 191.574 60.572 191.574 61.084V66.94C191.574 67.772 191.742 68.388 192.078 68.788C192.414 69.188 192.95 69.388 193.686 69.388C194.486 69.388 195.142 69.116 195.654 68.572C196.166 68.012 196.422 67.276 196.422 66.364V61.084C196.422 60.572 196.55 60.196 196.806 59.956C197.062 59.7 197.43 59.572 197.91 59.572C198.39 59.572 198.758 59.7 199.014 59.956C199.286 60.196 199.422 60.572 199.422 61.084V70.156C199.422 71.18 198.934 71.692 197.958 71.692C197.494 71.692 197.134 71.564 196.878 71.308C196.622 71.036 196.494 70.652 196.494 70.156V68.332L196.83 69.052C196.494 69.916 195.982 70.58 195.294 71.044C194.622 71.508 193.822 71.74 192.894 71.74ZM196.302 57.244C195.822 57.244 195.454 57.116 195.198 56.86C194.942 56.604 194.814 56.236 194.814 55.756C194.814 55.292 194.942 54.932 195.198 54.676C195.454 54.42 195.822 54.292 196.302 54.292C196.766 54.292 197.126 54.42 197.382 54.676C197.638 54.932 197.766 55.292 197.766 55.756C197.766 56.236 197.638 56.604 197.382 56.86C197.142 57.116 196.782 57.244 196.302 57.244ZM191.766 57.244C191.302 57.244 190.934 57.116 190.662 56.86C190.406 56.604 190.278 56.236 190.278 55.756C190.278 55.292 190.406 54.932 190.662 54.676C190.934 54.42 191.302 54.292 191.766 54.292C192.246 54.292 192.614 54.42 192.87 54.676C193.126 54.932 193.254 55.292 193.254 55.756C193.254 56.236 193.126 56.604 192.87 56.86C192.614 57.116 192.246 57.244 191.766 57.244ZM208.016 76.06C207.152 76.06 206.312 75.98 205.496 75.82C204.696 75.66 203.968 75.412 203.312 75.076C203.008 74.916 202.8 74.724 202.688 74.5C202.592 74.276 202.56 74.044 202.592 73.804C202.64 73.58 202.736 73.38 202.88 73.204C203.04 73.028 203.232 72.908 203.456 72.844C203.68 72.78 203.912 72.812 204.152 72.94C204.856 73.292 205.52 73.516 206.144 73.612C206.784 73.724 207.328 73.78 207.776 73.78C208.848 73.78 209.648 73.516 210.176 72.988C210.72 72.476 210.992 71.708 210.992 70.684V68.524H211.208C210.968 69.34 210.464 69.996 209.696 70.492C208.944 70.972 208.088 71.212 207.128 71.212C206.072 71.212 205.152 70.972 204.368 70.492C203.584 69.996 202.976 69.308 202.544 68.428C202.112 67.548 201.896 66.524 201.896 65.356C201.896 64.476 202.016 63.684 202.256 62.98C202.512 62.26 202.864 61.644 203.312 61.132C203.776 60.62 204.328 60.228 204.968 59.956C205.624 59.668 206.344 59.524 207.128 59.524C208.12 59.524 208.984 59.772 209.72 60.268C210.472 60.748 210.96 61.388 211.184 62.188L210.944 62.788V61.084C210.944 60.588 211.072 60.212 211.328 59.956C211.6 59.7 211.968 59.572 212.432 59.572C212.912 59.572 213.28 59.7 213.536 59.956C213.792 60.212 213.92 60.588 213.92 61.084V70.324C213.92 72.228 213.416 73.66 212.408 74.62C211.4 75.58 209.936 76.06 208.016 76.06ZM207.944 68.932C208.568 68.932 209.104 68.788 209.552 68.5C210 68.212 210.344 67.804 210.584 67.276C210.84 66.732 210.968 66.092 210.968 65.356C210.968 64.252 210.696 63.388 210.152 62.764C209.608 62.124 208.872 61.804 207.944 61.804C207.32 61.804 206.784 61.948 206.336 62.236C205.888 62.524 205.536 62.932 205.28 63.46C205.04 63.988 204.92 64.62 204.92 65.356C204.92 66.46 205.192 67.332 205.736 67.972C206.28 68.612 207.016 68.932 207.944 68.932ZM222.813 71.74C221.485 71.74 220.341 71.492 219.381 70.996C218.421 70.5 217.677 69.796 217.149 68.884C216.637 67.972 216.381 66.892 216.381 65.644C216.381 64.428 216.629 63.364 217.125 62.452C217.637 61.54 218.333 60.828 219.213 60.316C220.109 59.788 221.125 59.524 222.261 59.524C223.093 59.524 223.837 59.66 224.493 59.932C225.165 60.204 225.733 60.596 226.197 61.108C226.677 61.62 227.037 62.244 227.277 62.98C227.533 63.7 227.661 64.516 227.661 65.428C227.661 65.716 227.557 65.94 227.349 66.1C227.157 66.244 226.877 66.316 226.509 66.316H218.805V64.588H225.549L225.165 64.948C225.165 64.212 225.053 63.596 224.829 63.1C224.621 62.604 224.309 62.228 223.893 61.972C223.493 61.7 222.989 61.564 222.381 61.564C221.709 61.564 221.133 61.724 220.653 62.044C220.189 62.348 219.829 62.788 219.573 63.364C219.333 63.924 219.213 64.596 219.213 65.38V65.548C219.213 66.86 219.517 67.844 220.125 68.5C220.749 69.14 221.661 69.46 222.861 69.46C223.277 69.46 223.741 69.412 224.253 69.316C224.781 69.204 225.277 69.02 225.741 68.764C226.077 68.572 226.373 68.492 226.629 68.524C226.885 68.54 227.085 68.628 227.229 68.788C227.389 68.948 227.485 69.148 227.517 69.388C227.549 69.612 227.501 69.844 227.373 70.084C227.261 70.324 227.061 70.532 226.773 70.708C226.213 71.06 225.565 71.324 224.829 71.5C224.109 71.66 223.437 71.74 222.813 71.74ZM231.525 71.692C231.045 71.692 230.677 71.564 230.421 71.308C230.165 71.036 230.037 70.652 230.037 70.156V61.084C230.037 60.588 230.165 60.212 230.421 59.956C230.677 59.7 231.037 59.572 231.501 59.572C231.965 59.572 232.325 59.7 232.581 59.956C232.837 60.212 232.965 60.588 232.965 61.084V62.716L232.701 62.116C233.053 61.268 233.597 60.628 234.333 60.196C235.085 59.748 235.933 59.524 236.877 59.524C237.821 59.524 238.597 59.7 239.205 60.052C239.813 60.404 240.269 60.94 240.573 61.66C240.877 62.364 241.029 63.26 241.029 64.348V70.156C241.029 70.652 240.901 71.036 240.645 71.308C240.389 71.564 240.021 71.692 239.541 71.692C239.061 71.692 238.685 71.564 238.413 71.308C238.157 71.036 238.029 70.652 238.029 70.156V64.492C238.029 63.58 237.853 62.916 237.501 62.5C237.165 62.084 236.637 61.876 235.917 61.876C235.037 61.876 234.333 62.156 233.805 62.716C233.293 63.26 233.037 63.988 233.037 64.9V70.156C233.037 71.18 232.533 71.692 231.525 71.692Z" fill="black"/>
<mask id="mask0_556_10162" style="mask-type:alpha" maskUnits="userSpaceOnUse" x="452" y="52" width="24" height="24">
<rect x="452" y="52" width="24" height="24" fill="#D9D9D9"/>
</mask>
<g mask="url(#mask0_556_10162)">
<path d="M464 65.4L459.1 70.3C458.917 70.4833 458.683 70.575 458.4 70.575C458.117 70.575 457.883 70.4833 457.7 70.3C457.517 70.1167 457.425 69.8833 457.425 69.6C457.425 69.3167 457.517 69.0833 457.7 68.9L462.6 64L457.7 59.1C457.517 58.9167 457.425 58.6833 457.425 58.4C457.425 58.1167 457.517 57.8833 457.7 57.7C457.883 57.5167 458.117 57.425 458.4 57.425C458.683 57.425 458.917 57.5167 459.1 57.7L464 62.6L468.9 57.7C469.083 57.5167 469.317 57.425 469.6 57.425C469.883 57.425 470.117 57.5167 470.3 57.7C470.483 57.8833 470.575 58.1167 470.575 58.4C470.575 58.6833 470.483 58.9167 470.3 59.1L465.4 64L470.3 68.9C470.483 69.0833 470.575 69.3167 470.575 69.6C470.575 69.8833 470.483 70.1167 470.3 70.3C470.117 70.4833 469.883 70.575 469.6 70.575C469.317 70.575 469.083 70.4833 468.9 70.3L464 65.4Z" fill="black"/>
</g>
<mask id="mask1_556_10162" style="mask-type:alpha" maskUnits="userSpaceOnUse" x="50" y="89" width="24" height="25">
<rect x="50" y="89.5" width="24" height="24" fill="#D9D9D9"/>
</mask>
<g mask="url(#mask1_556_10162)">
<path d="M57.2499 109.5C56.9333 109.5 56.6749 109.375 56.4749 109.125C56.2749 108.875 56.2166 108.6 56.2999 108.3L56.9999 105.5H54.7749C54.4416 105.5 54.1749 105.371 53.9749 105.113C53.7749 104.854 53.7166 104.567 53.7999 104.25C53.8499 104.017 53.9666 103.833 54.1499 103.7C54.3333 103.567 54.5416 103.5 54.7749 103.5H57.4999L58.4999 99.5H55.7749C55.4416 99.5 55.1749 99.371 54.9749 99.113C54.7749 98.8543 54.7166 98.5667 54.7999 98.25C54.8499 98.0167 54.9666 97.8333 55.1499 97.7C55.3333 97.5667 55.5416 97.5 55.7749 97.5H58.9999L59.8249 94.225C59.8749 94.0083 59.9833 93.8333 60.1499 93.7C60.3166 93.5667 60.5166 93.5 60.7499 93.5C61.0666 93.5 61.3249 93.625 61.5249 93.875C61.7249 94.125 61.7833 94.4 61.6999 94.7L60.9999 97.5H64.9999L65.8249 94.225C65.8749 94.0083 65.9833 93.8333 66.1499 93.7C66.3166 93.5667 66.5166 93.5 66.7499 93.5C67.0666 93.5 67.3249 93.625 67.5249 93.875C67.7249 94.125 67.7833 94.4 67.6999 94.7L66.9999 97.5H69.2249C69.5583 97.5 69.8249 97.629 70.0249 97.887C70.2249 98.1457 70.2833 98.4333 70.1999 98.75C70.15 98.9833 70.0333 99.1667 69.8499 99.3C69.6666 99.4333 69.4583 99.5 69.2249 99.5H66.4999L65.4999 103.5H68.2249C68.5583 103.5 68.8249 103.629 69.0249 103.887C69.2249 104.146 69.2833 104.433 69.1999 104.75C69.1499 104.983 69.0333 105.167 68.8499 105.3C68.6666 105.433 68.4583 105.5 68.2249 105.5H64.9999L64.1749 108.775C64.1249 108.992 64.0166 109.167 63.8499 109.3C63.6833 109.433 63.4833 109.5 63.2499 109.5C62.9333 109.5 62.6749 109.375 62.4749 109.125C62.2749 108.875 62.2166 108.6 62.2999 108.3L62.9999 105.5H58.9999L58.1749 108.775C58.1249 108.992 58.0166 109.167 57.8499 109.3C57.6833 109.433 57.4833 109.5 57.2499 109.5ZM59.4999 103.5H63.4999L64.4999 99.5H60.4999L59.4999 103.5Z" fill="#797EF3"/>
</g>
<path d="M91.376 107C91.112 107 90.908 106.934 90.764 106.802C90.632 106.658 90.566 106.454 90.566 106.19V95.12C90.566 94.856 90.632 94.658 90.764 94.526C90.908 94.382 91.112 94.31 91.376 94.31H98.072C98.276 94.31 98.432 94.364 98.54 94.472C98.648 94.58 98.702 94.73 98.702 94.922C98.702 95.126 98.648 95.282 98.54 95.39C98.432 95.498 98.276 95.552 98.072 95.552H92.006V99.944H97.694C97.898 99.944 98.054 99.998 98.162 100.106C98.27 100.202 98.324 100.352 98.324 100.556C98.324 100.76 98.27 100.916 98.162 101.024C98.054 101.132 97.898 101.186 97.694 101.186H92.006V105.758H98.072C98.276 105.758 98.432 105.812 98.54 105.92C98.648 106.028 98.702 106.178 98.702 106.37C98.702 106.574 98.648 106.73 98.54 106.838C98.432 106.946 98.276 107 98.072 107H91.376ZM101.582 107.126C101.342 107.126 101.162 107.06 101.042 106.928C100.922 106.796 100.862 106.61 100.862 106.37V98.864C100.862 98.624 100.922 98.444 101.042 98.324C101.162 98.192 101.336 98.126 101.564 98.126C101.792 98.126 101.966 98.192 102.086 98.324C102.218 98.444 102.284 98.624 102.284 98.864V100.412L102.086 100.196C102.338 99.5 102.746 98.978 103.31 98.63C103.886 98.27 104.546 98.09 105.29 98.09C105.986 98.09 106.562 98.216 107.018 98.468C107.486 98.72 107.834 99.104 108.062 99.62C108.29 100.124 108.404 100.766 108.404 101.546V106.37C108.404 106.61 108.338 106.796 108.206 106.928C108.086 107.06 107.912 107.126 107.684 107.126C107.444 107.126 107.258 107.06 107.126 106.928C107.006 106.796 106.946 106.61 106.946 106.37V101.636C106.946 100.82 106.784 100.226 106.46 99.854C106.148 99.47 105.644 99.278 104.948 99.278C104.144 99.278 103.502 99.53 103.022 100.034C102.554 100.526 102.32 101.186 102.32 102.014V106.37C102.32 106.874 102.074 107.126 101.582 107.126ZM114.603 107.162C113.919 107.162 113.343 107.042 112.875 106.802C112.419 106.55 112.077 106.19 111.849 105.722C111.621 105.242 111.507 104.66 111.507 103.976V99.386H110.301C110.097 99.386 109.941 99.338 109.833 99.242C109.725 99.134 109.671 98.99 109.671 98.81C109.671 98.63 109.725 98.492 109.833 98.396C109.941 98.3 110.097 98.252 110.301 98.252H111.507V96.182C111.507 95.942 111.573 95.762 111.705 95.642C111.837 95.51 112.017 95.444 112.245 95.444C112.473 95.444 112.647 95.51 112.767 95.642C112.899 95.762 112.965 95.942 112.965 96.182V98.252H115.233C115.437 98.252 115.593 98.3 115.701 98.396C115.809 98.492 115.863 98.63 115.863 98.81C115.863 98.99 115.809 99.134 115.701 99.242C115.593 99.338 115.437 99.386 115.233 99.386H112.965V103.832C112.965 104.516 113.109 105.038 113.397 105.398C113.685 105.746 114.153 105.92 114.801 105.92C115.029 105.92 115.221 105.896 115.377 105.848C115.545 105.8 115.683 105.776 115.791 105.776C115.899 105.764 115.989 105.8 116.061 105.884C116.133 105.968 116.169 106.112 116.169 106.316C116.169 106.46 116.139 106.592 116.079 106.712C116.031 106.832 115.941 106.916 115.809 106.964C115.665 107.012 115.473 107.054 115.233 107.09C115.005 107.138 114.795 107.162 114.603 107.162ZM120.515 107.126C120.311 107.126 120.131 107.072 119.975 106.964C119.819 106.856 119.693 106.682 119.597 106.442L116.915 99.152C116.843 98.948 116.819 98.768 116.843 98.612C116.879 98.456 116.957 98.336 117.077 98.252C117.197 98.168 117.347 98.126 117.527 98.126C117.707 98.126 117.851 98.168 117.959 98.252C118.079 98.336 118.175 98.492 118.247 98.72L120.767 105.92H120.335L122.927 98.72C123.011 98.504 123.113 98.354 123.233 98.27C123.365 98.174 123.533 98.126 123.737 98.126C123.929 98.126 124.091 98.174 124.223 98.27C124.355 98.366 124.457 98.516 124.529 98.72L127.067 105.92H126.653L129.209 98.684C129.293 98.468 129.395 98.324 129.515 98.252C129.635 98.168 129.779 98.126 129.947 98.126C130.139 98.126 130.283 98.174 130.379 98.27C130.487 98.366 130.547 98.492 130.559 98.648C130.571 98.804 130.541 98.972 130.469 99.152L127.787 106.442C127.703 106.67 127.577 106.844 127.409 106.964C127.253 107.072 127.073 107.126 126.869 107.126C126.665 107.126 126.485 107.072 126.329 106.964C126.173 106.844 126.053 106.67 125.969 106.442L123.305 99.134H124.079L121.433 106.442C121.349 106.67 121.229 106.844 121.073 106.964C120.917 107.072 120.731 107.126 120.515 107.126ZM133.346 107.09C133.106 107.09 132.926 107.024 132.806 106.892C132.686 106.748 132.626 106.55 132.626 106.298V98.936C132.626 98.684 132.686 98.492 132.806 98.36C132.926 98.228 133.106 98.162 133.346 98.162C133.574 98.162 133.754 98.228 133.886 98.36C134.018 98.492 134.084 98.684 134.084 98.936V106.298C134.084 106.55 134.018 106.748 133.886 106.892C133.766 107.024 133.586 107.09 133.346 107.09ZM133.346 96.146C133.046 96.146 132.812 96.068 132.644 95.912C132.476 95.744 132.392 95.522 132.392 95.246C132.392 94.958 132.476 94.742 132.644 94.598C132.812 94.442 133.046 94.364 133.346 94.364C133.658 94.364 133.892 94.442 134.048 94.598C134.216 94.742 134.3 94.958 134.3 95.246C134.3 95.522 134.216 95.744 134.048 95.912C133.892 96.068 133.658 96.146 133.346 96.146ZM140.517 107.162C139.641 107.162 138.885 106.97 138.249 106.586C137.613 106.202 137.121 105.668 136.773 104.984C136.437 104.288 136.269 103.484 136.269 102.572C136.269 101.876 136.365 101.252 136.557 100.7C136.749 100.148 137.031 99.68 137.403 99.296C137.775 98.9 138.219 98.6 138.735 98.396C139.263 98.192 139.857 98.09 140.517 98.09C140.949 98.09 141.399 98.156 141.867 98.288C142.335 98.42 142.761 98.648 143.145 98.972C143.265 99.056 143.343 99.158 143.379 99.278C143.415 99.398 143.415 99.518 143.379 99.638C143.343 99.746 143.283 99.842 143.199 99.926C143.115 99.998 143.007 100.04 142.875 100.052C142.755 100.064 142.629 100.022 142.497 99.926C142.185 99.686 141.867 99.518 141.543 99.422C141.219 99.326 140.907 99.278 140.607 99.278C140.139 99.278 139.731 99.356 139.383 99.512C139.035 99.656 138.741 99.866 138.501 100.142C138.261 100.418 138.075 100.76 137.943 101.168C137.823 101.576 137.763 102.05 137.763 102.59C137.763 103.634 138.009 104.462 138.501 105.074C138.993 105.674 139.695 105.974 140.607 105.974C140.907 105.974 141.213 105.926 141.525 105.83C141.849 105.734 142.173 105.566 142.497 105.326C142.629 105.23 142.755 105.188 142.875 105.2C142.995 105.212 143.097 105.26 143.181 105.344C143.265 105.416 143.319 105.512 143.343 105.632C143.379 105.752 143.379 105.872 143.343 105.992C143.307 106.1 143.229 106.196 143.109 106.28C142.725 106.592 142.305 106.82 141.849 106.964C141.393 107.096 140.949 107.162 140.517 107.162ZM145.861 107.126C145.621 107.126 145.441 107.06 145.321 106.928C145.201 106.796 145.141 106.61 145.141 106.37V94.922C145.141 94.682 145.201 94.502 145.321 94.382C145.441 94.25 145.621 94.184 145.861 94.184C146.089 94.184 146.269 94.25 146.401 94.382C146.533 94.502 146.599 94.682 146.599 94.922V102.14H146.635L150.325 98.612C150.493 98.456 150.637 98.336 150.757 98.252C150.889 98.168 151.063 98.126 151.279 98.126C151.471 98.126 151.621 98.18 151.729 98.288C151.837 98.384 151.885 98.51 151.873 98.666C151.873 98.81 151.801 98.966 151.657 99.134L147.733 102.86V102.068L151.999 106.082C152.167 106.25 152.251 106.412 152.251 106.568C152.251 106.724 152.191 106.856 152.071 106.964C151.963 107.072 151.819 107.126 151.639 107.126C151.423 107.126 151.249 107.084 151.117 107C150.985 106.904 150.823 106.766 150.631 106.586L146.635 102.896H146.599V106.37C146.599 106.874 146.353 107.126 145.861 107.126ZM156.805 107.162C155.941 107.162 155.281 106.898 154.825 106.37C154.369 105.842 154.141 105.086 154.141 104.102V94.922C154.141 94.682 154.201 94.502 154.321 94.382C154.441 94.25 154.621 94.184 154.861 94.184C155.089 94.184 155.269 94.25 155.401 94.382C155.533 94.502 155.599 94.682 155.599 94.922V103.994C155.599 104.642 155.725 105.128 155.977 105.452C156.241 105.764 156.625 105.92 157.129 105.92C157.237 105.92 157.333 105.914 157.417 105.902C157.501 105.89 157.585 105.884 157.669 105.884C157.801 105.872 157.891 105.902 157.939 105.974C157.999 106.046 158.029 106.19 158.029 106.406C158.029 106.622 157.981 106.784 157.885 106.892C157.789 107 157.633 107.072 157.417 107.108C157.321 107.12 157.219 107.132 157.111 107.144C157.003 107.156 156.901 107.162 156.805 107.162ZM163.322 107.162C162.398 107.162 161.6 106.982 160.928 106.622C160.268 106.25 159.752 105.728 159.38 105.056C159.02 104.384 158.84 103.58 158.84 102.644C158.84 101.732 159.02 100.94 159.38 100.268C159.74 99.584 160.232 99.05 160.856 98.666C161.492 98.282 162.224 98.09 163.052 98.09C163.64 98.09 164.168 98.192 164.636 98.396C165.104 98.588 165.5 98.87 165.824 99.242C166.16 99.614 166.412 100.064 166.58 100.592C166.76 101.12 166.85 101.714 166.85 102.374C166.85 102.566 166.796 102.71 166.688 102.806C166.58 102.89 166.424 102.932 166.22 102.932H159.956V101.978H165.878L165.59 102.212C165.59 101.564 165.494 101.018 165.302 100.574C165.11 100.118 164.828 99.77 164.456 99.53C164.096 99.29 163.64 99.17 163.088 99.17C162.476 99.17 161.954 99.314 161.522 99.602C161.102 99.878 160.784 100.268 160.568 100.772C160.352 101.264 160.244 101.84 160.244 102.5V102.608C160.244 103.712 160.508 104.552 161.036 105.128C161.576 105.704 162.338 105.992 163.322 105.992C163.73 105.992 164.132 105.938 164.528 105.83C164.936 105.722 165.332 105.542 165.716 105.29C165.884 105.182 166.034 105.134 166.166 105.146C166.31 105.146 166.424 105.188 166.508 105.272C166.592 105.344 166.646 105.44 166.67 105.56C166.706 105.668 166.694 105.788 166.634 105.92C166.586 106.052 166.484 106.166 166.328 106.262C165.932 106.55 165.464 106.772 164.924 106.928C164.384 107.084 163.85 107.162 163.322 107.162ZM169.698 107.126C169.458 107.126 169.272 107.06 169.14 106.928C169.02 106.796 168.96 106.61 168.96 106.37V98.864C168.96 98.624 169.02 98.444 169.14 98.324C169.26 98.192 169.434 98.126 169.662 98.126C169.89 98.126 170.064 98.192 170.184 98.324C170.316 98.444 170.382 98.624 170.382 98.864V100.322H170.202C170.394 99.614 170.76 99.068 171.3 98.684C171.84 98.3 172.506 98.096 173.298 98.072C173.478 98.06 173.622 98.102 173.73 98.198C173.838 98.282 173.898 98.432 173.91 98.648C173.922 98.852 173.874 99.014 173.766 99.134C173.658 99.254 173.49 99.326 173.262 99.35L172.974 99.386C172.158 99.458 171.528 99.722 171.084 100.178C170.652 100.622 170.436 101.234 170.436 102.014V106.37C170.436 106.61 170.37 106.796 170.238 106.928C170.118 107.06 169.938 107.126 169.698 107.126ZM179.396 107.162C178.712 107.162 178.136 107.042 177.668 106.802C177.212 106.55 176.87 106.19 176.642 105.722C176.414 105.242 176.3 104.66 176.3 103.976V99.386H175.094C174.89 99.386 174.734 99.338 174.626 99.242C174.518 99.134 174.464 98.99 174.464 98.81C174.464 98.63 174.518 98.492 174.626 98.396C174.734 98.3 174.89 98.252 175.094 98.252H176.3V96.182C176.3 95.942 176.366 95.762 176.498 95.642C176.63 95.51 176.81 95.444 177.038 95.444C177.266 95.444 177.44 95.51 177.56 95.642C177.692 95.762 177.758 95.942 177.758 96.182V98.252H180.026C180.23 98.252 180.386 98.3 180.494 98.396C180.602 98.492 180.656 98.63 180.656 98.81C180.656 98.99 180.602 99.134 180.494 99.242C180.386 99.338 180.23 99.386 180.026 99.386H177.758V103.832C177.758 104.516 177.902 105.038 178.19 105.398C178.478 105.746 178.946 105.92 179.594 105.92C179.822 105.92 180.014 105.896 180.17 105.848C180.338 105.8 180.476 105.776 180.584 105.776C180.692 105.764 180.782 105.8 180.854 105.884C180.926 105.968 180.962 106.112 180.962 106.316C180.962 106.46 180.932 106.592 180.872 106.712C180.824 106.832 180.734 106.916 180.602 106.964C180.458 107.012 180.266 107.054 180.026 107.09C179.798 107.138 179.588 107.162 179.396 107.162ZM186.033 107.162C185.109 107.162 184.311 106.982 183.639 106.622C182.979 106.25 182.463 105.728 182.091 105.056C181.731 104.384 181.551 103.58 181.551 102.644C181.551 101.732 181.731 100.94 182.091 100.268C182.451 99.584 182.943 99.05 183.567 98.666C184.203 98.282 184.935 98.09 185.763 98.09C186.351 98.09 186.879 98.192 187.347 98.396C187.815 98.588 188.211 98.87 188.535 99.242C188.871 99.614 189.123 100.064 189.291 100.592C189.471 101.12 189.561 101.714 189.561 102.374C189.561 102.566 189.507 102.71 189.399 102.806C189.291 102.89 189.135 102.932 188.931 102.932H182.667V101.978H188.589L188.301 102.212C188.301 101.564 188.205 101.018 188.013 100.574C187.821 100.118 187.539 99.77 187.167 99.53C186.807 99.29 186.351 99.17 185.799 99.17C185.187 99.17 184.665 99.314 184.233 99.602C183.813 99.878 183.495 100.268 183.279 100.772C183.063 101.264 182.955 101.84 182.955 102.5V102.608C182.955 103.712 183.219 104.552 183.747 105.128C184.287 105.704 185.049 105.992 186.033 105.992C186.441 105.992 186.843 105.938 187.239 105.83C187.647 105.722 188.043 105.542 188.427 105.29C188.595 105.182 188.745 105.134 188.877 105.146C189.021 105.146 189.135 105.188 189.219 105.272C189.303 105.344 189.357 105.44 189.381 105.56C189.417 105.668 189.405 105.788 189.345 105.92C189.297 106.052 189.195 106.166 189.039 106.262C188.643 106.55 188.175 106.772 187.635 106.928C187.095 107.084 186.561 107.162 186.033 107.162ZM194.425 107.162C193.825 107.162 193.285 107.048 192.805 106.82C192.337 106.58 191.965 106.256 191.689 105.848C191.413 105.44 191.275 104.984 191.275 104.48C191.275 103.832 191.437 103.322 191.761 102.95C192.097 102.578 192.643 102.314 193.399 102.158C194.167 102.002 195.211 101.924 196.531 101.924H197.341V102.878H196.549C195.577 102.878 194.809 102.926 194.245 103.022C193.693 103.106 193.303 103.256 193.075 103.472C192.859 103.688 192.751 103.994 192.751 104.39C192.751 104.882 192.919 105.284 193.255 105.596C193.603 105.908 194.071 106.064 194.659 106.064C195.139 106.064 195.559 105.95 195.919 105.722C196.291 105.494 196.579 105.182 196.783 104.786C196.999 104.39 197.107 103.934 197.107 103.418V101.366C197.107 100.622 196.957 100.088 196.657 99.764C196.357 99.428 195.865 99.26 195.181 99.26C194.761 99.26 194.341 99.314 193.921 99.422C193.501 99.53 193.057 99.704 192.589 99.944C192.421 100.028 192.277 100.058 192.157 100.034C192.037 99.998 191.941 99.932 191.869 99.836C191.797 99.74 191.755 99.632 191.743 99.512C191.731 99.38 191.755 99.254 191.815 99.134C191.887 99.014 191.995 98.918 192.139 98.846C192.667 98.582 193.189 98.39 193.705 98.27C194.221 98.15 194.713 98.09 195.181 98.09C195.937 98.09 196.561 98.216 197.053 98.468C197.545 98.708 197.911 99.08 198.151 99.584C198.391 100.076 198.511 100.712 198.511 101.492V106.37C198.511 106.61 198.451 106.796 198.331 106.928C198.223 107.06 198.061 107.126 197.845 107.126C197.617 107.126 197.443 107.06 197.323 106.928C197.203 106.796 197.143 106.61 197.143 106.37V104.966H197.305C197.209 105.422 197.023 105.812 196.747 106.136C196.483 106.46 196.153 106.712 195.757 106.892C195.361 107.072 194.917 107.162 194.425 107.162ZM201.972 107.126C201.732 107.126 201.552 107.06 201.432 106.928C201.312 106.796 201.252 106.61 201.252 106.37V98.864C201.252 98.624 201.312 98.444 201.432 98.324C201.552 98.192 201.726 98.126 201.954 98.126C202.182 98.126 202.356 98.192 202.476 98.324C202.608 98.444 202.674 98.624 202.674 98.864V100.448L202.476 100.196C202.704 99.524 203.07 99.008 203.574 98.648C204.09 98.276 204.702 98.09 205.41 98.09C206.154 98.09 206.754 98.27 207.21 98.63C207.678 98.978 207.99 99.524 208.146 100.268H207.876C208.092 99.596 208.476 99.068 209.028 98.684C209.592 98.288 210.246 98.09 210.99 98.09C211.65 98.09 212.19 98.216 212.61 98.468C213.042 98.72 213.366 99.104 213.582 99.62C213.798 100.124 213.906 100.766 213.906 101.546V106.37C213.906 106.61 213.84 106.796 213.708 106.928C213.588 107.06 213.408 107.126 213.168 107.126C212.94 107.126 212.76 107.06 212.628 106.928C212.508 106.796 212.448 106.61 212.448 106.37V101.618C212.448 100.814 212.31 100.226 212.034 99.854C211.758 99.47 211.29 99.278 210.63 99.278C209.91 99.278 209.34 99.53 208.92 100.034C208.512 100.526 208.308 101.198 208.308 102.05V106.37C208.308 106.61 208.242 106.796 208.11 106.928C207.99 107.06 207.81 107.126 207.57 107.126C207.342 107.126 207.162 107.06 207.03 106.928C206.91 106.796 206.85 106.61 206.85 106.37V101.618C206.85 100.814 206.706 100.226 206.418 99.854C206.142 99.47 205.68 99.278 205.032 99.278C204.312 99.278 203.742 99.53 203.322 100.034C202.914 100.526 202.71 101.198 202.71 102.05V106.37C202.71 106.874 202.464 107.126 201.972 107.126Z" fill="#797EF3"/>
<rect x="50.5" y="134.5" width="433" height="54" rx="27" stroke="#ADB0D9"/>
<path d="M72.268 167.126C72.04 167.126 71.866 167.066 71.746 166.946C71.626 166.814 71.566 166.628 71.566 166.388V154.94C71.566 154.7 71.626 154.514 71.746 154.382C71.866 154.25 72.022 154.184 72.214 154.184C72.406 154.184 72.544 154.22 72.628 154.292C72.724 154.352 72.832 154.466 72.952 154.634L80.8 165.092H80.368V154.904C80.368 154.676 80.428 154.502 80.548 154.382C80.668 154.25 80.842 154.184 81.07 154.184C81.286 154.184 81.448 154.25 81.556 154.382C81.676 154.502 81.736 154.676 81.736 154.904V166.406C81.736 166.634 81.682 166.814 81.574 166.946C81.478 167.066 81.334 167.126 81.142 167.126C80.962 167.126 80.818 167.09 80.71 167.018C80.602 166.946 80.488 166.832 80.368 166.676L72.538 156.218H72.952V166.388C72.952 166.628 72.892 166.814 72.772 166.946C72.652 167.066 72.484 167.126 72.268 167.126ZM87.4462 167.162C86.8462 167.162 86.3062 167.048 85.8262 166.82C85.3582 166.58 84.9862 166.256 84.7102 165.848C84.4342 165.44 84.2962 164.984 84.2962 164.48C84.2962 163.832 84.4582 163.322 84.7822 162.95C85.1182 162.578 85.6642 162.314 86.4202 162.158C87.1882 162.002 88.2322 161.924 89.5522 161.924H90.3622V162.878H89.5702C88.5982 162.878 87.8302 162.926 87.2662 163.022C86.7142 163.106 86.3242 163.256 86.0962 163.472C85.8802 163.688 85.7722 163.994 85.7722 164.39C85.7722 164.882 85.9402 165.284 86.2762 165.596C86.6242 165.908 87.0922 166.064 87.6802 166.064C88.1602 166.064 88.5802 165.95 88.9402 165.722C89.3122 165.494 89.6002 165.182 89.8042 164.786C90.0202 164.39 90.1282 163.934 90.1282 163.418V161.366C90.1282 160.622 89.9782 160.088 89.6782 159.764C89.3782 159.428 88.8862 159.26 88.2022 159.26C87.7822 159.26 87.3622 159.314 86.9422 159.422C86.5222 159.53 86.0782 159.704 85.6102 159.944C85.4422 160.028 85.2982 160.058 85.1782 160.034C85.0582 159.998 84.9622 159.932 84.8902 159.836C84.8182 159.74 84.7762 159.632 84.7642 159.512C84.7522 159.38 84.7762 159.254 84.8362 159.134C84.9082 159.014 85.0162 158.918 85.1602 158.846C85.6882 158.582 86.2102 158.39 86.7262 158.27C87.2422 158.15 87.7342 158.09 88.2022 158.09C88.9582 158.09 89.5822 158.216 90.0742 158.468C90.5662 158.708 90.9322 159.08 91.1722 159.584C91.4122 160.076 91.5322 160.712 91.5322 161.492V166.37C91.5322 166.61 91.4722 166.796 91.3522 166.928C91.2442 167.06 91.0822 167.126 90.8662 167.126C90.6382 167.126 90.4642 167.06 90.3442 166.928C90.2242 166.796 90.1642 166.61 90.1642 166.37V164.966H90.3262C90.2302 165.422 90.0442 165.812 89.7682 166.136C89.5042 166.46 89.1742 166.712 88.7782 166.892C88.3822 167.072 87.9382 167.162 87.4462 167.162ZM94.9931 167.126C94.7531 167.126 94.5731 167.06 94.4531 166.928C94.3331 166.796 94.2731 166.61 94.2731 166.37V158.864C94.2731 158.624 94.3331 158.444 94.4531 158.324C94.5731 158.192 94.7471 158.126 94.9751 158.126C95.2031 158.126 95.3771 158.192 95.4971 158.324C95.6291 158.444 95.6951 158.624 95.6951 158.864V160.448L95.4971 160.196C95.7251 159.524 96.0911 159.008 96.5951 158.648C97.1111 158.276 97.7231 158.09 98.4311 158.09C99.1751 158.09 99.7751 158.27 100.231 158.63C100.699 158.978 101.011 159.524 101.167 160.268H100.897C101.113 159.596 101.497 159.068 102.049 158.684C102.613 158.288 103.267 158.09 104.011 158.09C104.671 158.09 105.211 158.216 105.631 158.468C106.063 158.72 106.387 159.104 106.603 159.62C106.819 160.124 106.927 160.766 106.927 161.546V166.37C106.927 166.61 106.861 166.796 106.729 166.928C106.609 167.06 106.429 167.126 106.189 167.126C105.961 167.126 105.781 167.06 105.649 166.928C105.529 166.796 105.469 166.61 105.469 166.37V161.618C105.469 160.814 105.331 160.226 105.055 159.854C104.779 159.47 104.311 159.278 103.651 159.278C102.931 159.278 102.361 159.53 101.941 160.034C101.533 160.526 101.329 161.198 101.329 162.05V166.37C101.329 166.61 101.263 166.796 101.131 166.928C101.011 167.06 100.831 167.126 100.591 167.126C100.363 167.126 100.183 167.06 100.051 166.928C99.9311 166.796 99.8711 166.61 99.8711 166.37V161.618C99.8711 160.814 99.7271 160.226 99.4391 159.854C99.1631 159.47 98.7011 159.278 98.0531 159.278C97.3331 159.278 96.7631 159.53 96.3431 160.034C95.9351 160.526 95.7311 161.198 95.7311 162.05V166.37C95.7311 166.874 95.4851 167.126 94.9931 167.126ZM113.595 167.162C112.671 167.162 111.873 166.982 111.201 166.622C110.541 166.25 110.025 165.728 109.653 165.056C109.293 164.384 109.113 163.58 109.113 162.644C109.113 161.732 109.293 160.94 109.653 160.268C110.013 159.584 110.505 159.05 111.129 158.666C111.765 158.282 112.497 158.09 113.325 158.09C113.913 158.09 114.441 158.192 114.909 158.396C115.377 158.588 115.773 158.87 116.097 159.242C116.433 159.614 116.685 160.064 116.853 160.592C117.033 161.12 117.123 161.714 117.123 162.374C117.123 162.566 117.069 162.71 116.961 162.806C116.853 162.89 116.697 162.932 116.493 162.932H110.229V161.978H116.151L115.863 162.212C115.863 161.564 115.767 161.018 115.575 160.574C115.383 160.118 115.101 159.77 114.729 159.53C114.369 159.29 113.913 159.17 113.361 159.17C112.749 159.17 112.227 159.314 111.795 159.602C111.375 159.878 111.057 160.268 110.841 160.772C110.625 161.264 110.517 161.84 110.517 162.5V162.608C110.517 163.712 110.781 164.552 111.309 165.128C111.849 165.704 112.611 165.992 113.595 165.992C114.003 165.992 114.405 165.938 114.801 165.83C115.209 165.722 115.605 165.542 115.989 165.29C116.157 165.182 116.307 165.134 116.439 165.146C116.583 165.146 116.697 165.188 116.781 165.272C116.865 165.344 116.919 165.44 116.943 165.56C116.979 165.668 116.967 165.788 116.907 165.92C116.859 166.052 116.757 166.166 116.601 166.262C116.205 166.55 115.737 166.772 115.197 166.928C114.657 167.084 114.123 167.162 113.595 167.162ZM127.816 167.162C126.892 167.162 126.094 166.982 125.422 166.622C124.762 166.25 124.246 165.728 123.874 165.056C123.514 164.384 123.334 163.58 123.334 162.644C123.334 161.732 123.514 160.94 123.874 160.268C124.234 159.584 124.726 159.05 125.35 158.666C125.986 158.282 126.718 158.09 127.546 158.09C128.134 158.09 128.662 158.192 129.13 158.396C129.598 158.588 129.994 158.87 130.318 159.242C130.654 159.614 130.906 160.064 131.074 160.592C131.254 161.12 131.344 161.714 131.344 162.374C131.344 162.566 131.29 162.71 131.182 162.806C131.074 162.89 130.918 162.932 130.714 162.932H124.45V161.978H130.372L130.084 162.212C130.084 161.564 129.988 161.018 129.796 160.574C129.604 160.118 129.322 159.77 128.95 159.53C128.59 159.29 128.134 159.17 127.582 159.17C126.97 159.17 126.448 159.314 126.016 159.602C125.596 159.878 125.278 160.268 125.062 160.772C124.846 161.264 124.738 161.84 124.738 162.5V162.608C124.738 163.712 125.002 164.552 125.53 165.128C126.07 165.704 126.832 165.992 127.816 165.992C128.224 165.992 128.626 165.938 129.022 165.83C129.43 165.722 129.826 165.542 130.21 165.29C130.378 165.182 130.528 165.134 130.66 165.146C130.804 165.146 130.918 165.188 131.002 165.272C131.086 165.344 131.14 165.44 131.164 165.56C131.2 165.668 131.188 165.788 131.128 165.92C131.08 166.052 130.978 166.166 130.822 166.262C130.426 166.55 129.958 166.772 129.418 166.928C128.878 167.084 128.344 167.162 127.816 167.162ZM134.174 167.09C133.934 167.09 133.754 167.024 133.634 166.892C133.514 166.748 133.454 166.55 133.454 166.298V158.936C133.454 158.684 133.514 158.492 133.634 158.36C133.754 158.228 133.934 158.162 134.174 158.162C134.402 158.162 134.582 158.228 134.714 158.36C134.846 158.492 134.912 158.684 134.912 158.936V166.298C134.912 166.55 134.846 166.748 134.714 166.892C134.594 167.024 134.414 167.09 134.174 167.09ZM134.174 156.146C133.874 156.146 133.64 156.068 133.472 155.912C133.304 155.744 133.22 155.522 133.22 155.246C133.22 154.958 133.304 154.742 133.472 154.598C133.64 154.442 133.874 154.364 134.174 154.364C134.486 154.364 134.72 154.442 134.876 154.598C135.044 154.742 135.128 154.958 135.128 155.246C135.128 155.522 135.044 155.744 134.876 155.912C134.72 156.068 134.486 156.146 134.174 156.146ZM138.358 167.126C138.118 167.126 137.938 167.06 137.818 166.928C137.698 166.796 137.638 166.61 137.638 166.37V158.864C137.638 158.624 137.698 158.444 137.818 158.324C137.938 158.192 138.112 158.126 138.34 158.126C138.568 158.126 138.742 158.192 138.862 158.324C138.994 158.444 139.06 158.624 139.06 158.864V160.412L138.862 160.196C139.114 159.5 139.522 158.978 140.086 158.63C140.662 158.27 141.322 158.09 142.066 158.09C142.762 158.09 143.338 158.216 143.794 158.468C144.262 158.72 144.61 159.104 144.838 159.62C145.066 160.124 145.18 160.766 145.18 161.546V166.37C145.18 166.61 145.114 166.796 144.982 166.928C144.862 167.06 144.688 167.126 144.46 167.126C144.22 167.126 144.034 167.06 143.902 166.928C143.782 166.796 143.722 166.61 143.722 166.37V161.636C143.722 160.82 143.56 160.226 143.236 159.854C142.924 159.47 142.42 159.278 141.724 159.278C140.92 159.278 140.278 159.53 139.798 160.034C139.33 160.526 139.096 161.186 139.096 162.014V166.37C139.096 166.874 138.85 167.126 138.358 167.126ZM151.738 170.402C151.102 170.402 150.478 170.324 149.866 170.168C149.266 170.024 148.72 169.79 148.228 169.466C148.084 169.382 147.988 169.28 147.94 169.16C147.904 169.04 147.898 168.92 147.922 168.8C147.946 168.692 148 168.59 148.084 168.494C148.168 168.41 148.264 168.356 148.372 168.332C148.492 168.308 148.612 168.326 148.732 168.386C149.26 168.71 149.764 168.932 150.244 169.052C150.724 169.172 151.198 169.232 151.666 169.232C152.518 169.232 153.16 169.004 153.592 168.548C154.036 168.092 154.258 167.432 154.258 166.568V164.534H154.438C154.258 165.23 153.874 165.782 153.286 166.19C152.71 166.598 152.032 166.802 151.252 166.802C150.448 166.802 149.752 166.622 149.164 166.262C148.576 165.89 148.12 165.374 147.796 164.714C147.484 164.054 147.328 163.292 147.328 162.428C147.328 161.78 147.418 161.192 147.598 160.664C147.778 160.124 148.036 159.668 148.372 159.296C148.72 158.912 149.134 158.618 149.614 158.414C150.106 158.198 150.652 158.09 151.252 158.09C152.044 158.09 152.728 158.294 153.304 158.702C153.88 159.098 154.252 159.638 154.42 160.322L154.24 160.538V158.864C154.24 158.624 154.3 158.444 154.42 158.324C154.552 158.192 154.732 158.126 154.96 158.126C155.2 158.126 155.38 158.192 155.5 158.324C155.62 158.444 155.68 158.624 155.68 158.864V166.37C155.68 167.702 155.344 168.704 154.672 169.376C154.012 170.06 153.034 170.402 151.738 170.402ZM151.522 165.614C152.086 165.614 152.572 165.488 152.98 165.236C153.388 164.972 153.7 164.6 153.916 164.12C154.144 163.64 154.258 163.076 154.258 162.428C154.258 161.456 154.012 160.688 153.52 160.124C153.028 159.548 152.362 159.26 151.522 159.26C150.97 159.26 150.49 159.392 150.082 159.656C149.674 159.908 149.356 160.274 149.128 160.754C148.912 161.222 148.804 161.78 148.804 162.428C148.804 163.4 149.05 164.174 149.542 164.75C150.034 165.326 150.694 165.614 151.522 165.614ZM162.357 167.162C161.433 167.162 160.635 166.982 159.963 166.622C159.303 166.25 158.787 165.728 158.415 165.056C158.055 164.384 157.875 163.58 157.875 162.644C157.875 161.732 158.055 160.94 158.415 160.268C158.775 159.584 159.267 159.05 159.891 158.666C160.527 158.282 161.259 158.09 162.087 158.09C162.675 158.09 163.203 158.192 163.671 158.396C164.139 158.588 164.535 158.87 164.859 159.242C165.195 159.614 165.447 160.064 165.615 160.592C165.795 161.12 165.885 161.714 165.885 162.374C165.885 162.566 165.831 162.71 165.723 162.806C165.615 162.89 165.459 162.932 165.255 162.932H158.991V161.978H164.913L164.625 162.212C164.625 161.564 164.529 161.018 164.337 160.574C164.145 160.118 163.863 159.77 163.491 159.53C163.131 159.29 162.675 159.17 162.123 159.17C161.511 159.17 160.989 159.314 160.557 159.602C160.137 159.878 159.819 160.268 159.603 160.772C159.387 161.264 159.279 161.84 159.279 162.5V162.608C159.279 163.712 159.543 164.552 160.071 165.128C160.611 165.704 161.373 165.992 162.357 165.992C162.765 165.992 163.167 165.938 163.563 165.83C163.971 165.722 164.367 165.542 164.751 165.29C164.919 165.182 165.069 165.134 165.201 165.146C165.345 165.146 165.459 165.188 165.543 165.272C165.627 165.344 165.681 165.44 165.705 165.56C165.741 165.668 165.729 165.788 165.669 165.92C165.621 166.052 165.519 166.166 165.363 166.262C164.967 166.55 164.499 166.772 163.959 166.928C163.419 167.084 162.885 167.162 162.357 167.162ZM172.423 167.162C171.631 167.162 170.947 166.958 170.371 166.55C169.807 166.142 169.429 165.596 169.237 164.912L169.435 164.714V166.37C169.435 166.61 169.369 166.796 169.237 166.928C169.117 167.06 168.943 167.126 168.715 167.126C168.475 167.126 168.295 167.06 168.175 166.928C168.055 166.796 167.995 166.61 167.995 166.37V154.922C167.995 154.682 168.055 154.502 168.175 154.382C168.295 154.25 168.475 154.184 168.715 154.184C168.943 154.184 169.123 154.25 169.255 154.382C169.387 154.502 169.453 154.682 169.453 154.922V160.286H169.237C169.441 159.614 169.825 159.08 170.389 158.684C170.953 158.288 171.631 158.09 172.423 158.09C173.215 158.09 173.899 158.276 174.475 158.648C175.051 159.008 175.495 159.53 175.807 160.214C176.131 160.886 176.293 161.69 176.293 162.626C176.293 163.55 176.131 164.354 175.807 165.038C175.495 165.71 175.045 166.232 174.457 166.604C173.881 166.976 173.203 167.162 172.423 167.162ZM172.117 165.992C172.669 165.992 173.143 165.86 173.539 165.596C173.947 165.332 174.259 164.948 174.475 164.444C174.703 163.94 174.817 163.334 174.817 162.626C174.817 161.534 174.571 160.7 174.079 160.124C173.599 159.548 172.945 159.26 172.117 159.26C171.577 159.26 171.103 159.392 170.695 159.656C170.287 159.908 169.969 160.286 169.741 160.79C169.525 161.282 169.417 161.894 169.417 162.626C169.417 163.706 169.663 164.54 170.155 165.128C170.647 165.704 171.301 165.992 172.117 165.992ZM182.431 167.162C181.507 167.162 180.709 166.982 180.037 166.622C179.377 166.25 178.861 165.728 178.489 165.056C178.129 164.384 177.949 163.58 177.949 162.644C177.949 161.732 178.129 160.94 178.489 160.268C178.849 159.584 179.341 159.05 179.965 158.666C180.601 158.282 181.333 158.09 182.161 158.09C182.749 158.09 183.277 158.192 183.745 158.396C184.213 158.588 184.609 158.87 184.933 159.242C185.269 159.614 185.521 160.064 185.689 160.592C185.869 161.12 185.959 161.714 185.959 162.374C185.959 162.566 185.905 162.71 185.797 162.806C185.689 162.89 185.533 162.932 185.329 162.932H179.065V161.978H184.987L184.699 162.212C184.699 161.564 184.603 161.018 184.411 160.574C184.219 160.118 183.937 159.77 183.565 159.53C183.205 159.29 182.749 159.17 182.197 159.17C181.585 159.17 181.063 159.314 180.631 159.602C180.211 159.878 179.893 160.268 179.677 160.772C179.461 161.264 179.353 161.84 179.353 162.5V162.608C179.353 163.712 179.617 164.552 180.145 165.128C180.685 165.704 181.447 165.992 182.431 165.992C182.839 165.992 183.241 165.938 183.637 165.83C184.045 165.722 184.441 165.542 184.825 165.29C184.993 165.182 185.143 165.134 185.275 165.146C185.419 165.146 185.533 165.188 185.617 165.272C185.701 165.344 185.755 165.44 185.779 165.56C185.815 165.668 185.803 165.788 185.743 165.92C185.695 166.052 185.593 166.166 185.437 166.262C185.041 166.55 184.573 166.772 184.033 166.928C183.493 167.084 182.959 167.162 182.431 167.162ZM188.789 167.126C188.549 167.126 188.369 167.06 188.249 166.928C188.129 166.796 188.069 166.61 188.069 166.37V158.864C188.069 158.624 188.129 158.444 188.249 158.324C188.369 158.192 188.543 158.126 188.771 158.126C188.999 158.126 189.173 158.192 189.293 158.324C189.425 158.444 189.491 158.624 189.491 158.864V160.412L189.293 160.196C189.545 159.5 189.953 158.978 190.517 158.63C191.093 158.27 191.753 158.09 192.497 158.09C193.193 158.09 193.769 158.216 194.225 158.468C194.693 158.72 195.041 159.104 195.269 159.62C195.497 160.124 195.611 160.766 195.611 161.546V166.37C195.611 166.61 195.545 166.796 195.413 166.928C195.293 167.06 195.119 167.126 194.891 167.126C194.651 167.126 194.465 167.06 194.333 166.928C194.213 166.796 194.153 166.61 194.153 166.37V161.636C194.153 160.82 193.991 160.226 193.667 159.854C193.355 159.47 192.851 159.278 192.155 159.278C191.351 159.278 190.709 159.53 190.229 160.034C189.761 160.526 189.527 161.186 189.527 162.014V166.37C189.527 166.874 189.281 167.126 188.789 167.126Z" fill="#686868"/>
<rect x="337" y="209" width="147" height="49" rx="24.5" fill="#686868"/>
<path d="M364.538 239.144C364.166 239.144 363.878 239.042 363.674 238.838C363.482 238.622 363.386 238.328 363.386 237.956V227.354C363.386 226.97 363.482 226.676 363.674 226.472C363.878 226.268 364.166 226.166 364.538 226.166C364.91 226.166 365.192 226.268 365.384 226.472C365.588 226.676 365.69 226.97 365.69 227.354V231.602H372.224V227.354C372.224 226.97 372.32 226.676 372.512 226.472C372.716 226.268 373.004 226.166 373.376 226.166C373.748 226.166 374.03 226.268 374.222 226.472C374.426 226.676 374.528 226.97 374.528 227.354V237.956C374.528 238.328 374.426 238.622 374.222 238.838C374.03 239.042 373.748 239.144 373.376 239.144C373.004 239.144 372.716 239.042 372.512 238.838C372.32 238.622 372.224 238.328 372.224 237.956V233.528H365.69V237.956C365.69 238.328 365.594 238.622 365.402 238.838C365.21 239.042 364.922 239.144 364.538 239.144ZM378.208 239.126C377.848 239.126 377.572 239.018 377.38 238.802C377.188 238.586 377.092 238.286 377.092 237.902V231.296C377.092 230.9 377.188 230.6 377.38 230.396C377.572 230.18 377.848 230.072 378.208 230.072C378.568 230.072 378.844 230.18 379.036 230.396C379.24 230.6 379.342 230.9 379.342 231.296V237.902C379.342 238.286 379.246 238.586 379.054 238.802C378.862 239.018 378.58 239.126 378.208 239.126ZM378.208 228.398C377.788 228.398 377.458 228.296 377.218 228.092C376.99 227.876 376.876 227.582 376.876 227.21C376.876 226.826 376.99 226.532 377.218 226.328C377.458 226.124 377.788 226.022 378.208 226.022C378.64 226.022 378.97 226.124 379.198 226.328C379.426 226.532 379.54 226.826 379.54 227.21C379.54 227.582 379.426 227.876 379.198 228.092C378.97 228.296 378.64 228.398 378.208 228.398ZM382.796 239.144C382.436 239.144 382.16 239.048 381.968 238.856C381.776 238.652 381.68 238.364 381.68 237.992V231.188C381.68 230.816 381.776 230.534 381.968 230.342C382.16 230.15 382.43 230.054 382.778 230.054C383.126 230.054 383.396 230.15 383.588 230.342C383.78 230.534 383.876 230.816 383.876 231.188V232.412L383.678 231.962C383.942 231.326 384.35 230.846 384.902 230.522C385.466 230.186 386.102 230.018 386.81 230.018C387.518 230.018 388.1 230.15 388.556 230.414C389.012 230.678 389.354 231.08 389.582 231.62C389.81 232.148 389.924 232.82 389.924 233.636V237.992C389.924 238.364 389.828 238.652 389.636 238.856C389.444 239.048 389.168 239.144 388.808 239.144C388.448 239.144 388.166 239.048 387.962 238.856C387.77 238.652 387.674 238.364 387.674 237.992V233.744C387.674 233.06 387.542 232.562 387.278 232.25C387.026 231.938 386.63 231.782 386.09 231.782C385.43 231.782 384.902 231.992 384.506 232.412C384.122 232.82 383.93 233.366 383.93 234.05V237.992C383.93 238.76 383.552 239.144 382.796 239.144ZM392.749 239C392.521 239 392.329 238.946 392.173 238.838C392.029 238.718 391.933 238.568 391.885 238.388C391.837 238.208 391.837 238.016 391.885 237.812C391.945 237.596 392.059 237.392 392.227 237.2L396.889 231.35V231.89H392.641C392.365 231.89 392.149 231.818 391.993 231.674C391.849 231.518 391.777 231.308 391.777 231.044C391.777 230.768 391.849 230.558 391.993 230.414C392.149 230.27 392.365 230.198 392.641 230.198H397.969C398.233 230.198 398.449 230.258 398.617 230.378C398.785 230.486 398.893 230.63 398.941 230.81C399.001 230.99 399.007 231.182 398.959 231.386C398.911 231.59 398.803 231.782 398.635 231.962L393.883 237.902V237.308H398.383C398.959 237.308 399.247 237.59 399.247 238.154C399.247 238.418 399.169 238.628 399.013 238.784C398.869 238.928 398.659 239 398.383 239H392.749ZM403.92 239.18C403.188 239.18 402.582 239.048 402.102 238.784C401.622 238.508 401.262 238.1 401.022 237.56C400.794 237.02 400.68 236.348 400.68 235.544V231.188C400.68 230.804 400.776 230.522 400.968 230.342C401.16 230.15 401.436 230.054 401.796 230.054C402.156 230.054 402.432 230.15 402.624 230.342C402.828 230.522 402.93 230.804 402.93 231.188V235.58C402.93 236.204 403.056 236.666 403.308 236.966C403.56 237.266 403.962 237.416 404.514 237.416C405.114 237.416 405.606 237.212 405.99 236.804C406.374 236.384 406.566 235.832 406.566 235.148V231.188C406.566 230.804 406.662 230.522 406.854 230.342C407.046 230.15 407.322 230.054 407.682 230.054C408.042 230.054 408.318 230.15 408.51 230.342C408.714 230.522 408.816 230.804 408.816 231.188V237.992C408.816 238.76 408.45 239.144 407.718 239.144C407.37 239.144 407.1 239.048 406.908 238.856C406.716 238.652 406.62 238.364 406.62 237.992V236.624L406.872 237.164C406.62 237.812 406.236 238.31 405.72 238.658C405.216 239.006 404.616 239.18 403.92 239.18ZM412.886 239.144C412.526 239.144 412.244 239.048 412.04 238.856C411.848 238.652 411.752 238.364 411.752 237.992V231.89H410.924C410.636 231.89 410.414 231.818 410.258 231.674C410.102 231.518 410.024 231.308 410.024 231.044C410.024 230.768 410.102 230.558 410.258 230.414C410.414 230.27 410.636 230.198 410.924 230.198H412.4L411.752 230.792V230.18C411.752 228.944 412.064 228.02 412.688 227.408C413.312 226.784 414.212 226.418 415.388 226.31L416 226.256C416.24 226.232 416.432 226.274 416.576 226.382C416.72 226.478 416.816 226.61 416.864 226.778C416.912 226.934 416.918 227.096 416.882 227.264C416.846 227.432 416.768 227.582 416.648 227.714C416.54 227.834 416.396 227.9 416.216 227.912L415.964 227.93C415.28 227.978 414.782 228.152 414.47 228.452C414.158 228.752 414.002 229.208 414.002 229.82V230.486L413.714 230.198H415.532C415.82 230.198 416.042 230.27 416.198 230.414C416.354 230.558 416.432 230.768 416.432 231.044C416.432 231.308 416.354 231.518 416.198 231.674C416.042 231.818 415.82 231.89 415.532 231.89H414.002V237.992C414.002 238.76 413.63 239.144 412.886 239.144ZM420.901 239.18C420.169 239.18 419.563 239.048 419.083 238.784C418.603 238.508 418.243 238.1 418.003 237.56C417.775 237.02 417.661 236.348 417.661 235.544V231.188C417.661 230.804 417.757 230.522 417.949 230.342C418.141 230.15 418.417 230.054 418.777 230.054C419.137 230.054 419.413 230.15 419.605 230.342C419.809 230.522 419.911 230.804 419.911 231.188V235.58C419.911 236.204 420.037 236.666 420.289 236.966C420.541 237.266 420.943 237.416 421.495 237.416C422.095 237.416 422.587 237.212 422.971 236.804C423.355 236.384 423.547 235.832 423.547 235.148V231.188C423.547 230.804 423.643 230.522 423.835 230.342C424.027 230.15 424.303 230.054 424.663 230.054C425.023 230.054 425.299 230.15 425.491 230.342C425.695 230.522 425.797 230.804 425.797 231.188V237.992C425.797 238.76 425.431 239.144 424.699 239.144C424.351 239.144 424.081 239.048 423.889 238.856C423.697 238.652 423.601 238.364 423.601 237.992V236.624L423.853 237.164C423.601 237.812 423.217 238.31 422.701 238.658C422.197 239.006 421.597 239.18 420.901 239.18ZM423.457 228.308C423.097 228.308 422.821 228.212 422.629 228.02C422.437 227.828 422.341 227.552 422.341 227.192C422.341 226.844 422.437 226.574 422.629 226.382C422.821 226.19 423.097 226.094 423.457 226.094C423.805 226.094 424.075 226.19 424.267 226.382C424.459 226.574 424.555 226.844 424.555 227.192C424.555 227.552 424.459 227.828 424.267 228.02C424.087 228.212 423.817 228.308 423.457 228.308ZM420.055 228.308C419.707 228.308 419.431 228.212 419.227 228.02C419.035 227.828 418.939 227.552 418.939 227.192C418.939 226.844 419.035 226.574 419.227 226.382C419.431 226.19 419.707 226.094 420.055 226.094C420.415 226.094 420.691 226.19 420.883 226.382C421.075 226.574 421.171 226.844 421.171 227.192C421.171 227.552 421.075 227.828 420.883 228.02C420.691 228.212 420.415 228.308 420.055 228.308ZM432.243 242.42C431.595 242.42 430.965 242.36 430.353 242.24C429.753 242.12 429.207 241.934 428.715 241.682C428.487 241.562 428.331 241.418 428.247 241.25C428.175 241.082 428.151 240.908 428.175 240.728C428.211 240.56 428.283 240.41 428.391 240.278C428.511 240.146 428.655 240.056 428.823 240.008C428.991 239.96 429.165 239.984 429.345 240.08C429.873 240.344 430.371 240.512 430.839 240.584C431.319 240.668 431.727 240.71 432.063 240.71C432.867 240.71 433.467 240.512 433.863 240.116C434.271 239.732 434.475 239.156 434.475 238.388V236.768H434.637C434.457 237.38 434.079 237.872 433.503 238.244C432.939 238.604 432.297 238.784 431.577 238.784C430.785 238.784 430.095 238.604 429.507 238.244C428.919 237.872 428.463 237.356 428.139 236.696C427.815 236.036 427.653 235.268 427.653 234.392C427.653 233.732 427.743 233.138 427.923 232.61C428.115 232.07 428.379 231.608 428.715 231.224C429.063 230.84 429.477 230.546 429.957 230.342C430.449 230.126 430.989 230.018 431.577 230.018C432.321 230.018 432.969 230.204 433.521 230.576C434.085 230.936 434.451 231.416 434.619 232.016L434.439 232.466V231.188C434.439 230.816 434.535 230.534 434.727 230.342C434.931 230.15 435.207 230.054 435.555 230.054C435.915 230.054 436.191 230.15 436.383 230.342C436.575 230.534 436.671 230.816 436.671 231.188V238.118C436.671 239.546 436.293 240.62 435.537 241.34C434.781 242.06 433.683 242.42 432.243 242.42ZM432.189 237.074C432.657 237.074 433.059 236.966 433.395 236.75C433.731 236.534 433.989 236.228 434.169 235.832C434.361 235.424 434.457 234.944 434.457 234.392C434.457 233.564 434.253 232.916 433.845 232.448C433.437 231.968 432.885 231.728 432.189 231.728C431.721 231.728 431.319 231.836 430.983 232.052C430.647 232.268 430.383 232.574 430.191 232.97C430.011 233.366 429.921 233.84 429.921 234.392C429.921 235.22 430.125 235.874 430.533 236.354C430.941 236.834 431.493 237.074 432.189 237.074ZM443.34 239.18C442.344 239.18 441.486 238.994 440.766 238.622C440.046 238.25 439.488 237.722 439.092 237.038C438.708 236.354 438.516 235.544 438.516 234.608C438.516 233.696 438.702 232.898 439.074 232.214C439.458 231.53 439.98 230.996 440.64 230.612C441.312 230.216 442.074 230.018 442.926 230.018C443.55 230.018 444.108 230.12 444.6 230.324C445.104 230.528 445.53 230.822 445.878 231.206C446.238 231.59 446.508 232.058 446.688 232.61C446.88 233.15 446.976 233.762 446.976 234.446C446.976 234.662 446.898 234.83 446.742 234.95C446.598 235.058 446.388 235.112 446.112 235.112H440.334V233.816H445.392L445.104 234.086C445.104 233.534 445.02 233.072 444.852 232.7C444.696 232.328 444.462 232.046 444.15 231.854C443.85 231.65 443.472 231.548 443.016 231.548C442.512 231.548 442.08 231.668 441.72 231.908C441.372 232.136 441.102 232.466 440.91 232.898C440.73 233.318 440.64 233.822 440.64 234.41V234.536C440.64 235.52 440.868 236.258 441.324 236.75C441.792 237.23 442.476 237.47 443.376 237.47C443.688 237.47 444.036 237.434 444.42 237.362C444.816 237.278 445.188 237.14 445.536 236.948C445.788 236.804 446.01 236.744 446.202 236.768C446.394 236.78 446.544 236.846 446.652 236.966C446.772 237.086 446.844 237.236 446.868 237.416C446.892 237.584 446.856 237.758 446.76 237.938C446.676 238.118 446.526 238.274 446.31 238.406C445.89 238.67 445.404 238.868 444.852 239C444.312 239.12 443.808 239.18 443.34 239.18ZM449.874 239.144C449.514 239.144 449.238 239.048 449.046 238.856C448.854 238.652 448.758 238.364 448.758 237.992V231.188C448.758 230.816 448.854 230.534 449.046 230.342C449.238 230.15 449.508 230.054 449.856 230.054C450.204 230.054 450.474 230.15 450.666 230.342C450.858 230.534 450.954 230.816 450.954 231.188V232.412L450.756 231.962C451.02 231.326 451.428 230.846 451.98 230.522C452.544 230.186 453.18 230.018 453.888 230.018C454.596 230.018 455.178 230.15 455.634 230.414C456.09 230.678 456.432 231.08 456.66 231.62C456.888 232.148 457.002 232.82 457.002 233.636V237.992C457.002 238.364 456.906 238.652 456.714 238.856C456.522 239.048 456.246 239.144 455.886 239.144C455.526 239.144 455.244 239.048 455.04 238.856C454.848 238.652 454.752 238.364 454.752 237.992V233.744C454.752 233.06 454.62 232.562 454.356 232.25C454.104 231.938 453.708 231.782 453.168 231.782C452.508 231.782 451.98 231.992 451.584 232.412C451.2 232.82 451.008 233.366 451.008 234.05V237.992C451.008 238.76 450.63 239.144 449.874 239.144Z" fill="white"/>
</g>
<defs>
<filter id="filter0_d_556_10162" x="0" y="0" width="534" height="314" filterUnits="userSpaceOnUse" color-interpolation-filters="sRGB">
<feFlood flood-opacity="0" result="BackgroundImageFix"/>
<feColorMatrix in="SourceAlpha" type="matrix" values="0 0 0 0 0 0 0 0 0 0 0 0 0 0 0 0 0 0 127 0" result="hardAlpha"/>
<feOffset dy="6"/>
<feGaussianBlur stdDeviation="5"/>
<feComposite in2="hardAlpha" operator="out"/>
<feColorMatrix type="matrix" values="0 0 0 0 0 0 0 0 0 0 0 0 0 0 0 0 0 0 0.2 0"/>
<feBlend mode="normal" in2="BackgroundImageFix" result="effect1_dropShadow_556_10162"/>
<feBlend mode="normal" in="SourceGraphic" in2="effect1_dropShadow_556_10162" result="shape"/>
</filter>
</defs>
</svg>
