<svg width="306" height="46" viewBox="0 0 306 46" fill="none" xmlns="http://www.w3.org/2000/svg">
<mask id="mask0_172401_16240" style="mask-type:alpha" maskUnits="userSpaceOnUse" x="0" y="8" width="30" height="30">
<rect y="8" width="30" height="30" fill="#D9D9D9"/>
</mask>
<g mask="url(#mask0_172401_16240)">
<path d="M14.1251 25.875L10.8751 22.625C10.4792 22.2292 10.3909 21.7762 10.6101 21.2662C10.8284 20.7554 11.2188 20.5 11.7813 20.5H18.2188C18.7813 20.5 19.1717 20.7554 19.3901 21.2662C19.6092 21.7762 19.5209 22.2292 19.1251 22.625L15.8751 25.875C15.7501 26 15.6147 26.0937 15.4688 26.1562C15.323 26.2187 15.1667 26.25 15.0001 26.25C14.8334 26.25 14.6772 26.2187 14.5313 26.1562C14.3855 26.0937 14.2501 26 14.1251 25.875Z" fill="black"/>
</g>
<mask id="mask1_172401_16240" style="mask-type:alpha" maskUnits="userSpaceOnUse" x="45" y="11" width="24" height="24">
<rect x="45" y="11" width="24" height="24" fill="#D9D9D9"/>
</mask>
<g mask="url(#mask1_172401_16240)">
<path d="M51 32C49.9 32 48.9583 31.6083 48.175 30.825C47.3917 30.0417 47 29.1 47 28C47 26.9 47.3917 25.9583 48.175 25.175C48.9583 24.3917 49.9 24 51 24C52.1 24 53.0417 24.3917 53.825 25.175C54.6083 25.9583 55 26.9 55 28C55 29.1 54.6083 30.0417 53.825 30.825C53.0417 31.6083 52.1 32 51 32ZM63 32C61.9 32 60.9583 31.6083 60.175 30.825C59.3917 30.0417 59 29.1 59 28C59 26.9 59.3917 25.9583 60.175 25.175C60.9583 24.3917 61.9 24 63 24C64.1 24 65.0417 24.3917 65.825 25.175C66.6083 25.9583 67 26.9 67 28C67 29.1 66.6083 30.0417 65.825 30.825C65.0417 31.6083 64.1 32 63 32ZM51 30C51.55 30 52.0207 29.8043 52.412 29.413C52.804 29.021 53 28.55 53 28C53 27.45 52.804 26.9793 52.412 26.588C52.0207 26.196 51.55 26 51 26C50.45 26 49.9793 26.196 49.588 26.588C49.196 26.9793 49 27.45 49 28C49 28.55 49.196 29.021 49.588 29.413C49.9793 29.8043 50.45 30 51 30ZM63 30C63.55 30 64.021 29.8043 64.413 29.413C64.8043 29.021 65 28.55 65 28C65 27.45 64.8043 26.9793 64.413 26.588C64.021 26.196 63.55 26 63 26C62.45 26 61.979 26.196 61.587 26.588C61.1957 26.9793 61 27.45 61 28C61 28.55 61.1957 29.021 61.587 29.413C61.979 29.8043 62.45 30 63 30ZM57 22C55.9 22 54.9583 21.6083 54.175 20.825C53.3917 20.0417 53 19.1 53 18C53 16.9 53.3917 15.9583 54.175 15.175C54.9583 14.3917 55.9 14 57 14C58.1 14 59.0417 14.3917 59.825 15.175C60.6083 15.9583 61 16.9 61 18C61 19.1 60.6083 20.0417 59.825 20.825C59.0417 21.6083 58.1 22 57 22ZM57 20C57.55 20 58.021 19.804 58.413 19.412C58.8043 19.0207 59 18.55 59 18C59 17.45 58.8043 16.9793 58.413 16.588C58.021 16.196 57.55 16 57 16C56.45 16 55.9793 16.196 55.588 16.588C55.196 16.9793 55 17.45 55 18C55 18.55 55.196 19.0207 55.588 19.412C55.9793 19.804 56.45 20 57 20Z" fill="black"/>
</g>
<path d="M87.1 29.7C85.6333 29.7 84.3733 29.4067 83.32 28.82C82.28 28.22 81.48 27.38 80.92 26.3C80.36 25.2067 80.08 23.92 80.08 22.44C80.08 21.3333 80.24 20.34 80.56 19.46C80.88 18.5667 81.34 17.8067 81.94 17.18C82.54 16.54 83.2733 16.0533 84.14 15.72C85.02 15.3733 86.0067 15.2 87.1 15.2C87.8333 15.2 88.5533 15.2933 89.26 15.48C89.9667 15.6667 90.5867 15.9333 91.12 16.28C91.4 16.4533 91.5867 16.6667 91.68 16.92C91.7733 17.16 91.7933 17.4 91.74 17.64C91.6867 17.8667 91.5733 18.06 91.4 18.22C91.24 18.38 91.0333 18.4733 90.78 18.5C90.54 18.5133 90.2733 18.4267 89.98 18.24C89.5667 17.9733 89.12 17.78 88.64 17.66C88.16 17.54 87.6733 17.48 87.18 17.48C86.2333 17.48 85.4333 17.6733 84.78 18.06C84.1267 18.4467 83.6333 19.0067 83.3 19.74C82.9667 20.4733 82.8 21.3733 82.8 22.44C82.8 23.4933 82.9667 24.3933 83.3 25.14C83.6333 25.8867 84.1267 26.4533 84.78 26.84C85.4333 27.2267 86.2333 27.42 87.18 27.42C87.6867 27.42 88.1867 27.36 88.68 27.24C89.1733 27.1067 89.64 26.9067 90.08 26.64C90.3733 26.4667 90.6333 26.3933 90.86 26.42C91.1 26.4333 91.3 26.5133 91.46 26.66C91.62 26.8067 91.7267 26.9933 91.78 27.22C91.8333 27.4333 91.82 27.66 91.74 27.9C91.66 28.1267 91.5 28.3267 91.26 28.5C90.7267 28.8867 90.0867 29.1867 89.34 29.4C88.6067 29.6 87.86 29.7 87.1 29.7ZM95.1338 29.66C94.7338 29.66 94.4271 29.5533 94.2138 29.34C94.0004 29.1133 93.8938 28.7933 93.8938 28.38V16.5C93.8938 16.0867 94.0004 15.7733 94.2138 15.56C94.4271 15.3467 94.7338 15.24 95.1338 15.24C95.5338 15.24 95.8404 15.3467 96.0538 15.56C96.2804 15.7733 96.3938 16.0867 96.3938 16.5V21.68H96.1138C96.4071 20.9733 96.8604 20.44 97.4738 20.08C98.1004 19.7067 98.8071 19.52 99.5938 19.52C100.38 19.52 101.027 19.6667 101.534 19.96C102.04 20.2533 102.42 20.7 102.674 21.3C102.927 21.8867 103.054 22.6333 103.054 23.54V28.38C103.054 28.7933 102.947 29.1133 102.734 29.34C102.52 29.5533 102.214 29.66 101.814 29.66C101.414 29.66 101.1 29.5533 100.874 29.34C100.66 29.1133 100.554 28.7933 100.554 28.38V23.66C100.554 22.9 100.407 22.3467 100.114 22C99.8338 21.6533 99.3938 21.48 98.7938 21.48C98.0604 21.48 97.4738 21.7133 97.0338 22.18C96.6071 22.6333 96.3938 23.24 96.3938 24V28.38C96.3938 29.2333 95.9738 29.66 95.1338 29.66ZM108.813 29.7C108.106 29.7 107.473 29.5667 106.913 29.3C106.366 29.02 105.933 28.6467 105.613 28.18C105.306 27.7133 105.153 27.1867 105.153 26.6C105.153 25.88 105.34 25.3133 105.713 24.9C106.086 24.4733 106.693 24.1667 107.533 23.98C108.373 23.7933 109.5 23.7 110.913 23.7H111.913V25.14H110.933C110.106 25.14 109.446 25.18 108.953 25.26C108.46 25.34 108.106 25.48 107.893 25.68C107.693 25.8667 107.593 26.1333 107.593 26.48C107.593 26.92 107.746 27.28 108.053 27.56C108.36 27.84 108.786 27.98 109.333 27.98C109.773 27.98 110.16 27.88 110.493 27.68C110.84 27.4667 111.113 27.18 111.313 26.82C111.513 26.46 111.613 26.0467 111.613 25.58V23.28C111.613 22.6133 111.466 22.1333 111.173 21.84C110.88 21.5467 110.386 21.4 109.693 21.4C109.306 21.4 108.886 21.4467 108.433 21.54C107.993 21.6333 107.526 21.7933 107.033 22.02C106.78 22.14 106.553 22.1733 106.353 22.12C106.166 22.0667 106.02 21.96 105.913 21.8C105.806 21.6267 105.753 21.44 105.753 21.24C105.753 21.04 105.806 20.8467 105.913 20.66C106.02 20.46 106.2 20.3133 106.453 20.22C107.066 19.9667 107.653 19.7867 108.213 19.68C108.786 19.5733 109.306 19.52 109.773 19.52C110.733 19.52 111.52 19.6667 112.133 19.96C112.76 20.2533 113.226 20.7 113.533 21.3C113.84 21.8867 113.993 22.6467 113.993 23.58V28.38C113.993 28.7933 113.893 29.1133 113.693 29.34C113.493 29.5533 113.206 29.66 112.833 29.66C112.46 29.66 112.166 29.5533 111.953 29.34C111.753 29.1133 111.653 28.7933 111.653 28.38V27.42H111.813C111.72 27.8867 111.533 28.2933 111.253 28.64C110.986 28.9733 110.646 29.2333 110.233 29.42C109.82 29.6067 109.346 29.7 108.813 29.7ZM117.77 29.66C117.37 29.66 117.064 29.5533 116.85 29.34C116.637 29.1133 116.53 28.7933 116.53 28.38V20.82C116.53 20.4067 116.637 20.0933 116.85 19.88C117.064 19.6667 117.364 19.56 117.75 19.56C118.137 19.56 118.437 19.6667 118.65 19.88C118.864 20.0933 118.97 20.4067 118.97 20.82V22.18L118.75 21.68C119.044 20.9733 119.497 20.44 120.11 20.08C120.737 19.7067 121.444 19.52 122.23 19.52C123.017 19.52 123.664 19.6667 124.17 19.96C124.677 20.2533 125.057 20.7 125.31 21.3C125.564 21.8867 125.69 22.6333 125.69 23.54V28.38C125.69 28.7933 125.584 29.1133 125.37 29.34C125.157 29.5533 124.85 29.66 124.45 29.66C124.05 29.66 123.737 29.5533 123.51 29.34C123.297 29.1133 123.19 28.7933 123.19 28.38V23.66C123.19 22.9 123.044 22.3467 122.75 22C122.47 21.6533 122.03 21.48 121.43 21.48C120.697 21.48 120.11 21.7133 119.67 22.18C119.244 22.6333 119.03 23.24 119.03 24V28.38C119.03 29.2333 118.61 29.66 117.77 29.66ZM129.47 29.66C129.07 29.66 128.763 29.5533 128.55 29.34C128.336 29.1133 128.23 28.7933 128.23 28.38V20.82C128.23 20.4067 128.336 20.0933 128.55 19.88C128.763 19.6667 129.063 19.56 129.45 19.56C129.836 19.56 130.136 19.6667 130.35 19.88C130.563 20.0933 130.67 20.4067 130.67 20.82V22.18L130.45 21.68C130.743 20.9733 131.196 20.44 131.81 20.08C132.436 19.7067 133.143 19.52 133.93 19.52C134.716 19.52 135.363 19.6667 135.87 19.96C136.376 20.2533 136.756 20.7 137.01 21.3C137.263 21.8867 137.39 22.6333 137.39 23.54V28.38C137.39 28.7933 137.283 29.1133 137.07 29.34C136.856 29.5533 136.55 29.66 136.15 29.66C135.75 29.66 135.436 29.5533 135.21 29.34C134.996 29.1133 134.89 28.7933 134.89 28.38V23.66C134.89 22.9 134.743 22.3467 134.45 22C134.17 21.6533 133.73 21.48 133.13 21.48C132.396 21.48 131.81 21.7133 131.37 22.18C130.943 22.6333 130.73 23.24 130.73 24V28.38C130.73 29.2333 130.31 29.66 129.47 29.66ZM144.749 29.7C143.642 29.7 142.689 29.4933 141.889 29.08C141.089 28.6667 140.469 28.08 140.029 27.32C139.602 26.56 139.389 25.66 139.389 24.62C139.389 23.6067 139.596 22.72 140.009 21.96C140.436 21.2 141.016 20.6067 141.749 20.18C142.496 19.74 143.342 19.52 144.289 19.52C144.982 19.52 145.602 19.6333 146.149 19.86C146.709 20.0867 147.182 20.4133 147.569 20.84C147.969 21.2667 148.269 21.7867 148.469 22.4C148.682 23 148.789 23.68 148.789 24.44C148.789 24.68 148.702 24.8667 148.529 25C148.369 25.12 148.136 25.18 147.829 25.18H141.409V23.74H147.029L146.709 24.04C146.709 23.4267 146.616 22.9133 146.429 22.5C146.256 22.0867 145.996 21.7733 145.649 21.56C145.316 21.3333 144.896 21.22 144.389 21.22C143.829 21.22 143.349 21.3533 142.949 21.62C142.562 21.8733 142.262 22.24 142.049 22.72C141.849 23.1867 141.749 23.7467 141.749 24.4V24.54C141.749 25.6333 142.002 26.4533 142.509 27C143.029 27.5333 143.789 27.8 144.789 27.8C145.136 27.8 145.522 27.76 145.949 27.68C146.389 27.5867 146.802 27.4333 147.189 27.22C147.469 27.06 147.716 26.9933 147.929 27.02C148.142 27.0333 148.309 27.1067 148.429 27.24C148.562 27.3733 148.642 27.54 148.669 27.74C148.696 27.9267 148.656 28.12 148.549 28.32C148.456 28.52 148.289 28.6933 148.049 28.84C147.582 29.1333 147.042 29.3533 146.429 29.5C145.829 29.6333 145.269 29.7 144.749 29.7ZM154.109 29.7C153.002 29.7 152.169 29.3867 151.609 28.76C151.049 28.12 150.769 27.1867 150.769 25.96V16.5C150.769 16.0867 150.875 15.7733 151.089 15.56C151.302 15.3467 151.609 15.24 152.009 15.24C152.409 15.24 152.715 15.3467 152.929 15.56C153.155 15.7733 153.269 16.0867 153.269 16.5V25.84C153.269 26.4533 153.395 26.9067 153.649 27.2C153.915 27.4933 154.289 27.64 154.769 27.64C154.875 27.64 154.975 27.64 155.069 27.64C155.162 27.6267 155.255 27.6133 155.349 27.6C155.535 27.5733 155.662 27.6267 155.729 27.76C155.795 27.88 155.829 28.1333 155.829 28.52C155.829 28.8533 155.762 29.1133 155.629 29.3C155.495 29.4867 155.275 29.6 154.969 29.64C154.835 29.6533 154.695 29.6667 154.549 29.68C154.402 29.6933 154.255 29.7 154.109 29.7ZM160.638 29.7C160.064 29.7 159.458 29.64 158.818 29.52C158.178 29.4 157.604 29.1933 157.098 28.9C156.884 28.7667 156.731 28.6133 156.638 28.44C156.558 28.2533 156.524 28.0733 156.538 27.9C156.564 27.7133 156.631 27.5533 156.738 27.42C156.858 27.2867 157.004 27.2 157.178 27.16C157.364 27.12 157.564 27.1533 157.778 27.26C158.311 27.5133 158.811 27.6933 159.278 27.8C159.744 27.8933 160.204 27.94 160.658 27.94C161.298 27.94 161.771 27.8333 162.078 27.62C162.398 27.3933 162.558 27.1 162.558 26.74C162.558 26.4333 162.451 26.2 162.238 26.04C162.038 25.8667 161.731 25.74 161.318 25.66L159.318 25.28C158.491 25.12 157.858 24.82 157.418 24.38C156.991 23.9267 156.778 23.3467 156.778 22.64C156.778 22 156.951 21.4467 157.298 20.98C157.658 20.5133 158.151 20.1533 158.778 19.9C159.404 19.6467 160.124 19.52 160.938 19.52C161.524 19.52 162.071 19.5867 162.578 19.72C163.098 19.84 163.598 20.0333 164.078 20.3C164.278 20.4067 164.411 20.5467 164.478 20.72C164.558 20.8933 164.578 21.0733 164.538 21.26C164.498 21.4333 164.418 21.5933 164.298 21.74C164.178 21.8733 164.024 21.96 163.838 22C163.664 22.0267 163.464 21.9867 163.238 21.88C162.824 21.6667 162.424 21.5133 162.038 21.42C161.664 21.3267 161.304 21.28 160.958 21.28C160.304 21.28 159.818 21.3933 159.498 21.62C159.191 21.8467 159.038 22.1467 159.038 22.52C159.038 22.8 159.131 23.0333 159.318 23.22C159.504 23.4067 159.791 23.5333 160.178 23.6L162.178 23.98C163.044 24.14 163.698 24.4333 164.138 24.86C164.591 25.2867 164.818 25.86 164.818 26.58C164.818 27.5533 164.438 28.32 163.678 28.88C162.918 29.4267 161.904 29.7 160.638 29.7Z" fill="black"/>
<g clip-path="url(#clip0_172401_16240)">
<mask id="mask2_172401_16240" style="mask-type:alpha" maskUnits="userSpaceOnUse" x="279" y="11" width="24" height="24">
<rect x="279" y="11" width="24" height="24" fill="#D9D9D9"/>
</mask>
<g mask="url(#mask2_172401_16240)">
<path d="M291 30C290.717 30 290.479 29.904 290.288 29.712C290.096 29.5207 290 29.2833 290 29V24H285C284.717 24 284.479 23.904 284.287 23.712C284.096 23.5207 284 23.2833 284 23C284 22.7167 284.096 22.479 284.287 22.287C284.479 22.0957 284.717 22 285 22H290V17C290 16.7167 290.096 16.479 290.288 16.287C290.479 16.0957 290.717 16 291 16C291.283 16 291.521 16.0957 291.713 16.287C291.904 16.479 292 16.7167 292 17V22H297C297.283 22 297.521 22.0957 297.712 22.287C297.904 22.479 298 22.7167 298 23C298 23.2833 297.904 23.5207 297.712 23.712C297.521 23.904 297.283 24 297 24H292V29C292 29.2833 291.904 29.5207 291.713 29.712C291.521 29.904 291.283 30 291 30Z" fill="black"/>
</g>
</g>
<defs>
<clipPath id="clip0_172401_16240">
<rect x="279" y="11" width="24" height="24" rx="12" fill="white"/>
</clipPath>
</defs>
</svg>
