<svg width="1491" height="940" viewBox="0 0 1491 940" fill="none" xmlns="http://www.w3.org/2000/svg">
<g clip-path="url(#clip0_723_11846)">
<rect width="1494" height="940" rx="30" fill="white"/>
<rect x="71.6428" y="755.5" width="1350.71" height="144" rx="19.5" fill="white"/>
<rect x="71.6428" y="755.5" width="1350.71" height="144" rx="19.5" stroke="#ADB0D9"/>
<path d="M96.8128 793.162C96.2488 793.162 95.6968 793.114 95.1568 793.018C94.6168 792.922 94.1128 792.784 93.6448 792.604C93.1888 792.424 92.7748 792.196 92.4028 791.92C92.2588 791.812 92.1568 791.692 92.0968 791.56C92.0488 791.416 92.0368 791.278 92.0608 791.146C92.0968 791.002 92.1568 790.882 92.2408 790.786C92.3368 790.69 92.4508 790.636 92.5828 790.624C92.7148 790.612 92.8588 790.654 93.0148 790.75C93.5548 791.134 94.1308 791.416 94.7428 791.596C95.3548 791.764 96.0448 791.848 96.8128 791.848C97.8928 791.848 98.6908 791.65 99.2068 791.254C99.7348 790.846 99.9988 790.312 99.9988 789.652C99.9988 789.112 99.8068 788.692 99.4228 788.392C99.0508 788.08 98.4208 787.834 97.5328 787.654L95.6608 787.276C94.5328 787.036 93.6868 786.646 93.1228 786.106C92.5708 785.554 92.2948 784.822 92.2948 783.91C92.2948 783.346 92.4088 782.836 92.6368 782.38C92.8648 781.912 93.1828 781.516 93.5908 781.192C93.9988 780.856 94.4848 780.598 95.0488 780.418C95.6128 780.238 96.2368 780.148 96.9208 780.148C97.6768 780.148 98.3788 780.256 99.0268 780.472C99.6868 780.676 100.281 780.988 100.809 781.408C100.941 781.516 101.031 781.642 101.079 781.786C101.127 781.918 101.133 782.05 101.097 782.182C101.061 782.302 100.995 782.404 100.899 782.488C100.815 782.572 100.701 782.62 100.557 782.632C100.425 782.644 100.275 782.596 100.107 782.488C99.6268 782.128 99.1288 781.87 98.6128 781.714C98.0968 781.546 97.5268 781.462 96.9028 781.462C96.2668 781.462 95.7148 781.558 95.2468 781.75C94.7908 781.942 94.4308 782.224 94.1668 782.596C93.9148 782.956 93.7888 783.376 93.7888 783.856C93.7888 784.432 93.9628 784.888 94.3108 785.224C94.6708 785.56 95.2528 785.806 96.0568 785.962L97.9288 786.358C99.1408 786.61 100.035 786.994 100.611 787.51C101.199 788.014 101.493 788.704 101.493 789.58C101.493 790.108 101.385 790.594 101.169 791.038C100.953 791.482 100.641 791.866 100.233 792.19C99.8248 792.502 99.3328 792.742 98.7568 792.91C98.1808 793.078 97.5328 793.162 96.8128 793.162ZM107.06 793.162C106.376 793.162 105.8 793.042 105.332 792.802C104.876 792.55 104.534 792.19 104.306 791.722C104.078 791.242 103.964 790.66 103.964 789.976V785.386H102.758C102.554 785.386 102.398 785.338 102.29 785.242C102.182 785.134 102.128 784.99 102.128 784.81C102.128 784.63 102.182 784.492 102.29 784.396C102.398 784.3 102.554 784.252 102.758 784.252H103.964V782.182C103.964 781.942 104.03 781.762 104.162 781.642C104.294 781.51 104.474 781.444 104.702 781.444C104.93 781.444 105.104 781.51 105.224 781.642C105.356 781.762 105.422 781.942 105.422 782.182V784.252H107.69C107.894 784.252 108.05 784.3 108.158 784.396C108.266 784.492 108.32 784.63 108.32 784.81C108.32 784.99 108.266 785.134 108.158 785.242C108.05 785.338 107.894 785.386 107.69 785.386H105.422V789.832C105.422 790.516 105.566 791.038 105.854 791.398C106.142 791.746 106.61 791.92 107.258 791.92C107.486 791.92 107.678 791.896 107.834 791.848C108.002 791.8 108.14 791.776 108.248 791.776C108.356 791.764 108.446 791.8 108.518 791.884C108.59 791.968 108.626 792.112 108.626 792.316C108.626 792.46 108.596 792.592 108.536 792.712C108.488 792.832 108.398 792.916 108.266 792.964C108.122 793.012 107.93 793.054 107.69 793.09C107.462 793.138 107.252 793.162 107.06 793.162ZM112.597 793.162C111.997 793.162 111.457 793.048 110.977 792.82C110.509 792.58 110.137 792.256 109.861 791.848C109.585 791.44 109.447 790.984 109.447 790.48C109.447 789.832 109.609 789.322 109.933 788.95C110.269 788.578 110.815 788.314 111.571 788.158C112.339 788.002 113.383 787.924 114.703 787.924H115.513V788.878H114.721C113.749 788.878 112.981 788.926 112.417 789.022C111.865 789.106 111.475 789.256 111.247 789.472C111.031 789.688 110.923 789.994 110.923 790.39C110.923 790.882 111.091 791.284 111.427 791.596C111.775 791.908 112.243 792.064 112.831 792.064C113.311 792.064 113.731 791.95 114.091 791.722C114.463 791.494 114.751 791.182 114.955 790.786C115.171 790.39 115.279 789.934 115.279 789.418V787.366C115.279 786.622 115.129 786.088 114.829 785.764C114.529 785.428 114.037 785.26 113.353 785.26C112.933 785.26 112.513 785.314 112.093 785.422C111.673 785.53 111.229 785.704 110.761 785.944C110.593 786.028 110.449 786.058 110.329 786.034C110.209 785.998 110.113 785.932 110.041 785.836C109.969 785.74 109.927 785.632 109.915 785.512C109.903 785.38 109.927 785.254 109.987 785.134C110.059 785.014 110.167 784.918 110.311 784.846C110.839 784.582 111.361 784.39 111.877 784.27C112.393 784.15 112.885 784.09 113.353 784.09C114.109 784.09 114.733 784.216 115.225 784.468C115.717 784.708 116.083 785.08 116.323 785.584C116.563 786.076 116.683 786.712 116.683 787.492V792.37C116.683 792.61 116.623 792.796 116.503 792.928C116.395 793.06 116.233 793.126 116.017 793.126C115.789 793.126 115.615 793.06 115.495 792.928C115.375 792.796 115.315 792.61 115.315 792.37V790.966H115.477C115.381 791.422 115.195 791.812 114.919 792.136C114.655 792.46 114.325 792.712 113.929 792.892C113.533 793.072 113.089 793.162 112.597 793.162ZM120.126 793.126C119.886 793.126 119.7 793.06 119.568 792.928C119.448 792.796 119.388 792.61 119.388 792.37V784.864C119.388 784.624 119.448 784.444 119.568 784.324C119.688 784.192 119.862 784.126 120.09 784.126C120.318 784.126 120.492 784.192 120.612 784.324C120.744 784.444 120.81 784.624 120.81 784.864V786.322H120.63C120.822 785.614 121.188 785.068 121.728 784.684C122.268 784.3 122.934 784.096 123.726 784.072C123.906 784.06 124.05 784.102 124.158 784.198C124.266 784.282 124.326 784.432 124.338 784.648C124.35 784.852 124.302 785.014 124.194 785.134C124.086 785.254 123.918 785.326 123.69 785.35L123.402 785.386C122.586 785.458 121.956 785.722 121.512 786.178C121.08 786.622 120.864 787.234 120.864 788.014V792.37C120.864 792.61 120.798 792.796 120.666 792.928C120.546 793.06 120.366 793.126 120.126 793.126ZM129.824 793.162C129.14 793.162 128.564 793.042 128.096 792.802C127.64 792.55 127.298 792.19 127.07 791.722C126.842 791.242 126.728 790.66 126.728 789.976V785.386H125.522C125.318 785.386 125.162 785.338 125.054 785.242C124.946 785.134 124.892 784.99 124.892 784.81C124.892 784.63 124.946 784.492 125.054 784.396C125.162 784.3 125.318 784.252 125.522 784.252H126.728V782.182C126.728 781.942 126.794 781.762 126.926 781.642C127.058 781.51 127.238 781.444 127.466 781.444C127.694 781.444 127.868 781.51 127.988 781.642C128.12 781.762 128.186 781.942 128.186 782.182V784.252H130.454C130.658 784.252 130.814 784.3 130.922 784.396C131.03 784.492 131.084 784.63 131.084 784.81C131.084 784.99 131.03 785.134 130.922 785.242C130.814 785.338 130.658 785.386 130.454 785.386H128.186V789.832C128.186 790.516 128.33 791.038 128.618 791.398C128.906 791.746 129.374 791.92 130.022 791.92C130.25 791.92 130.442 791.896 130.598 791.848C130.766 791.8 130.904 791.776 131.012 791.776C131.12 791.764 131.21 791.8 131.282 791.884C131.354 791.968 131.39 792.112 131.39 792.316C131.39 792.46 131.36 792.592 131.3 792.712C131.252 792.832 131.162 792.916 131.03 792.964C130.886 793.012 130.694 793.054 130.454 793.09C130.226 793.138 130.016 793.162 129.824 793.162ZM136.461 793.162C135.537 793.162 134.739 792.982 134.067 792.622C133.407 792.25 132.891 791.728 132.519 791.056C132.159 790.384 131.979 789.58 131.979 788.644C131.979 787.732 132.159 786.94 132.519 786.268C132.879 785.584 133.371 785.05 133.995 784.666C134.631 784.282 135.363 784.09 136.191 784.09C136.779 784.09 137.307 784.192 137.775 784.396C138.243 784.588 138.639 784.87 138.963 785.242C139.299 785.614 139.551 786.064 139.719 786.592C139.899 787.12 139.989 787.714 139.989 788.374C139.989 788.566 139.935 788.71 139.827 788.806C139.719 788.89 139.563 788.932 139.359 788.932H133.095V787.978H139.017L138.729 788.212C138.729 787.564 138.633 787.018 138.441 786.574C138.249 786.118 137.967 785.77 137.595 785.53C137.235 785.29 136.779 785.17 136.227 785.17C135.615 785.17 135.093 785.314 134.661 785.602C134.241 785.878 133.923 786.268 133.707 786.772C133.491 787.264 133.383 787.84 133.383 788.5V788.608C133.383 789.712 133.647 790.552 134.175 791.128C134.715 791.704 135.477 791.992 136.461 791.992C136.869 791.992 137.271 791.938 137.667 791.83C138.075 791.722 138.471 791.542 138.855 791.29C139.023 791.182 139.173 791.134 139.305 791.146C139.449 791.146 139.563 791.188 139.647 791.272C139.731 791.344 139.785 791.44 139.809 791.56C139.845 791.668 139.833 791.788 139.773 791.92C139.725 792.052 139.623 792.166 139.467 792.262C139.071 792.55 138.603 792.772 138.063 792.928C137.523 793.084 136.989 793.162 136.461 793.162ZM150.681 793.162C149.757 793.162 148.959 792.982 148.287 792.622C147.627 792.25 147.111 791.728 146.739 791.056C146.379 790.384 146.199 789.58 146.199 788.644C146.199 787.732 146.379 786.94 146.739 786.268C147.099 785.584 147.591 785.05 148.215 784.666C148.851 784.282 149.583 784.09 150.411 784.09C150.999 784.09 151.527 784.192 151.995 784.396C152.463 784.588 152.859 784.87 153.183 785.242C153.519 785.614 153.771 786.064 153.939 786.592C154.119 787.12 154.209 787.714 154.209 788.374C154.209 788.566 154.155 788.71 154.047 788.806C153.939 788.89 153.783 788.932 153.579 788.932H147.315V787.978H153.237L152.949 788.212C152.949 787.564 152.853 787.018 152.661 786.574C152.469 786.118 152.187 785.77 151.815 785.53C151.455 785.29 150.999 785.17 150.447 785.17C149.835 785.17 149.313 785.314 148.881 785.602C148.461 785.878 148.143 786.268 147.927 786.772C147.711 787.264 147.603 787.84 147.603 788.5V788.608C147.603 789.712 147.867 790.552 148.395 791.128C148.935 791.704 149.697 791.992 150.681 791.992C151.089 791.992 151.491 791.938 151.887 791.83C152.295 791.722 152.691 791.542 153.075 791.29C153.243 791.182 153.393 791.134 153.525 791.146C153.669 791.146 153.783 791.188 153.867 791.272C153.951 791.344 154.005 791.44 154.029 791.56C154.065 791.668 154.053 791.788 153.993 791.92C153.945 792.052 153.843 792.166 153.687 792.262C153.291 792.55 152.823 792.772 152.283 792.928C151.743 793.084 151.209 793.162 150.681 793.162ZM157.039 793.09C156.799 793.09 156.619 793.024 156.499 792.892C156.379 792.748 156.319 792.55 156.319 792.298V784.936C156.319 784.684 156.379 784.492 156.499 784.36C156.619 784.228 156.799 784.162 157.039 784.162C157.267 784.162 157.447 784.228 157.579 784.36C157.711 784.492 157.777 784.684 157.777 784.936V792.298C157.777 792.55 157.711 792.748 157.579 792.892C157.459 793.024 157.279 793.09 157.039 793.09ZM157.039 782.146C156.739 782.146 156.505 782.068 156.337 781.912C156.169 781.744 156.085 781.522 156.085 781.246C156.085 780.958 156.169 780.742 156.337 780.598C156.505 780.442 156.739 780.364 157.039 780.364C157.351 780.364 157.585 780.442 157.741 780.598C157.909 780.742 157.993 780.958 157.993 781.246C157.993 781.522 157.909 781.744 157.741 781.912C157.585 782.068 157.351 782.146 157.039 782.146ZM161.223 793.126C160.983 793.126 160.803 793.06 160.683 792.928C160.563 792.796 160.503 792.61 160.503 792.37V784.864C160.503 784.624 160.563 784.444 160.683 784.324C160.803 784.192 160.977 784.126 161.205 784.126C161.433 784.126 161.607 784.192 161.727 784.324C161.859 784.444 161.925 784.624 161.925 784.864V786.412L161.727 786.196C161.979 785.5 162.387 784.978 162.951 784.63C163.527 784.27 164.187 784.09 164.931 784.09C165.627 784.09 166.203 784.216 166.659 784.468C167.127 784.72 167.475 785.104 167.703 785.62C167.931 786.124 168.045 786.766 168.045 787.546V792.37C168.045 792.61 167.979 792.796 167.847 792.928C167.727 793.06 167.553 793.126 167.325 793.126C167.085 793.126 166.899 793.06 166.767 792.928C166.647 792.796 166.587 792.61 166.587 792.37V787.636C166.587 786.82 166.425 786.226 166.101 785.854C165.789 785.47 165.285 785.278 164.589 785.278C163.785 785.278 163.143 785.53 162.663 786.034C162.195 786.526 161.961 787.186 161.961 788.014V792.37C161.961 792.874 161.715 793.126 161.223 793.126ZM174.675 793.162C173.751 793.162 172.953 792.982 172.281 792.622C171.621 792.25 171.105 791.728 170.733 791.056C170.373 790.384 170.193 789.58 170.193 788.644C170.193 787.732 170.373 786.94 170.733 786.268C171.093 785.584 171.585 785.05 172.209 784.666C172.845 784.282 173.577 784.09 174.405 784.09C174.993 784.09 175.521 784.192 175.989 784.396C176.457 784.588 176.853 784.87 177.177 785.242C177.513 785.614 177.765 786.064 177.933 786.592C178.113 787.12 178.203 787.714 178.203 788.374C178.203 788.566 178.149 788.71 178.041 788.806C177.933 788.89 177.777 788.932 177.573 788.932H171.309V787.978H177.231L176.943 788.212C176.943 787.564 176.847 787.018 176.655 786.574C176.463 786.118 176.181 785.77 175.809 785.53C175.449 785.29 174.993 785.17 174.441 785.17C173.829 785.17 173.307 785.314 172.875 785.602C172.455 785.878 172.137 786.268 171.921 786.772C171.705 787.264 171.597 787.84 171.597 788.5V788.608C171.597 789.712 171.861 790.552 172.389 791.128C172.929 791.704 173.691 791.992 174.675 791.992C175.083 791.992 175.485 791.938 175.881 791.83C176.289 791.722 176.685 791.542 177.069 791.29C177.237 791.182 177.387 791.134 177.519 791.146C177.663 791.146 177.777 791.188 177.861 791.272C177.945 791.344 177.999 791.44 178.023 791.56C178.059 791.668 178.047 791.788 177.987 791.92C177.939 792.052 177.837 792.166 177.681 792.262C177.285 792.55 176.817 792.772 176.277 792.928C175.737 793.084 175.203 793.162 174.675 793.162ZM185.674 793.126C185.434 793.126 185.254 793.06 185.134 792.928C185.014 792.796 184.954 792.61 184.954 792.37V784.864C184.954 784.624 185.014 784.444 185.134 784.324C185.254 784.192 185.428 784.126 185.656 784.126C185.884 784.126 186.058 784.192 186.178 784.324C186.31 784.444 186.376 784.624 186.376 784.864V786.412L186.178 786.196C186.43 785.5 186.838 784.978 187.402 784.63C187.978 784.27 188.638 784.09 189.382 784.09C190.078 784.09 190.654 784.216 191.11 784.468C191.578 784.72 191.926 785.104 192.154 785.62C192.382 786.124 192.496 786.766 192.496 787.546V792.37C192.496 792.61 192.43 792.796 192.298 792.928C192.178 793.06 192.004 793.126 191.776 793.126C191.536 793.126 191.35 793.06 191.218 792.928C191.098 792.796 191.038 792.61 191.038 792.37V787.636C191.038 786.82 190.876 786.226 190.552 785.854C190.24 785.47 189.736 785.278 189.04 785.278C188.236 785.278 187.594 785.53 187.114 786.034C186.646 786.526 186.412 787.186 186.412 788.014V792.37C186.412 792.874 186.166 793.126 185.674 793.126ZM199.127 793.162C198.203 793.162 197.405 792.982 196.733 792.622C196.073 792.25 195.557 791.728 195.185 791.056C194.825 790.384 194.645 789.58 194.645 788.644C194.645 787.732 194.825 786.94 195.185 786.268C195.545 785.584 196.037 785.05 196.661 784.666C197.297 784.282 198.029 784.09 198.857 784.09C199.445 784.09 199.973 784.192 200.441 784.396C200.909 784.588 201.305 784.87 201.629 785.242C201.965 785.614 202.217 786.064 202.385 786.592C202.565 787.12 202.655 787.714 202.655 788.374C202.655 788.566 202.601 788.71 202.493 788.806C202.385 788.89 202.229 788.932 202.025 788.932H195.761V787.978H201.683L201.395 788.212C201.395 787.564 201.299 787.018 201.107 786.574C200.915 786.118 200.633 785.77 200.261 785.53C199.901 785.29 199.445 785.17 198.893 785.17C198.281 785.17 197.759 785.314 197.327 785.602C196.907 785.878 196.589 786.268 196.373 786.772C196.157 787.264 196.049 787.84 196.049 788.5V788.608C196.049 789.712 196.313 790.552 196.841 791.128C197.381 791.704 198.143 791.992 199.127 791.992C199.535 791.992 199.937 791.938 200.333 791.83C200.741 791.722 201.137 791.542 201.521 791.29C201.689 791.182 201.839 791.134 201.971 791.146C202.115 791.146 202.229 791.188 202.313 791.272C202.397 791.344 202.451 791.44 202.475 791.56C202.511 791.668 202.499 791.788 202.439 791.92C202.391 792.052 202.289 792.166 202.133 792.262C201.737 792.55 201.269 792.772 200.729 792.928C200.189 793.084 199.655 793.162 199.127 793.162ZM207.861 793.162C207.153 793.162 206.565 793.036 206.097 792.784C205.641 792.52 205.293 792.13 205.053 791.614C204.825 791.098 204.711 790.456 204.711 789.688V784.864C204.711 784.612 204.771 784.426 204.891 784.306C205.023 784.186 205.203 784.126 205.431 784.126C205.671 784.126 205.851 784.186 205.971 784.306C206.103 784.426 206.169 784.612 206.169 784.864V789.67C206.169 790.438 206.325 791.014 206.637 791.398C206.961 791.77 207.465 791.956 208.149 791.956C208.893 791.956 209.499 791.704 209.967 791.2C210.435 790.696 210.669 790.036 210.669 789.22V784.864C210.669 784.612 210.729 784.426 210.849 784.306C210.981 784.186 211.167 784.126 211.407 784.126C211.635 784.126 211.809 784.186 211.929 784.306C212.061 784.426 212.127 784.612 212.127 784.864V792.37C212.127 792.874 211.893 793.126 211.425 793.126C211.197 793.126 211.017 793.06 210.885 792.928C210.765 792.796 210.705 792.61 210.705 792.37V790.732L210.939 790.984C210.699 791.692 210.303 792.232 209.751 792.604C209.211 792.976 208.581 793.162 207.861 793.162ZM218.797 793.162C217.873 793.162 217.075 792.982 216.403 792.622C215.743 792.25 215.227 791.728 214.855 791.056C214.495 790.384 214.315 789.58 214.315 788.644C214.315 787.732 214.495 786.94 214.855 786.268C215.215 785.584 215.707 785.05 216.331 784.666C216.967 784.282 217.699 784.09 218.527 784.09C219.115 784.09 219.643 784.192 220.111 784.396C220.579 784.588 220.975 784.87 221.299 785.242C221.635 785.614 221.887 786.064 222.055 786.592C222.235 787.12 222.325 787.714 222.325 788.374C222.325 788.566 222.271 788.71 222.163 788.806C222.055 788.89 221.899 788.932 221.695 788.932H215.431V787.978H221.353L221.065 788.212C221.065 787.564 220.969 787.018 220.777 786.574C220.585 786.118 220.303 785.77 219.931 785.53C219.571 785.29 219.115 785.17 218.563 785.17C217.951 785.17 217.429 785.314 216.997 785.602C216.577 785.878 216.259 786.268 216.043 786.772C215.827 787.264 215.719 787.84 215.719 788.5V788.608C215.719 789.712 215.983 790.552 216.511 791.128C217.051 791.704 217.813 791.992 218.797 791.992C219.205 791.992 219.607 791.938 220.003 791.83C220.411 791.722 220.807 791.542 221.191 791.29C221.359 791.182 221.509 791.134 221.641 791.146C221.785 791.146 221.899 791.188 221.983 791.272C222.067 791.344 222.121 791.44 222.145 791.56C222.181 791.668 222.169 791.788 222.109 791.92C222.061 792.052 221.959 792.166 221.803 792.262C221.407 792.55 220.939 792.772 220.399 792.928C219.859 793.084 219.325 793.162 218.797 793.162ZM229.975 793.126C229.747 793.126 229.573 793.066 229.453 792.946C229.333 792.814 229.273 792.628 229.273 792.388V780.94C229.273 780.7 229.333 780.514 229.453 780.382C229.573 780.25 229.729 780.184 229.921 780.184C230.113 780.184 230.251 780.22 230.335 780.292C230.431 780.352 230.539 780.466 230.659 780.634L238.507 791.092H238.075V780.904C238.075 780.676 238.135 780.502 238.255 780.382C238.375 780.25 238.549 780.184 238.777 780.184C238.993 780.184 239.155 780.25 239.263 780.382C239.383 780.502 239.443 780.676 239.443 780.904V792.406C239.443 792.634 239.389 792.814 239.281 792.946C239.185 793.066 239.041 793.126 238.849 793.126C238.669 793.126 238.525 793.09 238.417 793.018C238.309 792.946 238.195 792.832 238.075 792.676L230.245 782.218H230.659V792.388C230.659 792.628 230.599 792.814 230.479 792.946C230.359 793.066 230.191 793.126 229.975 793.126ZM245.153 793.162C244.553 793.162 244.013 793.048 243.533 792.82C243.065 792.58 242.693 792.256 242.417 791.848C242.141 791.44 242.003 790.984 242.003 790.48C242.003 789.832 242.165 789.322 242.489 788.95C242.825 788.578 243.371 788.314 244.127 788.158C244.895 788.002 245.939 787.924 247.259 787.924H248.069V788.878H247.277C246.305 788.878 245.537 788.926 244.973 789.022C244.421 789.106 244.031 789.256 243.803 789.472C243.587 789.688 243.479 789.994 243.479 790.39C243.479 790.882 243.647 791.284 243.983 791.596C244.331 791.908 244.799 792.064 245.387 792.064C245.867 792.064 246.287 791.95 246.647 791.722C247.019 791.494 247.307 791.182 247.511 790.786C247.727 790.39 247.835 789.934 247.835 789.418V787.366C247.835 786.622 247.685 786.088 247.385 785.764C247.085 785.428 246.593 785.26 245.909 785.26C245.489 785.26 245.069 785.314 244.649 785.422C244.229 785.53 243.785 785.704 243.317 785.944C243.149 786.028 243.005 786.058 242.885 786.034C242.765 785.998 242.669 785.932 242.597 785.836C242.525 785.74 242.483 785.632 242.471 785.512C242.459 785.38 242.483 785.254 242.543 785.134C242.615 785.014 242.723 784.918 242.867 784.846C243.395 784.582 243.917 784.39 244.433 784.27C244.949 784.15 245.441 784.09 245.909 784.09C246.665 784.09 247.289 784.216 247.781 784.468C248.273 784.708 248.639 785.08 248.879 785.584C249.119 786.076 249.239 786.712 249.239 787.492V792.37C249.239 792.61 249.179 792.796 249.059 792.928C248.951 793.06 248.789 793.126 248.573 793.126C248.345 793.126 248.171 793.06 248.051 792.928C247.931 792.796 247.871 792.61 247.871 792.37V790.966H248.033C247.937 791.422 247.751 791.812 247.475 792.136C247.211 792.46 246.881 792.712 246.485 792.892C246.089 793.072 245.645 793.162 245.153 793.162ZM255.652 793.162C254.776 793.162 254.02 792.97 253.384 792.586C252.748 792.202 252.256 791.668 251.908 790.984C251.572 790.288 251.404 789.484 251.404 788.572C251.404 787.876 251.5 787.252 251.692 786.7C251.884 786.148 252.166 785.68 252.538 785.296C252.91 784.9 253.354 784.6 253.87 784.396C254.398 784.192 254.992 784.09 255.652 784.09C256.084 784.09 256.534 784.156 257.002 784.288C257.47 784.42 257.896 784.648 258.28 784.972C258.4 785.056 258.478 785.158 258.514 785.278C258.55 785.398 258.55 785.518 258.514 785.638C258.478 785.746 258.418 785.842 258.334 785.926C258.25 785.998 258.142 786.04 258.01 786.052C257.89 786.064 257.764 786.022 257.632 785.926C257.32 785.686 257.002 785.518 256.678 785.422C256.354 785.326 256.042 785.278 255.742 785.278C255.274 785.278 254.866 785.356 254.518 785.512C254.17 785.656 253.876 785.866 253.636 786.142C253.396 786.418 253.21 786.76 253.078 787.168C252.958 787.576 252.898 788.05 252.898 788.59C252.898 789.634 253.144 790.462 253.636 791.074C254.128 791.674 254.83 791.974 255.742 791.974C256.042 791.974 256.348 791.926 256.66 791.83C256.984 791.734 257.308 791.566 257.632 791.326C257.764 791.23 257.89 791.188 258.01 791.2C258.13 791.212 258.232 791.26 258.316 791.344C258.4 791.416 258.454 791.512 258.478 791.632C258.514 791.752 258.514 791.872 258.478 791.992C258.442 792.1 258.364 792.196 258.244 792.28C257.86 792.592 257.44 792.82 256.984 792.964C256.528 793.096 256.084 793.162 255.652 793.162ZM260.996 793.126C260.756 793.126 260.576 793.06 260.456 792.928C260.336 792.796 260.276 792.61 260.276 792.37V780.922C260.276 780.682 260.336 780.502 260.456 780.382C260.576 780.25 260.756 780.184 260.996 780.184C261.224 780.184 261.404 780.25 261.536 780.382C261.668 780.502 261.734 780.682 261.734 780.922V786.196H261.5C261.752 785.5 262.16 784.978 262.724 784.63C263.3 784.27 263.96 784.09 264.704 784.09C265.4 784.09 265.976 784.216 266.432 784.468C266.9 784.72 267.248 785.104 267.476 785.62C267.704 786.124 267.818 786.766 267.818 787.546V792.37C267.818 792.61 267.752 792.796 267.62 792.928C267.5 793.06 267.326 793.126 267.098 793.126C266.858 793.126 266.672 793.06 266.54 792.928C266.42 792.796 266.36 792.61 266.36 792.37V787.636C266.36 786.82 266.198 786.226 265.874 785.854C265.562 785.47 265.058 785.278 264.362 785.278C263.558 785.278 262.916 785.53 262.436 786.034C261.968 786.526 261.734 787.186 261.734 788.014V792.37C261.734 792.874 261.488 793.126 260.996 793.126ZM271.245 793.126C271.005 793.126 270.819 793.06 270.687 792.928C270.567 792.796 270.507 792.61 270.507 792.37V784.864C270.507 784.624 270.567 784.444 270.687 784.324C270.807 784.192 270.981 784.126 271.209 784.126C271.437 784.126 271.611 784.192 271.731 784.324C271.863 784.444 271.929 784.624 271.929 784.864V786.322H271.749C271.941 785.614 272.307 785.068 272.847 784.684C273.387 784.3 274.053 784.096 274.845 784.072C275.025 784.06 275.169 784.102 275.277 784.198C275.385 784.282 275.445 784.432 275.457 784.648C275.469 784.852 275.421 785.014 275.313 785.134C275.205 785.254 275.037 785.326 274.809 785.35L274.521 785.386C273.705 785.458 273.075 785.722 272.631 786.178C272.199 786.622 271.983 787.234 271.983 788.014V792.37C271.983 792.61 271.917 792.796 271.785 792.928C271.665 793.06 271.485 793.126 271.245 793.126ZM277.678 793.09C277.438 793.09 277.258 793.024 277.138 792.892C277.018 792.748 276.958 792.55 276.958 792.298V784.936C276.958 784.684 277.018 784.492 277.138 784.36C277.258 784.228 277.438 784.162 277.678 784.162C277.906 784.162 278.086 784.228 278.218 784.36C278.35 784.492 278.416 784.684 278.416 784.936V792.298C278.416 792.55 278.35 792.748 278.218 792.892C278.098 793.024 277.918 793.09 277.678 793.09ZM277.678 782.146C277.378 782.146 277.144 782.068 276.976 781.912C276.808 781.744 276.724 781.522 276.724 781.246C276.724 780.958 276.808 780.742 276.976 780.598C277.144 780.442 277.378 780.364 277.678 780.364C277.99 780.364 278.224 780.442 278.38 780.598C278.548 780.742 278.632 780.958 278.632 781.246C278.632 781.522 278.548 781.744 278.38 781.912C278.224 782.068 277.99 782.146 277.678 782.146ZM284.85 793.162C283.974 793.162 283.218 792.97 282.582 792.586C281.946 792.202 281.454 791.668 281.106 790.984C280.77 790.288 280.602 789.484 280.602 788.572C280.602 787.876 280.698 787.252 280.89 786.7C281.082 786.148 281.364 785.68 281.736 785.296C282.108 784.9 282.552 784.6 283.068 784.396C283.596 784.192 284.19 784.09 284.85 784.09C285.282 784.09 285.732 784.156 286.2 784.288C286.668 784.42 287.094 784.648 287.478 784.972C287.598 785.056 287.676 785.158 287.712 785.278C287.748 785.398 287.748 785.518 287.712 785.638C287.676 785.746 287.616 785.842 287.532 785.926C287.448 785.998 287.34 786.04 287.208 786.052C287.088 786.064 286.962 786.022 286.83 785.926C286.518 785.686 286.2 785.518 285.876 785.422C285.552 785.326 285.24 785.278 284.94 785.278C284.472 785.278 284.064 785.356 283.716 785.512C283.368 785.656 283.074 785.866 282.834 786.142C282.594 786.418 282.408 786.76 282.276 787.168C282.156 787.576 282.096 788.05 282.096 788.59C282.096 789.634 282.342 790.462 282.834 791.074C283.326 791.674 284.028 791.974 284.94 791.974C285.24 791.974 285.546 791.926 285.858 791.83C286.182 791.734 286.506 791.566 286.83 791.326C286.962 791.23 287.088 791.188 287.208 791.2C287.328 791.212 287.43 791.26 287.514 791.344C287.598 791.416 287.652 791.512 287.676 791.632C287.712 791.752 287.712 791.872 287.676 791.992C287.64 792.1 287.562 792.196 287.442 792.28C287.058 792.592 286.638 792.82 286.182 792.964C285.726 793.096 285.282 793.162 284.85 793.162ZM290.194 793.126C289.954 793.126 289.774 793.06 289.654 792.928C289.534 792.796 289.474 792.61 289.474 792.37V780.922C289.474 780.682 289.534 780.502 289.654 780.382C289.774 780.25 289.954 780.184 290.194 780.184C290.422 780.184 290.602 780.25 290.734 780.382C290.866 780.502 290.932 780.682 290.932 780.922V786.196H290.698C290.95 785.5 291.358 784.978 291.922 784.63C292.498 784.27 293.158 784.09 293.902 784.09C294.598 784.09 295.174 784.216 295.63 784.468C296.098 784.72 296.446 785.104 296.674 785.62C296.902 786.124 297.016 786.766 297.016 787.546V792.37C297.016 792.61 296.95 792.796 296.818 792.928C296.698 793.06 296.524 793.126 296.296 793.126C296.056 793.126 295.87 793.06 295.738 792.928C295.618 792.796 295.558 792.61 295.558 792.37V787.636C295.558 786.82 295.396 786.226 295.072 785.854C294.76 785.47 294.256 785.278 293.56 785.278C292.756 785.278 292.114 785.53 291.634 786.034C291.166 786.526 290.932 787.186 290.932 788.014V792.37C290.932 792.874 290.686 793.126 290.194 793.126ZM303.214 793.162C302.53 793.162 301.954 793.042 301.486 792.802C301.03 792.55 300.688 792.19 300.46 791.722C300.232 791.242 300.118 790.66 300.118 789.976V785.386H298.912C298.708 785.386 298.552 785.338 298.444 785.242C298.336 785.134 298.282 784.99 298.282 784.81C298.282 784.63 298.336 784.492 298.444 784.396C298.552 784.3 298.708 784.252 298.912 784.252H300.118V782.182C300.118 781.942 300.184 781.762 300.316 781.642C300.448 781.51 300.628 781.444 300.856 781.444C301.084 781.444 301.258 781.51 301.378 781.642C301.51 781.762 301.576 781.942 301.576 782.182V784.252H303.844C304.048 784.252 304.204 784.3 304.312 784.396C304.42 784.492 304.474 784.63 304.474 784.81C304.474 784.99 304.42 785.134 304.312 785.242C304.204 785.338 304.048 785.386 303.844 785.386H301.576V789.832C301.576 790.516 301.72 791.038 302.008 791.398C302.296 791.746 302.764 791.92 303.412 791.92C303.64 791.92 303.832 791.896 303.988 791.848C304.156 791.8 304.294 791.776 304.402 791.776C304.51 791.764 304.6 791.8 304.672 791.884C304.744 791.968 304.78 792.112 304.78 792.316C304.78 792.46 304.75 792.592 304.69 792.712C304.642 792.832 304.552 792.916 304.42 792.964C304.276 793.012 304.084 793.054 303.844 793.09C303.616 793.138 303.406 793.162 303.214 793.162Z" fill="#686868"/>
<mask id="mask0_723_11846" style="mask-type:alpha" maskUnits="userSpaceOnUse" x="99" y="848" width="25" height="24">
<rect x="99.1428" y="848" width="24" height="24" fill="#D9D9D9"/>
</mask>
<g mask="url(#mask0_723_11846)">
<path d="M114.643 859C115.076 859 115.434 858.858 115.718 858.575C116.001 858.292 116.143 857.933 116.143 857.5C116.143 857.067 116.001 856.708 115.718 856.425C115.434 856.142 115.076 856 114.643 856C114.209 856 113.851 856.142 113.568 856.425C113.284 856.708 113.143 857.067 113.143 857.5C113.143 857.933 113.284 858.292 113.568 858.575C113.851 858.858 114.209 859 114.643 859ZM107.643 859C108.076 859 108.434 858.858 108.718 858.575C109.001 858.292 109.143 857.933 109.143 857.5C109.143 857.067 109.001 856.708 108.718 856.425C108.434 856.142 108.076 856 107.643 856C107.209 856 106.851 856.142 106.568 856.425C106.284 856.708 106.143 857.067 106.143 857.5C106.143 857.933 106.284 858.292 106.568 858.575C106.851 858.858 107.209 859 107.643 859ZM111.143 865.5C112.093 865.5 112.959 865.288 113.743 864.863C114.526 864.438 115.134 863.9 115.568 863.25C115.768 862.95 115.797 862.667 115.656 862.4C115.514 862.133 115.293 862 114.993 862C114.876 862 114.759 862.033 114.643 862.1C114.526 862.167 114.434 862.25 114.368 862.35C114.001 862.85 113.543 863.25 112.993 863.55C112.443 863.85 111.826 864 111.143 864C110.459 864 109.843 863.85 109.293 863.55C108.743 863.25 108.284 862.85 107.918 862.35C107.851 862.25 107.755 862.167 107.631 862.1C107.505 862.033 107.384 862 107.268 862C106.984 862 106.772 862.129 106.631 862.387C106.489 862.646 106.509 862.917 106.693 863.2C107.143 863.883 107.759 864.438 108.543 864.863C109.326 865.288 110.193 865.5 111.143 865.5ZM111.143 870C109.759 870 108.459 869.737 107.243 869.212C106.026 868.687 104.968 867.975 104.068 867.075C103.168 866.175 102.455 865.117 101.931 863.9C101.405 862.683 101.143 861.383 101.143 860C101.143 858.617 101.405 857.317 101.931 856.1C102.455 854.883 103.168 853.825 104.068 852.925C104.968 852.025 106.026 851.312 107.243 850.787C108.459 850.262 109.759 850 111.143 850C112.526 850 113.826 850.262 115.043 850.787C116.259 851.312 117.318 852.025 118.218 852.925C119.118 853.825 119.83 854.883 120.355 856.1C120.88 857.317 121.143 858.617 121.143 860C121.143 861.383 120.88 862.683 120.355 863.9C119.83 865.117 119.118 866.175 118.218 867.075C117.318 867.975 116.259 868.687 115.043 869.212C113.826 869.737 112.526 870 111.143 870ZM111.143 868C113.359 868 115.247 867.221 116.806 865.663C118.364 864.104 119.143 862.217 119.143 860C119.143 857.783 118.364 855.896 116.806 854.337C115.247 852.779 113.359 852 111.143 852C108.926 852 107.039 852.779 105.481 854.337C103.922 855.896 103.143 857.783 103.143 860C103.143 862.217 103.922 864.104 105.481 865.663C107.039 867.221 108.926 868 111.143 868Z" fill="#686868"/>
</g>
<mask id="mask1_723_11846" style="mask-type:alpha" maskUnits="userSpaceOnUse" x="144" y="848" width="25" height="24">
<rect x="144.143" y="848" width="24" height="24" fill="#D9D9D9"/>
</mask>
<g mask="url(#mask1_723_11846)">
<path d="M156.143 870C154.776 870 153.484 869.737 152.268 869.212C151.051 868.687 149.989 867.971 149.081 867.062C148.172 866.154 147.455 865.092 146.931 863.875C146.405 862.658 146.143 861.367 146.143 860C146.143 858.617 146.405 857.321 146.931 856.113C147.455 854.904 148.172 853.846 149.081 852.938C149.989 852.029 151.051 851.312 152.268 850.787C153.484 850.262 154.776 850 156.143 850C157.526 850 158.822 850.262 160.03 850.787C161.238 851.312 162.297 852.029 163.205 852.938C164.113 853.846 164.83 854.904 165.355 856.113C165.88 857.321 166.143 858.617 166.143 860V861.45C166.143 862.433 165.805 863.271 165.131 863.962C164.455 864.654 163.626 865 162.643 865C162.043 865 161.484 864.867 160.968 864.6C160.451 864.333 160.026 863.983 159.693 863.55C159.243 864 158.714 864.354 158.106 864.613C157.497 864.871 156.843 865 156.143 865C154.759 865 153.58 864.512 152.606 863.537C151.63 862.562 151.143 861.383 151.143 860C151.143 858.617 151.63 857.437 152.606 856.462C153.58 855.487 154.759 855 156.143 855C157.526 855 158.705 855.487 159.681 856.462C160.655 857.437 161.143 858.617 161.143 860V861.45C161.143 861.933 161.293 862.312 161.593 862.587C161.893 862.862 162.243 863 162.643 863C163.043 863 163.393 862.862 163.693 862.587C163.993 862.312 164.143 861.933 164.143 861.45V860C164.143 857.817 163.355 855.937 161.78 854.362C160.205 852.787 158.326 852 156.143 852C153.959 852 152.08 852.787 150.505 854.362C148.93 855.937 148.143 857.817 148.143 860C148.143 862.183 148.93 864.062 150.505 865.637C152.08 867.212 153.959 868 156.143 868H160.143C160.426 868 160.663 868.096 160.855 868.288C161.047 868.479 161.143 868.717 161.143 869C161.143 869.283 161.047 869.521 160.855 869.712C160.663 869.904 160.426 870 160.143 870H156.143ZM156.143 863C156.976 863 157.684 862.708 158.268 862.125C158.851 861.542 159.143 860.833 159.143 860C159.143 859.167 158.851 858.458 158.268 857.875C157.684 857.292 156.976 857 156.143 857C155.309 857 154.601 857.292 154.018 857.875C153.434 858.458 153.143 859.167 153.143 860C153.143 860.833 153.434 861.542 154.018 862.125C154.601 862.708 155.309 863 156.143 863Z" fill="#686868"/>
</g>
<mask id="mask2_723_11846" style="mask-type:alpha" maskUnits="userSpaceOnUse" x="1367" y="845" width="31" height="30">
<rect x="1367.86" y="845" width="30" height="30" fill="#D9D9D9"/>
</mask>
<g mask="url(#mask2_723_11846)">
<path d="M1373.36 869.281C1372.94 869.448 1372.54 869.411 1372.17 869.171C1371.79 868.932 1371.61 868.583 1371.61 868.125V863.469C1371.61 863.177 1371.69 862.917 1371.86 862.688C1372.02 862.458 1372.25 862.313 1372.54 862.25L1381.61 860L1372.54 857.75C1372.25 857.688 1372.02 857.542 1371.86 857.313C1371.69 857.083 1371.61 856.823 1371.61 856.531V851.875C1371.61 851.417 1371.79 851.068 1372.17 850.828C1372.54 850.588 1372.94 850.552 1373.36 850.719L1392.61 858.844C1393.13 859.073 1393.39 859.458 1393.39 860C1393.39 860.542 1393.13 860.927 1392.61 861.156L1373.36 869.281Z" fill="#444DF2"/>
</g>
<g filter="url(#filter0_d_723_11846)">
<rect width="1494" height="160" fill="white"/>
<path d="M48.288 56.192C47.824 56.192 47.464 56.064 47.208 55.808C46.968 55.552 46.848 55.184 46.848 54.704V40.424C46.848 39.928 46.968 39.552 47.208 39.296C47.464 39.024 47.792 38.888 48.192 38.888C48.56 38.888 48.832 38.96 49.008 39.104C49.2 39.232 49.424 39.456 49.68 39.776L58.872 51.704H58.248V40.352C58.248 39.888 58.368 39.528 58.608 39.272C58.864 39.016 59.224 38.888 59.688 38.888C60.152 38.888 60.504 39.016 60.744 39.272C60.984 39.528 61.104 39.888 61.104 40.352V54.752C61.104 55.2 60.992 55.552 60.768 55.808C60.544 56.064 60.24 56.192 59.856 56.192C59.488 56.192 59.192 56.12 58.968 55.976C58.76 55.832 58.528 55.6 58.272 55.28L49.104 43.352H49.704V54.704C49.704 55.184 49.584 55.552 49.344 55.808C49.104 56.064 48.752 56.192 48.288 56.192ZM70.2971 56.24C68.9691 56.24 67.8251 55.992 66.8651 55.496C65.9051 55 65.1611 54.296 64.6331 53.384C64.1211 52.472 63.8651 51.392 63.8651 50.144C63.8651 48.928 64.1131 47.864 64.6091 46.952C65.1211 46.04 65.8171 45.328 66.6971 44.816C67.5931 44.288 68.6091 44.024 69.7451 44.024C70.5771 44.024 71.3211 44.16 71.9771 44.432C72.6491 44.704 73.2171 45.096 73.6811 45.608C74.1611 46.12 74.5211 46.744 74.7611 47.48C75.0171 48.2 75.1451 49.016 75.1451 49.928C75.1451 50.216 75.0411 50.44 74.8331 50.6C74.6411 50.744 74.3611 50.816 73.9931 50.816H66.2891V49.088H73.0331L72.6491 49.448C72.6491 48.712 72.5371 48.096 72.3131 47.6C72.1051 47.104 71.7931 46.728 71.3771 46.472C70.9771 46.2 70.4731 46.064 69.8651 46.064C69.1931 46.064 68.6171 46.224 68.1371 46.544C67.6731 46.848 67.3131 47.288 67.0571 47.864C66.8171 48.424 66.6971 49.096 66.6971 49.88V50.048C66.6971 51.36 67.0011 52.344 67.6091 53C68.2331 53.64 69.1451 53.96 70.3451 53.96C70.7611 53.96 71.2251 53.912 71.7371 53.816C72.2651 53.704 72.7611 53.52 73.2251 53.264C73.5611 53.072 73.8571 52.992 74.1131 53.024C74.3691 53.04 74.5691 53.128 74.7131 53.288C74.8731 53.448 74.9691 53.648 75.0011 53.888C75.0331 54.112 74.9851 54.344 74.8571 54.584C74.7451 54.824 74.5451 55.032 74.2571 55.208C73.6971 55.56 73.0491 55.824 72.3131 56C71.5931 56.16 70.9211 56.24 70.2971 56.24ZM81.7689 56.24C80.7929 56.24 79.9849 56.064 79.3449 55.712C78.7049 55.344 78.2249 54.8 77.9049 54.08C77.6009 53.36 77.4489 52.464 77.4489 51.392V45.584C77.4489 45.072 77.5769 44.696 77.8329 44.456C78.0889 44.2 78.4569 44.072 78.9369 44.072C79.4169 44.072 79.7849 44.2 80.0409 44.456C80.3129 44.696 80.4489 45.072 80.4489 45.584V51.44C80.4489 52.272 80.6169 52.888 80.9529 53.288C81.2889 53.688 81.8249 53.888 82.5609 53.888C83.3609 53.888 84.0169 53.616 84.5289 53.072C85.0409 52.512 85.2969 51.776 85.2969 50.864V45.584C85.2969 45.072 85.4249 44.696 85.6809 44.456C85.9369 44.2 86.3049 44.072 86.7849 44.072C87.2649 44.072 87.6329 44.2 87.8889 44.456C88.1609 44.696 88.2969 45.072 88.2969 45.584V54.656C88.2969 55.68 87.8089 56.192 86.8329 56.192C86.3689 56.192 86.0089 56.064 85.7529 55.808C85.4969 55.536 85.3689 55.152 85.3689 54.656V52.832L85.7049 53.552C85.3689 54.416 84.8569 55.08 84.1689 55.544C83.4969 56.008 82.6969 56.24 81.7689 56.24ZM97.2034 56.24C95.8754 56.24 94.7314 55.992 93.7714 55.496C92.8114 55 92.0674 54.296 91.5394 53.384C91.0274 52.472 90.7714 51.392 90.7714 50.144C90.7714 48.928 91.0194 47.864 91.5154 46.952C92.0274 46.04 92.7234 45.328 93.6034 44.816C94.4994 44.288 95.5154 44.024 96.6514 44.024C97.4834 44.024 98.2274 44.16 98.8834 44.432C99.5554 44.704 100.123 45.096 100.587 45.608C101.067 46.12 101.427 46.744 101.667 47.48C101.923 48.2 102.051 49.016 102.051 49.928C102.051 50.216 101.947 50.44 101.739 50.6C101.547 50.744 101.267 50.816 100.899 50.816H93.1954V49.088H99.9394L99.5554 49.448C99.5554 48.712 99.4434 48.096 99.2194 47.6C99.0114 47.104 98.6994 46.728 98.2834 46.472C97.8834 46.2 97.3794 46.064 96.7714 46.064C96.0994 46.064 95.5234 46.224 95.0434 46.544C94.5794 46.848 94.2194 47.288 93.9634 47.864C93.7234 48.424 93.6034 49.096 93.6034 49.88V50.048C93.6034 51.36 93.9074 52.344 94.5154 53C95.1394 53.64 96.0514 53.96 97.2514 53.96C97.6674 53.96 98.1314 53.912 98.6434 53.816C99.1714 53.704 99.6674 53.52 100.131 53.264C100.467 53.072 100.763 52.992 101.019 53.024C101.275 53.04 101.475 53.128 101.619 53.288C101.779 53.448 101.875 53.648 101.907 53.888C101.939 54.112 101.891 54.344 101.763 54.584C101.651 54.824 101.451 55.032 101.163 55.208C100.603 55.56 99.9554 55.824 99.2194 56C98.4994 56.16 97.8274 56.24 97.2034 56.24ZM112.671 56.192C112.207 56.192 111.847 56.064 111.591 55.808C111.351 55.552 111.231 55.184 111.231 54.704V40.424C111.231 39.928 111.351 39.552 111.591 39.296C111.847 39.024 112.175 38.888 112.575 38.888C112.943 38.888 113.215 38.96 113.391 39.104C113.583 39.232 113.807 39.456 114.063 39.776L123.255 51.704H122.631V40.352C122.631 39.888 122.751 39.528 122.991 39.272C123.247 39.016 123.607 38.888 124.071 38.888C124.535 38.888 124.887 39.016 125.127 39.272C125.367 39.528 125.487 39.888 125.487 40.352V54.752C125.487 55.2 125.375 55.552 125.151 55.808C124.927 56.064 124.623 56.192 124.239 56.192C123.871 56.192 123.575 56.12 123.351 55.976C123.143 55.832 122.911 55.6 122.655 55.28L113.487 43.352H114.087V54.704C114.087 55.184 113.967 55.552 113.727 55.808C113.487 56.064 113.135 56.192 112.671 56.192ZM132.76 56.24C131.912 56.24 131.152 56.08 130.48 55.76C129.824 55.424 129.304 54.976 128.92 54.416C128.552 53.856 128.368 53.224 128.368 52.52C128.368 51.656 128.592 50.976 129.04 50.48C129.488 49.968 130.216 49.6 131.224 49.376C132.232 49.152 133.584 49.04 135.28 49.04H136.48V50.768H135.304C134.312 50.768 133.52 50.816 132.928 50.912C132.336 51.008 131.912 51.176 131.656 51.416C131.416 51.64 131.296 51.96 131.296 52.376C131.296 52.904 131.48 53.336 131.848 53.672C132.216 54.008 132.728 54.176 133.384 54.176C133.912 54.176 134.376 54.056 134.776 53.816C135.192 53.56 135.52 53.216 135.76 52.784C136 52.352 136.12 51.856 136.12 51.296V48.536C136.12 47.736 135.944 47.16 135.592 46.808C135.24 46.456 134.648 46.28 133.816 46.28C133.352 46.28 132.848 46.336 132.304 46.448C131.776 46.56 131.216 46.752 130.624 47.024C130.32 47.168 130.048 47.208 129.808 47.144C129.584 47.08 129.408 46.952 129.28 46.76C129.152 46.552 129.088 46.328 129.088 46.088C129.088 45.848 129.152 45.616 129.28 45.392C129.408 45.152 129.624 44.976 129.928 44.864C130.664 44.56 131.368 44.344 132.04 44.216C132.728 44.088 133.352 44.024 133.912 44.024C135.064 44.024 136.008 44.2 136.744 44.552C137.496 44.904 138.056 45.44 138.424 46.16C138.792 46.864 138.976 47.776 138.976 48.896V54.656C138.976 55.152 138.856 55.536 138.616 55.808C138.376 56.064 138.032 56.192 137.584 56.192C137.136 56.192 136.784 56.064 136.528 55.808C136.288 55.536 136.168 55.152 136.168 54.656V53.504H136.36C136.248 54.064 136.024 54.552 135.688 54.968C135.368 55.368 134.96 55.68 134.464 55.904C133.968 56.128 133.4 56.24 132.76 56.24ZM147.445 56.24C146.213 56.24 145.141 55.992 144.229 55.496C143.317 54.984 142.613 54.264 142.117 53.336C141.621 52.408 141.373 51.32 141.373 50.072C141.373 49.128 141.509 48.288 141.781 47.552C142.069 46.8 142.477 46.168 143.005 45.656C143.533 45.128 144.173 44.728 144.925 44.456C145.677 44.168 146.517 44.024 147.445 44.024C147.973 44.024 148.541 44.096 149.149 44.24C149.773 44.384 150.357 44.624 150.901 44.96C151.157 45.12 151.325 45.312 151.405 45.536C151.485 45.76 151.501 45.992 151.453 46.232C151.405 46.456 151.301 46.656 151.141 46.832C150.997 46.992 150.813 47.096 150.589 47.144C150.365 47.176 150.117 47.12 149.845 46.976C149.493 46.768 149.133 46.616 148.765 46.52C148.397 46.408 148.045 46.352 147.709 46.352C147.181 46.352 146.717 46.44 146.317 46.616C145.917 46.776 145.573 47.016 145.285 47.336C145.013 47.64 144.805 48.024 144.661 48.488C144.517 48.952 144.445 49.488 144.445 50.096C144.445 51.28 144.725 52.216 145.285 52.904C145.861 53.576 146.669 53.912 147.709 53.912C148.045 53.912 148.389 53.864 148.741 53.768C149.109 53.672 149.477 53.52 149.845 53.312C150.117 53.168 150.357 53.12 150.565 53.168C150.789 53.216 150.973 53.328 151.117 53.504C151.261 53.664 151.349 53.864 151.381 54.104C151.413 54.328 151.381 54.552 151.285 54.776C151.205 55 151.045 55.184 150.805 55.328C150.277 55.648 149.717 55.88 149.125 56.024C148.533 56.168 147.973 56.24 147.445 56.24ZM154.829 56.192C154.349 56.192 153.981 56.064 153.725 55.808C153.469 55.536 153.341 55.152 153.341 54.656V40.4C153.341 39.904 153.469 39.528 153.725 39.272C153.981 39.016 154.349 38.888 154.829 38.888C155.309 38.888 155.677 39.016 155.933 39.272C156.205 39.528 156.341 39.904 156.341 40.4V46.616H156.005C156.357 45.768 156.901 45.128 157.637 44.696C158.389 44.248 159.237 44.024 160.181 44.024C161.125 44.024 161.901 44.2 162.509 44.552C163.117 44.904 163.573 45.44 163.877 46.16C164.181 46.864 164.333 47.76 164.333 48.848V54.656C164.333 55.152 164.205 55.536 163.949 55.808C163.693 56.064 163.325 56.192 162.845 56.192C162.365 56.192 161.989 56.064 161.717 55.808C161.461 55.536 161.333 55.152 161.333 54.656V48.992C161.333 48.08 161.157 47.416 160.805 47C160.469 46.584 159.941 46.376 159.221 46.376C158.341 46.376 157.637 46.656 157.109 47.216C156.597 47.76 156.341 48.488 156.341 49.4V54.656C156.341 55.68 155.837 56.192 154.829 56.192ZM168.916 56.192C168.42 56.192 168.036 56.064 167.764 55.808C167.508 55.536 167.38 55.152 167.38 54.656V45.584C167.38 45.088 167.508 44.712 167.764 44.456C168.02 44.2 168.38 44.072 168.844 44.072C169.308 44.072 169.668 44.2 169.924 44.456C170.18 44.712 170.308 45.088 170.308 45.584V47.096H170.068C170.292 46.136 170.732 45.408 171.388 44.912C172.044 44.416 172.916 44.12 174.004 44.024C174.34 43.992 174.604 44.08 174.796 44.288C175.004 44.48 175.124 44.784 175.156 45.2C175.188 45.6 175.092 45.928 174.868 46.184C174.66 46.424 174.34 46.568 173.908 46.616L173.38 46.664C172.404 46.76 171.668 47.064 171.172 47.576C170.676 48.072 170.428 48.776 170.428 49.688V54.656C170.428 55.152 170.3 55.536 170.044 55.808C169.788 56.064 169.412 56.192 168.916 56.192ZM178.267 56.168C177.787 56.168 177.419 56.024 177.163 55.736C176.907 55.448 176.779 55.048 176.779 54.536V45.728C176.779 45.2 176.907 44.8 177.163 44.528C177.419 44.24 177.787 44.096 178.267 44.096C178.747 44.096 179.115 44.24 179.371 44.528C179.643 44.8 179.779 45.2 179.779 45.728V54.536C179.779 55.048 179.651 55.448 179.395 55.736C179.139 56.024 178.763 56.168 178.267 56.168ZM178.267 41.864C177.707 41.864 177.267 41.728 176.947 41.456C176.643 41.168 176.491 40.776 176.491 40.28C176.491 39.768 176.643 39.376 176.947 39.104C177.267 38.832 177.707 38.696 178.267 38.696C178.843 38.696 179.283 38.832 179.587 39.104C179.891 39.376 180.043 39.768 180.043 40.28C180.043 40.776 179.891 41.168 179.587 41.456C179.283 41.728 178.843 41.864 178.267 41.864ZM188.32 56.24C187.088 56.24 186.016 55.992 185.104 55.496C184.192 54.984 183.488 54.264 182.992 53.336C182.496 52.408 182.248 51.32 182.248 50.072C182.248 49.128 182.384 48.288 182.656 47.552C182.944 46.8 183.352 46.168 183.88 45.656C184.408 45.128 185.048 44.728 185.8 44.456C186.552 44.168 187.392 44.024 188.32 44.024C188.848 44.024 189.416 44.096 190.024 44.24C190.648 44.384 191.232 44.624 191.776 44.96C192.032 45.12 192.2 45.312 192.28 45.536C192.36 45.76 192.376 45.992 192.328 46.232C192.28 46.456 192.176 46.656 192.016 46.832C191.872 46.992 191.688 47.096 191.464 47.144C191.24 47.176 190.992 47.12 190.72 46.976C190.368 46.768 190.008 46.616 189.64 46.52C189.272 46.408 188.92 46.352 188.584 46.352C188.056 46.352 187.592 46.44 187.192 46.616C186.792 46.776 186.448 47.016 186.16 47.336C185.888 47.64 185.68 48.024 185.536 48.488C185.392 48.952 185.32 49.488 185.32 50.096C185.32 51.28 185.6 52.216 186.16 52.904C186.736 53.576 187.544 53.912 188.584 53.912C188.92 53.912 189.264 53.864 189.616 53.768C189.984 53.672 190.352 53.52 190.72 53.312C190.992 53.168 191.232 53.12 191.44 53.168C191.664 53.216 191.848 53.328 191.992 53.504C192.136 53.664 192.224 53.864 192.256 54.104C192.288 54.328 192.256 54.552 192.16 54.776C192.08 55 191.92 55.184 191.68 55.328C191.152 55.648 190.592 55.88 190 56.024C189.408 56.168 188.848 56.24 188.32 56.24ZM195.704 56.192C195.224 56.192 194.856 56.064 194.6 55.808C194.344 55.536 194.216 55.152 194.216 54.656V40.4C194.216 39.904 194.344 39.528 194.6 39.272C194.856 39.016 195.224 38.888 195.704 38.888C196.184 38.888 196.552 39.016 196.808 39.272C197.08 39.528 197.216 39.904 197.216 40.4V46.616H196.88C197.232 45.768 197.776 45.128 198.512 44.696C199.264 44.248 200.112 44.024 201.056 44.024C202 44.024 202.776 44.2 203.384 44.552C203.992 44.904 204.448 45.44 204.752 46.16C205.056 46.864 205.208 47.76 205.208 48.848V54.656C205.208 55.152 205.08 55.536 204.824 55.808C204.568 56.064 204.2 56.192 203.72 56.192C203.24 56.192 202.864 56.064 202.592 55.808C202.336 55.536 202.208 55.152 202.208 54.656V48.992C202.208 48.08 202.032 47.416 201.68 47C201.344 46.584 200.816 46.376 200.096 46.376C199.216 46.376 198.512 46.656 197.984 47.216C197.472 47.76 197.216 48.488 197.216 49.4V54.656C197.216 55.68 196.712 56.192 195.704 56.192ZM213.631 56.24C212.591 56.24 211.719 56.064 211.015 55.712C210.327 55.36 209.815 54.848 209.479 54.176C209.143 53.488 208.975 52.64 208.975 51.632V46.52H207.727C207.343 46.52 207.047 46.424 206.839 46.232C206.631 46.024 206.527 45.744 206.527 45.392C206.527 45.024 206.631 44.744 206.839 44.552C207.047 44.36 207.343 44.264 207.727 44.264H208.975V42.08C208.975 41.584 209.103 41.208 209.359 40.952C209.631 40.696 210.007 40.568 210.487 40.568C210.967 40.568 211.335 40.696 211.591 40.952C211.847 41.208 211.975 41.584 211.975 42.08V44.264H214.519C214.903 44.264 215.199 44.36 215.407 44.552C215.615 44.744 215.719 45.024 215.719 45.392C215.719 45.744 215.615 46.024 215.407 46.232C215.199 46.424 214.903 46.52 214.519 46.52H211.975V51.464C211.975 52.232 212.143 52.808 212.479 53.192C212.815 53.576 213.359 53.768 214.111 53.768C214.383 53.768 214.623 53.744 214.831 53.696C215.039 53.648 215.223 53.616 215.383 53.6C215.575 53.584 215.735 53.648 215.863 53.792C215.991 53.92 216.055 54.192 216.055 54.608C216.055 54.928 215.999 55.216 215.887 55.472C215.791 55.712 215.607 55.88 215.335 55.976C215.127 56.04 214.855 56.096 214.519 56.144C214.183 56.208 213.887 56.24 213.631 56.24Z" fill="black"/>
<rect x="45.5" y="85.5" width="1403" height="54" rx="27" stroke="#ADB0D9"/>
<path d="M66.296 118.126C66.104 118.126 65.948 118.084 65.828 118C65.72 117.904 65.654 117.784 65.63 117.64C65.618 117.484 65.654 117.31 65.738 117.118L70.688 105.85C70.796 105.61 70.922 105.442 71.066 105.346C71.222 105.238 71.39 105.184 71.57 105.184C71.75 105.184 71.912 105.238 72.056 105.346C72.212 105.442 72.338 105.61 72.434 105.85L77.402 117.118C77.498 117.31 77.534 117.484 77.51 117.64C77.498 117.796 77.438 117.916 77.33 118C77.222 118.084 77.072 118.126 76.88 118.126C76.664 118.126 76.49 118.072 76.358 117.964C76.226 117.844 76.118 117.676 76.034 117.46L74.702 114.382L75.422 114.76H67.682L68.42 114.382L67.106 117.46C66.998 117.688 66.884 117.856 66.764 117.964C66.644 118.072 66.488 118.126 66.296 118.126ZM71.552 107.038L68.654 113.86L68.222 113.518H74.882L74.486 113.86L71.588 107.038H71.552ZM80.2013 118.126C79.9613 118.126 79.7813 118.06 79.6613 117.928C79.5413 117.796 79.4813 117.61 79.4813 117.37V109.864C79.4813 109.624 79.5413 109.444 79.6613 109.324C79.7813 109.192 79.9553 109.126 80.1833 109.126C80.4113 109.126 80.5853 109.192 80.7053 109.324C80.8373 109.444 80.9033 109.624 80.9033 109.864V111.412L80.7053 111.196C80.9573 110.5 81.3653 109.978 81.9293 109.63C82.5053 109.27 83.1653 109.09 83.9093 109.09C84.6053 109.09 85.1813 109.216 85.6373 109.468C86.1053 109.72 86.4533 110.104 86.6813 110.62C86.9093 111.124 87.0233 111.766 87.0233 112.546V117.37C87.0233 117.61 86.9573 117.796 86.8253 117.928C86.7053 118.06 86.5313 118.126 86.3033 118.126C86.0633 118.126 85.8773 118.06 85.7453 117.928C85.6253 117.796 85.5653 117.61 85.5653 117.37V112.636C85.5653 111.82 85.4033 111.226 85.0793 110.854C84.7673 110.47 84.2633 110.278 83.5673 110.278C82.7633 110.278 82.1213 110.53 81.6413 111.034C81.1733 111.526 80.9393 112.186 80.9393 113.014V117.37C80.9393 117.874 80.6933 118.126 80.2013 118.126ZM90.4138 118.072C90.1138 118.072 89.8738 117.982 89.6938 117.802C89.5138 117.61 89.4238 117.37 89.4238 117.082C89.4238 116.794 89.5138 116.56 89.6938 116.38C89.8738 116.188 90.1138 116.092 90.4138 116.092C90.7138 116.092 90.9478 116.188 91.1158 116.38C91.2958 116.56 91.3858 116.794 91.3858 117.082C91.3858 117.37 91.2958 117.61 91.1158 117.802C90.9478 117.982 90.7138 118.072 90.4138 118.072ZM90.4138 111.16C90.1138 111.16 89.8738 111.064 89.6938 110.872C89.5138 110.68 89.4238 110.446 89.4238 110.17C89.4238 109.87 89.5138 109.63 89.6938 109.45C89.8738 109.27 90.1138 109.18 90.4138 109.18C90.7138 109.18 90.9478 109.27 91.1158 109.45C91.2958 109.63 91.3858 109.87 91.3858 110.17C91.3858 110.446 91.2958 110.68 91.1158 110.872C90.9478 111.064 90.7138 111.16 90.4138 111.16ZM99.2401 118.126C99.0481 118.126 98.9101 118.066 98.8261 117.946C98.7541 117.814 98.7421 117.64 98.7901 117.424L99.3301 114.598L99.8521 114.724H98.3221C98.1901 114.724 98.0701 114.706 97.9621 114.67C97.8661 114.622 97.7941 114.562 97.7461 114.49C97.6981 114.406 97.6741 114.31 97.6741 114.202C97.6741 114.022 97.7281 113.89 97.8361 113.806C97.9561 113.71 98.1181 113.662 98.3221 113.662H100.05L99.4741 113.806L100.356 109.324L100.788 109.504H98.6821C98.5501 109.504 98.4301 109.486 98.3221 109.45C98.2261 109.402 98.1541 109.336 98.1061 109.252C98.0581 109.168 98.0341 109.072 98.0341 108.964C98.0341 108.784 98.0881 108.652 98.1961 108.568C98.3161 108.484 98.4781 108.442 98.6821 108.442H100.968L100.482 108.568L101.022 105.778C101.07 105.562 101.148 105.412 101.256 105.328C101.376 105.232 101.526 105.184 101.706 105.184C101.886 105.184 102.012 105.25 102.084 105.382C102.168 105.502 102.186 105.67 102.138 105.886L101.652 108.442H104.514L105.018 105.778C105.066 105.562 105.15 105.412 105.27 105.328C105.39 105.232 105.534 105.184 105.702 105.184C105.882 105.184 106.008 105.25 106.08 105.382C106.164 105.502 106.188 105.67 106.152 105.886L105.63 108.568L105.198 108.442H106.638C106.782 108.442 106.902 108.466 106.998 108.514C107.094 108.55 107.166 108.604 107.214 108.676C107.262 108.748 107.286 108.844 107.286 108.964C107.286 109.132 107.232 109.264 107.124 109.36C107.016 109.456 106.854 109.504 106.638 109.504H105L105.486 109.324L104.622 113.806L104.172 113.662H106.278C106.422 113.662 106.542 113.686 106.638 113.734C106.734 113.77 106.806 113.83 106.854 113.914C106.902 113.986 106.926 114.082 106.926 114.202C106.926 114.37 106.872 114.502 106.764 114.598C106.656 114.682 106.494 114.724 106.278 114.724H103.992L104.478 114.598L103.902 117.532C103.866 117.748 103.788 117.904 103.668 118C103.56 118.084 103.416 118.126 103.236 118.126C103.056 118.126 102.924 118.066 102.84 117.946C102.756 117.814 102.732 117.64 102.768 117.424L103.29 114.724H100.446L99.9061 117.532C99.8701 117.748 99.7921 117.904 99.6721 118C99.5641 118.084 99.4201 118.126 99.2401 118.126ZM100.644 113.662H103.488L104.316 109.504H101.454L100.644 113.662ZM112.949 118.162C112.073 118.162 111.317 117.97 110.681 117.586C110.045 117.202 109.553 116.668 109.205 115.984C108.869 115.288 108.701 114.484 108.701 113.572C108.701 112.876 108.797 112.252 108.989 111.7C109.181 111.148 109.463 110.68 109.835 110.296C110.207 109.9 110.651 109.6 111.167 109.396C111.695 109.192 112.289 109.09 112.949 109.09C113.381 109.09 113.831 109.156 114.299 109.288C114.767 109.42 115.193 109.648 115.577 109.972C115.697 110.056 115.775 110.158 115.811 110.278C115.847 110.398 115.847 110.518 115.811 110.638C115.775 110.746 115.715 110.842 115.631 110.926C115.547 110.998 115.439 111.04 115.307 111.052C115.187 111.064 115.061 111.022 114.929 110.926C114.617 110.686 114.299 110.518 113.975 110.422C113.651 110.326 113.339 110.278 113.039 110.278C112.571 110.278 112.163 110.356 111.815 110.512C111.467 110.656 111.173 110.866 110.933 111.142C110.693 111.418 110.507 111.76 110.375 112.168C110.255 112.576 110.195 113.05 110.195 113.59C110.195 114.634 110.441 115.462 110.933 116.074C111.425 116.674 112.127 116.974 113.039 116.974C113.339 116.974 113.645 116.926 113.957 116.83C114.281 116.734 114.605 116.566 114.929 116.326C115.061 116.23 115.187 116.188 115.307 116.2C115.427 116.212 115.529 116.26 115.613 116.344C115.697 116.416 115.751 116.512 115.775 116.632C115.811 116.752 115.811 116.872 115.775 116.992C115.739 117.1 115.661 117.196 115.541 117.28C115.157 117.592 114.737 117.82 114.281 117.964C113.825 118.096 113.381 118.162 112.949 118.162ZM118.293 118.126C118.053 118.126 117.873 118.06 117.753 117.928C117.633 117.796 117.573 117.61 117.573 117.37V105.922C117.573 105.682 117.633 105.502 117.753 105.382C117.873 105.25 118.053 105.184 118.293 105.184C118.521 105.184 118.701 105.25 118.833 105.382C118.965 105.502 119.031 105.682 119.031 105.922V111.196H118.797C119.049 110.5 119.457 109.978 120.021 109.63C120.597 109.27 121.257 109.09 122.001 109.09C122.697 109.09 123.273 109.216 123.729 109.468C124.197 109.72 124.545 110.104 124.773 110.62C125.001 111.124 125.115 111.766 125.115 112.546V117.37C125.115 117.61 125.049 117.796 124.917 117.928C124.797 118.06 124.623 118.126 124.395 118.126C124.155 118.126 123.969 118.06 123.837 117.928C123.717 117.796 123.657 117.61 123.657 117.37V112.636C123.657 111.82 123.495 111.226 123.171 110.854C122.859 110.47 122.355 110.278 121.659 110.278C120.855 110.278 120.213 110.53 119.733 111.034C119.265 111.526 119.031 112.186 119.031 113.014V117.37C119.031 117.874 118.785 118.126 118.293 118.126ZM130.558 118.162C129.958 118.162 129.418 118.048 128.938 117.82C128.47 117.58 128.098 117.256 127.822 116.848C127.546 116.44 127.408 115.984 127.408 115.48C127.408 114.832 127.57 114.322 127.894 113.95C128.23 113.578 128.776 113.314 129.532 113.158C130.3 113.002 131.344 112.924 132.664 112.924H133.474V113.878H132.682C131.71 113.878 130.942 113.926 130.378 114.022C129.826 114.106 129.436 114.256 129.208 114.472C128.992 114.688 128.884 114.994 128.884 115.39C128.884 115.882 129.052 116.284 129.388 116.596C129.736 116.908 130.204 117.064 130.792 117.064C131.272 117.064 131.692 116.95 132.052 116.722C132.424 116.494 132.712 116.182 132.916 115.786C133.132 115.39 133.24 114.934 133.24 114.418V112.366C133.24 111.622 133.09 111.088 132.79 110.764C132.49 110.428 131.998 110.26 131.314 110.26C130.894 110.26 130.474 110.314 130.054 110.422C129.634 110.53 129.19 110.704 128.722 110.944C128.554 111.028 128.41 111.058 128.29 111.034C128.17 110.998 128.074 110.932 128.002 110.836C127.93 110.74 127.888 110.632 127.876 110.512C127.864 110.38 127.888 110.254 127.948 110.134C128.02 110.014 128.128 109.918 128.272 109.846C128.8 109.582 129.322 109.39 129.838 109.27C130.354 109.15 130.846 109.09 131.314 109.09C132.07 109.09 132.694 109.216 133.186 109.468C133.678 109.708 134.044 110.08 134.284 110.584C134.524 111.076 134.644 111.712 134.644 112.492V117.37C134.644 117.61 134.584 117.796 134.464 117.928C134.356 118.06 134.194 118.126 133.978 118.126C133.75 118.126 133.576 118.06 133.456 117.928C133.336 117.796 133.276 117.61 133.276 117.37V115.966H133.438C133.342 116.422 133.156 116.812 132.88 117.136C132.616 117.46 132.286 117.712 131.89 117.892C131.494 118.072 131.05 118.162 130.558 118.162ZM138.068 118.126C137.828 118.126 137.648 118.06 137.528 117.928C137.408 117.796 137.348 117.61 137.348 117.37V109.864C137.348 109.624 137.408 109.444 137.528 109.324C137.648 109.192 137.822 109.126 138.05 109.126C138.278 109.126 138.452 109.192 138.572 109.324C138.704 109.444 138.77 109.624 138.77 109.864V111.412L138.572 111.196C138.824 110.5 139.232 109.978 139.796 109.63C140.372 109.27 141.032 109.09 141.776 109.09C142.472 109.09 143.048 109.216 143.504 109.468C143.972 109.72 144.32 110.104 144.548 110.62C144.776 111.124 144.89 111.766 144.89 112.546V117.37C144.89 117.61 144.824 117.796 144.692 117.928C144.572 118.06 144.398 118.126 144.17 118.126C143.93 118.126 143.744 118.06 143.612 117.928C143.492 117.796 143.432 117.61 143.432 117.37V112.636C143.432 111.82 143.27 111.226 142.946 110.854C142.634 110.47 142.13 110.278 141.434 110.278C140.63 110.278 139.988 110.53 139.508 111.034C139.04 111.526 138.806 112.186 138.806 113.014V117.37C138.806 117.874 138.56 118.126 138.068 118.126ZM148.299 118.126C148.059 118.126 147.879 118.06 147.759 117.928C147.639 117.796 147.579 117.61 147.579 117.37V109.864C147.579 109.624 147.639 109.444 147.759 109.324C147.879 109.192 148.053 109.126 148.281 109.126C148.509 109.126 148.683 109.192 148.803 109.324C148.935 109.444 149.001 109.624 149.001 109.864V111.412L148.803 111.196C149.055 110.5 149.463 109.978 150.027 109.63C150.603 109.27 151.263 109.09 152.007 109.09C152.703 109.09 153.279 109.216 153.735 109.468C154.203 109.72 154.551 110.104 154.779 110.62C155.007 111.124 155.121 111.766 155.121 112.546V117.37C155.121 117.61 155.055 117.796 154.923 117.928C154.803 118.06 154.629 118.126 154.401 118.126C154.161 118.126 153.975 118.06 153.843 117.928C153.723 117.796 153.663 117.61 153.663 117.37V112.636C153.663 111.82 153.501 111.226 153.177 110.854C152.865 110.47 152.361 110.278 151.665 110.278C150.861 110.278 150.219 110.53 149.739 111.034C149.271 111.526 149.037 112.186 149.037 113.014V117.37C149.037 117.874 148.791 118.126 148.299 118.126ZM161.751 118.162C160.827 118.162 160.029 117.982 159.357 117.622C158.697 117.25 158.181 116.728 157.809 116.056C157.449 115.384 157.269 114.58 157.269 113.644C157.269 112.732 157.449 111.94 157.809 111.268C158.169 110.584 158.661 110.05 159.285 109.666C159.921 109.282 160.653 109.09 161.481 109.09C162.069 109.09 162.597 109.192 163.065 109.396C163.533 109.588 163.929 109.87 164.253 110.242C164.589 110.614 164.841 111.064 165.009 111.592C165.189 112.12 165.279 112.714 165.279 113.374C165.279 113.566 165.225 113.71 165.117 113.806C165.009 113.89 164.853 113.932 164.649 113.932H158.385V112.978H164.307L164.019 113.212C164.019 112.564 163.923 112.018 163.731 111.574C163.539 111.118 163.257 110.77 162.885 110.53C162.525 110.29 162.069 110.17 161.517 110.17C160.905 110.17 160.383 110.314 159.951 110.602C159.531 110.878 159.213 111.268 158.997 111.772C158.781 112.264 158.673 112.84 158.673 113.5V113.608C158.673 114.712 158.937 115.552 159.465 116.128C160.005 116.704 160.767 116.992 161.751 116.992C162.159 116.992 162.561 116.938 162.957 116.83C163.365 116.722 163.761 116.542 164.145 116.29C164.313 116.182 164.463 116.134 164.595 116.146C164.739 116.146 164.853 116.188 164.937 116.272C165.021 116.344 165.075 116.44 165.099 116.56C165.135 116.668 165.123 116.788 165.063 116.92C165.015 117.052 164.913 117.166 164.757 117.262C164.361 117.55 163.893 117.772 163.353 117.928C162.813 118.084 162.279 118.162 161.751 118.162ZM170.053 118.162C169.189 118.162 168.529 117.898 168.073 117.37C167.617 116.842 167.389 116.086 167.389 115.102V105.922C167.389 105.682 167.449 105.502 167.569 105.382C167.689 105.25 167.869 105.184 168.109 105.184C168.337 105.184 168.517 105.25 168.649 105.382C168.781 105.502 168.847 105.682 168.847 105.922V114.994C168.847 115.642 168.973 116.128 169.225 116.452C169.489 116.764 169.873 116.92 170.377 116.92C170.485 116.92 170.581 116.914 170.665 116.902C170.749 116.89 170.833 116.884 170.917 116.884C171.049 116.872 171.139 116.902 171.187 116.974C171.247 117.046 171.277 117.19 171.277 117.406C171.277 117.622 171.229 117.784 171.133 117.892C171.037 118 170.881 118.072 170.665 118.108C170.569 118.12 170.467 118.132 170.359 118.144C170.251 118.156 170.149 118.162 170.053 118.162ZM173.755 119.71C173.635 119.866 173.509 119.956 173.377 119.98C173.245 120.004 173.131 119.98 173.035 119.908C172.939 119.836 172.885 119.734 172.873 119.602C172.873 119.47 172.933 119.326 173.053 119.17C173.245 118.918 173.377 118.66 173.449 118.396C173.521 118.144 173.557 117.91 173.557 117.694L173.629 118.072C173.317 118.072 173.065 117.982 172.873 117.802C172.693 117.61 172.603 117.37 172.603 117.082C172.603 116.794 172.687 116.56 172.855 116.38C173.035 116.188 173.269 116.092 173.557 116.092C173.869 116.092 174.115 116.2 174.295 116.416C174.475 116.62 174.565 116.92 174.565 117.316C174.565 117.568 174.541 117.826 174.493 118.09C174.445 118.366 174.361 118.642 174.241 118.918C174.121 119.194 173.959 119.458 173.755 119.71ZM185.264 118.162C184.412 118.162 183.674 117.976 183.05 117.604C182.426 117.232 181.94 116.71 181.592 116.038C181.256 115.354 181.088 114.55 181.088 113.626C181.088 112.93 181.184 112.306 181.376 111.754C181.568 111.19 181.85 110.71 182.222 110.314C182.594 109.918 183.032 109.618 183.536 109.414C184.052 109.198 184.628 109.09 185.264 109.09C186.116 109.09 186.854 109.276 187.478 109.648C188.102 110.02 188.582 110.548 188.918 111.232C189.266 111.904 189.44 112.702 189.44 113.626C189.44 114.322 189.344 114.946 189.152 115.498C188.96 116.05 188.678 116.53 188.306 116.938C187.934 117.334 187.49 117.64 186.974 117.856C186.47 118.06 185.9 118.162 185.264 118.162ZM185.264 116.992C185.804 116.992 186.278 116.86 186.686 116.596C187.094 116.332 187.406 115.948 187.622 115.444C187.85 114.94 187.964 114.334 187.964 113.626C187.964 112.534 187.718 111.7 187.226 111.124C186.746 110.548 186.092 110.26 185.264 110.26C184.712 110.26 184.232 110.392 183.824 110.656C183.428 110.908 183.116 111.286 182.888 111.79C182.672 112.282 182.564 112.894 182.564 113.626C182.564 114.706 182.81 115.54 183.302 116.128C183.794 116.704 184.448 116.992 185.264 116.992ZM194.96 118.162C194.18 118.162 193.496 117.976 192.908 117.604C192.332 117.232 191.882 116.71 191.558 116.038C191.246 115.354 191.09 114.55 191.09 113.626C191.09 112.69 191.246 111.886 191.558 111.214C191.882 110.53 192.332 110.008 192.908 109.648C193.496 109.276 194.18 109.09 194.96 109.09C195.752 109.09 196.43 109.288 196.994 109.684C197.558 110.08 197.936 110.614 198.128 111.286H197.93V105.922C197.93 105.682 197.99 105.502 198.11 105.382C198.242 105.25 198.428 105.184 198.668 105.184C198.896 105.184 199.07 105.25 199.19 105.382C199.322 105.502 199.388 105.682 199.388 105.922V117.37C199.388 117.61 199.328 117.796 199.208 117.928C199.088 118.06 198.908 118.126 198.668 118.126C198.44 118.126 198.26 118.06 198.128 117.928C198.008 117.796 197.948 117.61 197.948 117.37V115.66L198.146 115.912C197.954 116.596 197.57 117.142 196.994 117.55C196.43 117.958 195.752 118.162 194.96 118.162ZM195.266 116.992C195.806 116.992 196.28 116.86 196.688 116.596C197.096 116.332 197.408 115.948 197.624 115.444C197.852 114.94 197.966 114.334 197.966 113.626C197.966 112.534 197.72 111.7 197.228 111.124C196.748 110.548 196.094 110.26 195.266 110.26C194.714 110.26 194.234 110.392 193.826 110.656C193.43 110.908 193.118 111.286 192.89 111.79C192.674 112.282 192.566 112.894 192.566 113.626C192.566 114.706 192.812 115.54 193.304 116.128C193.796 116.704 194.45 116.992 195.266 116.992ZM206.066 118.162C205.142 118.162 204.344 117.982 203.672 117.622C203.012 117.25 202.496 116.728 202.124 116.056C201.764 115.384 201.584 114.58 201.584 113.644C201.584 112.732 201.764 111.94 202.124 111.268C202.484 110.584 202.976 110.05 203.6 109.666C204.236 109.282 204.968 109.09 205.796 109.09C206.384 109.09 206.912 109.192 207.38 109.396C207.848 109.588 208.244 109.87 208.568 110.242C208.904 110.614 209.156 111.064 209.324 111.592C209.504 112.12 209.594 112.714 209.594 113.374C209.594 113.566 209.54 113.71 209.432 113.806C209.324 113.89 209.168 113.932 208.964 113.932H202.7V112.978H208.622L208.334 113.212C208.334 112.564 208.238 112.018 208.046 111.574C207.854 111.118 207.572 110.77 207.2 110.53C206.84 110.29 206.384 110.17 205.832 110.17C205.22 110.17 204.698 110.314 204.266 110.602C203.846 110.878 203.528 111.268 203.312 111.772C203.096 112.264 202.988 112.84 202.988 113.5V113.608C202.988 114.712 203.252 115.552 203.78 116.128C204.32 116.704 205.082 116.992 206.066 116.992C206.474 116.992 206.876 116.938 207.272 116.83C207.68 116.722 208.076 116.542 208.46 116.29C208.628 116.182 208.778 116.134 208.91 116.146C209.054 116.146 209.168 116.188 209.252 116.272C209.336 116.344 209.39 116.44 209.414 116.56C209.45 116.668 209.438 116.788 209.378 116.92C209.33 117.052 209.228 117.166 209.072 117.262C208.676 117.55 208.208 117.772 207.668 117.928C207.128 118.084 206.594 118.162 206.066 118.162ZM212.442 118.126C212.202 118.126 212.016 118.06 211.884 117.928C211.764 117.796 211.704 117.61 211.704 117.37V109.864C211.704 109.624 211.764 109.444 211.884 109.324C212.004 109.192 212.178 109.126 212.406 109.126C212.634 109.126 212.808 109.192 212.928 109.324C213.06 109.444 213.126 109.624 213.126 109.864V111.322H212.946C213.138 110.614 213.504 110.068 214.044 109.684C214.584 109.3 215.25 109.096 216.042 109.072C216.222 109.06 216.366 109.102 216.474 109.198C216.582 109.282 216.642 109.432 216.654 109.648C216.666 109.852 216.618 110.014 216.51 110.134C216.402 110.254 216.234 110.326 216.006 110.35L215.718 110.386C214.902 110.458 214.272 110.722 213.828 111.178C213.396 111.622 213.18 112.234 213.18 113.014V117.37C213.18 117.61 213.114 117.796 212.982 117.928C212.862 118.06 212.682 118.126 212.442 118.126ZM230.158 120.934C229.006 120.934 227.962 120.748 227.026 120.376C226.09 120.016 225.286 119.494 224.614 118.81C223.942 118.126 223.426 117.304 223.066 116.344C222.706 115.372 222.526 114.286 222.526 113.086C222.526 111.91 222.712 110.836 223.084 109.864C223.468 108.892 224.008 108.058 224.704 107.362C225.412 106.654 226.246 106.108 227.206 105.724C228.166 105.34 229.228 105.148 230.392 105.148C231.784 105.148 233.002 105.43 234.046 105.994C235.09 106.546 235.9 107.32 236.476 108.316C237.064 109.312 237.358 110.476 237.358 111.808C237.358 112.852 237.214 113.758 236.926 114.526C236.638 115.294 236.236 115.888 235.72 116.308C235.216 116.728 234.622 116.938 233.938 116.938C233.218 116.938 232.672 116.734 232.3 116.326C231.94 115.906 231.784 115.342 231.832 114.634L232.174 114.724C231.874 115.444 231.448 115.996 230.896 116.38C230.344 116.752 229.762 116.938 229.15 116.938C228.226 116.938 227.506 116.65 226.99 116.074C226.486 115.486 226.234 114.682 226.234 113.662C226.234 112.786 226.402 112.006 226.738 111.322C227.074 110.626 227.536 110.08 228.124 109.684C228.712 109.288 229.378 109.09 230.122 109.09C230.77 109.09 231.304 109.252 231.724 109.576C232.144 109.9 232.414 110.356 232.534 110.944H232.336L232.534 109.738C232.594 109.354 232.816 109.162 233.2 109.162C233.404 109.162 233.548 109.222 233.632 109.342C233.728 109.45 233.758 109.612 233.722 109.828L233.002 113.914C232.978 114.07 232.96 114.22 232.948 114.364C232.936 114.508 232.93 114.64 232.93 114.76C232.93 115.156 233.02 115.456 233.2 115.66C233.38 115.864 233.65 115.966 234.01 115.966C234.478 115.966 234.88 115.792 235.216 115.444C235.564 115.096 235.834 114.61 236.026 113.986C236.23 113.362 236.332 112.636 236.332 111.808C236.332 110.668 236.08 109.678 235.576 108.838C235.084 107.998 234.394 107.344 233.506 106.876C232.618 106.408 231.574 106.174 230.374 106.174C229.042 106.174 227.872 106.462 226.864 107.038C225.856 107.614 225.07 108.424 224.506 109.468C223.942 110.5 223.66 111.706 223.66 113.086C223.66 114.514 223.924 115.738 224.452 116.758C224.992 117.778 225.748 118.558 226.72 119.098C227.692 119.65 228.838 119.926 230.158 119.926C231.034 119.926 231.832 119.8 232.552 119.548C233.272 119.296 233.878 118.954 234.37 118.522C234.538 118.39 234.694 118.33 234.838 118.342C234.982 118.366 235.096 118.432 235.18 118.54C235.264 118.648 235.294 118.774 235.27 118.918C235.258 119.062 235.174 119.206 235.018 119.35C234.466 119.83 233.77 120.214 232.93 120.502C232.102 120.79 231.178 120.934 230.158 120.934ZM229.312 115.894C229.852 115.894 230.326 115.732 230.734 115.408C231.154 115.084 231.484 114.64 231.724 114.076C231.964 113.512 232.084 112.87 232.084 112.15C232.084 111.478 231.934 110.974 231.634 110.638C231.334 110.302 230.872 110.134 230.248 110.134C229.72 110.134 229.246 110.284 228.826 110.584C228.406 110.884 228.07 111.298 227.818 111.826C227.578 112.354 227.458 112.966 227.458 113.662C227.458 114.382 227.62 114.934 227.944 115.318C228.268 115.702 228.724 115.894 229.312 115.894ZM238.331 121.438C238.151 121.45 238.007 121.42 237.899 121.348C237.779 121.276 237.701 121.18 237.665 121.06C237.617 120.952 237.605 120.838 237.629 120.718C237.641 120.61 237.689 120.514 237.773 120.43C237.857 120.346 237.971 120.304 238.115 120.304C238.775 120.268 239.261 120.088 239.573 119.764C239.897 119.452 240.059 118.954 240.059 118.27V109.864C240.059 109.624 240.119 109.444 240.239 109.324C240.371 109.192 240.557 109.126 240.797 109.126C241.025 109.126 241.199 109.192 241.319 109.324C241.451 109.444 241.517 109.624 241.517 109.864V118.162C241.517 118.894 241.391 119.494 241.139 119.962C240.899 120.442 240.545 120.796 240.077 121.024C239.609 121.264 239.027 121.402 238.331 121.438ZM240.779 107.146C240.479 107.146 240.245 107.068 240.077 106.912C239.909 106.744 239.825 106.522 239.825 106.246C239.825 105.958 239.909 105.742 240.077 105.598C240.245 105.442 240.479 105.364 240.779 105.364C241.091 105.364 241.331 105.442 241.499 105.598C241.667 105.742 241.751 105.958 241.751 106.246C241.751 106.522 241.667 106.744 241.499 106.912C241.331 107.068 241.091 107.146 240.779 107.146ZM248.201 118.162C247.277 118.162 246.479 117.982 245.807 117.622C245.147 117.25 244.631 116.728 244.259 116.056C243.899 115.384 243.719 114.58 243.719 113.644C243.719 112.732 243.899 111.94 244.259 111.268C244.619 110.584 245.111 110.05 245.735 109.666C246.371 109.282 247.103 109.09 247.931 109.09C248.519 109.09 249.047 109.192 249.515 109.396C249.983 109.588 250.379 109.87 250.703 110.242C251.039 110.614 251.291 111.064 251.459 111.592C251.639 112.12 251.729 112.714 251.729 113.374C251.729 113.566 251.675 113.71 251.567 113.806C251.459 113.89 251.303 113.932 251.099 113.932H244.835V112.978H250.757L250.469 113.212C250.469 112.564 250.373 112.018 250.181 111.574C249.989 111.118 249.707 110.77 249.335 110.53C248.975 110.29 248.519 110.17 247.967 110.17C247.355 110.17 246.833 110.314 246.401 110.602C245.981 110.878 245.663 111.268 245.447 111.772C245.231 112.264 245.123 112.84 245.123 113.5V113.608C245.123 114.712 245.387 115.552 245.915 116.128C246.455 116.704 247.217 116.992 248.201 116.992C248.609 116.992 249.011 116.938 249.407 116.83C249.815 116.722 250.211 116.542 250.595 116.29C250.763 116.182 250.913 116.134 251.045 116.146C251.189 116.146 251.303 116.188 251.387 116.272C251.471 116.344 251.525 116.44 251.549 116.56C251.585 116.668 251.573 116.788 251.513 116.92C251.465 117.052 251.363 117.166 251.207 117.262C250.811 117.55 250.343 117.772 249.803 117.928C249.263 118.084 248.729 118.162 248.201 118.162ZM254.595 118.126C254.355 118.126 254.175 118.06 254.055 117.928C253.935 117.796 253.875 117.61 253.875 117.37V109.864C253.875 109.624 253.935 109.444 254.055 109.324C254.175 109.192 254.349 109.126 254.577 109.126C254.805 109.126 254.979 109.192 255.099 109.324C255.231 109.444 255.297 109.624 255.297 109.864V111.448L255.099 111.196C255.327 110.524 255.693 110.008 256.197 109.648C256.713 109.276 257.325 109.09 258.033 109.09C258.777 109.09 259.377 109.27 259.833 109.63C260.301 109.978 260.613 110.524 260.769 111.268H260.499C260.715 110.596 261.099 110.068 261.651 109.684C262.215 109.288 262.869 109.09 263.613 109.09C264.273 109.09 264.813 109.216 265.233 109.468C265.665 109.72 265.989 110.104 266.205 110.62C266.421 111.124 266.529 111.766 266.529 112.546V117.37C266.529 117.61 266.463 117.796 266.331 117.928C266.211 118.06 266.031 118.126 265.791 118.126C265.563 118.126 265.383 118.06 265.251 117.928C265.131 117.796 265.071 117.61 265.071 117.37V112.618C265.071 111.814 264.933 111.226 264.657 110.854C264.381 110.47 263.913 110.278 263.253 110.278C262.533 110.278 261.963 110.53 261.543 111.034C261.135 111.526 260.931 112.198 260.931 113.05V117.37C260.931 117.61 260.865 117.796 260.733 117.928C260.613 118.06 260.433 118.126 260.193 118.126C259.965 118.126 259.785 118.06 259.653 117.928C259.533 117.796 259.473 117.61 259.473 117.37V112.618C259.473 111.814 259.329 111.226 259.041 110.854C258.765 110.47 258.303 110.278 257.655 110.278C256.935 110.278 256.365 110.53 255.945 111.034C255.537 111.526 255.333 112.198 255.333 113.05V117.37C255.333 117.874 255.087 118.126 254.595 118.126ZM272.009 118.162C271.409 118.162 270.869 118.048 270.389 117.82C269.921 117.58 269.549 117.256 269.273 116.848C268.997 116.44 268.859 115.984 268.859 115.48C268.859 114.832 269.021 114.322 269.345 113.95C269.681 113.578 270.227 113.314 270.983 113.158C271.751 113.002 272.795 112.924 274.115 112.924H274.925V113.878H274.133C273.161 113.878 272.393 113.926 271.829 114.022C271.277 114.106 270.887 114.256 270.659 114.472C270.443 114.688 270.335 114.994 270.335 115.39C270.335 115.882 270.503 116.284 270.839 116.596C271.187 116.908 271.655 117.064 272.243 117.064C272.723 117.064 273.143 116.95 273.503 116.722C273.875 116.494 274.163 116.182 274.367 115.786C274.583 115.39 274.691 114.934 274.691 114.418V112.366C274.691 111.622 274.541 111.088 274.241 110.764C273.941 110.428 273.449 110.26 272.765 110.26C272.345 110.26 271.925 110.314 271.505 110.422C271.085 110.53 270.641 110.704 270.173 110.944C270.005 111.028 269.861 111.058 269.741 111.034C269.621 110.998 269.525 110.932 269.453 110.836C269.381 110.74 269.339 110.632 269.327 110.512C269.315 110.38 269.339 110.254 269.399 110.134C269.471 110.014 269.579 109.918 269.723 109.846C270.251 109.582 270.773 109.39 271.289 109.27C271.805 109.15 272.297 109.09 272.765 109.09C273.521 109.09 274.145 109.216 274.637 109.468C275.129 109.708 275.495 110.08 275.735 110.584C275.975 111.076 276.095 111.712 276.095 112.492V117.37C276.095 117.61 276.035 117.796 275.915 117.928C275.807 118.06 275.645 118.126 275.429 118.126C275.201 118.126 275.027 118.06 274.907 117.928C274.787 117.796 274.727 117.61 274.727 117.37V115.966H274.889C274.793 116.422 274.607 116.812 274.331 117.136C274.067 117.46 273.737 117.712 273.341 117.892C272.945 118.072 272.501 118.162 272.009 118.162ZM279.52 118.126C279.28 118.126 279.1 118.06 278.98 117.928C278.86 117.796 278.8 117.61 278.8 117.37V109.864C278.8 109.624 278.86 109.444 278.98 109.324C279.1 109.192 279.274 109.126 279.502 109.126C279.73 109.126 279.904 109.192 280.024 109.324C280.156 109.444 280.222 109.624 280.222 109.864V111.412L280.024 111.196C280.276 110.5 280.684 109.978 281.248 109.63C281.824 109.27 282.484 109.09 283.228 109.09C283.924 109.09 284.5 109.216 284.956 109.468C285.424 109.72 285.772 110.104 286 110.62C286.228 111.124 286.342 111.766 286.342 112.546V117.37C286.342 117.61 286.276 117.796 286.144 117.928C286.024 118.06 285.85 118.126 285.622 118.126C285.382 118.126 285.196 118.06 285.064 117.928C284.944 117.796 284.884 117.61 284.884 117.37V112.636C284.884 111.82 284.722 111.226 284.398 110.854C284.086 110.47 283.582 110.278 282.886 110.278C282.082 110.278 281.44 110.53 280.96 111.034C280.492 111.526 280.258 112.186 280.258 113.014V117.37C280.258 117.874 280.012 118.126 279.52 118.126ZM292.36 118.162C291.58 118.162 290.896 117.976 290.308 117.604C289.732 117.232 289.282 116.71 288.958 116.038C288.646 115.354 288.49 114.55 288.49 113.626C288.49 112.69 288.646 111.886 288.958 111.214C289.282 110.53 289.732 110.008 290.308 109.648C290.896 109.276 291.58 109.09 292.36 109.09C293.152 109.09 293.83 109.288 294.394 109.684C294.958 110.08 295.336 110.614 295.528 111.286H295.33V105.922C295.33 105.682 295.39 105.502 295.51 105.382C295.642 105.25 295.828 105.184 296.068 105.184C296.296 105.184 296.47 105.25 296.59 105.382C296.722 105.502 296.788 105.682 296.788 105.922V117.37C296.788 117.61 296.728 117.796 296.608 117.928C296.488 118.06 296.308 118.126 296.068 118.126C295.84 118.126 295.66 118.06 295.528 117.928C295.408 117.796 295.348 117.61 295.348 117.37V115.66L295.546 115.912C295.354 116.596 294.97 117.142 294.394 117.55C293.83 117.958 293.152 118.162 292.36 118.162ZM292.666 116.992C293.206 116.992 293.68 116.86 294.088 116.596C294.496 116.332 294.808 115.948 295.024 115.444C295.252 114.94 295.366 114.334 295.366 113.626C295.366 112.534 295.12 111.7 294.628 111.124C294.148 110.548 293.494 110.26 292.666 110.26C292.114 110.26 291.634 110.392 291.226 110.656C290.83 110.908 290.518 111.286 290.29 111.79C290.074 112.282 289.966 112.894 289.966 113.626C289.966 114.706 290.212 115.54 290.704 116.128C291.196 116.704 291.85 116.992 292.666 116.992ZM307.801 118.162C306.949 118.162 306.211 117.976 305.587 117.604C304.963 117.232 304.477 116.71 304.129 116.038C303.793 115.354 303.625 114.55 303.625 113.626C303.625 112.93 303.721 112.306 303.913 111.754C304.105 111.19 304.387 110.71 304.759 110.314C305.131 109.918 305.569 109.618 306.073 109.414C306.589 109.198 307.165 109.09 307.801 109.09C308.653 109.09 309.391 109.276 310.015 109.648C310.639 110.02 311.119 110.548 311.455 111.232C311.803 111.904 311.977 112.702 311.977 113.626C311.977 114.322 311.881 114.946 311.689 115.498C311.497 116.05 311.215 116.53 310.843 116.938C310.471 117.334 310.027 117.64 309.511 117.856C309.007 118.06 308.437 118.162 307.801 118.162ZM307.801 116.992C308.341 116.992 308.815 116.86 309.223 116.596C309.631 116.332 309.943 115.948 310.159 115.444C310.387 114.94 310.501 114.334 310.501 113.626C310.501 112.534 310.255 111.7 309.763 111.124C309.283 110.548 308.629 110.26 307.801 110.26C307.249 110.26 306.769 110.392 306.361 110.656C305.965 110.908 305.653 111.286 305.425 111.79C305.209 112.282 305.101 112.894 305.101 113.626C305.101 114.706 305.347 115.54 305.839 116.128C306.331 116.704 306.985 116.992 307.801 116.992ZM317.497 118.162C316.717 118.162 316.033 117.976 315.445 117.604C314.869 117.232 314.419 116.71 314.095 116.038C313.783 115.354 313.627 114.55 313.627 113.626C313.627 112.69 313.783 111.886 314.095 111.214C314.419 110.53 314.869 110.008 315.445 109.648C316.033 109.276 316.717 109.09 317.497 109.09C318.289 109.09 318.967 109.288 319.531 109.684C320.095 110.08 320.473 110.614 320.665 111.286H320.467V105.922C320.467 105.682 320.527 105.502 320.647 105.382C320.779 105.25 320.965 105.184 321.205 105.184C321.433 105.184 321.607 105.25 321.727 105.382C321.859 105.502 321.925 105.682 321.925 105.922V117.37C321.925 117.61 321.865 117.796 321.745 117.928C321.625 118.06 321.445 118.126 321.205 118.126C320.977 118.126 320.797 118.06 320.665 117.928C320.545 117.796 320.485 117.61 320.485 117.37V115.66L320.683 115.912C320.491 116.596 320.107 117.142 319.531 117.55C318.967 117.958 318.289 118.162 317.497 118.162ZM317.803 116.992C318.343 116.992 318.817 116.86 319.225 116.596C319.633 116.332 319.945 115.948 320.161 115.444C320.389 114.94 320.503 114.334 320.503 113.626C320.503 112.534 320.257 111.7 319.765 111.124C319.285 110.548 318.631 110.26 317.803 110.26C317.251 110.26 316.771 110.392 316.363 110.656C315.967 110.908 315.655 111.286 315.427 111.79C315.211 112.282 315.103 112.894 315.103 113.626C315.103 114.706 315.349 115.54 315.841 116.128C316.333 116.704 316.987 116.992 317.803 116.992ZM328.603 118.162C327.679 118.162 326.881 117.982 326.209 117.622C325.549 117.25 325.033 116.728 324.661 116.056C324.301 115.384 324.121 114.58 324.121 113.644C324.121 112.732 324.301 111.94 324.661 111.268C325.021 110.584 325.513 110.05 326.137 109.666C326.773 109.282 327.505 109.09 328.333 109.09C328.921 109.09 329.449 109.192 329.917 109.396C330.385 109.588 330.781 109.87 331.105 110.242C331.441 110.614 331.693 111.064 331.861 111.592C332.041 112.12 332.131 112.714 332.131 113.374C332.131 113.566 332.077 113.71 331.969 113.806C331.861 113.89 331.705 113.932 331.501 113.932H325.237V112.978H331.159L330.871 113.212C330.871 112.564 330.775 112.018 330.583 111.574C330.391 111.118 330.109 110.77 329.737 110.53C329.377 110.29 328.921 110.17 328.369 110.17C327.757 110.17 327.235 110.314 326.803 110.602C326.383 110.878 326.065 111.268 325.849 111.772C325.633 112.264 325.525 112.84 325.525 113.5V113.608C325.525 114.712 325.789 115.552 326.317 116.128C326.857 116.704 327.619 116.992 328.603 116.992C329.011 116.992 329.413 116.938 329.809 116.83C330.217 116.722 330.613 116.542 330.997 116.29C331.165 116.182 331.315 116.134 331.447 116.146C331.591 116.146 331.705 116.188 331.789 116.272C331.873 116.344 331.927 116.44 331.951 116.56C331.987 116.668 331.975 116.788 331.915 116.92C331.867 117.052 331.765 117.166 331.609 117.262C331.213 117.55 330.745 117.772 330.205 117.928C329.665 118.084 329.131 118.162 328.603 118.162ZM334.979 118.126C334.739 118.126 334.553 118.06 334.421 117.928C334.301 117.796 334.241 117.61 334.241 117.37V109.864C334.241 109.624 334.301 109.444 334.421 109.324C334.541 109.192 334.715 109.126 334.943 109.126C335.171 109.126 335.345 109.192 335.465 109.324C335.597 109.444 335.663 109.624 335.663 109.864V111.322H335.483C335.675 110.614 336.041 110.068 336.581 109.684C337.121 109.3 337.787 109.096 338.579 109.072C338.759 109.06 338.903 109.102 339.011 109.198C339.119 109.282 339.179 109.432 339.191 109.648C339.203 109.852 339.155 110.014 339.047 110.134C338.939 110.254 338.771 110.326 338.543 110.35L338.255 110.386C337.439 110.458 336.809 110.722 336.365 111.178C335.933 111.622 335.717 112.234 335.717 113.014V117.37C335.717 117.61 335.651 117.796 335.519 117.928C335.399 118.06 335.219 118.126 334.979 118.126ZM346.341 118C346.077 118 345.873 117.934 345.729 117.802C345.597 117.658 345.531 117.454 345.531 117.19V106.12C345.531 105.856 345.597 105.658 345.729 105.526C345.873 105.382 346.077 105.31 346.341 105.31H353.037C353.241 105.31 353.397 105.364 353.505 105.472C353.613 105.58 353.667 105.73 353.667 105.922C353.667 106.126 353.613 106.282 353.505 106.39C353.397 106.498 353.241 106.552 353.037 106.552H346.971V110.944H352.659C352.863 110.944 353.019 110.998 353.127 111.106C353.235 111.202 353.289 111.352 353.289 111.556C353.289 111.76 353.235 111.916 353.127 112.024C353.019 112.132 352.863 112.186 352.659 112.186H346.971V116.758H353.037C353.241 116.758 353.397 116.812 353.505 116.92C353.613 117.028 353.667 117.178 353.667 117.37C353.667 117.574 353.613 117.73 353.505 117.838C353.397 117.946 353.241 118 353.037 118H346.341ZM356.259 113.806C356.079 113.806 355.929 113.752 355.809 113.644C355.689 113.524 355.629 113.38 355.629 113.212C355.629 113.032 355.689 112.888 355.809 112.78C355.929 112.66 356.079 112.6 356.259 112.6H360.309C360.477 112.6 360.621 112.66 360.741 112.78C360.861 112.888 360.921 113.032 360.921 113.212C360.921 113.38 360.861 113.524 360.741 113.644C360.621 113.752 360.477 113.806 360.309 113.806H356.259ZM364.374 118.126C364.158 118.126 363.99 118.066 363.87 117.946C363.75 117.814 363.69 117.634 363.69 117.406V105.904C363.69 105.664 363.75 105.484 363.87 105.364C363.99 105.244 364.158 105.184 364.374 105.184C364.566 105.184 364.716 105.226 364.824 105.31C364.944 105.382 365.052 105.508 365.148 105.688L370.08 114.976H369.54L374.454 105.688C374.55 105.508 374.652 105.382 374.76 105.31C374.868 105.226 375.024 105.184 375.228 105.184C375.432 105.184 375.594 105.244 375.714 105.364C375.834 105.484 375.894 105.664 375.894 105.904V117.406C375.894 117.634 375.834 117.814 375.714 117.946C375.606 118.066 375.438 118.126 375.21 118.126C374.994 118.126 374.826 118.066 374.706 117.946C374.586 117.814 374.526 117.634 374.526 117.406V107.29H374.958L370.458 115.732C370.374 115.888 370.284 116.002 370.188 116.074C370.104 116.134 369.978 116.164 369.81 116.164C369.642 116.164 369.51 116.128 369.414 116.056C369.318 115.984 369.234 115.876 369.162 115.732L364.608 107.272H365.04V117.406C365.04 117.634 364.98 117.814 364.86 117.946C364.752 118.066 364.59 118.126 364.374 118.126ZM381.608 118.162C381.008 118.162 380.468 118.048 379.988 117.82C379.52 117.58 379.148 117.256 378.872 116.848C378.596 116.44 378.458 115.984 378.458 115.48C378.458 114.832 378.62 114.322 378.944 113.95C379.28 113.578 379.826 113.314 380.582 113.158C381.35 113.002 382.394 112.924 383.714 112.924H384.524V113.878H383.732C382.76 113.878 381.992 113.926 381.428 114.022C380.876 114.106 380.486 114.256 380.258 114.472C380.042 114.688 379.934 114.994 379.934 115.39C379.934 115.882 380.102 116.284 380.438 116.596C380.786 116.908 381.254 117.064 381.842 117.064C382.322 117.064 382.742 116.95 383.102 116.722C383.474 116.494 383.762 116.182 383.966 115.786C384.182 115.39 384.29 114.934 384.29 114.418V112.366C384.29 111.622 384.14 111.088 383.84 110.764C383.54 110.428 383.048 110.26 382.364 110.26C381.944 110.26 381.524 110.314 381.104 110.422C380.684 110.53 380.24 110.704 379.772 110.944C379.604 111.028 379.46 111.058 379.34 111.034C379.22 110.998 379.124 110.932 379.052 110.836C378.98 110.74 378.938 110.632 378.926 110.512C378.914 110.38 378.938 110.254 378.998 110.134C379.07 110.014 379.178 109.918 379.322 109.846C379.85 109.582 380.372 109.39 380.888 109.27C381.404 109.15 381.896 109.09 382.364 109.09C383.12 109.09 383.744 109.216 384.236 109.468C384.728 109.708 385.094 110.08 385.334 110.584C385.574 111.076 385.694 111.712 385.694 112.492V117.37C385.694 117.61 385.634 117.796 385.514 117.928C385.406 118.06 385.244 118.126 385.028 118.126C384.8 118.126 384.626 118.06 384.506 117.928C384.386 117.796 384.326 117.61 384.326 117.37V115.966H384.488C384.392 116.422 384.206 116.812 383.93 117.136C383.666 117.46 383.336 117.712 382.94 117.892C382.544 118.072 382.1 118.162 381.608 118.162ZM389.119 118.09C388.879 118.09 388.699 118.024 388.579 117.892C388.459 117.748 388.399 117.55 388.399 117.298V109.936C388.399 109.684 388.459 109.492 388.579 109.36C388.699 109.228 388.879 109.162 389.119 109.162C389.347 109.162 389.527 109.228 389.659 109.36C389.791 109.492 389.857 109.684 389.857 109.936V117.298C389.857 117.55 389.791 117.748 389.659 117.892C389.539 118.024 389.359 118.09 389.119 118.09ZM389.119 107.146C388.819 107.146 388.585 107.068 388.417 106.912C388.249 106.744 388.165 106.522 388.165 106.246C388.165 105.958 388.249 105.742 388.417 105.598C388.585 105.442 388.819 105.364 389.119 105.364C389.431 105.364 389.665 105.442 389.821 105.598C389.989 105.742 390.073 105.958 390.073 106.246C390.073 106.522 389.989 106.744 389.821 106.912C389.665 107.068 389.431 107.146 389.119 107.146ZM395.247 118.162C394.383 118.162 393.723 117.898 393.267 117.37C392.811 116.842 392.583 116.086 392.583 115.102V105.922C392.583 105.682 392.643 105.502 392.763 105.382C392.883 105.25 393.063 105.184 393.303 105.184C393.531 105.184 393.711 105.25 393.843 105.382C393.975 105.502 394.041 105.682 394.041 105.922V114.994C394.041 115.642 394.167 116.128 394.419 116.452C394.683 116.764 395.067 116.92 395.571 116.92C395.679 116.92 395.775 116.914 395.859 116.902C395.943 116.89 396.027 116.884 396.111 116.884C396.243 116.872 396.333 116.902 396.381 116.974C396.441 117.046 396.471 117.19 396.471 117.406C396.471 117.622 396.423 117.784 396.327 117.892C396.231 118 396.075 118.072 395.859 118.108C395.763 118.12 395.661 118.132 395.553 118.144C395.445 118.156 395.343 118.162 395.247 118.162ZM402.478 118.126C402.286 118.126 402.13 118.084 402.01 118C401.902 117.904 401.836 117.784 401.812 117.64C401.8 117.484 401.836 117.31 401.92 117.118L406.87 105.85C406.978 105.61 407.104 105.442 407.248 105.346C407.404 105.238 407.572 105.184 407.752 105.184C407.932 105.184 408.094 105.238 408.238 105.346C408.394 105.442 408.52 105.61 408.616 105.85L413.584 117.118C413.68 117.31 413.716 117.484 413.692 117.64C413.68 117.796 413.62 117.916 413.512 118C413.404 118.084 413.254 118.126 413.062 118.126C412.846 118.126 412.672 118.072 412.54 117.964C412.408 117.844 412.3 117.676 412.216 117.46L410.884 114.382L411.604 114.76H403.864L404.602 114.382L403.288 117.46C403.18 117.688 403.066 117.856 402.946 117.964C402.826 118.072 402.67 118.126 402.478 118.126ZM407.734 107.038L404.836 113.86L404.404 113.518H411.064L410.668 113.86L407.77 107.038H407.734ZM418.905 118.162C418.125 118.162 417.441 117.976 416.853 117.604C416.277 117.232 415.827 116.71 415.503 116.038C415.191 115.354 415.035 114.55 415.035 113.626C415.035 112.69 415.191 111.886 415.503 111.214C415.827 110.53 416.277 110.008 416.853 109.648C417.441 109.276 418.125 109.09 418.905 109.09C419.697 109.09 420.375 109.288 420.939 109.684C421.503 110.08 421.881 110.614 422.073 111.286H421.875V105.922C421.875 105.682 421.935 105.502 422.055 105.382C422.187 105.25 422.373 105.184 422.613 105.184C422.841 105.184 423.015 105.25 423.135 105.382C423.267 105.502 423.333 105.682 423.333 105.922V117.37C423.333 117.61 423.273 117.796 423.153 117.928C423.033 118.06 422.853 118.126 422.613 118.126C422.385 118.126 422.205 118.06 422.073 117.928C421.953 117.796 421.893 117.61 421.893 117.37V115.66L422.091 115.912C421.899 116.596 421.515 117.142 420.939 117.55C420.375 117.958 419.697 118.162 418.905 118.162ZM419.211 116.992C419.751 116.992 420.225 116.86 420.633 116.596C421.041 116.332 421.353 115.948 421.569 115.444C421.797 114.94 421.911 114.334 421.911 113.626C421.911 112.534 421.665 111.7 421.173 111.124C420.693 110.548 420.039 110.26 419.211 110.26C418.659 110.26 418.179 110.392 417.771 110.656C417.375 110.908 417.063 111.286 416.835 111.79C416.619 112.282 416.511 112.894 416.511 113.626C416.511 114.706 416.757 115.54 417.249 116.128C417.741 116.704 418.395 116.992 419.211 116.992ZM426.807 118.126C426.567 118.126 426.381 118.06 426.249 117.928C426.129 117.796 426.069 117.61 426.069 117.37V109.864C426.069 109.624 426.129 109.444 426.249 109.324C426.369 109.192 426.543 109.126 426.771 109.126C426.999 109.126 427.173 109.192 427.293 109.324C427.425 109.444 427.491 109.624 427.491 109.864V111.322H427.311C427.503 110.614 427.869 110.068 428.409 109.684C428.949 109.3 429.615 109.096 430.407 109.072C430.587 109.06 430.731 109.102 430.839 109.198C430.947 109.282 431.007 109.432 431.019 109.648C431.031 109.852 430.983 110.014 430.875 110.134C430.767 110.254 430.599 110.326 430.371 110.35L430.083 110.386C429.267 110.458 428.637 110.722 428.193 111.178C427.761 111.622 427.545 112.234 427.545 113.014V117.37C427.545 117.61 427.479 117.796 427.347 117.928C427.227 118.06 427.047 118.126 426.807 118.126ZM436.357 118.162C435.433 118.162 434.635 117.982 433.963 117.622C433.303 117.25 432.787 116.728 432.415 116.056C432.055 115.384 431.875 114.58 431.875 113.644C431.875 112.732 432.055 111.94 432.415 111.268C432.775 110.584 433.267 110.05 433.891 109.666C434.527 109.282 435.259 109.09 436.087 109.09C436.675 109.09 437.203 109.192 437.671 109.396C438.139 109.588 438.535 109.87 438.859 110.242C439.195 110.614 439.447 111.064 439.615 111.592C439.795 112.12 439.885 112.714 439.885 113.374C439.885 113.566 439.831 113.71 439.723 113.806C439.615 113.89 439.459 113.932 439.255 113.932H432.991V112.978H438.913L438.625 113.212C438.625 112.564 438.529 112.018 438.337 111.574C438.145 111.118 437.863 110.77 437.491 110.53C437.131 110.29 436.675 110.17 436.123 110.17C435.511 110.17 434.989 110.314 434.557 110.602C434.137 110.878 433.819 111.268 433.603 111.772C433.387 112.264 433.279 112.84 433.279 113.5V113.608C433.279 114.712 433.543 115.552 434.071 116.128C434.611 116.704 435.373 116.992 436.357 116.992C436.765 116.992 437.167 116.938 437.563 116.83C437.971 116.722 438.367 116.542 438.751 116.29C438.919 116.182 439.069 116.134 439.201 116.146C439.345 116.146 439.459 116.188 439.543 116.272C439.627 116.344 439.681 116.44 439.705 116.56C439.741 116.668 439.729 116.788 439.669 116.92C439.621 117.052 439.519 117.166 439.363 117.262C438.967 117.55 438.499 117.772 437.959 117.928C437.419 118.084 436.885 118.162 436.357 118.162ZM444.947 118.162C444.407 118.162 443.861 118.096 443.309 117.964C442.769 117.832 442.265 117.604 441.797 117.28C441.677 117.196 441.593 117.1 441.545 116.992C441.497 116.872 441.479 116.758 441.491 116.65C441.515 116.53 441.563 116.428 441.635 116.344C441.719 116.26 441.815 116.212 441.923 116.2C442.043 116.176 442.175 116.2 442.319 116.272C442.787 116.56 443.237 116.764 443.669 116.884C444.113 116.992 444.551 117.046 444.983 117.046C445.667 117.046 446.183 116.92 446.531 116.668C446.879 116.416 447.053 116.074 447.053 115.642C447.053 115.306 446.939 115.042 446.711 114.85C446.483 114.646 446.123 114.49 445.631 114.382L443.993 114.022C443.237 113.866 442.673 113.596 442.301 113.212C441.941 112.828 441.761 112.33 441.761 111.718C441.761 111.178 441.899 110.716 442.175 110.332C442.463 109.936 442.865 109.63 443.381 109.414C443.897 109.198 444.497 109.09 445.181 109.09C445.709 109.09 446.207 109.162 446.675 109.306C447.155 109.438 447.587 109.654 447.971 109.954C448.091 110.038 448.169 110.14 448.205 110.26C448.253 110.368 448.259 110.482 448.223 110.602C448.199 110.71 448.145 110.806 448.061 110.89C447.977 110.962 447.875 111.004 447.755 111.016C447.635 111.028 447.509 110.992 447.377 110.908C447.017 110.668 446.651 110.494 446.279 110.386C445.907 110.266 445.541 110.206 445.181 110.206C444.509 110.206 443.999 110.338 443.651 110.602C443.303 110.866 443.129 111.214 443.129 111.646C443.129 111.982 443.237 112.258 443.453 112.474C443.669 112.69 444.005 112.846 444.461 112.942L446.099 113.284C446.879 113.452 447.461 113.722 447.845 114.094C448.241 114.454 448.439 114.946 448.439 115.57C448.439 116.362 448.121 116.992 447.485 117.46C446.849 117.928 446.003 118.162 444.947 118.162ZM453.613 118.162C453.073 118.162 452.527 118.096 451.975 117.964C451.435 117.832 450.931 117.604 450.463 117.28C450.343 117.196 450.259 117.1 450.211 116.992C450.163 116.872 450.145 116.758 450.157 116.65C450.181 116.53 450.229 116.428 450.301 116.344C450.385 116.26 450.481 116.212 450.589 116.2C450.709 116.176 450.841 116.2 450.985 116.272C451.453 116.56 451.903 116.764 452.335 116.884C452.779 116.992 453.217 117.046 453.649 117.046C454.333 117.046 454.849 116.92 455.197 116.668C455.545 116.416 455.719 116.074 455.719 115.642C455.719 115.306 455.605 115.042 455.377 114.85C455.149 114.646 454.789 114.49 454.297 114.382L452.659 114.022C451.903 113.866 451.339 113.596 450.967 113.212C450.607 112.828 450.427 112.33 450.427 111.718C450.427 111.178 450.565 110.716 450.841 110.332C451.129 109.936 451.531 109.63 452.047 109.414C452.563 109.198 453.163 109.09 453.847 109.09C454.375 109.09 454.873 109.162 455.341 109.306C455.821 109.438 456.253 109.654 456.637 109.954C456.757 110.038 456.835 110.14 456.871 110.26C456.919 110.368 456.925 110.482 456.889 110.602C456.865 110.71 456.811 110.806 456.727 110.89C456.643 110.962 456.541 111.004 456.421 111.016C456.301 111.028 456.175 110.992 456.043 110.908C455.683 110.668 455.317 110.494 454.945 110.386C454.573 110.266 454.207 110.206 453.847 110.206C453.175 110.206 452.665 110.338 452.317 110.602C451.969 110.866 451.795 111.214 451.795 111.646C451.795 111.982 451.903 112.258 452.119 112.474C452.335 112.69 452.671 112.846 453.127 112.942L454.765 113.284C455.545 113.452 456.127 113.722 456.511 114.094C456.907 114.454 457.105 114.946 457.105 115.57C457.105 116.362 456.787 116.992 456.151 117.46C455.515 117.928 454.669 118.162 453.613 118.162ZM463.269 118.162C462.345 118.162 461.547 117.982 460.875 117.622C460.215 117.25 459.699 116.728 459.327 116.056C458.967 115.384 458.787 114.58 458.787 113.644C458.787 112.732 458.967 111.94 459.327 111.268C459.687 110.584 460.179 110.05 460.803 109.666C461.439 109.282 462.171 109.09 462.999 109.09C463.587 109.09 464.115 109.192 464.583 109.396C465.051 109.588 465.447 109.87 465.771 110.242C466.107 110.614 466.359 111.064 466.527 111.592C466.707 112.12 466.797 112.714 466.797 113.374C466.797 113.566 466.743 113.71 466.635 113.806C466.527 113.89 466.371 113.932 466.167 113.932H459.903V112.978H465.825L465.537 113.212C465.537 112.564 465.441 112.018 465.249 111.574C465.057 111.118 464.775 110.77 464.403 110.53C464.043 110.29 463.587 110.17 463.035 110.17C462.423 110.17 461.901 110.314 461.469 110.602C461.049 110.878 460.731 111.268 460.515 111.772C460.299 112.264 460.191 112.84 460.191 113.5V113.608C460.191 114.712 460.455 115.552 460.983 116.128C461.523 116.704 462.285 116.992 463.269 116.992C463.677 116.992 464.079 116.938 464.475 116.83C464.883 116.722 465.279 116.542 465.663 116.29C465.831 116.182 465.981 116.134 466.113 116.146C466.257 116.146 466.371 116.188 466.455 116.272C466.539 116.344 466.593 116.44 466.617 116.56C466.653 116.668 466.641 116.788 466.581 116.92C466.533 117.052 466.431 117.166 466.275 117.262C465.879 117.55 465.411 117.772 464.871 117.928C464.331 118.084 463.797 118.162 463.269 118.162Z" fill="#686868"/>
</g>
</g>
<defs>
<filter id="filter0_d_723_11846" x="-10" y="-8" width="1514" height="180" filterUnits="userSpaceOnUse" color-interpolation-filters="sRGB">
<feFlood flood-opacity="0" result="BackgroundImageFix"/>
<feColorMatrix in="SourceAlpha" type="matrix" values="0 0 0 0 0 0 0 0 0 0 0 0 0 0 0 0 0 0 127 0" result="hardAlpha"/>
<feOffset dy="2"/>
<feGaussianBlur stdDeviation="5"/>
<feComposite in2="hardAlpha" operator="out"/>
<feColorMatrix type="matrix" values="0 0 0 0 0 0 0 0 0 0 0 0 0 0 0 0 0 0 0.08 0"/>
<feBlend mode="normal" in2="BackgroundImageFix" result="effect1_dropShadow_723_11846"/>
<feBlend mode="normal" in="SourceGraphic" in2="effect1_dropShadow_723_11846" result="shape"/>
</filter>
<clipPath id="clip0_723_11846">
<rect width="1494" height="940" rx="30" fill="white"/>
</clipPath>
</defs>
</svg>
