<svg width="989" height="70" viewBox="0 0 989 70" fill="none" xmlns="http://www.w3.org/2000/svg">
  <rect width="989" height="70" rx="35" fill="white"/>
  <path d="M48.168 42.5C47.816 42.5 47.544 42.412 47.352 42.236C47.176 42.044 47.088 41.772 47.088 41.42V26.66C47.088 26.308 47.176 26.044 47.352 25.868C47.544 25.676 47.816 25.58 48.168 25.58H52.8C55.536 25.58 57.648 26.3 59.136 27.74C60.624 29.18 61.368 31.276 61.368 34.028C61.368 35.404 61.176 36.62 60.792 37.676C60.424 38.716 59.872 39.596 59.136 40.316C58.4 41.036 57.504 41.58 56.448 41.948C55.392 42.316 54.176 42.5 52.8 42.5H48.168ZM49.056 40.82H52.656C53.776 40.82 54.744 40.676 55.56 40.388C56.392 40.1 57.08 39.676 57.624 39.116C58.184 38.556 58.6 37.852 58.872 37.004C59.144 36.14 59.28 35.148 59.28 34.028C59.28 31.772 58.728 30.084 57.624 28.964C56.52 27.828 54.864 27.26 52.656 27.26H49.056V40.82Z" fill="#686868"/>
  <path d="M69.8925 42.716C68.6605 42.716 67.5965 42.476 66.7005 41.996C65.8205 41.5 65.1325 40.804 64.6365 39.908C64.1565 39.012 63.9165 37.94 63.9165 36.692C63.9165 35.476 64.1565 34.42 64.6365 33.524C65.1165 32.612 65.7725 31.9 66.6045 31.388C67.4525 30.876 68.4285 30.62 69.5325 30.62C70.3165 30.62 71.0205 30.756 71.6445 31.028C72.2685 31.284 72.7965 31.66 73.2285 32.156C73.6765 32.652 74.0125 33.252 74.2365 33.956C74.4765 34.66 74.5965 35.452 74.5965 36.332C74.5965 36.588 74.5245 36.78 74.3805 36.908C74.2365 37.02 74.0285 37.076 73.7565 37.076H65.4045V35.804H73.3005L72.9165 36.116C72.9165 35.252 72.7885 34.524 72.5325 33.932C72.2765 33.324 71.9005 32.86 71.4045 32.54C70.9245 32.22 70.3165 32.06 69.5805 32.06C68.7645 32.06 68.0685 32.252 67.4925 32.636C66.9325 33.004 66.5085 33.524 66.2205 34.196C65.9325 34.852 65.7885 35.62 65.7885 36.5V36.644C65.7885 38.116 66.1405 39.236 66.8445 40.004C67.5645 40.772 68.5805 41.156 69.8925 41.156C70.4365 41.156 70.9725 41.084 71.5005 40.94C72.0445 40.796 72.5725 40.556 73.0845 40.22C73.3085 40.076 73.5085 40.012 73.6845 40.028C73.8765 40.028 74.0285 40.084 74.1405 40.196C74.2525 40.292 74.3245 40.42 74.3565 40.58C74.4045 40.724 74.3885 40.884 74.3085 41.06C74.2445 41.236 74.1085 41.388 73.9005 41.516C73.3725 41.9 72.7485 42.196 72.0285 42.404C71.3085 42.612 70.5965 42.716 69.8925 42.716Z" fill="#686868"/>
  <mask id="mask0_116174_22563" style="mask-type:alpha" maskUnits="userSpaceOnUse" x="909" y="17" width="35" height="36">
    <rect x="909" y="17.5" width="35" height="35" fill="#D9D9D9"/>
  </mask>
  <g mask="url(#mask0_116174_22563)">
    <path d="M936.562 47.1042L928.396 38.9375C927.667 39.5208 926.828 39.9826 925.88 40.3229C924.932 40.6632 923.924 40.8333 922.854 40.8333C920.205 40.8333 917.963 39.916 916.128 38.0815C914.293 36.2459 913.375 34.0035 913.375 31.3542C913.375 28.7049 914.293 26.4624 916.128 24.6269C917.963 22.7923 920.205 21.875 922.854 21.875C925.503 21.875 927.746 22.7923 929.581 24.6269C931.416 26.4624 932.333 28.7049 932.333 31.3542C932.333 32.4236 932.163 33.4323 931.823 34.3802C931.483 35.3281 931.021 36.1667 930.437 36.8958L938.641 45.099C938.908 45.3663 939.042 45.6944 939.042 46.0833C939.042 46.4722 938.896 46.8125 938.604 47.1042C938.337 47.3715 937.997 47.5052 937.583 47.5052C937.17 47.5052 936.83 47.3715 936.562 47.1042ZM922.854 37.9167C924.677 37.9167 926.227 37.2789 927.503 36.0033C928.779 34.7268 929.417 33.1771 929.417 31.3542C929.417 29.5312 928.779 27.9815 927.503 26.705C926.227 25.4294 924.677 24.7917 922.854 24.7917C921.031 24.7917 919.482 25.4294 918.205 26.705C916.929 27.9815 916.292 29.5312 916.292 31.3542C916.292 33.1771 916.929 34.7268 918.205 36.0033C919.482 37.2789 921.031 37.9167 922.854 37.9167Z" fill="#686868"/>
  </g>
</svg>
