<svg width="585" height="184" viewBox="0 0 585 184" fill="none" xmlns="http://www.w3.org/2000/svg">
<g clip-path="url(#clip0_169_121)">
<g clip-path="url(#clip1_169_121)">
<path d="M145.553 0H73.3807C66.8526 0 61.6543 6.08615 61.6543 13.5877V83.5077H145.432C151.839 83.5077 157.037 77.4215 157.037 69.92V13.5877C157.158 6.08615 151.96 0 145.553 0Z" fill="#92C83E"/>
<path d="M87.1623 48.4062C90.3004 48.4062 92.8442 45.4278 92.8442 41.7539C92.8442 38.0799 90.3004 35.1016 87.1623 35.1016C84.0243 35.1016 81.4805 38.0799 81.4805 41.7539C81.4805 45.4278 84.0243 48.4062 87.1623 48.4062Z" fill="white"/>
<path d="M109.406 48.4062C112.544 48.4062 115.088 45.4278 115.088 41.7539C115.088 38.0799 112.544 35.1016 109.406 35.1016C106.268 35.1016 103.725 38.0799 103.725 41.7539C103.725 45.4278 106.268 48.4062 109.406 48.4062Z" fill="white"/>
<path d="M131.65 48.4062C134.788 48.4062 137.332 45.4278 137.332 41.7539C137.332 38.0799 134.788 35.1016 131.65 35.1016C128.512 35.1016 125.968 38.0799 125.968 41.7539C125.968 45.4278 128.512 48.4062 131.65 48.4062Z" fill="white"/>
<path d="M11.9683 99.643C5.5611 99.643 0.362793 105.729 0.362793 113.231V170.271C0.362793 177.772 5.5611 183.858 11.9683 183.858H84.1402C90.5474 183.858 95.7457 177.772 95.7457 170.271V99.5015H11.9683V99.643Z" fill="#FBB03B"/>
<path d="M25.7497 148.474C28.8878 148.474 31.4316 145.496 31.4316 141.822C31.4316 138.148 28.8878 135.169 25.7497 135.169C22.6117 135.169 20.0679 138.148 20.0679 141.822C20.0679 145.496 22.6117 148.474 25.7497 148.474Z" fill="white"/>
<path d="M47.9939 148.474C51.1319 148.474 53.6758 145.496 53.6758 141.822C53.6758 138.148 51.1319 135.169 47.9939 135.169C44.8559 135.169 42.312 138.148 42.312 141.822C42.312 145.496 44.8559 148.474 47.9939 148.474Z" fill="white"/>
<path d="M70.2375 148.474C73.3755 148.474 75.9194 145.496 75.9194 141.822C75.9194 138.148 73.3755 135.169 70.2375 135.169C67.0995 135.169 64.5557 138.148 64.5557 141.822C64.5557 145.496 67.0995 148.474 70.2375 148.474Z" fill="white"/>
<path d="M47.9937 55.4831V83.6492H24.0573C10.7593 83.6492 0 71.0523 0 55.4831C0 39.9138 10.7593 27.3169 24.0573 27.3169C37.3553 27.3169 47.9937 40.0554 47.9937 55.4831Z" fill="#ED1E79"/>
<path d="M109.165 127.809V99.6431H133.222C146.52 99.6431 157.279 112.24 157.279 127.809C157.279 143.378 146.52 155.975 133.222 155.975C119.924 155.975 109.165 143.237 109.165 127.809Z" fill="#3FA9F5"/>
</g>
<g clip-path="url(#clip2_169_121)">
<g clip-path="url(#clip3_169_121)">
<path d="M210.372 62.3716H194.017C192.166 62.3716 190.736 62.9525 189.752 64.1142C188.768 65.2759 188.276 66.9632 188.276 69.1484V125.797C188.276 127.982 188.768 129.669 189.752 130.831C190.736 131.993 192.166 132.574 194.017 132.574H210.372C215.386 132.574 219.815 131.799 223.658 130.223C227.501 128.674 230.781 126.378 233.452 123.39C236.124 120.403 238.139 116.724 239.521 112.382C240.904 108.039 241.583 103.032 241.583 97.3896C241.583 86.1042 238.865 77.4465 233.452 71.3889C228.016 65.3866 220.331 62.3716 210.372 62.3716ZM229.024 108.233C228.18 111.33 226.892 113.875 225.181 115.894C223.47 117.914 221.338 119.435 218.761 120.486C216.207 121.509 213.184 122.035 209.693 122.035H199.055V72.9102H209.693C216.558 72.9102 221.69 74.9294 225.134 78.9955C228.555 83.0339 230.289 89.1745 230.289 97.4173C230.289 101.539 229.867 105.135 229.024 108.233Z" fill="white"/>
<path d="M277.739 66.9355C277.013 64.9992 276.122 63.6439 275.091 62.8141C274.06 61.9842 272.889 61.5693 271.6 61.5693C270.311 61.5693 269.046 61.9842 268.015 62.8141C266.984 63.6439 266.093 65.0269 265.367 66.9355L243.107 125.188C242.544 126.71 242.357 128.093 242.521 129.31C242.685 130.527 243.177 131.522 243.997 132.242C244.817 132.961 245.895 133.348 247.254 133.348C248.707 133.348 249.832 132.905 250.628 132.048C251.425 131.191 252.175 129.78 252.901 127.871L257.049 116.309H286.057L290.275 127.871C290.955 129.725 291.728 131.108 292.595 131.993C293.462 132.878 294.68 133.348 296.274 133.348C297.562 133.348 298.617 132.988 299.39 132.297C300.187 131.605 300.655 130.61 300.819 129.365C300.983 128.093 300.772 126.71 300.14 125.188L277.739 66.9355ZM271.412 76.2017H271.576L282.332 106.186H260.728L271.412 76.2017Z" fill="white"/>
<path d="M343.418 96.3379C345.902 95.2315 347.94 93.5718 349.534 91.3314C351.619 88.3994 352.65 84.8312 352.65 80.5715C352.65 76.782 351.877 73.5457 350.33 70.8073C348.784 68.0966 346.558 65.9944 343.629 64.5284C340.7 63.0624 337.162 62.3433 332.991 62.3433H312.746C310.895 62.3433 309.465 62.9241 308.481 64.0859C307.497 65.2476 307.005 66.9349 307.005 69.1201V125.769C307.005 127.954 307.497 129.641 308.481 130.803C309.465 131.964 310.895 132.545 312.746 132.545H333.928C340.278 132.545 345.246 130.83 348.807 127.428C352.369 123.998 354.173 119.185 354.173 112.934C354.173 108.149 353.025 104.276 350.705 101.289C348.878 98.9103 346.417 97.2783 343.418 96.3379ZM317.385 72.0244H331.14C334.842 72.0244 337.63 72.8819 339.458 74.5692C341.286 76.2564 342.199 78.7735 342.199 82.0928C342.199 85.412 341.286 87.9291 339.458 89.6164C337.63 91.3037 334.865 92.1612 331.14 92.1612H317.385V72.0244ZM341.004 120.264C339.2 122.034 336.388 122.892 332.569 122.892H317.385V101.787H332.569C336.388 101.787 339.2 102.644 341.004 104.387C342.809 106.102 343.699 108.757 343.699 112.353C343.699 115.949 342.809 118.522 341.004 120.264Z" fill="white"/>
<path d="M396.608 83.0884C394.921 83.0884 393.632 83.6139 392.718 84.6374C391.828 85.6608 391.359 87.2374 391.359 89.3673V111.274C391.359 115.064 390.469 118.106 388.664 120.375C386.86 122.67 384.564 123.804 381.752 123.804C379.174 123.804 377.277 122.975 376.105 121.315C374.933 119.655 374.324 117.111 374.324 113.653V89.3673C374.324 87.2374 373.855 85.6608 372.942 84.6374C372.004 83.6139 370.716 83.0884 369.029 83.0884C367.341 83.0884 366.053 83.6139 365.139 84.6374C364.248 85.6608 363.78 87.2374 363.78 89.3673V113.459C363.78 117.913 364.319 121.619 365.42 124.607C366.521 127.594 368.185 129.834 370.434 131.328C372.684 132.822 375.519 133.569 378.964 133.569C382.408 133.569 385.056 132.6 387.446 130.692C389.156 129.309 390.539 127.511 391.617 125.298V127.013C391.617 129.06 392.062 130.637 392.976 131.743C393.866 132.849 395.132 133.375 396.772 133.375C400.193 133.375 401.927 131.245 401.927 127.013V89.3673C401.927 87.2374 401.458 85.6608 400.544 84.6374C399.607 83.6139 398.318 83.0884 396.631 83.0884H396.608Z" fill="white"/>
<path d="M446.19 85.9658C443.496 83.9189 440.309 82.8678 436.653 82.8678C433.232 82.8678 430.21 83.8636 427.632 85.8552C425.781 87.2658 424.399 89.0084 423.414 91.083V67.8482C423.414 65.8014 422.946 64.2247 422.032 63.1736C421.118 62.1225 419.806 61.5693 418.119 61.5693C416.432 61.5693 415.143 62.0949 414.229 63.1736C413.339 64.2247 412.87 65.8014 412.87 67.8482V126.986C412.87 129.033 413.315 130.61 414.229 131.716C415.12 132.823 416.432 133.348 418.119 133.348C419.806 133.348 421.024 132.795 421.915 131.716C422.805 130.61 423.274 129.033 423.274 126.986V124.912C424.235 127.124 425.64 128.978 427.538 130.471C430.163 132.518 433.209 133.569 436.7 133.569C440.192 133.569 443.472 132.546 446.19 130.471C448.908 128.424 451.041 125.465 452.564 121.648C454.087 117.831 454.837 113.322 454.837 108.149C454.837 102.977 454.087 98.413 452.564 94.6512C451.041 90.8893 448.932 87.985 446.237 85.9381L446.19 85.9658ZM442.863 116.973C441.996 119.324 440.777 121.094 439.184 122.312C437.591 123.529 435.786 124.109 433.701 124.109C430.561 124.109 428.031 122.754 426.109 120.071C424.188 117.388 423.25 113.405 423.25 108.177C423.25 104.664 423.696 101.732 424.563 99.3534C425.43 97.0023 426.648 95.232 428.241 94.0703C429.811 92.9086 431.639 92.3277 433.724 92.3277C436.864 92.3277 439.395 93.6277 441.316 96.2555C443.238 98.8832 444.175 102.839 444.175 108.149C444.175 111.662 443.73 114.594 442.863 116.973Z" fill="white"/>
<path d="M496.802 85.9658C494.108 83.9189 490.921 82.8678 487.266 82.8678C483.845 82.8678 480.822 83.8636 478.244 85.8552C476.393 87.2658 475.011 89.0084 474.027 91.083V67.8482C474.027 65.8014 473.558 64.2247 472.644 63.1736C471.73 62.1225 470.418 61.5693 468.731 61.5693C467.044 61.5693 465.755 62.0949 464.841 63.1736C463.951 64.2247 463.482 65.8014 463.482 67.8482V126.986C463.482 129.033 463.928 130.61 464.841 131.716C465.732 132.823 467.044 133.348 468.731 133.348C470.418 133.348 471.637 132.795 472.527 131.716C473.418 130.61 473.886 129.033 473.886 126.986V124.912C474.847 127.124 476.253 128.978 478.151 130.471C480.775 132.518 483.821 133.569 487.313 133.569C490.804 133.569 494.084 132.546 496.802 130.471C499.521 128.424 501.653 125.465 503.176 121.648C504.699 117.831 505.449 113.322 505.449 108.149C505.449 102.977 504.699 98.413 503.176 94.6512C501.653 90.8893 499.544 87.985 496.849 85.9381L496.802 85.9658ZM493.475 116.973C492.608 119.324 491.39 121.094 489.796 122.312C488.203 123.529 486.399 124.109 484.313 124.109C481.173 124.109 478.643 122.754 476.721 120.071C474.8 117.388 473.863 113.405 473.863 108.177C473.863 104.664 474.308 101.732 475.175 99.3534C476.042 97.0023 477.26 95.232 478.854 94.0703C480.424 92.9086 482.251 92.3277 484.337 92.3277C487.477 92.3277 490.007 93.6277 491.929 96.2555C493.85 98.8832 494.787 102.839 494.787 108.149C494.787 111.662 494.342 114.594 493.475 116.973Z" fill="white"/>
<path d="M533.427 123.114C533.029 123.169 532.63 123.224 532.255 123.252C531.857 123.28 531.435 123.307 530.99 123.307C528.975 123.307 527.405 122.588 526.304 121.122C525.202 119.656 524.663 117.416 524.663 114.345V67.8482C524.663 65.8014 524.195 64.2247 523.281 63.1736C522.367 62.1225 521.055 61.5693 519.368 61.5693C517.681 61.5693 516.392 62.0949 515.478 63.1736C514.588 64.2247 514.119 65.8014 514.119 67.8482V114.954C514.119 121.067 515.291 125.686 517.657 128.839C520.024 131.993 523.539 133.569 528.202 133.569C528.811 133.569 529.444 133.542 530.053 133.459C530.662 133.403 531.271 133.32 531.834 133.265C533.122 133.071 534.06 132.491 534.622 131.578C535.184 130.637 535.466 129.365 535.466 127.705C535.466 125.769 535.325 124.497 535.044 123.861C534.763 123.224 534.224 122.975 533.45 123.114H533.427Z" fill="white"/>
<path d="M574.338 120.182C573.448 120.071 572.394 120.431 571.222 121.233C569.582 122.284 567.871 123.031 566.044 123.473C564.216 123.916 562.576 124.109 561.099 124.109C556.882 124.109 553.695 122.754 551.516 120.071C549.805 117.941 548.798 114.926 548.446 111.054H573.917C575.205 111.054 576.213 110.75 576.916 110.113C577.619 109.477 577.97 108.564 577.97 107.375C577.97 103.585 577.525 100.183 576.658 97.1683C575.791 94.1533 574.526 91.5809 572.862 89.451C571.199 87.3212 569.207 85.6892 566.864 84.5828C564.521 83.4487 561.896 82.8955 558.967 82.8955C554.984 82.8955 551.422 83.9743 548.306 86.1318C545.189 88.2893 542.729 91.2489 540.972 95.0384C539.191 98.8279 538.324 103.226 538.324 108.288C538.324 113.35 539.238 117.941 541.065 121.731C542.893 125.52 545.494 128.425 548.868 130.499C552.242 132.546 556.272 133.597 560.935 133.597C563.138 133.597 565.505 133.237 568.059 132.546C570.613 131.854 572.886 130.776 574.854 129.31C575.861 128.59 576.588 127.705 577.01 126.71C577.431 125.714 577.595 124.746 577.478 123.778C577.361 122.809 577.033 122.007 576.518 121.343C575.979 120.68 575.276 120.292 574.362 120.209L574.338 120.182ZM553.367 93.2958C555.031 91.9958 557.046 91.3596 559.389 91.3596C561.521 91.3596 563.302 91.9128 564.755 92.9915C566.184 94.098 567.285 95.6746 568.035 97.7215C568.668 99.4364 569.019 101.511 569.137 103.89H548.446C548.657 102.009 549.009 100.266 549.571 98.7726C550.438 96.4214 551.703 94.5959 553.367 93.2958Z" fill="white"/>
</g>
</g>
</g>
<defs>
<clipPath id="clip0_169_121">
<rect width="585" height="184" fill="white"/>
</clipPath>
<clipPath id="clip1_169_121">
<rect width="157.158" height="184" fill="white"/>
</clipPath>
<clipPath id="clip2_169_121">
<rect width="395.043" height="105" fill="white" transform="translate(189.957 45)"/>
</clipPath>
<clipPath id="clip3_169_121">
<rect width="396.724" height="72" fill="white" transform="translate(188.276 61.5693)"/>
</clipPath>
</defs>
</svg>
