<svg width="1920" height="1080" viewBox="0 0 1920 1080" fill="none" xmlns="http://www.w3.org/2000/svg">
<rect width="1920" height="1080" fill="url(#paint0_linear_172490_20804)"/>
<g clip-path="url(#clip0_172490_20804)">
<g clip-path="url(#clip1_172490_20804)">
<path d="M812.553 448H740.381C733.853 448 728.654 454.086 728.654 461.588V531.508H812.432C818.839 531.508 824.037 525.422 824.037 517.92V461.588C824.158 454.086 818.96 448 812.553 448Z" fill="#92C83E"/>
<path d="M754.162 496.406C757.3 496.406 759.844 493.428 759.844 489.754C759.844 486.08 757.3 483.102 754.162 483.102C751.024 483.102 748.48 486.08 748.48 489.754C748.48 493.428 751.024 496.406 754.162 496.406Z" fill="white"/>
<path d="M776.406 496.406C779.544 496.406 782.088 493.428 782.088 489.754C782.088 486.08 779.544 483.102 776.406 483.102C773.268 483.102 770.724 486.08 770.724 489.754C770.724 493.428 773.268 496.406 776.406 496.406Z" fill="white"/>
<path d="M798.65 496.406C801.788 496.406 804.332 493.428 804.332 489.754C804.332 486.08 801.788 483.102 798.65 483.102C795.512 483.102 792.968 486.08 792.968 489.754C792.968 493.428 795.512 496.406 798.65 496.406Z" fill="white"/>
<path d="M678.968 547.643C672.561 547.643 667.363 553.729 667.363 561.231V618.271C667.363 625.772 672.561 631.858 678.968 631.858H751.14C757.547 631.858 762.746 625.772 762.746 618.271V547.501H678.968V547.643Z" fill="#FBB03B"/>
<path d="M692.75 596.474C695.888 596.474 698.432 593.495 698.432 589.821C698.432 586.148 695.888 583.169 692.75 583.169C689.612 583.169 687.068 586.148 687.068 589.821C687.068 593.495 689.612 596.474 692.75 596.474Z" fill="white"/>
<path d="M714.994 596.474C718.132 596.474 720.676 593.495 720.676 589.821C720.676 586.148 718.132 583.169 714.994 583.169C711.856 583.169 709.312 586.148 709.312 589.821C709.312 593.495 711.856 596.474 714.994 596.474Z" fill="white"/>
<path d="M737.238 596.474C740.376 596.474 742.919 593.495 742.919 589.821C742.919 586.148 740.376 583.169 737.238 583.169C734.1 583.169 731.556 586.148 731.556 589.821C731.556 593.495 734.1 596.474 737.238 596.474Z" fill="white"/>
<path d="M714.994 503.483V531.649H691.057C677.759 531.649 667 519.052 667 503.483C667 487.914 677.759 475.317 691.057 475.317C704.355 475.317 714.994 488.055 714.994 503.483Z" fill="#ED1E79"/>
<path d="M776.165 575.809V547.643H800.222C813.52 547.643 824.279 560.24 824.279 575.809C824.279 591.378 813.52 603.975 800.222 603.975C786.924 603.975 776.165 591.237 776.165 575.809Z" fill="#3FA9F5"/>
</g>
<g clip-path="url(#clip2_172490_20804)">
<g clip-path="url(#clip3_172490_20804)">
<path d="M877.372 510.372H861.017C859.166 510.372 857.736 510.952 856.752 512.114C855.768 513.276 855.276 514.963 855.276 517.148V573.797C855.276 575.982 855.768 577.669 856.752 578.831C857.736 579.993 859.166 580.574 861.017 580.574H877.372C882.386 580.574 886.815 579.799 890.658 578.223C894.501 576.674 897.781 574.378 900.452 571.39C903.124 568.403 905.139 564.724 906.521 560.382C907.904 556.039 908.583 551.032 908.583 545.39C908.583 534.104 905.865 525.446 900.452 519.389C895.016 513.387 887.331 510.372 877.372 510.372ZM896.024 556.233C895.18 559.33 893.892 561.875 892.181 563.894C890.47 565.914 888.338 567.435 885.761 568.486C883.207 569.509 880.184 570.035 876.693 570.035H866.055V520.91H876.693C883.558 520.91 888.69 522.929 892.134 526.995C895.555 531.034 897.289 537.175 897.289 545.417C897.289 549.539 896.867 553.135 896.024 556.233Z" fill="white"/>
<path d="M944.739 514.935C944.012 512.999 943.122 511.644 942.091 510.814C941.06 509.984 939.888 509.569 938.6 509.569C937.311 509.569 936.046 509.984 935.015 510.814C933.984 511.644 933.093 513.027 932.367 514.935L910.107 573.188C909.544 574.71 909.357 576.093 909.521 577.31C909.685 578.527 910.177 579.522 910.997 580.242C911.817 580.961 912.895 581.348 914.254 581.348C915.707 581.348 916.831 580.905 917.628 580.048C918.425 579.191 919.175 577.78 919.901 575.871L924.048 564.309H953.057L957.275 575.871C957.954 577.725 958.728 579.108 959.595 579.993C960.462 580.878 961.68 581.348 963.273 581.348C964.562 581.348 965.617 580.988 966.39 580.297C967.186 579.605 967.655 578.61 967.819 577.365C967.983 576.093 967.772 574.71 967.14 573.188L944.739 514.935ZM938.412 524.202H938.576L949.331 554.186H927.727L938.412 524.202Z" fill="white"/>
<path d="M1010.42 544.338C1012.9 543.231 1014.94 541.572 1016.53 539.331C1018.62 536.399 1019.65 532.831 1019.65 528.571C1019.65 524.782 1018.88 521.546 1017.33 518.807C1015.78 516.097 1013.56 513.994 1010.63 512.528C1007.7 511.062 1004.16 510.343 999.991 510.343H979.745C977.894 510.343 976.465 510.924 975.481 512.086C974.497 513.248 974.005 514.935 974.005 517.12V573.769C974.005 575.954 974.497 577.641 975.481 578.803C976.465 579.964 977.894 580.545 979.745 580.545H1000.93C1007.28 580.545 1012.25 578.83 1015.81 575.428C1019.37 571.998 1021.17 567.185 1021.17 560.934C1021.17 556.149 1020.02 552.276 1017.7 549.289C1015.88 546.91 1013.42 545.278 1010.42 544.338ZM984.385 520.024H998.139C1001.84 520.024 1004.63 520.882 1006.46 522.569C1008.29 524.256 1009.2 526.774 1009.2 530.093C1009.2 533.412 1008.29 535.929 1006.46 537.616C1004.63 539.304 1001.87 540.161 998.139 540.161H984.385V520.024ZM1008 568.264C1006.2 570.034 1003.39 570.892 999.569 570.892H984.385V549.787H999.569C1003.39 549.787 1006.2 550.644 1008 552.387C1009.81 554.102 1010.7 556.757 1010.7 560.353C1010.7 563.949 1009.81 566.522 1008 568.264Z" fill="white"/>
<path d="M1063.61 531.089C1061.92 531.089 1060.63 531.614 1059.72 532.638C1058.83 533.661 1058.36 535.238 1058.36 537.368V559.275C1058.36 563.064 1057.47 566.107 1055.66 568.375C1053.86 570.671 1051.56 571.805 1048.75 571.805C1046.17 571.805 1044.28 570.975 1043.11 569.315C1041.93 567.656 1041.32 565.111 1041.32 561.653V537.368C1041.32 535.238 1040.86 533.661 1039.94 532.638C1039 531.614 1037.72 531.089 1036.03 531.089C1034.34 531.089 1033.05 531.614 1032.14 532.638C1031.25 533.661 1030.78 535.238 1030.78 537.368V561.46C1030.78 565.913 1031.32 569.62 1032.42 572.607C1033.52 575.594 1035.19 577.835 1037.43 579.328C1039.68 580.822 1042.52 581.569 1045.96 581.569C1049.41 581.569 1052.06 580.601 1054.45 578.692C1056.16 577.309 1057.54 575.511 1058.62 573.298V575.013C1058.62 577.06 1059.06 578.637 1059.98 579.743C1060.87 580.85 1062.13 581.375 1063.77 581.375C1067.19 581.375 1068.93 579.245 1068.93 575.013V537.368C1068.93 535.238 1068.46 533.661 1067.54 532.638C1066.61 531.614 1065.32 531.089 1063.63 531.089H1063.61Z" fill="white"/>
<path d="M1113.19 533.966C1110.5 531.919 1107.31 530.868 1103.65 530.868C1100.23 530.868 1097.21 531.864 1094.63 533.855C1092.78 535.266 1091.4 537.008 1090.41 539.083V515.848C1090.41 513.801 1089.95 512.225 1089.03 511.174C1088.12 510.123 1086.81 509.569 1085.12 509.569C1083.43 509.569 1082.14 510.095 1081.23 511.174C1080.34 512.225 1079.87 513.801 1079.87 515.848V574.986C1079.87 577.033 1080.32 578.61 1081.23 579.716C1082.12 580.823 1083.43 581.348 1085.12 581.348C1086.81 581.348 1088.02 580.795 1088.91 579.716C1089.81 578.61 1090.27 577.033 1090.27 574.986V572.912C1091.23 575.124 1092.64 576.978 1094.54 578.471C1097.16 580.518 1100.21 581.569 1103.7 581.569C1107.19 581.569 1110.47 580.546 1113.19 578.471C1115.91 576.424 1118.04 573.465 1119.56 569.648C1121.09 565.831 1121.84 561.322 1121.84 556.149C1121.84 550.977 1121.09 546.413 1119.56 542.651C1118.04 538.889 1115.93 535.985 1113.24 533.938L1113.19 533.966ZM1109.86 564.973C1109 567.324 1107.78 569.094 1106.18 570.312C1104.59 571.529 1102.79 572.109 1100.7 572.109C1097.56 572.109 1095.03 570.754 1093.11 568.071C1091.19 565.388 1090.25 561.405 1090.25 556.177C1090.25 552.664 1090.7 549.732 1091.56 547.353C1092.43 545.002 1093.65 543.232 1095.24 542.07C1096.81 540.909 1098.64 540.328 1100.72 540.328C1103.86 540.328 1106.39 541.628 1108.32 544.255C1110.24 546.883 1111.18 550.839 1111.18 556.149C1111.18 559.662 1110.73 562.594 1109.86 564.973Z" fill="white"/>
<path d="M1163.8 533.966C1161.11 531.919 1157.92 530.868 1154.27 530.868C1150.84 530.868 1147.82 531.864 1145.24 533.855C1143.39 535.266 1142.01 537.008 1141.03 539.083V515.848C1141.03 513.801 1140.56 512.225 1139.64 511.174C1138.73 510.123 1137.42 509.569 1135.73 509.569C1134.04 509.569 1132.76 510.095 1131.84 511.174C1130.95 512.225 1130.48 513.801 1130.48 515.848V574.986C1130.48 577.033 1130.93 578.61 1131.84 579.716C1132.73 580.823 1134.04 581.348 1135.73 581.348C1137.42 581.348 1138.64 580.795 1139.53 579.716C1140.42 578.61 1140.89 577.033 1140.89 574.986V572.912C1141.85 575.124 1143.25 576.978 1145.15 578.471C1147.78 580.518 1150.82 581.569 1154.31 581.569C1157.8 581.569 1161.08 580.546 1163.8 578.471C1166.52 576.424 1168.65 573.465 1170.18 569.648C1171.7 565.831 1172.45 561.322 1172.45 556.149C1172.45 550.977 1171.7 546.413 1170.18 542.651C1168.65 538.889 1166.54 535.985 1163.85 533.938L1163.8 533.966ZM1160.48 564.973C1159.61 567.324 1158.39 569.094 1156.8 570.312C1155.2 571.529 1153.4 572.109 1151.31 572.109C1148.17 572.109 1145.64 570.754 1143.72 568.071C1141.8 565.388 1140.86 561.405 1140.86 556.177C1140.86 552.664 1141.31 549.732 1142.17 547.353C1143.04 545.002 1144.26 543.232 1145.85 542.07C1147.42 540.909 1149.25 540.328 1151.34 540.328C1154.48 540.328 1157.01 541.628 1158.93 544.255C1160.85 546.883 1161.79 550.839 1161.79 556.149C1161.79 559.662 1161.34 562.594 1160.48 564.973Z" fill="white"/>
<path d="M1200.43 571.114C1200.03 571.169 1199.63 571.224 1199.26 571.252C1198.86 571.28 1198.44 571.307 1197.99 571.307C1195.97 571.307 1194.4 570.588 1193.3 569.122C1192.2 567.656 1191.66 565.416 1191.66 562.345V515.848C1191.66 513.801 1191.19 512.225 1190.28 511.174C1189.37 510.123 1188.05 509.569 1186.37 509.569C1184.68 509.569 1183.39 510.095 1182.48 511.174C1181.59 512.225 1181.12 513.801 1181.12 515.848V562.954C1181.12 569.067 1182.29 573.686 1184.66 576.839C1187.02 579.993 1190.54 581.569 1195.2 581.569C1195.81 581.569 1196.44 581.542 1197.05 581.459C1197.66 581.403 1198.27 581.32 1198.83 581.265C1200.12 581.071 1201.06 580.491 1201.62 579.578C1202.18 578.637 1202.47 577.365 1202.47 575.705C1202.47 573.769 1202.32 572.497 1202.04 571.861C1201.76 571.224 1201.22 570.975 1200.45 571.114H1200.43Z" fill="white"/>
<path d="M1241.34 568.182C1240.45 568.071 1239.39 568.431 1238.22 569.233C1236.58 570.284 1234.87 571.031 1233.04 571.473C1231.22 571.916 1229.58 572.109 1228.1 572.109C1223.88 572.109 1220.69 570.754 1218.52 568.071C1216.81 565.941 1215.8 562.926 1215.45 559.054H1240.92C1242.21 559.054 1243.21 558.75 1243.92 558.113C1244.62 557.477 1244.97 556.564 1244.97 555.375C1244.97 551.585 1244.52 548.183 1243.66 545.168C1242.79 542.153 1241.53 539.581 1239.86 537.451C1238.2 535.321 1236.21 533.689 1233.86 532.583C1231.52 531.449 1228.9 530.896 1225.97 530.896C1221.98 530.896 1218.42 531.974 1215.31 534.132C1212.19 536.289 1209.73 539.249 1207.97 543.038C1206.19 546.828 1205.32 551.226 1205.32 556.288C1205.32 561.35 1206.24 565.941 1208.07 569.731C1209.89 573.52 1212.49 576.425 1215.87 578.499C1219.24 580.546 1223.27 581.597 1227.94 581.597C1230.14 581.597 1232.5 581.237 1235.06 580.546C1237.61 579.854 1239.89 578.776 1241.85 577.31C1242.86 576.59 1243.59 575.705 1244.01 574.71C1244.43 573.714 1244.6 572.746 1244.48 571.778C1244.36 570.809 1244.03 570.007 1243.52 569.343C1242.98 568.68 1242.28 568.292 1241.36 568.209L1241.34 568.182ZM1220.37 541.296C1222.03 539.996 1224.05 539.36 1226.39 539.36C1228.52 539.36 1230.3 539.913 1231.75 540.992C1233.18 542.098 1234.29 543.675 1235.04 545.721C1235.67 547.436 1236.02 549.511 1236.14 551.89H1215.45C1215.66 550.009 1216.01 548.266 1216.57 546.773C1217.44 544.421 1218.7 542.596 1220.37 541.296Z" fill="white"/>
</g>
</g>
</g>
<defs>
<linearGradient id="paint0_linear_172490_20804" x1="944.5" y1="1080" x2="960" y2="-3.15843e-06" gradientUnits="userSpaceOnUse">
<stop stop-color="#313AE6"/>
<stop offset="1" stop-color="#797EF3"/>
</linearGradient>
<clipPath id="clip0_172490_20804">
<rect width="585" height="184" fill="white" transform="translate(667 448)"/>
</clipPath>
<clipPath id="clip1_172490_20804">
<rect width="157.158" height="184" fill="white" transform="translate(667 448)"/>
</clipPath>
<clipPath id="clip2_172490_20804">
<rect width="395.043" height="105" fill="white" transform="translate(856.957 493)"/>
</clipPath>
<clipPath id="clip3_172490_20804">
<rect width="396.724" height="72" fill="white" transform="translate(855.276 509.569)"/>
</clipPath>
</defs>
</svg>
