<svg width="1920" height="1080" viewBox="0 0 1920 1080" fill="none" xmlns="http://www.w3.org/2000/svg">
<rect width="1920" height="1080" fill="url(#paint0_linear_172490_20804)"/>
<g clip-path="url(#clip0_172490_20804)">
<g clip-path="url(#clip1_172490_20804)">
<path d="M993.488 448H907.622C899.856 448 893.671 454.086 893.671 461.588V531.508H993.345C1000.97 531.508 1007.15 525.422 1007.15 517.92V461.588C1007.3 454.086 1001.11 448 993.488 448Z" fill="#92C83E"/>
<path d="M924.019 496.406C927.752 496.406 930.779 493.428 930.779 489.754C930.779 486.08 927.752 483.102 924.019 483.102C920.285 483.102 917.259 486.08 917.259 489.754C917.259 493.428 920.285 496.406 924.019 496.406Z" fill="white"/>
<path d="M950.483 496.406C954.217 496.406 957.243 493.428 957.243 489.754C957.243 486.08 954.217 483.102 950.483 483.102C946.75 483.102 943.723 486.08 943.723 489.754C943.723 493.428 946.75 496.406 950.483 496.406Z" fill="white"/>
<path d="M976.948 496.406C980.681 496.406 983.708 493.428 983.708 489.754C983.708 486.08 980.681 483.102 976.948 483.102C973.215 483.102 970.188 486.08 970.188 489.754C970.188 493.428 973.215 496.406 976.948 496.406Z" fill="white"/>
<path d="M834.557 547.643C826.934 547.643 820.749 553.729 820.749 561.231V618.271C820.749 625.772 826.934 631.858 834.557 631.858H920.423C928.046 631.858 934.231 625.772 934.231 618.271V547.501H834.557V547.643Z" fill="#FBB03B"/>
<path d="M850.954 596.474C854.687 596.474 857.714 593.495 857.714 589.821C857.714 586.148 854.687 583.169 850.954 583.169C847.22 583.169 844.194 586.148 844.194 589.821C844.194 593.495 847.22 596.474 850.954 596.474Z" fill="white"/>
<path d="M877.418 596.474C881.152 596.474 884.178 593.495 884.178 589.821C884.178 586.148 881.152 583.169 877.418 583.169C873.685 583.169 870.658 586.148 870.658 589.821C870.658 593.495 873.685 596.474 877.418 596.474Z" fill="white"/>
<path d="M903.883 596.474C907.616 596.474 910.643 593.495 910.643 589.821C910.643 586.148 907.616 583.169 903.883 583.169C900.149 583.169 897.123 586.148 897.123 589.821C897.123 593.495 900.149 596.474 903.883 596.474Z" fill="white"/>
<path d="M877.418 503.483V531.649H848.94C833.119 531.649 820.318 519.052 820.318 503.483C820.318 487.914 833.119 475.317 848.94 475.317C864.761 475.317 877.418 488.055 877.418 503.483Z" fill="#ED1E79"/>
<path d="M950.196 575.809V547.643H978.818C994.639 547.643 1007.44 560.24 1007.44 575.809C1007.44 591.378 994.639 603.975 978.818 603.975C962.996 603.975 950.196 591.237 950.196 575.809Z" fill="#3FA9F5"/>
</g>
</g>
<defs>
<linearGradient id="paint0_linear_172490_20804" x1="944.5" y1="1080" x2="960" y2="-3.15843e-06" gradientUnits="userSpaceOnUse">
<stop stop-color="#313AE6"/>
<stop offset="1" stop-color="#797EF3"/>
</linearGradient>
<clipPath id="clip0_172490_20804">
<rect width="696" height="184" fill="white" transform="translate(612 448)"/>
</clipPath>
<clipPath id="clip1_172490_20804">
<rect width="186.978" height="184" fill="white" transform="translate(820.318 448)"/>
</clipPath>
</defs>
</svg>
